<svg xmlns="http://www.w3.org/2000/svg" width="640" height="360">
<rect x="0" y="0" width="100%" height="100%" fill="#ffffff"/>
<text x="320.0" y="24" text-anchor="middle" font-size="16" font-family="sans-serif">Trial-history regression (reward)</text>
<text x="35.0" y="180.0" transform="rotate(-90 35.0,180.0)" text-anchor="middle" font-size="12" font-family="sans-serif">Coefficient</text>
<line x1="70" y1="310" x2="620" y2="310" stroke="#000"/>
<line x1="70" y1="40" x2="70" y2="310" stroke="#000"/>
<line x1="70" y1="310.00" x2="620" y2="310.00" stroke="#e0e0e0" stroke-dasharray="4 4"/>
<text x="60" y="314.00" text-anchor="end" font-size="11" font-family="sans-serif">-0.454</text>
<line x1="70" y1="242.50" x2="620" y2="242.50" stroke="#e0e0e0" stroke-dasharray="4 4"/>
<text x="60" y="246.50" text-anchor="end" font-size="11" font-family="sans-serif">-0.197</text>
<line x1="70" y1="175.00" x2="620" y2="175.00" stroke="#e0e0e0" stroke-dasharray="4 4"/>
<text x="60" y="179.00" text-anchor="end" font-size="11" font-family="sans-serif">0.060</text>
<line x1="70" y1="107.50" x2="620" y2="107.50" stroke="#e0e0e0" stroke-dasharray="4 4"/>
<text x="60" y="111.50" text-anchor="end" font-size="11" font-family="sans-serif">0.318</text>
<line x1="70" y1="40.00" x2="620" y2="40.00" stroke="#e0e0e0" stroke-dasharray="4 4"/>
<text x="60" y="44.00" text-anchor="end" font-size="11" font-family="sans-serif">0.575</text>
<polyline fill="none" stroke="#4C78A8" stroke-width="2" points="70.00,209.97 207.50,216.58 345.00,174.39 482.50,172.63 620.00,134.77"/>
<circle cx="70.00" cy="209.97" r="3" fill="#4C78A8"/>
<circle cx="207.50" cy="216.58" r="3" fill="#4C78A8"/>
<circle cx="345.00" cy="174.39" r="3" fill="#4C78A8"/>
<circle cx="482.50" cy="172.63" r="3" fill="#4C78A8"/>
<circle cx="620.00" cy="134.77" r="3" fill="#4C78A8"/>
<polyline fill="none" stroke="#F58518" stroke-width="2" points="70.00,250.06 207.50,260.53 345.00,280.28 482.50,198.76 620.00,176.02"/>
<circle cx="70.00" cy="250.06" r="3" fill="#F58518"/>
<circle cx="207.50" cy="260.53" r="3" fill="#F58518"/>
<circle cx="345.00" cy="280.28" r="3" fill="#F58518"/>
<circle cx="482.50" cy="198.76" r="3" fill="#F58518"/>
<circle cx="620.00" cy="176.02" r="3" fill="#F58518"/>
<polyline fill="none" stroke="#54A24B" stroke-width="2" points="70.00,173.81 207.50,214.11 345.00,132.33 482.50,120.06 620.00,249.47"/>
<circle cx="70.00" cy="173.81" r="3" fill="#54A24B"/>
<circle cx="207.50" cy="214.11" r="3" fill="#54A24B"/>
<circle cx="345.00" cy="132.33" r="3" fill="#54A24B"/>
<circle cx="482.50" cy="120.06" r="3" fill="#54A24B"/>
<circle cx="620.00" cy="249.47" r="3" fill="#54A24B"/>
<polyline fill="none" stroke="#E45756" stroke-width="2" points="70.00,226.57 207.50,233.16 345.00,234.04 482.50,225.46 620.00,218.05"/>
<circle cx="70.00" cy="226.57" r="3" fill="#E45756"/>
<circle cx="207.50" cy="233.16" r="3" fill="#E45756"/>
<circle cx="345.00" cy="234.04" r="3" fill="#E45756"/>
<circle cx="482.50" cy="225.46" r="3" fill="#E45756"/>
<circle cx="620.00" cy="218.05" r="3" fill="#E45756"/>
<polyline fill="none" stroke="#4C78A8" stroke-width="2" points="70.00,222.14 207.50,122.61 345.00,51.87 482.50,40.00 620.00,61.81"/>
<circle cx="70.00" cy="222.14" r="3" fill="#4C78A8"/>
<circle cx="207.50" cy="122.61" r="3" fill="#4C78A8"/>
<circle cx="345.00" cy="51.87" r="3" fill="#4C78A8"/>
<circle cx="482.50" cy="40.00" r="3" fill="#4C78A8"/>
<circle cx="620.00" cy="61.81" r="3" fill="#4C78A8"/>
<polyline fill="none" stroke="#F58518" stroke-width="2" points="70.00,223.71 207.50,229.74 345.00,230.83 482.50,228.61 620.00,222.50"/>
<circle cx="70.00" cy="223.71" r="3" fill="#F58518"/>
<circle cx="207.50" cy="229.74" r="3" fill="#F58518"/>
<circle cx="345.00" cy="230.83" r="3" fill="#F58518"/>
<circle cx="482.50" cy="228.61" r="3" fill="#F58518"/>
<circle cx="620.00" cy="222.50" r="3" fill="#F58518"/>
<polyline fill="none" stroke="#54A24B" stroke-width="2" points="70.00,310.00 207.50,184.12 345.00,271.80 482.50,270.53 620.00,206.28"/>
<circle cx="70.00" cy="310.00" r="3" fill="#54A24B"/>
<circle cx="207.50" cy="184.12" r="3" fill="#54A24B"/>
<circle cx="345.00" cy="271.80" r="3" fill="#54A24B"/>
<circle cx="482.50" cy="270.53" r="3" fill="#54A24B"/>
<circle cx="620.00" cy="206.28" r="3" fill="#54A24B"/>
<rect x="80" y="50" width="12" height="12" fill="#4C78A8"/>
<text x="98" y="60" font-size="11" font-family="sans-serif">Observed</text>
<rect x="80" y="68" width="12" height="12" fill="#F58518"/>
<text x="98" y="78" font-size="11" font-family="sans-serif">Hmm Moa – Model blend</text>
<rect x="80" y="86" width="12" height="12" fill="#54A24B"/>
<text x="98" y="96" font-size="11" font-family="sans-serif">Hmm Moa – Model-free value</text>
<rect x="80" y="104" width="12" height="12" fill="#E45756"/>
<text x="98" y="114" font-size="11" font-family="sans-serif">Hmm Moa – Model-free choice</text>
<rect x="80" y="122" width="12" height="12" fill="#4C78A8"/>
<text x="98" y="132" font-size="11" font-family="sans-serif">Hmm Moa – Model-based</text>
<rect x="80" y="140" width="12" height="12" fill="#F58518"/>
<text x="98" y="150" font-size="11" font-family="sans-serif">Hmm Moa – Bias</text>
<rect x="80" y="158" width="12" height="12" fill="#54A24B"/>
<text x="98" y="168" font-size="11" font-family="sans-serif">Hmm Tinyrnn – Model blend</text>
<text x="70.00" y="328" text-anchor="middle" font-size="11" font-family="sans-serif">lag 1</text>
<text x="207.50" y="328" text-anchor="middle" font-size="11" font-family="sans-serif">lag 2</text>
<text x="345.00" y="328" text-anchor="middle" font-size="11" font-family="sans-serif">lag 3</text>
<text x="482.50" y="328" text-anchor="middle" font-size="11" font-family="sans-serif">lag 4</text>
<text x="620.00" y="328" text-anchor="middle" font-size="11" font-family="sans-serif">lag 5</text>
</svg>