<svg xmlns="http://www.w3.org/2000/svg" width="720" height="360">
<rect x="0" y="0" width="100%" height="100%" fill="#ffffff"/>
<text x="360.0" y="24" text-anchor="middle" font-size="16" font-family="sans-serif">Trial-history regression (choice × reward)</text>
<text x="35.0" y="180.0" transform="rotate(-90 35.0,180.0)" text-anchor="middle" font-size="12" font-family="sans-serif">Coefficient</text>
<line x1="70" y1="290" x2="640" y2="290" stroke="#000"/>
<line x1="70" y1="50" x2="70" y2="290" stroke="#000"/>
<line x1="70" y1="290.00" x2="640" y2="290.00" stroke="#e0e0e0" stroke-dasharray="4 4"/>
<text x="60" y="294.00" text-anchor="end" font-size="11" font-family="sans-serif">-7.09</text>
<line x1="70" y1="230.00" x2="640" y2="230.00" stroke="#e0e0e0" stroke-dasharray="4 4"/>
<text x="60" y="234.00" text-anchor="end" font-size="11" font-family="sans-serif">-3.56</text>
<line x1="70" y1="170.00" x2="640" y2="170.00" stroke="#e0e0e0" stroke-dasharray="4 4"/>
<text x="60" y="174.00" text-anchor="end" font-size="11" font-family="sans-serif">-0.044</text>
<line x1="70" y1="110.00" x2="640" y2="110.00" stroke="#e0e0e0" stroke-dasharray="4 4"/>
<text x="60" y="114.00" text-anchor="end" font-size="11" font-family="sans-serif">3.48</text>
<line x1="70" y1="50.00" x2="640" y2="50.00" stroke="#e0e0e0" stroke-dasharray="4 4"/>
<text x="60" y="54.00" text-anchor="end" font-size="11" font-family="sans-serif">7.00</text>
<polyline fill="none" stroke="#4C78A8" stroke-width="2" points="70.00,170.55 212.50,165.58 355.00,169.32 497.50,171.46 640.00,175.84"/>
<circle cx="70.00" cy="170.55" r="3" fill="#4C78A8"/>
<circle cx="212.50" cy="165.58" r="3" fill="#4C78A8"/>
<circle cx="355.00" cy="169.32" r="3" fill="#4C78A8"/>
<circle cx="497.50" cy="171.46" r="3" fill="#4C78A8"/>
<circle cx="640.00" cy="175.84" r="3" fill="#4C78A8"/>
<polyline fill="none" stroke="#F58518" stroke-width="2" points="70.00,169.25 212.50,169.25 355.00,169.25 497.50,169.25 640.00,169.25"/>
<circle cx="70.00" cy="169.25" r="3" fill="#F58518"/>
<circle cx="212.50" cy="169.25" r="3" fill="#F58518"/>
<circle cx="355.00" cy="169.25" r="3" fill="#F58518"/>
<circle cx="497.50" cy="169.25" r="3" fill="#F58518"/>
<circle cx="640.00" cy="169.25" r="3" fill="#F58518"/>
<polyline fill="none" stroke="#54A24B" stroke-width="2" points="70.00,173.23 212.50,173.24 355.00,171.10 497.50,166.77 640.00,170.38"/>
<circle cx="70.00" cy="173.23" r="3" fill="#54A24B"/>
<circle cx="212.50" cy="173.24" r="3" fill="#54A24B"/>
<circle cx="355.00" cy="171.10" r="3" fill="#54A24B"/>
<circle cx="497.50" cy="166.77" r="3" fill="#54A24B"/>
<circle cx="640.00" cy="170.38" r="3" fill="#54A24B"/>
<polyline fill="none" stroke="#E45756" stroke-width="2" points="70.00,170.16 212.50,169.46 355.00,169.57 497.50,170.03 640.00,175.95"/>
<circle cx="70.00" cy="170.16" r="3" fill="#E45756"/>
<circle cx="212.50" cy="169.46" r="3" fill="#E45756"/>
<circle cx="355.00" cy="169.57" r="3" fill="#E45756"/>
<circle cx="497.50" cy="170.03" r="3" fill="#E45756"/>
<circle cx="640.00" cy="175.95" r="3" fill="#E45756"/>
<polyline fill="none" stroke="#72B7B2" stroke-width="2" points="70.00,169.25 212.50,169.25 355.00,169.25 497.50,169.25 640.00,169.25"/>
<circle cx="70.00" cy="169.25" r="3" fill="#72B7B2"/>
<circle cx="212.50" cy="169.25" r="3" fill="#72B7B2"/>
<circle cx="355.00" cy="169.25" r="3" fill="#72B7B2"/>
<circle cx="497.50" cy="169.25" r="3" fill="#72B7B2"/>
<circle cx="640.00" cy="169.25" r="3" fill="#72B7B2"/>
<polyline fill="none" stroke="#FF9DA6" stroke-width="2" points="70.00,290.00 212.50,72.83 355.00,52.64 497.50,50.00 640.00,64.06"/>
<circle cx="70.00" cy="290.00" r="3" fill="#FF9DA6"/>
<circle cx="212.50" cy="72.83" r="3" fill="#FF9DA6"/>
<circle cx="355.00" cy="52.64" r="3" fill="#FF9DA6"/>
<circle cx="497.50" cy="50.00" r="3" fill="#FF9DA6"/>
<circle cx="640.00" cy="64.06" r="3" fill="#FF9DA6"/>
<polyline fill="none" stroke="#9C755F" stroke-width="2" points="70.00,169.25 212.50,169.25 355.00,169.25 497.50,169.25 640.00,169.25"/>
<circle cx="70.00" cy="169.25" r="3" fill="#9C755F"/>
<circle cx="212.50" cy="169.25" r="3" fill="#9C755F"/>
<circle cx="355.00" cy="169.25" r="3" fill="#9C755F"/>
<circle cx="497.50" cy="169.25" r="3" fill="#9C755F"/>
<circle cx="640.00" cy="169.25" r="3" fill="#9C755F"/>
<rect x="80" y="60" width="12" height="12" fill="#4C78A8"/>
<text x="98" y="70" font-size="11" font-family="sans-serif">Observed</text>
<rect x="80" y="78" width="12" height="12" fill="#F58518"/>
<text x="98" y="88" font-size="11" font-family="sans-serif">SeriesHMM-TinyMoA</text>
<rect x="80" y="96" width="12" height="12" fill="#54A24B"/>
<text x="98" y="106" font-size="11" font-family="sans-serif">SeriesHMM-TinyRNN</text>
<rect x="80" y="114" width="12" height="12" fill="#E45756"/>
<text x="98" y="124" font-size="11" font-family="sans-serif">Agent: MF Reward</text>
<rect x="80" y="132" width="12" height="12" fill="#72B7B2"/>
<text x="98" y="142" font-size="11" font-family="sans-serif">Agent: MF Choice</text>
<rect x="80" y="150" width="12" height="12" fill="#FF9DA6"/>
<text x="98" y="160" font-size="11" font-family="sans-serif">Agent: Model-based</text>
<rect x="80" y="168" width="12" height="12" fill="#9C755F"/>
<text x="98" y="178" font-size="11" font-family="sans-serif">Agent: Bias</text>
<text x="70.00" y="308" text-anchor="middle" font-size="11" font-family="sans-serif">lag 1</text>
<text x="212.50" y="308" text-anchor="middle" font-size="11" font-family="sans-serif">lag 2</text>
<text x="355.00" y="308" text-anchor="middle" font-size="11" font-family="sans-serif">lag 3</text>
<text x="497.50" y="308" text-anchor="middle" font-size="11" font-family="sans-serif">lag 4</text>
<text x="640.00" y="308" text-anchor="middle" font-size="11" font-family="sans-serif">lag 5</text>
</svg>