<svg xmlns="http://www.w3.org/2000/svg" width="640" height="420">
<rect x="0" y="0" width="640" height="420" fill="#ffffff"/>
<text x="320.0" y="24" text-anchor="middle" font-size="16" font-family="sans-serif">SeriesHMM-TinyRNN state posterior</text>
<text x="30.0" y="170.0" transform="rotate(-90 30.0,170.0)" text-anchor="middle" font-size="12" font-family="sans-serif">Mixture weight</text>
<line x1="60" y1="300" x2="610" y2="300" stroke="#000"/>
<line x1="60" y1="40" x2="60" y2="300" stroke="#000"/>
<line x1="60" y1="300.00" x2="610" y2="300.00" stroke="#e0e0e0" stroke-dasharray="4 4"/>
<text x="50" y="304.00" text-anchor="end" font-size="11" font-family="sans-serif">0</text>
<line x1="60" y1="300.00" x2="610" y2="300.00" stroke="#e0e0e0" stroke-dasharray="4 4"/>
<text x="50" y="304.00" text-anchor="end" font-size="11" font-family="sans-serif">0</text>
<line x1="60" y1="300.00" x2="610" y2="300.00" stroke="#e0e0e0" stroke-dasharray="4 4"/>
<text x="50" y="304.00" text-anchor="end" font-size="11" font-family="sans-serif">0</text>
<line x1="60" y1="40.00" x2="610" y2="40.00" stroke="#e0e0e0" stroke-dasharray="4 4"/>
<text x="50" y="44.00" text-anchor="end" font-size="11" font-family="sans-serif">1</text>
<line x1="60" y1="40.00" x2="610" y2="40.00" stroke="#e0e0e0" stroke-dasharray="4 4"/>
<text x="50" y="44.00" text-anchor="end" font-size="11" font-family="sans-serif">1</text>
<text x="60.00" y="378" text-anchor="middle" font-size="11" font-family="sans-serif">1</text>
<text x="170.55" y="378" text-anchor="middle" font-size="11" font-family="sans-serif">41</text>
<text x="281.11" y="378" text-anchor="middle" font-size="11" font-family="sans-serif">81</text>
<text x="388.89" y="378" text-anchor="middle" font-size="11" font-family="sans-serif">120</text>
<text x="499.45" y="378" text-anchor="middle" font-size="11" font-family="sans-serif">160</text>
<text x="610.00" y="378" text-anchor="middle" font-size="11" font-family="sans-serif">200</text>
<polyline fill="none" stroke="#4C78A8" stroke-width="2" points="60.00,71.04 62.76,62.64 65.53,57.73 68.29,55.04 71.06,54.20 73.82,51.35 76.58,50.35 79.35,50.99 82.11,49.56 84.87,46.18 87.64,44.33 90.40,43.49 93.17,43.37 95.93,43.88 98.69,45.29 101.46,45.04 104.22,45.75 106.98,47.69 109.75,48.02 112.51,49.71 115.28,49.73 118.04,47.86 120.80,47.30 123.57,48.01 126.33,46.92 129.10,44.11 131.86,42.50 134.62,41.66 137.39,41.31 140.15,41.15 142.91,41.22 145.68,41.49 148.44,42.06 151.21,43.31 153.97,45.63 156.73,46.44 159.50,45.87 162.26,43.85 165.03,42.83 167.79,42.38 170.55,42.44 173.32,43.08 176.08,44.59 178.84,44.56 181.61,42.91 184.37,42.02 187.14,41.58 189.90,41.50 192.66,41.66 195.43,42.23 198.19,43.35 200.95,43.29 203.72,42.05 206.48,41.36 209.25,40.98 212.01,40.79 214.77,40.70 217.54,40.68 220.30,40.75 223.07,40.87 225.83,41.10 228.59,41.56 231.36,42.47 234.12,42.08 236.88,42.13 239.65,42.61 242.41,41.93 245.18,41.68 247.94,41.71 250.70,42.06 253.47,41.37 256.23,40.98 258.99,40.76 261.76,40.62 264.52,40.60 267.29,40.61 270.05,40.65 272.81,40.69 275.58,40.76 278.34,40.94 281.11,41.34 283.87,42.24 286.63,43.83 289.40,43.92 292.16,44.77 294.92,44.07 297.69,44.11 300.45,42.60 303.22,41.77 305.98,41.31 308.74,41.05 311.51,40.93 314.27,40.97 317.04,41.15 319.80,41.59 322.56,42.39 325.33,41.96 328.09,41.92 330.85,42.24 333.62,43.10 336.38,44.95 339.15,45.39 341.91,44.25 344.67,43.92 347.44,44.40 350.20,45.74 352.96,45.43 355.73,45.99 358.49,45.19 361.26,45.38 364.02,46.50 366.78,46.23 369.55,47.01 372.31,46.34 375.08,46.75 377.84,48.47 380.60,52.33 383.37,53.58 386.13,57.12 388.89,63.95 391.66,77.01 394.42,102.09 397.19,118.67 399.95,127.93 402.71,146.57 405.48,183.07 408.24,205.31 411.01,219.69 413.77,228.69 416.53,233.76 419.30,235.76 422.06,235.01 424.82,231.36 427.59,223.82 430.35,222.01 433.12,217.12 435.88,208.32 438.64,204.68 441.41,206.59 444.17,213.93 446.93,217.85 449.70,219.06 452.46,217.49 455.23,221.42 457.99,222.26 460.75,220.20 463.52,214.08 466.28,202.60 469.05,185.11 471.81,177.04 474.57,163.70 477.34,156.97 480.10,145.63 482.86,140.31 485.63,139.60 488.39,135.66 491.16,136.15 493.92,133.44 496.68,136.28 499.45,146.48 502.21,166.76 504.97,180.03 507.74,188.03 510.50,204.82 513.27,214.22 516.03,232.68 518.79,243.67 521.56,250.39 524.32,253.76 527.09,254.83 529.85,253.50 532.61,255.71 535.38,255.95 538.14,254.11 540.90,255.87 543.67,262.29 546.43,266.01 549.20,267.34 551.96,266.86 554.72,264.69 557.49,260.06 560.25,259.18 563.02,256.37 565.78,250.66 568.54,249.19 571.31,252.68 574.07,253.34 576.83,251.89 579.60,248.07 582.36,249.02 585.13,254.58 587.89,266.34 590.65,274.20 593.42,279.21 596.18,282.00 598.94,283.47 601.71,283.81 604.47,282.84 607.24,280.58 610.00,276.64"/>
<circle cx="60.00" cy="71.04" r="2.5" fill="#4C78A8"/>
<circle cx="62.76" cy="62.64" r="2.5" fill="#4C78A8"/>
<circle cx="65.53" cy="57.73" r="2.5" fill="#4C78A8"/>
<circle cx="68.29" cy="55.04" r="2.5" fill="#4C78A8"/>
<circle cx="71.06" cy="54.20" r="2.5" fill="#4C78A8"/>
<circle cx="73.82" cy="51.35" r="2.5" fill="#4C78A8"/>
<circle cx="76.58" cy="50.35" r="2.5" fill="#4C78A8"/>
<circle cx="79.35" cy="50.99" r="2.5" fill="#4C78A8"/>
<circle cx="82.11" cy="49.56" r="2.5" fill="#4C78A8"/>
<circle cx="84.87" cy="46.18" r="2.5" fill="#4C78A8"/>
<circle cx="87.64" cy="44.33" r="2.5" fill="#4C78A8"/>
<circle cx="90.40" cy="43.49" r="2.5" fill="#4C78A8"/>
<circle cx="93.17" cy="43.37" r="2.5" fill="#4C78A8"/>
<circle cx="95.93" cy="43.88" r="2.5" fill="#4C78A8"/>
<circle cx="98.69" cy="45.29" r="2.5" fill="#4C78A8"/>
<circle cx="101.46" cy="45.04" r="2.5" fill="#4C78A8"/>
<circle cx="104.22" cy="45.75" r="2.5" fill="#4C78A8"/>
<circle cx="106.98" cy="47.69" r="2.5" fill="#4C78A8"/>
<circle cx="109.75" cy="48.02" r="2.5" fill="#4C78A8"/>
<circle cx="112.51" cy="49.71" r="2.5" fill="#4C78A8"/>
<circle cx="115.28" cy="49.73" r="2.5" fill="#4C78A8"/>
<circle cx="118.04" cy="47.86" r="2.5" fill="#4C78A8"/>
<circle cx="120.80" cy="47.30" r="2.5" fill="#4C78A8"/>
<circle cx="123.57" cy="48.01" r="2.5" fill="#4C78A8"/>
<circle cx="126.33" cy="46.92" r="2.5" fill="#4C78A8"/>
<circle cx="129.10" cy="44.11" r="2.5" fill="#4C78A8"/>
<circle cx="131.86" cy="42.50" r="2.5" fill="#4C78A8"/>
<circle cx="134.62" cy="41.66" r="2.5" fill="#4C78A8"/>
<circle cx="137.39" cy="41.31" r="2.5" fill="#4C78A8"/>
<circle cx="140.15" cy="41.15" r="2.5" fill="#4C78A8"/>
<circle cx="142.91" cy="41.22" r="2.5" fill="#4C78A8"/>
<circle cx="145.68" cy="41.49" r="2.5" fill="#4C78A8"/>
<circle cx="148.44" cy="42.06" r="2.5" fill="#4C78A8"/>
<circle cx="151.21" cy="43.31" r="2.5" fill="#4C78A8"/>
<circle cx="153.97" cy="45.63" r="2.5" fill="#4C78A8"/>
<circle cx="156.73" cy="46.44" r="2.5" fill="#4C78A8"/>
<circle cx="159.50" cy="45.87" r="2.5" fill="#4C78A8"/>
<circle cx="162.26" cy="43.85" r="2.5" fill="#4C78A8"/>
<circle cx="165.03" cy="42.83" r="2.5" fill="#4C78A8"/>
<circle cx="167.79" cy="42.38" r="2.5" fill="#4C78A8"/>
<circle cx="170.55" cy="42.44" r="2.5" fill="#4C78A8"/>
<circle cx="173.32" cy="43.08" r="2.5" fill="#4C78A8"/>
<circle cx="176.08" cy="44.59" r="2.5" fill="#4C78A8"/>
<circle cx="178.84" cy="44.56" r="2.5" fill="#4C78A8"/>
<circle cx="181.61" cy="42.91" r="2.5" fill="#4C78A8"/>
<circle cx="184.37" cy="42.02" r="2.5" fill="#4C78A8"/>
<circle cx="187.14" cy="41.58" r="2.5" fill="#4C78A8"/>
<circle cx="189.90" cy="41.50" r="2.5" fill="#4C78A8"/>
<circle cx="192.66" cy="41.66" r="2.5" fill="#4C78A8"/>
<circle cx="195.43" cy="42.23" r="2.5" fill="#4C78A8"/>
<circle cx="198.19" cy="43.35" r="2.5" fill="#4C78A8"/>
<circle cx="200.95" cy="43.29" r="2.5" fill="#4C78A8"/>
<circle cx="203.72" cy="42.05" r="2.5" fill="#4C78A8"/>
<circle cx="206.48" cy="41.36" r="2.5" fill="#4C78A8"/>
<circle cx="209.25" cy="40.98" r="2.5" fill="#4C78A8"/>
<circle cx="212.01" cy="40.79" r="2.5" fill="#4C78A8"/>
<circle cx="214.77" cy="40.70" r="2.5" fill="#4C78A8"/>
<circle cx="217.54" cy="40.68" r="2.5" fill="#4C78A8"/>
<circle cx="220.30" cy="40.75" r="2.5" fill="#4C78A8"/>
<circle cx="223.07" cy="40.87" r="2.5" fill="#4C78A8"/>
<circle cx="225.83" cy="41.10" r="2.5" fill="#4C78A8"/>
<circle cx="228.59" cy="41.56" r="2.5" fill="#4C78A8"/>
<circle cx="231.36" cy="42.47" r="2.5" fill="#4C78A8"/>
<circle cx="234.12" cy="42.08" r="2.5" fill="#4C78A8"/>
<circle cx="236.88" cy="42.13" r="2.5" fill="#4C78A8"/>
<circle cx="239.65" cy="42.61" r="2.5" fill="#4C78A8"/>
<circle cx="242.41" cy="41.93" r="2.5" fill="#4C78A8"/>
<circle cx="245.18" cy="41.68" r="2.5" fill="#4C78A8"/>
<circle cx="247.94" cy="41.71" r="2.5" fill="#4C78A8"/>
<circle cx="250.70" cy="42.06" r="2.5" fill="#4C78A8"/>
<circle cx="253.47" cy="41.37" r="2.5" fill="#4C78A8"/>
<circle cx="256.23" cy="40.98" r="2.5" fill="#4C78A8"/>
<circle cx="258.99" cy="40.76" r="2.5" fill="#4C78A8"/>
<circle cx="261.76" cy="40.62" r="2.5" fill="#4C78A8"/>
<circle cx="264.52" cy="40.60" r="2.5" fill="#4C78A8"/>
<circle cx="267.29" cy="40.61" r="2.5" fill="#4C78A8"/>
<circle cx="270.05" cy="40.65" r="2.5" fill="#4C78A8"/>
<circle cx="272.81" cy="40.69" r="2.5" fill="#4C78A8"/>
<circle cx="275.58" cy="40.76" r="2.5" fill="#4C78A8"/>
<circle cx="278.34" cy="40.94" r="2.5" fill="#4C78A8"/>
<circle cx="281.11" cy="41.34" r="2.5" fill="#4C78A8"/>
<circle cx="283.87" cy="42.24" r="2.5" fill="#4C78A8"/>
<circle cx="286.63" cy="43.83" r="2.5" fill="#4C78A8"/>
<circle cx="289.40" cy="43.92" r="2.5" fill="#4C78A8"/>
<circle cx="292.16" cy="44.77" r="2.5" fill="#4C78A8"/>
<circle cx="294.92" cy="44.07" r="2.5" fill="#4C78A8"/>
<circle cx="297.69" cy="44.11" r="2.5" fill="#4C78A8"/>
<circle cx="300.45" cy="42.60" r="2.5" fill="#4C78A8"/>
<circle cx="303.22" cy="41.77" r="2.5" fill="#4C78A8"/>
<circle cx="305.98" cy="41.31" r="2.5" fill="#4C78A8"/>
<circle cx="308.74" cy="41.05" r="2.5" fill="#4C78A8"/>
<circle cx="311.51" cy="40.93" r="2.5" fill="#4C78A8"/>
<circle cx="314.27" cy="40.97" r="2.5" fill="#4C78A8"/>
<circle cx="317.04" cy="41.15" r="2.5" fill="#4C78A8"/>
<circle cx="319.80" cy="41.59" r="2.5" fill="#4C78A8"/>
<circle cx="322.56" cy="42.39" r="2.5" fill="#4C78A8"/>
<circle cx="325.33" cy="41.96" r="2.5" fill="#4C78A8"/>
<circle cx="328.09" cy="41.92" r="2.5" fill="#4C78A8"/>
<circle cx="330.85" cy="42.24" r="2.5" fill="#4C78A8"/>
<circle cx="333.62" cy="43.10" r="2.5" fill="#4C78A8"/>
<circle cx="336.38" cy="44.95" r="2.5" fill="#4C78A8"/>
<circle cx="339.15" cy="45.39" r="2.5" fill="#4C78A8"/>
<circle cx="341.91" cy="44.25" r="2.5" fill="#4C78A8"/>
<circle cx="344.67" cy="43.92" r="2.5" fill="#4C78A8"/>
<circle cx="347.44" cy="44.40" r="2.5" fill="#4C78A8"/>
<circle cx="350.20" cy="45.74" r="2.5" fill="#4C78A8"/>
<circle cx="352.96" cy="45.43" r="2.5" fill="#4C78A8"/>
<circle cx="355.73" cy="45.99" r="2.5" fill="#4C78A8"/>
<circle cx="358.49" cy="45.19" r="2.5" fill="#4C78A8"/>
<circle cx="361.26" cy="45.38" r="2.5" fill="#4C78A8"/>
<circle cx="364.02" cy="46.50" r="2.5" fill="#4C78A8"/>
<circle cx="366.78" cy="46.23" r="2.5" fill="#4C78A8"/>
<circle cx="369.55" cy="47.01" r="2.5" fill="#4C78A8"/>
<circle cx="372.31" cy="46.34" r="2.5" fill="#4C78A8"/>
<circle cx="375.08" cy="46.75" r="2.5" fill="#4C78A8"/>
<circle cx="377.84" cy="48.47" r="2.5" fill="#4C78A8"/>
<circle cx="380.60" cy="52.33" r="2.5" fill="#4C78A8"/>
<circle cx="383.37" cy="53.58" r="2.5" fill="#4C78A8"/>
<circle cx="386.13" cy="57.12" r="2.5" fill="#4C78A8"/>
<circle cx="388.89" cy="63.95" r="2.5" fill="#4C78A8"/>
<circle cx="391.66" cy="77.01" r="2.5" fill="#4C78A8"/>
<circle cx="394.42" cy="102.09" r="2.5" fill="#4C78A8"/>
<circle cx="397.19" cy="118.67" r="2.5" fill="#4C78A8"/>
<circle cx="399.95" cy="127.93" r="2.5" fill="#4C78A8"/>
<circle cx="402.71" cy="146.57" r="2.5" fill="#4C78A8"/>
<circle cx="405.48" cy="183.07" r="2.5" fill="#4C78A8"/>
<circle cx="408.24" cy="205.31" r="2.5" fill="#4C78A8"/>
<circle cx="411.01" cy="219.69" r="2.5" fill="#4C78A8"/>
<circle cx="413.77" cy="228.69" r="2.5" fill="#4C78A8"/>
<circle cx="416.53" cy="233.76" r="2.5" fill="#4C78A8"/>
<circle cx="419.30" cy="235.76" r="2.5" fill="#4C78A8"/>
<circle cx="422.06" cy="235.01" r="2.5" fill="#4C78A8"/>
<circle cx="424.82" cy="231.36" r="2.5" fill="#4C78A8"/>
<circle cx="427.59" cy="223.82" r="2.5" fill="#4C78A8"/>
<circle cx="430.35" cy="222.01" r="2.5" fill="#4C78A8"/>
<circle cx="433.12" cy="217.12" r="2.5" fill="#4C78A8"/>
<circle cx="435.88" cy="208.32" r="2.5" fill="#4C78A8"/>
<circle cx="438.64" cy="204.68" r="2.5" fill="#4C78A8"/>
<circle cx="441.41" cy="206.59" r="2.5" fill="#4C78A8"/>
<circle cx="444.17" cy="213.93" r="2.5" fill="#4C78A8"/>
<circle cx="446.93" cy="217.85" r="2.5" fill="#4C78A8"/>
<circle cx="449.70" cy="219.06" r="2.5" fill="#4C78A8"/>
<circle cx="452.46" cy="217.49" r="2.5" fill="#4C78A8"/>
<circle cx="455.23" cy="221.42" r="2.5" fill="#4C78A8"/>
<circle cx="457.99" cy="222.26" r="2.5" fill="#4C78A8"/>
<circle cx="460.75" cy="220.20" r="2.5" fill="#4C78A8"/>
<circle cx="463.52" cy="214.08" r="2.5" fill="#4C78A8"/>
<circle cx="466.28" cy="202.60" r="2.5" fill="#4C78A8"/>
<circle cx="469.05" cy="185.11" r="2.5" fill="#4C78A8"/>
<circle cx="471.81" cy="177.04" r="2.5" fill="#4C78A8"/>
<circle cx="474.57" cy="163.70" r="2.5" fill="#4C78A8"/>
<circle cx="477.34" cy="156.97" r="2.5" fill="#4C78A8"/>
<circle cx="480.10" cy="145.63" r="2.5" fill="#4C78A8"/>
<circle cx="482.86" cy="140.31" r="2.5" fill="#4C78A8"/>
<circle cx="485.63" cy="139.60" r="2.5" fill="#4C78A8"/>
<circle cx="488.39" cy="135.66" r="2.5" fill="#4C78A8"/>
<circle cx="491.16" cy="136.15" r="2.5" fill="#4C78A8"/>
<circle cx="493.92" cy="133.44" r="2.5" fill="#4C78A8"/>
<circle cx="496.68" cy="136.28" r="2.5" fill="#4C78A8"/>
<circle cx="499.45" cy="146.48" r="2.5" fill="#4C78A8"/>
<circle cx="502.21" cy="166.76" r="2.5" fill="#4C78A8"/>
<circle cx="504.97" cy="180.03" r="2.5" fill="#4C78A8"/>
<circle cx="507.74" cy="188.03" r="2.5" fill="#4C78A8"/>
<circle cx="510.50" cy="204.82" r="2.5" fill="#4C78A8"/>
<circle cx="513.27" cy="214.22" r="2.5" fill="#4C78A8"/>
<circle cx="516.03" cy="232.68" r="2.5" fill="#4C78A8"/>
<circle cx="518.79" cy="243.67" r="2.5" fill="#4C78A8"/>
<circle cx="521.56" cy="250.39" r="2.5" fill="#4C78A8"/>
<circle cx="524.32" cy="253.76" r="2.5" fill="#4C78A8"/>
<circle cx="527.09" cy="254.83" r="2.5" fill="#4C78A8"/>
<circle cx="529.85" cy="253.50" r="2.5" fill="#4C78A8"/>
<circle cx="532.61" cy="255.71" r="2.5" fill="#4C78A8"/>
<circle cx="535.38" cy="255.95" r="2.5" fill="#4C78A8"/>
<circle cx="538.14" cy="254.11" r="2.5" fill="#4C78A8"/>
<circle cx="540.90" cy="255.87" r="2.5" fill="#4C78A8"/>
<circle cx="543.67" cy="262.29" r="2.5" fill="#4C78A8"/>
<circle cx="546.43" cy="266.01" r="2.5" fill="#4C78A8"/>
<circle cx="549.20" cy="267.34" r="2.5" fill="#4C78A8"/>
<circle cx="551.96" cy="266.86" r="2.5" fill="#4C78A8"/>
<circle cx="554.72" cy="264.69" r="2.5" fill="#4C78A8"/>
<circle cx="557.49" cy="260.06" r="2.5" fill="#4C78A8"/>
<circle cx="560.25" cy="259.18" r="2.5" fill="#4C78A8"/>
<circle cx="563.02" cy="256.37" r="2.5" fill="#4C78A8"/>
<circle cx="565.78" cy="250.66" r="2.5" fill="#4C78A8"/>
<circle cx="568.54" cy="249.19" r="2.5" fill="#4C78A8"/>
<circle cx="571.31" cy="252.68" r="2.5" fill="#4C78A8"/>
<circle cx="574.07" cy="253.34" r="2.5" fill="#4C78A8"/>
<circle cx="576.83" cy="251.89" r="2.5" fill="#4C78A8"/>
<circle cx="579.60" cy="248.07" r="2.5" fill="#4C78A8"/>
<circle cx="582.36" cy="249.02" r="2.5" fill="#4C78A8"/>
<circle cx="585.13" cy="254.58" r="2.5" fill="#4C78A8"/>
<circle cx="587.89" cy="266.34" r="2.5" fill="#4C78A8"/>
<circle cx="590.65" cy="274.20" r="2.5" fill="#4C78A8"/>
<circle cx="593.42" cy="279.21" r="2.5" fill="#4C78A8"/>
<circle cx="596.18" cy="282.00" r="2.5" fill="#4C78A8"/>
<circle cx="598.94" cy="283.47" r="2.5" fill="#4C78A8"/>
<circle cx="601.71" cy="283.81" r="2.5" fill="#4C78A8"/>
<circle cx="604.47" cy="282.84" r="2.5" fill="#4C78A8"/>
<circle cx="607.24" cy="280.58" r="2.5" fill="#4C78A8"/>
<circle cx="610.00" cy="276.64" r="2.5" fill="#4C78A8"/>
<polyline fill="none" stroke="#F58518" stroke-width="2" points="60.00,268.96 62.76,277.36 65.53,282.27 68.29,284.96 71.06,285.80 73.82,288.65 76.58,289.65 79.35,289.01 82.11,290.44 84.87,293.82 87.64,295.67 90.40,296.51 93.17,296.63 95.93,296.12 98.69,294.71 101.46,294.96 104.22,294.25 106.98,292.31 109.75,291.98 112.51,290.29 115.28,290.27 118.04,292.14 120.80,292.70 123.57,291.99 126.33,293.08 129.10,295.89 131.86,297.50 134.62,298.34 137.39,298.69 140.15,298.85 142.91,298.78 145.68,298.51 148.44,297.94 151.21,296.69 153.97,294.37 156.73,293.56 159.50,294.13 162.26,296.15 165.03,297.17 167.79,297.62 170.55,297.56 173.32,296.92 176.08,295.41 178.84,295.44 181.61,297.09 184.37,297.98 187.14,298.42 189.90,298.50 192.66,298.34 195.43,297.77 198.19,296.65 200.95,296.71 203.72,297.95 206.48,298.64 209.25,299.02 212.01,299.21 214.77,299.30 217.54,299.32 220.30,299.25 223.07,299.13 225.83,298.90 228.59,298.44 231.36,297.53 234.12,297.92 236.88,297.87 239.65,297.39 242.41,298.07 245.18,298.32 247.94,298.29 250.70,297.94 253.47,298.63 256.23,299.02 258.99,299.24 261.76,299.38 264.52,299.40 267.29,299.39 270.05,299.35 272.81,299.31 275.58,299.24 278.34,299.06 281.11,298.66 283.87,297.76 286.63,296.17 289.40,296.08 292.16,295.23 294.92,295.93 297.69,295.89 300.45,297.40 303.22,298.23 305.98,298.69 308.74,298.95 311.51,299.07 314.27,299.03 317.04,298.85 319.80,298.41 322.56,297.61 325.33,298.04 328.09,298.08 330.85,297.76 333.62,296.90 336.38,295.05 339.15,294.61 341.91,295.75 344.67,296.08 347.44,295.60 350.20,294.26 352.96,294.57 355.73,294.01 358.49,294.81 361.26,294.62 364.02,293.50 366.78,293.77 369.55,292.99 372.31,293.66 375.08,293.25 377.84,291.53 380.60,287.67 383.37,286.42 386.13,282.88 388.89,276.05 391.66,262.99 394.42,237.91 397.19,221.33 399.95,212.07 402.71,193.43 405.48,156.93 408.24,134.69 411.01,120.31 413.77,111.31 416.53,106.24 419.30,104.24 422.06,104.99 424.82,108.64 427.59,116.18 430.35,117.99 433.12,122.88 435.88,131.68 438.64,135.32 441.41,133.41 444.17,126.07 446.93,122.15 449.70,120.94 452.46,122.51 455.23,118.58 457.99,117.74 460.75,119.80 463.52,125.92 466.28,137.40 469.05,154.89 471.81,162.96 474.57,176.30 477.34,183.03 480.10,194.37 482.86,199.69 485.63,200.40 488.39,204.34 491.16,203.85 493.92,206.56 496.68,203.72 499.45,193.52 502.21,173.24 504.97,159.97 507.74,151.97 510.50,135.18 513.27,125.78 516.03,107.32 518.79,96.33 521.56,89.61 524.32,86.24 527.09,85.17 529.85,86.50 532.61,84.29 535.38,84.05 538.14,85.89 540.90,84.13 543.67,77.71 546.43,73.99 549.20,72.66 551.96,73.14 554.72,75.31 557.49,79.94 560.25,80.82 563.02,83.63 565.78,89.34 568.54,90.81 571.31,87.32 574.07,86.66 576.83,88.11 579.60,91.93 582.36,90.98 585.13,85.42 587.89,73.66 590.65,65.80 593.42,60.79 596.18,58.00 598.94,56.53 601.71,56.19 604.47,57.16 607.24,59.42 610.00,63.36"/>
<circle cx="60.00" cy="268.96" r="2.5" fill="#F58518"/>
<circle cx="62.76" cy="277.36" r="2.5" fill="#F58518"/>
<circle cx="65.53" cy="282.27" r="2.5" fill="#F58518"/>
<circle cx="68.29" cy="284.96" r="2.5" fill="#F58518"/>
<circle cx="71.06" cy="285.80" r="2.5" fill="#F58518"/>
<circle cx="73.82" cy="288.65" r="2.5" fill="#F58518"/>
<circle cx="76.58" cy="289.65" r="2.5" fill="#F58518"/>
<circle cx="79.35" cy="289.01" r="2.5" fill="#F58518"/>
<circle cx="82.11" cy="290.44" r="2.5" fill="#F58518"/>
<circle cx="84.87" cy="293.82" r="2.5" fill="#F58518"/>
<circle cx="87.64" cy="295.67" r="2.5" fill="#F58518"/>
<circle cx="90.40" cy="296.51" r="2.5" fill="#F58518"/>
<circle cx="93.17" cy="296.63" r="2.5" fill="#F58518"/>
<circle cx="95.93" cy="296.12" r="2.5" fill="#F58518"/>
<circle cx="98.69" cy="294.71" r="2.5" fill="#F58518"/>
<circle cx="101.46" cy="294.96" r="2.5" fill="#F58518"/>
<circle cx="104.22" cy="294.25" r="2.5" fill="#F58518"/>
<circle cx="106.98" cy="292.31" r="2.5" fill="#F58518"/>
<circle cx="109.75" cy="291.98" r="2.5" fill="#F58518"/>
<circle cx="112.51" cy="290.29" r="2.5" fill="#F58518"/>
<circle cx="115.28" cy="290.27" r="2.5" fill="#F58518"/>
<circle cx="118.04" cy="292.14" r="2.5" fill="#F58518"/>
<circle cx="120.80" cy="292.70" r="2.5" fill="#F58518"/>
<circle cx="123.57" cy="291.99" r="2.5" fill="#F58518"/>
<circle cx="126.33" cy="293.08" r="2.5" fill="#F58518"/>
<circle cx="129.10" cy="295.89" r="2.5" fill="#F58518"/>
<circle cx="131.86" cy="297.50" r="2.5" fill="#F58518"/>
<circle cx="134.62" cy="298.34" r="2.5" fill="#F58518"/>
<circle cx="137.39" cy="298.69" r="2.5" fill="#F58518"/>
<circle cx="140.15" cy="298.85" r="2.5" fill="#F58518"/>
<circle cx="142.91" cy="298.78" r="2.5" fill="#F58518"/>
<circle cx="145.68" cy="298.51" r="2.5" fill="#F58518"/>
<circle cx="148.44" cy="297.94" r="2.5" fill="#F58518"/>
<circle cx="151.21" cy="296.69" r="2.5" fill="#F58518"/>
<circle cx="153.97" cy="294.37" r="2.5" fill="#F58518"/>
<circle cx="156.73" cy="293.56" r="2.5" fill="#F58518"/>
<circle cx="159.50" cy="294.13" r="2.5" fill="#F58518"/>
<circle cx="162.26" cy="296.15" r="2.5" fill="#F58518"/>
<circle cx="165.03" cy="297.17" r="2.5" fill="#F58518"/>
<circle cx="167.79" cy="297.62" r="2.5" fill="#F58518"/>
<circle cx="170.55" cy="297.56" r="2.5" fill="#F58518"/>
<circle cx="173.32" cy="296.92" r="2.5" fill="#F58518"/>
<circle cx="176.08" cy="295.41" r="2.5" fill="#F58518"/>
<circle cx="178.84" cy="295.44" r="2.5" fill="#F58518"/>
<circle cx="181.61" cy="297.09" r="2.5" fill="#F58518"/>
<circle cx="184.37" cy="297.98" r="2.5" fill="#F58518"/>
<circle cx="187.14" cy="298.42" r="2.5" fill="#F58518"/>
<circle cx="189.90" cy="298.50" r="2.5" fill="#F58518"/>
<circle cx="192.66" cy="298.34" r="2.5" fill="#F58518"/>
<circle cx="195.43" cy="297.77" r="2.5" fill="#F58518"/>
<circle cx="198.19" cy="296.65" r="2.5" fill="#F58518"/>
<circle cx="200.95" cy="296.71" r="2.5" fill="#F58518"/>
<circle cx="203.72" cy="297.95" r="2.5" fill="#F58518"/>
<circle cx="206.48" cy="298.64" r="2.5" fill="#F58518"/>
<circle cx="209.25" cy="299.02" r="2.5" fill="#F58518"/>
<circle cx="212.01" cy="299.21" r="2.5" fill="#F58518"/>
<circle cx="214.77" cy="299.30" r="2.5" fill="#F58518"/>
<circle cx="217.54" cy="299.32" r="2.5" fill="#F58518"/>
<circle cx="220.30" cy="299.25" r="2.5" fill="#F58518"/>
<circle cx="223.07" cy="299.13" r="2.5" fill="#F58518"/>
<circle cx="225.83" cy="298.90" r="2.5" fill="#F58518"/>
<circle cx="228.59" cy="298.44" r="2.5" fill="#F58518"/>
<circle cx="231.36" cy="297.53" r="2.5" fill="#F58518"/>
<circle cx="234.12" cy="297.92" r="2.5" fill="#F58518"/>
<circle cx="236.88" cy="297.87" r="2.5" fill="#F58518"/>
<circle cx="239.65" cy="297.39" r="2.5" fill="#F58518"/>
<circle cx="242.41" cy="298.07" r="2.5" fill="#F58518"/>
<circle cx="245.18" cy="298.32" r="2.5" fill="#F58518"/>
<circle cx="247.94" cy="298.29" r="2.5" fill="#F58518"/>
<circle cx="250.70" cy="297.94" r="2.5" fill="#F58518"/>
<circle cx="253.47" cy="298.63" r="2.5" fill="#F58518"/>
<circle cx="256.23" cy="299.02" r="2.5" fill="#F58518"/>
<circle cx="258.99" cy="299.24" r="2.5" fill="#F58518"/>
<circle cx="261.76" cy="299.38" r="2.5" fill="#F58518"/>
<circle cx="264.52" cy="299.40" r="2.5" fill="#F58518"/>
<circle cx="267.29" cy="299.39" r="2.5" fill="#F58518"/>
<circle cx="270.05" cy="299.35" r="2.5" fill="#F58518"/>
<circle cx="272.81" cy="299.31" r="2.5" fill="#F58518"/>
<circle cx="275.58" cy="299.24" r="2.5" fill="#F58518"/>
<circle cx="278.34" cy="299.06" r="2.5" fill="#F58518"/>
<circle cx="281.11" cy="298.66" r="2.5" fill="#F58518"/>
<circle cx="283.87" cy="297.76" r="2.5" fill="#F58518"/>
<circle cx="286.63" cy="296.17" r="2.5" fill="#F58518"/>
<circle cx="289.40" cy="296.08" r="2.5" fill="#F58518"/>
<circle cx="292.16" cy="295.23" r="2.5" fill="#F58518"/>
<circle cx="294.92" cy="295.93" r="2.5" fill="#F58518"/>
<circle cx="297.69" cy="295.89" r="2.5" fill="#F58518"/>
<circle cx="300.45" cy="297.40" r="2.5" fill="#F58518"/>
<circle cx="303.22" cy="298.23" r="2.5" fill="#F58518"/>
<circle cx="305.98" cy="298.69" r="2.5" fill="#F58518"/>
<circle cx="308.74" cy="298.95" r="2.5" fill="#F58518"/>
<circle cx="311.51" cy="299.07" r="2.5" fill="#F58518"/>
<circle cx="314.27" cy="299.03" r="2.5" fill="#F58518"/>
<circle cx="317.04" cy="298.85" r="2.5" fill="#F58518"/>
<circle cx="319.80" cy="298.41" r="2.5" fill="#F58518"/>
<circle cx="322.56" cy="297.61" r="2.5" fill="#F58518"/>
<circle cx="325.33" cy="298.04" r="2.5" fill="#F58518"/>
<circle cx="328.09" cy="298.08" r="2.5" fill="#F58518"/>
<circle cx="330.85" cy="297.76" r="2.5" fill="#F58518"/>
<circle cx="333.62" cy="296.90" r="2.5" fill="#F58518"/>
<circle cx="336.38" cy="295.05" r="2.5" fill="#F58518"/>
<circle cx="339.15" cy="294.61" r="2.5" fill="#F58518"/>
<circle cx="341.91" cy="295.75" r="2.5" fill="#F58518"/>
<circle cx="344.67" cy="296.08" r="2.5" fill="#F58518"/>
<circle cx="347.44" cy="295.60" r="2.5" fill="#F58518"/>
<circle cx="350.20" cy="294.26" r="2.5" fill="#F58518"/>
<circle cx="352.96" cy="294.57" r="2.5" fill="#F58518"/>
<circle cx="355.73" cy="294.01" r="2.5" fill="#F58518"/>
<circle cx="358.49" cy="294.81" r="2.5" fill="#F58518"/>
<circle cx="361.26" cy="294.62" r="2.5" fill="#F58518"/>
<circle cx="364.02" cy="293.50" r="2.5" fill="#F58518"/>
<circle cx="366.78" cy="293.77" r="2.5" fill="#F58518"/>
<circle cx="369.55" cy="292.99" r="2.5" fill="#F58518"/>
<circle cx="372.31" cy="293.66" r="2.5" fill="#F58518"/>
<circle cx="375.08" cy="293.25" r="2.5" fill="#F58518"/>
<circle cx="377.84" cy="291.53" r="2.5" fill="#F58518"/>
<circle cx="380.60" cy="287.67" r="2.5" fill="#F58518"/>
<circle cx="383.37" cy="286.42" r="2.5" fill="#F58518"/>
<circle cx="386.13" cy="282.88" r="2.5" fill="#F58518"/>
<circle cx="388.89" cy="276.05" r="2.5" fill="#F58518"/>
<circle cx="391.66" cy="262.99" r="2.5" fill="#F58518"/>
<circle cx="394.42" cy="237.91" r="2.5" fill="#F58518"/>
<circle cx="397.19" cy="221.33" r="2.5" fill="#F58518"/>
<circle cx="399.95" cy="212.07" r="2.5" fill="#F58518"/>
<circle cx="402.71" cy="193.43" r="2.5" fill="#F58518"/>
<circle cx="405.48" cy="156.93" r="2.5" fill="#F58518"/>
<circle cx="408.24" cy="134.69" r="2.5" fill="#F58518"/>
<circle cx="411.01" cy="120.31" r="2.5" fill="#F58518"/>
<circle cx="413.77" cy="111.31" r="2.5" fill="#F58518"/>
<circle cx="416.53" cy="106.24" r="2.5" fill="#F58518"/>
<circle cx="419.30" cy="104.24" r="2.5" fill="#F58518"/>
<circle cx="422.06" cy="104.99" r="2.5" fill="#F58518"/>
<circle cx="424.82" cy="108.64" r="2.5" fill="#F58518"/>
<circle cx="427.59" cy="116.18" r="2.5" fill="#F58518"/>
<circle cx="430.35" cy="117.99" r="2.5" fill="#F58518"/>
<circle cx="433.12" cy="122.88" r="2.5" fill="#F58518"/>
<circle cx="435.88" cy="131.68" r="2.5" fill="#F58518"/>
<circle cx="438.64" cy="135.32" r="2.5" fill="#F58518"/>
<circle cx="441.41" cy="133.41" r="2.5" fill="#F58518"/>
<circle cx="444.17" cy="126.07" r="2.5" fill="#F58518"/>
<circle cx="446.93" cy="122.15" r="2.5" fill="#F58518"/>
<circle cx="449.70" cy="120.94" r="2.5" fill="#F58518"/>
<circle cx="452.46" cy="122.51" r="2.5" fill="#F58518"/>
<circle cx="455.23" cy="118.58" r="2.5" fill="#F58518"/>
<circle cx="457.99" cy="117.74" r="2.5" fill="#F58518"/>
<circle cx="460.75" cy="119.80" r="2.5" fill="#F58518"/>
<circle cx="463.52" cy="125.92" r="2.5" fill="#F58518"/>
<circle cx="466.28" cy="137.40" r="2.5" fill="#F58518"/>
<circle cx="469.05" cy="154.89" r="2.5" fill="#F58518"/>
<circle cx="471.81" cy="162.96" r="2.5" fill="#F58518"/>
<circle cx="474.57" cy="176.30" r="2.5" fill="#F58518"/>
<circle cx="477.34" cy="183.03" r="2.5" fill="#F58518"/>
<circle cx="480.10" cy="194.37" r="2.5" fill="#F58518"/>
<circle cx="482.86" cy="199.69" r="2.5" fill="#F58518"/>
<circle cx="485.63" cy="200.40" r="2.5" fill="#F58518"/>
<circle cx="488.39" cy="204.34" r="2.5" fill="#F58518"/>
<circle cx="491.16" cy="203.85" r="2.5" fill="#F58518"/>
<circle cx="493.92" cy="206.56" r="2.5" fill="#F58518"/>
<circle cx="496.68" cy="203.72" r="2.5" fill="#F58518"/>
<circle cx="499.45" cy="193.52" r="2.5" fill="#F58518"/>
<circle cx="502.21" cy="173.24" r="2.5" fill="#F58518"/>
<circle cx="504.97" cy="159.97" r="2.5" fill="#F58518"/>
<circle cx="507.74" cy="151.97" r="2.5" fill="#F58518"/>
<circle cx="510.50" cy="135.18" r="2.5" fill="#F58518"/>
<circle cx="513.27" cy="125.78" r="2.5" fill="#F58518"/>
<circle cx="516.03" cy="107.32" r="2.5" fill="#F58518"/>
<circle cx="518.79" cy="96.33" r="2.5" fill="#F58518"/>
<circle cx="521.56" cy="89.61" r="2.5" fill="#F58518"/>
<circle cx="524.32" cy="86.24" r="2.5" fill="#F58518"/>
<circle cx="527.09" cy="85.17" r="2.5" fill="#F58518"/>
<circle cx="529.85" cy="86.50" r="2.5" fill="#F58518"/>
<circle cx="532.61" cy="84.29" r="2.5" fill="#F58518"/>
<circle cx="535.38" cy="84.05" r="2.5" fill="#F58518"/>
<circle cx="538.14" cy="85.89" r="2.5" fill="#F58518"/>
<circle cx="540.90" cy="84.13" r="2.5" fill="#F58518"/>
<circle cx="543.67" cy="77.71" r="2.5" fill="#F58518"/>
<circle cx="546.43" cy="73.99" r="2.5" fill="#F58518"/>
<circle cx="549.20" cy="72.66" r="2.5" fill="#F58518"/>
<circle cx="551.96" cy="73.14" r="2.5" fill="#F58518"/>
<circle cx="554.72" cy="75.31" r="2.5" fill="#F58518"/>
<circle cx="557.49" cy="79.94" r="2.5" fill="#F58518"/>
<circle cx="560.25" cy="80.82" r="2.5" fill="#F58518"/>
<circle cx="563.02" cy="83.63" r="2.5" fill="#F58518"/>
<circle cx="565.78" cy="89.34" r="2.5" fill="#F58518"/>
<circle cx="568.54" cy="90.81" r="2.5" fill="#F58518"/>
<circle cx="571.31" cy="87.32" r="2.5" fill="#F58518"/>
<circle cx="574.07" cy="86.66" r="2.5" fill="#F58518"/>
<circle cx="576.83" cy="88.11" r="2.5" fill="#F58518"/>
<circle cx="579.60" cy="91.93" r="2.5" fill="#F58518"/>
<circle cx="582.36" cy="90.98" r="2.5" fill="#F58518"/>
<circle cx="585.13" cy="85.42" r="2.5" fill="#F58518"/>
<circle cx="587.89" cy="73.66" r="2.5" fill="#F58518"/>
<circle cx="590.65" cy="65.80" r="2.5" fill="#F58518"/>
<circle cx="593.42" cy="60.79" r="2.5" fill="#F58518"/>
<circle cx="596.18" cy="58.00" r="2.5" fill="#F58518"/>
<circle cx="598.94" cy="56.53" r="2.5" fill="#F58518"/>
<circle cx="601.71" cy="56.19" r="2.5" fill="#F58518"/>
<circle cx="604.47" cy="57.16" r="2.5" fill="#F58518"/>
<circle cx="607.24" cy="59.42" r="2.5" fill="#F58518"/>
<circle cx="610.00" cy="63.36" r="2.5" fill="#F58518"/>
<rect x="490" y="40" width="12" height="12" fill="#4C78A8"/>
<text x="508" y="50" font-size="11" font-family="sans-serif">State 1</text>
<rect x="490" y="58" width="12" height="12" fill="#F58518"/>
<text x="508" y="68" font-size="11" font-family="sans-serif">State 2</text>
<rect x="60.00" y="320.00" width="3.25" height="40.00" fill="#4C78A8" opacity="0.35"/>
<rect x="62.75" y="320.00" width="3.25" height="40.00" fill="#4C78A8" opacity="0.35"/>
<rect x="65.50" y="320.00" width="3.25" height="40.00" fill="#4C78A8" opacity="0.35"/>
<rect x="68.25" y="320.00" width="3.25" height="40.00" fill="#4C78A8" opacity="0.35"/>
<rect x="71.00" y="320.00" width="3.25" height="40.00" fill="#4C78A8" opacity="0.35"/>
<rect x="73.75" y="320.00" width="3.25" height="40.00" fill="#4C78A8" opacity="0.35"/>
<rect x="76.50" y="320.00" width="3.25" height="40.00" fill="#4C78A8" opacity="0.35"/>
<rect x="79.25" y="320.00" width="3.25" height="40.00" fill="#4C78A8" opacity="0.35"/>
<rect x="82.00" y="320.00" width="3.25" height="40.00" fill="#4C78A8" opacity="0.35"/>
<rect x="84.75" y="320.00" width="3.25" height="40.00" fill="#4C78A8" opacity="0.35"/>
<rect x="87.50" y="320.00" width="3.25" height="40.00" fill="#4C78A8" opacity="0.35"/>
<rect x="90.25" y="320.00" width="3.25" height="40.00" fill="#4C78A8" opacity="0.35"/>
<rect x="93.00" y="320.00" width="3.25" height="40.00" fill="#4C78A8" opacity="0.35"/>
<rect x="95.75" y="320.00" width="3.25" height="40.00" fill="#4C78A8" opacity="0.35"/>
<rect x="98.50" y="320.00" width="3.25" height="40.00" fill="#4C78A8" opacity="0.35"/>
<rect x="101.25" y="320.00" width="3.25" height="40.00" fill="#4C78A8" opacity="0.35"/>
<rect x="104.00" y="320.00" width="3.25" height="40.00" fill="#4C78A8" opacity="0.35"/>
<rect x="106.75" y="320.00" width="3.25" height="40.00" fill="#4C78A8" opacity="0.35"/>
<rect x="109.50" y="320.00" width="3.25" height="40.00" fill="#4C78A8" opacity="0.35"/>
<rect x="112.25" y="320.00" width="3.25" height="40.00" fill="#4C78A8" opacity="0.35"/>
<rect x="115.00" y="320.00" width="3.25" height="40.00" fill="#4C78A8" opacity="0.35"/>
<rect x="117.75" y="320.00" width="3.25" height="40.00" fill="#4C78A8" opacity="0.35"/>
<rect x="120.50" y="320.00" width="3.25" height="40.00" fill="#4C78A8" opacity="0.35"/>
<rect x="123.25" y="320.00" width="3.25" height="40.00" fill="#4C78A8" opacity="0.35"/>
<rect x="126.00" y="320.00" width="3.25" height="40.00" fill="#4C78A8" opacity="0.35"/>
<rect x="128.75" y="320.00" width="3.25" height="40.00" fill="#4C78A8" opacity="0.35"/>
<rect x="131.50" y="320.00" width="3.25" height="40.00" fill="#4C78A8" opacity="0.35"/>
<rect x="134.25" y="320.00" width="3.25" height="40.00" fill="#4C78A8" opacity="0.35"/>
<rect x="137.00" y="320.00" width="3.25" height="40.00" fill="#4C78A8" opacity="0.35"/>
<rect x="139.75" y="320.00" width="3.25" height="40.00" fill="#4C78A8" opacity="0.35"/>
<rect x="142.50" y="320.00" width="3.25" height="40.00" fill="#4C78A8" opacity="0.35"/>
<rect x="145.25" y="320.00" width="3.25" height="40.00" fill="#4C78A8" opacity="0.35"/>
<rect x="148.00" y="320.00" width="3.25" height="40.00" fill="#4C78A8" opacity="0.35"/>
<rect x="150.75" y="320.00" width="3.25" height="40.00" fill="#4C78A8" opacity="0.35"/>
<rect x="153.50" y="320.00" width="3.25" height="40.00" fill="#4C78A8" opacity="0.35"/>
<rect x="156.25" y="320.00" width="3.25" height="40.00" fill="#4C78A8" opacity="0.35"/>
<rect x="159.00" y="320.00" width="3.25" height="40.00" fill="#4C78A8" opacity="0.35"/>
<rect x="161.75" y="320.00" width="3.25" height="40.00" fill="#4C78A8" opacity="0.35"/>
<rect x="164.50" y="320.00" width="3.25" height="40.00" fill="#4C78A8" opacity="0.35"/>
<rect x="167.25" y="320.00" width="3.25" height="40.00" fill="#4C78A8" opacity="0.35"/>
<rect x="170.00" y="320.00" width="3.25" height="40.00" fill="#4C78A8" opacity="0.35"/>
<rect x="172.75" y="320.00" width="3.25" height="40.00" fill="#4C78A8" opacity="0.35"/>
<rect x="175.50" y="320.00" width="3.25" height="40.00" fill="#4C78A8" opacity="0.35"/>
<rect x="178.25" y="320.00" width="3.25" height="40.00" fill="#4C78A8" opacity="0.35"/>
<rect x="181.00" y="320.00" width="3.25" height="40.00" fill="#4C78A8" opacity="0.35"/>
<rect x="183.75" y="320.00" width="3.25" height="40.00" fill="#4C78A8" opacity="0.35"/>
<rect x="186.50" y="320.00" width="3.25" height="40.00" fill="#4C78A8" opacity="0.35"/>
<rect x="189.25" y="320.00" width="3.25" height="40.00" fill="#4C78A8" opacity="0.35"/>
<rect x="192.00" y="320.00" width="3.25" height="40.00" fill="#4C78A8" opacity="0.35"/>
<rect x="194.75" y="320.00" width="3.25" height="40.00" fill="#4C78A8" opacity="0.35"/>
<rect x="197.50" y="320.00" width="3.25" height="40.00" fill="#4C78A8" opacity="0.35"/>
<rect x="200.25" y="320.00" width="3.25" height="40.00" fill="#4C78A8" opacity="0.35"/>
<rect x="203.00" y="320.00" width="3.25" height="40.00" fill="#4C78A8" opacity="0.35"/>
<rect x="205.75" y="320.00" width="3.25" height="40.00" fill="#4C78A8" opacity="0.35"/>
<rect x="208.50" y="320.00" width="3.25" height="40.00" fill="#4C78A8" opacity="0.35"/>
<rect x="211.25" y="320.00" width="3.25" height="40.00" fill="#4C78A8" opacity="0.35"/>
<rect x="214.00" y="320.00" width="3.25" height="40.00" fill="#4C78A8" opacity="0.35"/>
<rect x="216.75" y="320.00" width="3.25" height="40.00" fill="#4C78A8" opacity="0.35"/>
<rect x="219.50" y="320.00" width="3.25" height="40.00" fill="#4C78A8" opacity="0.35"/>
<rect x="222.25" y="320.00" width="3.25" height="40.00" fill="#4C78A8" opacity="0.35"/>
<rect x="225.00" y="320.00" width="3.25" height="40.00" fill="#4C78A8" opacity="0.35"/>
<rect x="227.75" y="320.00" width="3.25" height="40.00" fill="#4C78A8" opacity="0.35"/>
<rect x="230.50" y="320.00" width="3.25" height="40.00" fill="#4C78A8" opacity="0.35"/>
<rect x="233.25" y="320.00" width="3.25" height="40.00" fill="#4C78A8" opacity="0.35"/>
<rect x="236.00" y="320.00" width="3.25" height="40.00" fill="#4C78A8" opacity="0.35"/>
<rect x="238.75" y="320.00" width="3.25" height="40.00" fill="#4C78A8" opacity="0.35"/>
<rect x="241.50" y="320.00" width="3.25" height="40.00" fill="#4C78A8" opacity="0.35"/>
<rect x="244.25" y="320.00" width="3.25" height="40.00" fill="#4C78A8" opacity="0.35"/>
<rect x="247.00" y="320.00" width="3.25" height="40.00" fill="#4C78A8" opacity="0.35"/>
<rect x="249.75" y="320.00" width="3.25" height="40.00" fill="#4C78A8" opacity="0.35"/>
<rect x="252.50" y="320.00" width="3.25" height="40.00" fill="#4C78A8" opacity="0.35"/>
<rect x="255.25" y="320.00" width="3.25" height="40.00" fill="#4C78A8" opacity="0.35"/>
<rect x="258.00" y="320.00" width="3.25" height="40.00" fill="#4C78A8" opacity="0.35"/>
<rect x="260.75" y="320.00" width="3.25" height="40.00" fill="#4C78A8" opacity="0.35"/>
<rect x="263.50" y="320.00" width="3.25" height="40.00" fill="#4C78A8" opacity="0.35"/>
<rect x="266.25" y="320.00" width="3.25" height="40.00" fill="#4C78A8" opacity="0.35"/>
<rect x="269.00" y="320.00" width="3.25" height="40.00" fill="#4C78A8" opacity="0.35"/>
<rect x="271.75" y="320.00" width="3.25" height="40.00" fill="#4C78A8" opacity="0.35"/>
<rect x="274.50" y="320.00" width="3.25" height="40.00" fill="#4C78A8" opacity="0.35"/>
<rect x="277.25" y="320.00" width="3.25" height="40.00" fill="#4C78A8" opacity="0.35"/>
<rect x="280.00" y="320.00" width="3.25" height="40.00" fill="#4C78A8" opacity="0.35"/>
<rect x="282.75" y="320.00" width="3.25" height="40.00" fill="#4C78A8" opacity="0.35"/>
<rect x="285.50" y="320.00" width="3.25" height="40.00" fill="#4C78A8" opacity="0.35"/>
<rect x="288.25" y="320.00" width="3.25" height="40.00" fill="#4C78A8" opacity="0.35"/>
<rect x="291.00" y="320.00" width="3.25" height="40.00" fill="#4C78A8" opacity="0.35"/>
<rect x="293.75" y="320.00" width="3.25" height="40.00" fill="#4C78A8" opacity="0.35"/>
<rect x="296.50" y="320.00" width="3.25" height="40.00" fill="#4C78A8" opacity="0.35"/>
<rect x="299.25" y="320.00" width="3.25" height="40.00" fill="#4C78A8" opacity="0.35"/>
<rect x="302.00" y="320.00" width="3.25" height="40.00" fill="#4C78A8" opacity="0.35"/>
<rect x="304.75" y="320.00" width="3.25" height="40.00" fill="#4C78A8" opacity="0.35"/>
<rect x="307.50" y="320.00" width="3.25" height="40.00" fill="#4C78A8" opacity="0.35"/>
<rect x="310.25" y="320.00" width="3.25" height="40.00" fill="#4C78A8" opacity="0.35"/>
<rect x="313.00" y="320.00" width="3.25" height="40.00" fill="#4C78A8" opacity="0.35"/>
<rect x="315.75" y="320.00" width="3.25" height="40.00" fill="#4C78A8" opacity="0.35"/>
<rect x="318.50" y="320.00" width="3.25" height="40.00" fill="#4C78A8" opacity="0.35"/>
<rect x="321.25" y="320.00" width="3.25" height="40.00" fill="#4C78A8" opacity="0.35"/>
<rect x="324.00" y="320.00" width="3.25" height="40.00" fill="#4C78A8" opacity="0.35"/>
<rect x="326.75" y="320.00" width="3.25" height="40.00" fill="#4C78A8" opacity="0.35"/>
<rect x="329.50" y="320.00" width="3.25" height="40.00" fill="#4C78A8" opacity="0.35"/>
<rect x="332.25" y="320.00" width="3.25" height="40.00" fill="#4C78A8" opacity="0.35"/>
<rect x="335.00" y="320.00" width="3.25" height="40.00" fill="#4C78A8" opacity="0.35"/>
<rect x="337.75" y="320.00" width="3.25" height="40.00" fill="#4C78A8" opacity="0.35"/>
<rect x="340.50" y="320.00" width="3.25" height="40.00" fill="#4C78A8" opacity="0.35"/>
<rect x="343.25" y="320.00" width="3.25" height="40.00" fill="#4C78A8" opacity="0.35"/>
<rect x="346.00" y="320.00" width="3.25" height="40.00" fill="#4C78A8" opacity="0.35"/>
<rect x="348.75" y="320.00" width="3.25" height="40.00" fill="#4C78A8" opacity="0.35"/>
<rect x="351.50" y="320.00" width="3.25" height="40.00" fill="#4C78A8" opacity="0.35"/>
<rect x="354.25" y="320.00" width="3.25" height="40.00" fill="#4C78A8" opacity="0.35"/>
<rect x="357.00" y="320.00" width="3.25" height="40.00" fill="#4C78A8" opacity="0.35"/>
<rect x="359.75" y="320.00" width="3.25" height="40.00" fill="#4C78A8" opacity="0.35"/>
<rect x="362.50" y="320.00" width="3.25" height="40.00" fill="#4C78A8" opacity="0.35"/>
<rect x="365.25" y="320.00" width="3.25" height="40.00" fill="#4C78A8" opacity="0.35"/>
<rect x="368.00" y="320.00" width="3.25" height="40.00" fill="#4C78A8" opacity="0.35"/>
<rect x="370.75" y="320.00" width="3.25" height="40.00" fill="#4C78A8" opacity="0.35"/>
<rect x="373.50" y="320.00" width="3.25" height="40.00" fill="#4C78A8" opacity="0.35"/>
<rect x="376.25" y="320.00" width="3.25" height="40.00" fill="#4C78A8" opacity="0.35"/>
<rect x="379.00" y="320.00" width="3.25" height="40.00" fill="#4C78A8" opacity="0.35"/>
<rect x="381.75" y="320.00" width="3.25" height="40.00" fill="#4C78A8" opacity="0.35"/>
<rect x="384.50" y="320.00" width="3.25" height="40.00" fill="#4C78A8" opacity="0.35"/>
<rect x="387.25" y="320.00" width="3.25" height="40.00" fill="#4C78A8" opacity="0.35"/>
<rect x="390.00" y="320.00" width="3.25" height="40.00" fill="#4C78A8" opacity="0.35"/>
<rect x="392.75" y="320.00" width="3.25" height="40.00" fill="#4C78A8" opacity="0.35"/>
<rect x="395.50" y="320.00" width="3.25" height="40.00" fill="#4C78A8" opacity="0.35"/>
<rect x="398.25" y="320.00" width="3.25" height="40.00" fill="#4C78A8" opacity="0.35"/>
<rect x="401.00" y="320.00" width="3.25" height="40.00" fill="#4C78A8" opacity="0.35"/>
<rect x="403.75" y="320.00" width="3.25" height="40.00" fill="#F58518" opacity="0.35"/>
<rect x="406.50" y="320.00" width="3.25" height="40.00" fill="#F58518" opacity="0.35"/>
<rect x="409.25" y="320.00" width="3.25" height="40.00" fill="#F58518" opacity="0.35"/>
<rect x="412.00" y="320.00" width="3.25" height="40.00" fill="#F58518" opacity="0.35"/>
<rect x="414.75" y="320.00" width="3.25" height="40.00" fill="#F58518" opacity="0.35"/>
<rect x="417.50" y="320.00" width="3.25" height="40.00" fill="#F58518" opacity="0.35"/>
<rect x="420.25" y="320.00" width="3.25" height="40.00" fill="#F58518" opacity="0.35"/>
<rect x="423.00" y="320.00" width="3.25" height="40.00" fill="#F58518" opacity="0.35"/>
<rect x="425.75" y="320.00" width="3.25" height="40.00" fill="#F58518" opacity="0.35"/>
<rect x="428.50" y="320.00" width="3.25" height="40.00" fill="#F58518" opacity="0.35"/>
<rect x="431.25" y="320.00" width="3.25" height="40.00" fill="#F58518" opacity="0.35"/>
<rect x="434.00" y="320.00" width="3.25" height="40.00" fill="#F58518" opacity="0.35"/>
<rect x="436.75" y="320.00" width="3.25" height="40.00" fill="#F58518" opacity="0.35"/>
<rect x="439.50" y="320.00" width="3.25" height="40.00" fill="#F58518" opacity="0.35"/>
<rect x="442.25" y="320.00" width="3.25" height="40.00" fill="#F58518" opacity="0.35"/>
<rect x="445.00" y="320.00" width="3.25" height="40.00" fill="#F58518" opacity="0.35"/>
<rect x="447.75" y="320.00" width="3.25" height="40.00" fill="#F58518" opacity="0.35"/>
<rect x="450.50" y="320.00" width="3.25" height="40.00" fill="#F58518" opacity="0.35"/>
<rect x="453.25" y="320.00" width="3.25" height="40.00" fill="#F58518" opacity="0.35"/>
<rect x="456.00" y="320.00" width="3.25" height="40.00" fill="#F58518" opacity="0.35"/>
<rect x="458.75" y="320.00" width="3.25" height="40.00" fill="#F58518" opacity="0.35"/>
<rect x="461.50" y="320.00" width="3.25" height="40.00" fill="#F58518" opacity="0.35"/>
<rect x="464.25" y="320.00" width="3.25" height="40.00" fill="#F58518" opacity="0.35"/>
<rect x="467.00" y="320.00" width="3.25" height="40.00" fill="#F58518" opacity="0.35"/>
<rect x="469.75" y="320.00" width="3.25" height="40.00" fill="#F58518" opacity="0.35"/>
<rect x="472.50" y="320.00" width="3.25" height="40.00" fill="#4C78A8" opacity="0.35"/>
<rect x="475.25" y="320.00" width="3.25" height="40.00" fill="#4C78A8" opacity="0.35"/>
<rect x="478.00" y="320.00" width="3.25" height="40.00" fill="#4C78A8" opacity="0.35"/>
<rect x="480.75" y="320.00" width="3.25" height="40.00" fill="#4C78A8" opacity="0.35"/>
<rect x="483.50" y="320.00" width="3.25" height="40.00" fill="#4C78A8" opacity="0.35"/>
<rect x="486.25" y="320.00" width="3.25" height="40.00" fill="#4C78A8" opacity="0.35"/>
<rect x="489.00" y="320.00" width="3.25" height="40.00" fill="#4C78A8" opacity="0.35"/>
<rect x="491.75" y="320.00" width="3.25" height="40.00" fill="#4C78A8" opacity="0.35"/>
<rect x="494.50" y="320.00" width="3.25" height="40.00" fill="#4C78A8" opacity="0.35"/>
<rect x="497.25" y="320.00" width="3.25" height="40.00" fill="#4C78A8" opacity="0.35"/>
<rect x="500.00" y="320.00" width="3.25" height="40.00" fill="#4C78A8" opacity="0.35"/>
<rect x="502.75" y="320.00" width="3.25" height="40.00" fill="#F58518" opacity="0.35"/>
<rect x="505.50" y="320.00" width="3.25" height="40.00" fill="#F58518" opacity="0.35"/>
<rect x="508.25" y="320.00" width="3.25" height="40.00" fill="#F58518" opacity="0.35"/>
<rect x="511.00" y="320.00" width="3.25" height="40.00" fill="#F58518" opacity="0.35"/>
<rect x="513.75" y="320.00" width="3.25" height="40.00" fill="#F58518" opacity="0.35"/>
<rect x="516.50" y="320.00" width="3.25" height="40.00" fill="#F58518" opacity="0.35"/>
<rect x="519.25" y="320.00" width="3.25" height="40.00" fill="#F58518" opacity="0.35"/>
<rect x="522.00" y="320.00" width="3.25" height="40.00" fill="#F58518" opacity="0.35"/>
<rect x="524.75" y="320.00" width="3.25" height="40.00" fill="#F58518" opacity="0.35"/>
<rect x="527.50" y="320.00" width="3.25" height="40.00" fill="#F58518" opacity="0.35"/>
<rect x="530.25" y="320.00" width="3.25" height="40.00" fill="#F58518" opacity="0.35"/>
<rect x="533.00" y="320.00" width="3.25" height="40.00" fill="#F58518" opacity="0.35"/>
<rect x="535.75" y="320.00" width="3.25" height="40.00" fill="#F58518" opacity="0.35"/>
<rect x="538.50" y="320.00" width="3.25" height="40.00" fill="#F58518" opacity="0.35"/>
<rect x="541.25" y="320.00" width="3.25" height="40.00" fill="#F58518" opacity="0.35"/>
<rect x="544.00" y="320.00" width="3.25" height="40.00" fill="#F58518" opacity="0.35"/>
<rect x="546.75" y="320.00" width="3.25" height="40.00" fill="#F58518" opacity="0.35"/>
<rect x="549.50" y="320.00" width="3.25" height="40.00" fill="#F58518" opacity="0.35"/>
<rect x="552.25" y="320.00" width="3.25" height="40.00" fill="#F58518" opacity="0.35"/>
<rect x="555.00" y="320.00" width="3.25" height="40.00" fill="#F58518" opacity="0.35"/>
<rect x="557.75" y="320.00" width="3.25" height="40.00" fill="#F58518" opacity="0.35"/>
<rect x="560.50" y="320.00" width="3.25" height="40.00" fill="#F58518" opacity="0.35"/>
<rect x="563.25" y="320.00" width="3.25" height="40.00" fill="#F58518" opacity="0.35"/>
<rect x="566.00" y="320.00" width="3.25" height="40.00" fill="#F58518" opacity="0.35"/>
<rect x="568.75" y="320.00" width="3.25" height="40.00" fill="#F58518" opacity="0.35"/>
<rect x="571.50" y="320.00" width="3.25" height="40.00" fill="#F58518" opacity="0.35"/>
<rect x="574.25" y="320.00" width="3.25" height="40.00" fill="#F58518" opacity="0.35"/>
<rect x="577.00" y="320.00" width="3.25" height="40.00" fill="#F58518" opacity="0.35"/>
<rect x="579.75" y="320.00" width="3.25" height="40.00" fill="#F58518" opacity="0.35"/>
<rect x="582.50" y="320.00" width="3.25" height="40.00" fill="#F58518" opacity="0.35"/>
<rect x="585.25" y="320.00" width="3.25" height="40.00" fill="#F58518" opacity="0.35"/>
<rect x="588.00" y="320.00" width="3.25" height="40.00" fill="#F58518" opacity="0.35"/>
<rect x="590.75" y="320.00" width="3.25" height="40.00" fill="#F58518" opacity="0.35"/>
<rect x="593.50" y="320.00" width="3.25" height="40.00" fill="#F58518" opacity="0.35"/>
<rect x="596.25" y="320.00" width="3.25" height="40.00" fill="#F58518" opacity="0.35"/>
<rect x="599.00" y="320.00" width="3.25" height="40.00" fill="#F58518" opacity="0.35"/>
<rect x="601.75" y="320.00" width="3.25" height="40.00" fill="#F58518" opacity="0.35"/>
<rect x="604.50" y="320.00" width="3.25" height="40.00" fill="#F58518" opacity="0.35"/>
<rect x="607.25" y="320.00" width="3.25" height="40.00" fill="#F58518" opacity="0.35"/>
<rect x="60" y="298.00" width="160" height="18" fill="none" stroke="none"/>
<text x="60" y="312.00" font-size="12" font-family="sans-serif">Dominant state</text>
<text x="335.0" y="400" text-anchor="middle" font-size="12" font-family="sans-serif">Trial index</text>
</svg>