<svg xmlns="http://www.w3.org/2000/svg" width="640" height="420">
<rect x="0" y="0" width="640" height="420" fill="#ffffff"/>
<text x="320.0" y="24" text-anchor="middle" font-size="16" font-family="sans-serif">SeriesHMM-TinyMoA state posterior</text>
<text x="30.0" y="170.0" transform="rotate(-90 30.0,170.0)" text-anchor="middle" font-size="12" font-family="sans-serif">Mixture weight</text>
<line x1="60" y1="300" x2="610" y2="300" stroke="#000"/>
<line x1="60" y1="40" x2="60" y2="300" stroke="#000"/>
<line x1="60" y1="300.00" x2="610" y2="300.00" stroke="#e0e0e0" stroke-dasharray="4 4"/>
<text x="50" y="304.00" text-anchor="end" font-size="11" font-family="sans-serif">0</text>
<line x1="60" y1="300.00" x2="610" y2="300.00" stroke="#e0e0e0" stroke-dasharray="4 4"/>
<text x="50" y="304.00" text-anchor="end" font-size="11" font-family="sans-serif">0</text>
<line x1="60" y1="300.00" x2="610" y2="300.00" stroke="#e0e0e0" stroke-dasharray="4 4"/>
<text x="50" y="304.00" text-anchor="end" font-size="11" font-family="sans-serif">0</text>
<line x1="60" y1="40.00" x2="610" y2="40.00" stroke="#e0e0e0" stroke-dasharray="4 4"/>
<text x="50" y="44.00" text-anchor="end" font-size="11" font-family="sans-serif">1</text>
<line x1="60" y1="40.00" x2="610" y2="40.00" stroke="#e0e0e0" stroke-dasharray="4 4"/>
<text x="50" y="44.00" text-anchor="end" font-size="11" font-family="sans-serif">1</text>
<text x="60.00" y="378" text-anchor="middle" font-size="11" font-family="sans-serif">1</text>
<text x="170.55" y="378" text-anchor="middle" font-size="11" font-family="sans-serif">41</text>
<text x="281.11" y="378" text-anchor="middle" font-size="11" font-family="sans-serif">81</text>
<text x="388.89" y="378" text-anchor="middle" font-size="11" font-family="sans-serif">120</text>
<text x="499.45" y="378" text-anchor="middle" font-size="11" font-family="sans-serif">160</text>
<text x="610.00" y="378" text-anchor="middle" font-size="11" font-family="sans-serif">200</text>
<polyline fill="none" stroke="#4C78A8" stroke-width="2" points="60.00,169.32 62.76,169.31 65.53,169.21 68.29,169.00 71.06,168.58 73.82,168.57 76.58,168.36 79.35,167.79 82.11,167.59 84.87,167.58 87.64,167.38 90.40,166.92 93.17,166.15 95.93,164.99 98.69,163.50 101.46,162.74 104.22,161.63 106.98,160.14 109.75,159.41 112.51,158.24 115.28,157.94 118.04,158.66 120.80,158.89 123.57,158.50 126.33,158.93 129.10,159.92 131.86,160.53 134.62,160.63 137.39,160.33 140.15,159.73 142.91,158.69 145.68,157.32 148.44,155.55 151.21,153.19 153.97,150.39 156.73,148.76 159.50,148.28 162.26,148.93 165.03,149.04 167.79,148.58 170.55,147.62 173.32,146.11 176.08,144.02 178.84,144.09 181.61,146.06 184.37,147.45 187.14,148.26 189.90,148.33 192.66,147.89 195.43,146.78 198.19,145.22 200.95,145.19 203.72,146.73 206.48,147.72 209.25,148.16 212.01,148.04 214.77,147.33 217.54,146.02 220.30,143.88 223.07,141.19 225.83,137.94 228.59,134.09 231.36,129.60 234.12,128.64 236.88,127.02 239.65,124.76 242.41,125.07 245.18,124.54 247.94,123.43 250.70,121.76 253.47,122.66 256.23,122.96 258.99,122.67 261.76,121.78 264.52,120.12 267.29,117.84 270.05,114.74 272.81,111.09 275.58,106.86 278.34,101.82 281.11,96.02 283.87,89.50 286.63,82.38 289.40,79.04 292.16,75.06 294.92,74.26 297.69,72.82 300.45,74.36 303.22,75.25 305.98,75.51 308.74,75.14 311.51,74.17 314.27,72.50 317.04,70.27 319.80,67.37 322.56,63.92 325.33,62.97 328.09,61.45 330.85,59.35 333.62,56.66 336.38,53.25 339.15,51.61 341.91,51.67 344.67,51.17 347.44,50.05 350.20,48.39 352.96,48.27 355.73,47.59 358.49,47.81 361.26,47.44 364.02,46.55 366.78,46.55 369.55,46.01 372.31,46.58 375.08,46.60 377.84,46.08 380.60,45.02 383.37,45.63 386.13,45.68 388.89,45.19 391.66,44.15 394.42,42.58 397.19,42.04 399.95,42.35 402.71,42.12 405.48,41.34 408.24,41.07 411.01,40.90 413.77,40.79 416.53,40.74 419.30,40.75 422.06,40.85 424.82,41.08 427.59,41.81 430.35,41.95 433.12,42.44 435.88,43.41 438.64,43.80 441.41,43.61 444.17,42.86 446.93,42.38 449.70,42.21 452.46,42.27 455.23,41.75 457.99,41.46 460.75,41.33 463.52,41.53 466.28,42.22 469.05,43.44 471.81,44.04 474.57,45.23 477.34,45.84 480.10,47.03 482.86,47.64 485.63,47.67 488.39,48.18 491.16,48.12 493.92,48.54 496.68,48.33 499.45,47.46 502.21,46.00 504.97,45.04 507.74,44.51 510.50,43.40 513.27,43.14 516.03,42.30 518.79,41.95 521.56,41.74 524.32,41.86 527.09,42.12 529.85,42.82 532.61,42.94 535.38,43.19 538.14,43.61 540.90,43.46 543.67,42.75 546.43,42.28 549.20,42.23 551.96,42.33 554.72,42.63 557.49,43.41 560.25,43.61 563.02,43.96 565.78,44.84 568.54,45.13 571.31,44.79 574.07,45.13 576.83,45.77 579.60,46.72 582.36,47.00 585.13,46.67 587.89,45.73 590.65,45.17 593.42,44.92 596.18,45.32 598.94,46.22 601.71,47.60 604.47,50.13 607.24,53.69 610.00,58.54"/>
<circle cx="60.00" cy="169.32" r="2.5" fill="#4C78A8"/>
<circle cx="62.76" cy="169.31" r="2.5" fill="#4C78A8"/>
<circle cx="65.53" cy="169.21" r="2.5" fill="#4C78A8"/>
<circle cx="68.29" cy="169.00" r="2.5" fill="#4C78A8"/>
<circle cx="71.06" cy="168.58" r="2.5" fill="#4C78A8"/>
<circle cx="73.82" cy="168.57" r="2.5" fill="#4C78A8"/>
<circle cx="76.58" cy="168.36" r="2.5" fill="#4C78A8"/>
<circle cx="79.35" cy="167.79" r="2.5" fill="#4C78A8"/>
<circle cx="82.11" cy="167.59" r="2.5" fill="#4C78A8"/>
<circle cx="84.87" cy="167.58" r="2.5" fill="#4C78A8"/>
<circle cx="87.64" cy="167.38" r="2.5" fill="#4C78A8"/>
<circle cx="90.40" cy="166.92" r="2.5" fill="#4C78A8"/>
<circle cx="93.17" cy="166.15" r="2.5" fill="#4C78A8"/>
<circle cx="95.93" cy="164.99" r="2.5" fill="#4C78A8"/>
<circle cx="98.69" cy="163.50" r="2.5" fill="#4C78A8"/>
<circle cx="101.46" cy="162.74" r="2.5" fill="#4C78A8"/>
<circle cx="104.22" cy="161.63" r="2.5" fill="#4C78A8"/>
<circle cx="106.98" cy="160.14" r="2.5" fill="#4C78A8"/>
<circle cx="109.75" cy="159.41" r="2.5" fill="#4C78A8"/>
<circle cx="112.51" cy="158.24" r="2.5" fill="#4C78A8"/>
<circle cx="115.28" cy="157.94" r="2.5" fill="#4C78A8"/>
<circle cx="118.04" cy="158.66" r="2.5" fill="#4C78A8"/>
<circle cx="120.80" cy="158.89" r="2.5" fill="#4C78A8"/>
<circle cx="123.57" cy="158.50" r="2.5" fill="#4C78A8"/>
<circle cx="126.33" cy="158.93" r="2.5" fill="#4C78A8"/>
<circle cx="129.10" cy="159.92" r="2.5" fill="#4C78A8"/>
<circle cx="131.86" cy="160.53" r="2.5" fill="#4C78A8"/>
<circle cx="134.62" cy="160.63" r="2.5" fill="#4C78A8"/>
<circle cx="137.39" cy="160.33" r="2.5" fill="#4C78A8"/>
<circle cx="140.15" cy="159.73" r="2.5" fill="#4C78A8"/>
<circle cx="142.91" cy="158.69" r="2.5" fill="#4C78A8"/>
<circle cx="145.68" cy="157.32" r="2.5" fill="#4C78A8"/>
<circle cx="148.44" cy="155.55" r="2.5" fill="#4C78A8"/>
<circle cx="151.21" cy="153.19" r="2.5" fill="#4C78A8"/>
<circle cx="153.97" cy="150.39" r="2.5" fill="#4C78A8"/>
<circle cx="156.73" cy="148.76" r="2.5" fill="#4C78A8"/>
<circle cx="159.50" cy="148.28" r="2.5" fill="#4C78A8"/>
<circle cx="162.26" cy="148.93" r="2.5" fill="#4C78A8"/>
<circle cx="165.03" cy="149.04" r="2.5" fill="#4C78A8"/>
<circle cx="167.79" cy="148.58" r="2.5" fill="#4C78A8"/>
<circle cx="170.55" cy="147.62" r="2.5" fill="#4C78A8"/>
<circle cx="173.32" cy="146.11" r="2.5" fill="#4C78A8"/>
<circle cx="176.08" cy="144.02" r="2.5" fill="#4C78A8"/>
<circle cx="178.84" cy="144.09" r="2.5" fill="#4C78A8"/>
<circle cx="181.61" cy="146.06" r="2.5" fill="#4C78A8"/>
<circle cx="184.37" cy="147.45" r="2.5" fill="#4C78A8"/>
<circle cx="187.14" cy="148.26" r="2.5" fill="#4C78A8"/>
<circle cx="189.90" cy="148.33" r="2.5" fill="#4C78A8"/>
<circle cx="192.66" cy="147.89" r="2.5" fill="#4C78A8"/>
<circle cx="195.43" cy="146.78" r="2.5" fill="#4C78A8"/>
<circle cx="198.19" cy="145.22" r="2.5" fill="#4C78A8"/>
<circle cx="200.95" cy="145.19" r="2.5" fill="#4C78A8"/>
<circle cx="203.72" cy="146.73" r="2.5" fill="#4C78A8"/>
<circle cx="206.48" cy="147.72" r="2.5" fill="#4C78A8"/>
<circle cx="209.25" cy="148.16" r="2.5" fill="#4C78A8"/>
<circle cx="212.01" cy="148.04" r="2.5" fill="#4C78A8"/>
<circle cx="214.77" cy="147.33" r="2.5" fill="#4C78A8"/>
<circle cx="217.54" cy="146.02" r="2.5" fill="#4C78A8"/>
<circle cx="220.30" cy="143.88" r="2.5" fill="#4C78A8"/>
<circle cx="223.07" cy="141.19" r="2.5" fill="#4C78A8"/>
<circle cx="225.83" cy="137.94" r="2.5" fill="#4C78A8"/>
<circle cx="228.59" cy="134.09" r="2.5" fill="#4C78A8"/>
<circle cx="231.36" cy="129.60" r="2.5" fill="#4C78A8"/>
<circle cx="234.12" cy="128.64" r="2.5" fill="#4C78A8"/>
<circle cx="236.88" cy="127.02" r="2.5" fill="#4C78A8"/>
<circle cx="239.65" cy="124.76" r="2.5" fill="#4C78A8"/>
<circle cx="242.41" cy="125.07" r="2.5" fill="#4C78A8"/>
<circle cx="245.18" cy="124.54" r="2.5" fill="#4C78A8"/>
<circle cx="247.94" cy="123.43" r="2.5" fill="#4C78A8"/>
<circle cx="250.70" cy="121.76" r="2.5" fill="#4C78A8"/>
<circle cx="253.47" cy="122.66" r="2.5" fill="#4C78A8"/>
<circle cx="256.23" cy="122.96" r="2.5" fill="#4C78A8"/>
<circle cx="258.99" cy="122.67" r="2.5" fill="#4C78A8"/>
<circle cx="261.76" cy="121.78" r="2.5" fill="#4C78A8"/>
<circle cx="264.52" cy="120.12" r="2.5" fill="#4C78A8"/>
<circle cx="267.29" cy="117.84" r="2.5" fill="#4C78A8"/>
<circle cx="270.05" cy="114.74" r="2.5" fill="#4C78A8"/>
<circle cx="272.81" cy="111.09" r="2.5" fill="#4C78A8"/>
<circle cx="275.58" cy="106.86" r="2.5" fill="#4C78A8"/>
<circle cx="278.34" cy="101.82" r="2.5" fill="#4C78A8"/>
<circle cx="281.11" cy="96.02" r="2.5" fill="#4C78A8"/>
<circle cx="283.87" cy="89.50" r="2.5" fill="#4C78A8"/>
<circle cx="286.63" cy="82.38" r="2.5" fill="#4C78A8"/>
<circle cx="289.40" cy="79.04" r="2.5" fill="#4C78A8"/>
<circle cx="292.16" cy="75.06" r="2.5" fill="#4C78A8"/>
<circle cx="294.92" cy="74.26" r="2.5" fill="#4C78A8"/>
<circle cx="297.69" cy="72.82" r="2.5" fill="#4C78A8"/>
<circle cx="300.45" cy="74.36" r="2.5" fill="#4C78A8"/>
<circle cx="303.22" cy="75.25" r="2.5" fill="#4C78A8"/>
<circle cx="305.98" cy="75.51" r="2.5" fill="#4C78A8"/>
<circle cx="308.74" cy="75.14" r="2.5" fill="#4C78A8"/>
<circle cx="311.51" cy="74.17" r="2.5" fill="#4C78A8"/>
<circle cx="314.27" cy="72.50" r="2.5" fill="#4C78A8"/>
<circle cx="317.04" cy="70.27" r="2.5" fill="#4C78A8"/>
<circle cx="319.80" cy="67.37" r="2.5" fill="#4C78A8"/>
<circle cx="322.56" cy="63.92" r="2.5" fill="#4C78A8"/>
<circle cx="325.33" cy="62.97" r="2.5" fill="#4C78A8"/>
<circle cx="328.09" cy="61.45" r="2.5" fill="#4C78A8"/>
<circle cx="330.85" cy="59.35" r="2.5" fill="#4C78A8"/>
<circle cx="333.62" cy="56.66" r="2.5" fill="#4C78A8"/>
<circle cx="336.38" cy="53.25" r="2.5" fill="#4C78A8"/>
<circle cx="339.15" cy="51.61" r="2.5" fill="#4C78A8"/>
<circle cx="341.91" cy="51.67" r="2.5" fill="#4C78A8"/>
<circle cx="344.67" cy="51.17" r="2.5" fill="#4C78A8"/>
<circle cx="347.44" cy="50.05" r="2.5" fill="#4C78A8"/>
<circle cx="350.20" cy="48.39" r="2.5" fill="#4C78A8"/>
<circle cx="352.96" cy="48.27" r="2.5" fill="#4C78A8"/>
<circle cx="355.73" cy="47.59" r="2.5" fill="#4C78A8"/>
<circle cx="358.49" cy="47.81" r="2.5" fill="#4C78A8"/>
<circle cx="361.26" cy="47.44" r="2.5" fill="#4C78A8"/>
<circle cx="364.02" cy="46.55" r="2.5" fill="#4C78A8"/>
<circle cx="366.78" cy="46.55" r="2.5" fill="#4C78A8"/>
<circle cx="369.55" cy="46.01" r="2.5" fill="#4C78A8"/>
<circle cx="372.31" cy="46.58" r="2.5" fill="#4C78A8"/>
<circle cx="375.08" cy="46.60" r="2.5" fill="#4C78A8"/>
<circle cx="377.84" cy="46.08" r="2.5" fill="#4C78A8"/>
<circle cx="380.60" cy="45.02" r="2.5" fill="#4C78A8"/>
<circle cx="383.37" cy="45.63" r="2.5" fill="#4C78A8"/>
<circle cx="386.13" cy="45.68" r="2.5" fill="#4C78A8"/>
<circle cx="388.89" cy="45.19" r="2.5" fill="#4C78A8"/>
<circle cx="391.66" cy="44.15" r="2.5" fill="#4C78A8"/>
<circle cx="394.42" cy="42.58" r="2.5" fill="#4C78A8"/>
<circle cx="397.19" cy="42.04" r="2.5" fill="#4C78A8"/>
<circle cx="399.95" cy="42.35" r="2.5" fill="#4C78A8"/>
<circle cx="402.71" cy="42.12" r="2.5" fill="#4C78A8"/>
<circle cx="405.48" cy="41.34" r="2.5" fill="#4C78A8"/>
<circle cx="408.24" cy="41.07" r="2.5" fill="#4C78A8"/>
<circle cx="411.01" cy="40.90" r="2.5" fill="#4C78A8"/>
<circle cx="413.77" cy="40.79" r="2.5" fill="#4C78A8"/>
<circle cx="416.53" cy="40.74" r="2.5" fill="#4C78A8"/>
<circle cx="419.30" cy="40.75" r="2.5" fill="#4C78A8"/>
<circle cx="422.06" cy="40.85" r="2.5" fill="#4C78A8"/>
<circle cx="424.82" cy="41.08" r="2.5" fill="#4C78A8"/>
<circle cx="427.59" cy="41.81" r="2.5" fill="#4C78A8"/>
<circle cx="430.35" cy="41.95" r="2.5" fill="#4C78A8"/>
<circle cx="433.12" cy="42.44" r="2.5" fill="#4C78A8"/>
<circle cx="435.88" cy="43.41" r="2.5" fill="#4C78A8"/>
<circle cx="438.64" cy="43.80" r="2.5" fill="#4C78A8"/>
<circle cx="441.41" cy="43.61" r="2.5" fill="#4C78A8"/>
<circle cx="444.17" cy="42.86" r="2.5" fill="#4C78A8"/>
<circle cx="446.93" cy="42.38" r="2.5" fill="#4C78A8"/>
<circle cx="449.70" cy="42.21" r="2.5" fill="#4C78A8"/>
<circle cx="452.46" cy="42.27" r="2.5" fill="#4C78A8"/>
<circle cx="455.23" cy="41.75" r="2.5" fill="#4C78A8"/>
<circle cx="457.99" cy="41.46" r="2.5" fill="#4C78A8"/>
<circle cx="460.75" cy="41.33" r="2.5" fill="#4C78A8"/>
<circle cx="463.52" cy="41.53" r="2.5" fill="#4C78A8"/>
<circle cx="466.28" cy="42.22" r="2.5" fill="#4C78A8"/>
<circle cx="469.05" cy="43.44" r="2.5" fill="#4C78A8"/>
<circle cx="471.81" cy="44.04" r="2.5" fill="#4C78A8"/>
<circle cx="474.57" cy="45.23" r="2.5" fill="#4C78A8"/>
<circle cx="477.34" cy="45.84" r="2.5" fill="#4C78A8"/>
<circle cx="480.10" cy="47.03" r="2.5" fill="#4C78A8"/>
<circle cx="482.86" cy="47.64" r="2.5" fill="#4C78A8"/>
<circle cx="485.63" cy="47.67" r="2.5" fill="#4C78A8"/>
<circle cx="488.39" cy="48.18" r="2.5" fill="#4C78A8"/>
<circle cx="491.16" cy="48.12" r="2.5" fill="#4C78A8"/>
<circle cx="493.92" cy="48.54" r="2.5" fill="#4C78A8"/>
<circle cx="496.68" cy="48.33" r="2.5" fill="#4C78A8"/>
<circle cx="499.45" cy="47.46" r="2.5" fill="#4C78A8"/>
<circle cx="502.21" cy="46.00" r="2.5" fill="#4C78A8"/>
<circle cx="504.97" cy="45.04" r="2.5" fill="#4C78A8"/>
<circle cx="507.74" cy="44.51" r="2.5" fill="#4C78A8"/>
<circle cx="510.50" cy="43.40" r="2.5" fill="#4C78A8"/>
<circle cx="513.27" cy="43.14" r="2.5" fill="#4C78A8"/>
<circle cx="516.03" cy="42.30" r="2.5" fill="#4C78A8"/>
<circle cx="518.79" cy="41.95" r="2.5" fill="#4C78A8"/>
<circle cx="521.56" cy="41.74" r="2.5" fill="#4C78A8"/>
<circle cx="524.32" cy="41.86" r="2.5" fill="#4C78A8"/>
<circle cx="527.09" cy="42.12" r="2.5" fill="#4C78A8"/>
<circle cx="529.85" cy="42.82" r="2.5" fill="#4C78A8"/>
<circle cx="532.61" cy="42.94" r="2.5" fill="#4C78A8"/>
<circle cx="535.38" cy="43.19" r="2.5" fill="#4C78A8"/>
<circle cx="538.14" cy="43.61" r="2.5" fill="#4C78A8"/>
<circle cx="540.90" cy="43.46" r="2.5" fill="#4C78A8"/>
<circle cx="543.67" cy="42.75" r="2.5" fill="#4C78A8"/>
<circle cx="546.43" cy="42.28" r="2.5" fill="#4C78A8"/>
<circle cx="549.20" cy="42.23" r="2.5" fill="#4C78A8"/>
<circle cx="551.96" cy="42.33" r="2.5" fill="#4C78A8"/>
<circle cx="554.72" cy="42.63" r="2.5" fill="#4C78A8"/>
<circle cx="557.49" cy="43.41" r="2.5" fill="#4C78A8"/>
<circle cx="560.25" cy="43.61" r="2.5" fill="#4C78A8"/>
<circle cx="563.02" cy="43.96" r="2.5" fill="#4C78A8"/>
<circle cx="565.78" cy="44.84" r="2.5" fill="#4C78A8"/>
<circle cx="568.54" cy="45.13" r="2.5" fill="#4C78A8"/>
<circle cx="571.31" cy="44.79" r="2.5" fill="#4C78A8"/>
<circle cx="574.07" cy="45.13" r="2.5" fill="#4C78A8"/>
<circle cx="576.83" cy="45.77" r="2.5" fill="#4C78A8"/>
<circle cx="579.60" cy="46.72" r="2.5" fill="#4C78A8"/>
<circle cx="582.36" cy="47.00" r="2.5" fill="#4C78A8"/>
<circle cx="585.13" cy="46.67" r="2.5" fill="#4C78A8"/>
<circle cx="587.89" cy="45.73" r="2.5" fill="#4C78A8"/>
<circle cx="590.65" cy="45.17" r="2.5" fill="#4C78A8"/>
<circle cx="593.42" cy="44.92" r="2.5" fill="#4C78A8"/>
<circle cx="596.18" cy="45.32" r="2.5" fill="#4C78A8"/>
<circle cx="598.94" cy="46.22" r="2.5" fill="#4C78A8"/>
<circle cx="601.71" cy="47.60" r="2.5" fill="#4C78A8"/>
<circle cx="604.47" cy="50.13" r="2.5" fill="#4C78A8"/>
<circle cx="607.24" cy="53.69" r="2.5" fill="#4C78A8"/>
<circle cx="610.00" cy="58.54" r="2.5" fill="#4C78A8"/>
<polyline fill="none" stroke="#F58518" stroke-width="2" points="60.00,170.68 62.76,170.69 65.53,170.79 68.29,171.00 71.06,171.42 73.82,171.43 76.58,171.64 79.35,172.21 82.11,172.41 84.87,172.42 87.64,172.62 90.40,173.08 93.17,173.85 95.93,175.01 98.69,176.50 101.46,177.26 104.22,178.37 106.98,179.86 109.75,180.59 112.51,181.76 115.28,182.06 118.04,181.34 120.80,181.11 123.57,181.50 126.33,181.07 129.10,180.08 131.86,179.47 134.62,179.37 137.39,179.67 140.15,180.27 142.91,181.31 145.68,182.68 148.44,184.45 151.21,186.81 153.97,189.61 156.73,191.24 159.50,191.72 162.26,191.07 165.03,190.96 167.79,191.42 170.55,192.38 173.32,193.89 176.08,195.98 178.84,195.91 181.61,193.94 184.37,192.55 187.14,191.74 189.90,191.67 192.66,192.11 195.43,193.22 198.19,194.78 200.95,194.81 203.72,193.27 206.48,192.28 209.25,191.84 212.01,191.96 214.77,192.67 217.54,193.98 220.30,196.12 223.07,198.81 225.83,202.06 228.59,205.91 231.36,210.40 234.12,211.36 236.88,212.98 239.65,215.24 242.41,214.93 245.18,215.46 247.94,216.57 250.70,218.24 253.47,217.34 256.23,217.04 258.99,217.33 261.76,218.22 264.52,219.88 267.29,222.16 270.05,225.26 272.81,228.91 275.58,233.14 278.34,238.18 281.11,243.98 283.87,250.50 286.63,257.62 289.40,260.96 292.16,264.94 294.92,265.74 297.69,267.18 300.45,265.64 303.22,264.75 305.98,264.49 308.74,264.86 311.51,265.83 314.27,267.50 317.04,269.73 319.80,272.63 322.56,276.08 325.33,277.03 328.09,278.55 330.85,280.65 333.62,283.34 336.38,286.75 339.15,288.39 341.91,288.33 344.67,288.83 347.44,289.95 350.20,291.61 352.96,291.73 355.73,292.41 358.49,292.19 361.26,292.56 364.02,293.45 366.78,293.45 369.55,293.99 372.31,293.42 375.08,293.40 377.84,293.92 380.60,294.98 383.37,294.37 386.13,294.32 388.89,294.81 391.66,295.85 394.42,297.42 397.19,297.96 399.95,297.65 402.71,297.88 405.48,298.66 408.24,298.93 411.01,299.10 413.77,299.21 416.53,299.26 419.30,299.25 422.06,299.15 424.82,298.92 427.59,298.19 430.35,298.05 433.12,297.56 435.88,296.59 438.64,296.20 441.41,296.39 444.17,297.14 446.93,297.62 449.70,297.79 452.46,297.73 455.23,298.25 457.99,298.54 460.75,298.67 463.52,298.47 466.28,297.78 469.05,296.56 471.81,295.96 474.57,294.77 477.34,294.16 480.10,292.97 482.86,292.36 485.63,292.33 488.39,291.82 491.16,291.88 493.92,291.46 496.68,291.67 499.45,292.54 502.21,294.00 504.97,294.96 507.74,295.49 510.50,296.60 513.27,296.86 516.03,297.70 518.79,298.05 521.56,298.26 524.32,298.14 527.09,297.88 529.85,297.18 532.61,297.06 535.38,296.81 538.14,296.39 540.90,296.54 543.67,297.25 546.43,297.72 549.20,297.77 551.96,297.67 554.72,297.37 557.49,296.59 560.25,296.39 563.02,296.04 565.78,295.16 568.54,294.87 571.31,295.21 574.07,294.87 576.83,294.23 579.60,293.28 582.36,293.00 585.13,293.33 587.89,294.27 590.65,294.83 593.42,295.08 596.18,294.68 598.94,293.78 601.71,292.40 604.47,289.87 607.24,286.31 610.00,281.46"/>
<circle cx="60.00" cy="170.68" r="2.5" fill="#F58518"/>
<circle cx="62.76" cy="170.69" r="2.5" fill="#F58518"/>
<circle cx="65.53" cy="170.79" r="2.5" fill="#F58518"/>
<circle cx="68.29" cy="171.00" r="2.5" fill="#F58518"/>
<circle cx="71.06" cy="171.42" r="2.5" fill="#F58518"/>
<circle cx="73.82" cy="171.43" r="2.5" fill="#F58518"/>
<circle cx="76.58" cy="171.64" r="2.5" fill="#F58518"/>
<circle cx="79.35" cy="172.21" r="2.5" fill="#F58518"/>
<circle cx="82.11" cy="172.41" r="2.5" fill="#F58518"/>
<circle cx="84.87" cy="172.42" r="2.5" fill="#F58518"/>
<circle cx="87.64" cy="172.62" r="2.5" fill="#F58518"/>
<circle cx="90.40" cy="173.08" r="2.5" fill="#F58518"/>
<circle cx="93.17" cy="173.85" r="2.5" fill="#F58518"/>
<circle cx="95.93" cy="175.01" r="2.5" fill="#F58518"/>
<circle cx="98.69" cy="176.50" r="2.5" fill="#F58518"/>
<circle cx="101.46" cy="177.26" r="2.5" fill="#F58518"/>
<circle cx="104.22" cy="178.37" r="2.5" fill="#F58518"/>
<circle cx="106.98" cy="179.86" r="2.5" fill="#F58518"/>
<circle cx="109.75" cy="180.59" r="2.5" fill="#F58518"/>
<circle cx="112.51" cy="181.76" r="2.5" fill="#F58518"/>
<circle cx="115.28" cy="182.06" r="2.5" fill="#F58518"/>
<circle cx="118.04" cy="181.34" r="2.5" fill="#F58518"/>
<circle cx="120.80" cy="181.11" r="2.5" fill="#F58518"/>
<circle cx="123.57" cy="181.50" r="2.5" fill="#F58518"/>
<circle cx="126.33" cy="181.07" r="2.5" fill="#F58518"/>
<circle cx="129.10" cy="180.08" r="2.5" fill="#F58518"/>
<circle cx="131.86" cy="179.47" r="2.5" fill="#F58518"/>
<circle cx="134.62" cy="179.37" r="2.5" fill="#F58518"/>
<circle cx="137.39" cy="179.67" r="2.5" fill="#F58518"/>
<circle cx="140.15" cy="180.27" r="2.5" fill="#F58518"/>
<circle cx="142.91" cy="181.31" r="2.5" fill="#F58518"/>
<circle cx="145.68" cy="182.68" r="2.5" fill="#F58518"/>
<circle cx="148.44" cy="184.45" r="2.5" fill="#F58518"/>
<circle cx="151.21" cy="186.81" r="2.5" fill="#F58518"/>
<circle cx="153.97" cy="189.61" r="2.5" fill="#F58518"/>
<circle cx="156.73" cy="191.24" r="2.5" fill="#F58518"/>
<circle cx="159.50" cy="191.72" r="2.5" fill="#F58518"/>
<circle cx="162.26" cy="191.07" r="2.5" fill="#F58518"/>
<circle cx="165.03" cy="190.96" r="2.5" fill="#F58518"/>
<circle cx="167.79" cy="191.42" r="2.5" fill="#F58518"/>
<circle cx="170.55" cy="192.38" r="2.5" fill="#F58518"/>
<circle cx="173.32" cy="193.89" r="2.5" fill="#F58518"/>
<circle cx="176.08" cy="195.98" r="2.5" fill="#F58518"/>
<circle cx="178.84" cy="195.91" r="2.5" fill="#F58518"/>
<circle cx="181.61" cy="193.94" r="2.5" fill="#F58518"/>
<circle cx="184.37" cy="192.55" r="2.5" fill="#F58518"/>
<circle cx="187.14" cy="191.74" r="2.5" fill="#F58518"/>
<circle cx="189.90" cy="191.67" r="2.5" fill="#F58518"/>
<circle cx="192.66" cy="192.11" r="2.5" fill="#F58518"/>
<circle cx="195.43" cy="193.22" r="2.5" fill="#F58518"/>
<circle cx="198.19" cy="194.78" r="2.5" fill="#F58518"/>
<circle cx="200.95" cy="194.81" r="2.5" fill="#F58518"/>
<circle cx="203.72" cy="193.27" r="2.5" fill="#F58518"/>
<circle cx="206.48" cy="192.28" r="2.5" fill="#F58518"/>
<circle cx="209.25" cy="191.84" r="2.5" fill="#F58518"/>
<circle cx="212.01" cy="191.96" r="2.5" fill="#F58518"/>
<circle cx="214.77" cy="192.67" r="2.5" fill="#F58518"/>
<circle cx="217.54" cy="193.98" r="2.5" fill="#F58518"/>
<circle cx="220.30" cy="196.12" r="2.5" fill="#F58518"/>
<circle cx="223.07" cy="198.81" r="2.5" fill="#F58518"/>
<circle cx="225.83" cy="202.06" r="2.5" fill="#F58518"/>
<circle cx="228.59" cy="205.91" r="2.5" fill="#F58518"/>
<circle cx="231.36" cy="210.40" r="2.5" fill="#F58518"/>
<circle cx="234.12" cy="211.36" r="2.5" fill="#F58518"/>
<circle cx="236.88" cy="212.98" r="2.5" fill="#F58518"/>
<circle cx="239.65" cy="215.24" r="2.5" fill="#F58518"/>
<circle cx="242.41" cy="214.93" r="2.5" fill="#F58518"/>
<circle cx="245.18" cy="215.46" r="2.5" fill="#F58518"/>
<circle cx="247.94" cy="216.57" r="2.5" fill="#F58518"/>
<circle cx="250.70" cy="218.24" r="2.5" fill="#F58518"/>
<circle cx="253.47" cy="217.34" r="2.5" fill="#F58518"/>
<circle cx="256.23" cy="217.04" r="2.5" fill="#F58518"/>
<circle cx="258.99" cy="217.33" r="2.5" fill="#F58518"/>
<circle cx="261.76" cy="218.22" r="2.5" fill="#F58518"/>
<circle cx="264.52" cy="219.88" r="2.5" fill="#F58518"/>
<circle cx="267.29" cy="222.16" r="2.5" fill="#F58518"/>
<circle cx="270.05" cy="225.26" r="2.5" fill="#F58518"/>
<circle cx="272.81" cy="228.91" r="2.5" fill="#F58518"/>
<circle cx="275.58" cy="233.14" r="2.5" fill="#F58518"/>
<circle cx="278.34" cy="238.18" r="2.5" fill="#F58518"/>
<circle cx="281.11" cy="243.98" r="2.5" fill="#F58518"/>
<circle cx="283.87" cy="250.50" r="2.5" fill="#F58518"/>
<circle cx="286.63" cy="257.62" r="2.5" fill="#F58518"/>
<circle cx="289.40" cy="260.96" r="2.5" fill="#F58518"/>
<circle cx="292.16" cy="264.94" r="2.5" fill="#F58518"/>
<circle cx="294.92" cy="265.74" r="2.5" fill="#F58518"/>
<circle cx="297.69" cy="267.18" r="2.5" fill="#F58518"/>
<circle cx="300.45" cy="265.64" r="2.5" fill="#F58518"/>
<circle cx="303.22" cy="264.75" r="2.5" fill="#F58518"/>
<circle cx="305.98" cy="264.49" r="2.5" fill="#F58518"/>
<circle cx="308.74" cy="264.86" r="2.5" fill="#F58518"/>
<circle cx="311.51" cy="265.83" r="2.5" fill="#F58518"/>
<circle cx="314.27" cy="267.50" r="2.5" fill="#F58518"/>
<circle cx="317.04" cy="269.73" r="2.5" fill="#F58518"/>
<circle cx="319.80" cy="272.63" r="2.5" fill="#F58518"/>
<circle cx="322.56" cy="276.08" r="2.5" fill="#F58518"/>
<circle cx="325.33" cy="277.03" r="2.5" fill="#F58518"/>
<circle cx="328.09" cy="278.55" r="2.5" fill="#F58518"/>
<circle cx="330.85" cy="280.65" r="2.5" fill="#F58518"/>
<circle cx="333.62" cy="283.34" r="2.5" fill="#F58518"/>
<circle cx="336.38" cy="286.75" r="2.5" fill="#F58518"/>
<circle cx="339.15" cy="288.39" r="2.5" fill="#F58518"/>
<circle cx="341.91" cy="288.33" r="2.5" fill="#F58518"/>
<circle cx="344.67" cy="288.83" r="2.5" fill="#F58518"/>
<circle cx="347.44" cy="289.95" r="2.5" fill="#F58518"/>
<circle cx="350.20" cy="291.61" r="2.5" fill="#F58518"/>
<circle cx="352.96" cy="291.73" r="2.5" fill="#F58518"/>
<circle cx="355.73" cy="292.41" r="2.5" fill="#F58518"/>
<circle cx="358.49" cy="292.19" r="2.5" fill="#F58518"/>
<circle cx="361.26" cy="292.56" r="2.5" fill="#F58518"/>
<circle cx="364.02" cy="293.45" r="2.5" fill="#F58518"/>
<circle cx="366.78" cy="293.45" r="2.5" fill="#F58518"/>
<circle cx="369.55" cy="293.99" r="2.5" fill="#F58518"/>
<circle cx="372.31" cy="293.42" r="2.5" fill="#F58518"/>
<circle cx="375.08" cy="293.40" r="2.5" fill="#F58518"/>
<circle cx="377.84" cy="293.92" r="2.5" fill="#F58518"/>
<circle cx="380.60" cy="294.98" r="2.5" fill="#F58518"/>
<circle cx="383.37" cy="294.37" r="2.5" fill="#F58518"/>
<circle cx="386.13" cy="294.32" r="2.5" fill="#F58518"/>
<circle cx="388.89" cy="294.81" r="2.5" fill="#F58518"/>
<circle cx="391.66" cy="295.85" r="2.5" fill="#F58518"/>
<circle cx="394.42" cy="297.42" r="2.5" fill="#F58518"/>
<circle cx="397.19" cy="297.96" r="2.5" fill="#F58518"/>
<circle cx="399.95" cy="297.65" r="2.5" fill="#F58518"/>
<circle cx="402.71" cy="297.88" r="2.5" fill="#F58518"/>
<circle cx="405.48" cy="298.66" r="2.5" fill="#F58518"/>
<circle cx="408.24" cy="298.93" r="2.5" fill="#F58518"/>
<circle cx="411.01" cy="299.10" r="2.5" fill="#F58518"/>
<circle cx="413.77" cy="299.21" r="2.5" fill="#F58518"/>
<circle cx="416.53" cy="299.26" r="2.5" fill="#F58518"/>
<circle cx="419.30" cy="299.25" r="2.5" fill="#F58518"/>
<circle cx="422.06" cy="299.15" r="2.5" fill="#F58518"/>
<circle cx="424.82" cy="298.92" r="2.5" fill="#F58518"/>
<circle cx="427.59" cy="298.19" r="2.5" fill="#F58518"/>
<circle cx="430.35" cy="298.05" r="2.5" fill="#F58518"/>
<circle cx="433.12" cy="297.56" r="2.5" fill="#F58518"/>
<circle cx="435.88" cy="296.59" r="2.5" fill="#F58518"/>
<circle cx="438.64" cy="296.20" r="2.5" fill="#F58518"/>
<circle cx="441.41" cy="296.39" r="2.5" fill="#F58518"/>
<circle cx="444.17" cy="297.14" r="2.5" fill="#F58518"/>
<circle cx="446.93" cy="297.62" r="2.5" fill="#F58518"/>
<circle cx="449.70" cy="297.79" r="2.5" fill="#F58518"/>
<circle cx="452.46" cy="297.73" r="2.5" fill="#F58518"/>
<circle cx="455.23" cy="298.25" r="2.5" fill="#F58518"/>
<circle cx="457.99" cy="298.54" r="2.5" fill="#F58518"/>
<circle cx="460.75" cy="298.67" r="2.5" fill="#F58518"/>
<circle cx="463.52" cy="298.47" r="2.5" fill="#F58518"/>
<circle cx="466.28" cy="297.78" r="2.5" fill="#F58518"/>
<circle cx="469.05" cy="296.56" r="2.5" fill="#F58518"/>
<circle cx="471.81" cy="295.96" r="2.5" fill="#F58518"/>
<circle cx="474.57" cy="294.77" r="2.5" fill="#F58518"/>
<circle cx="477.34" cy="294.16" r="2.5" fill="#F58518"/>
<circle cx="480.10" cy="292.97" r="2.5" fill="#F58518"/>
<circle cx="482.86" cy="292.36" r="2.5" fill="#F58518"/>
<circle cx="485.63" cy="292.33" r="2.5" fill="#F58518"/>
<circle cx="488.39" cy="291.82" r="2.5" fill="#F58518"/>
<circle cx="491.16" cy="291.88" r="2.5" fill="#F58518"/>
<circle cx="493.92" cy="291.46" r="2.5" fill="#F58518"/>
<circle cx="496.68" cy="291.67" r="2.5" fill="#F58518"/>
<circle cx="499.45" cy="292.54" r="2.5" fill="#F58518"/>
<circle cx="502.21" cy="294.00" r="2.5" fill="#F58518"/>
<circle cx="504.97" cy="294.96" r="2.5" fill="#F58518"/>
<circle cx="507.74" cy="295.49" r="2.5" fill="#F58518"/>
<circle cx="510.50" cy="296.60" r="2.5" fill="#F58518"/>
<circle cx="513.27" cy="296.86" r="2.5" fill="#F58518"/>
<circle cx="516.03" cy="297.70" r="2.5" fill="#F58518"/>
<circle cx="518.79" cy="298.05" r="2.5" fill="#F58518"/>
<circle cx="521.56" cy="298.26" r="2.5" fill="#F58518"/>
<circle cx="524.32" cy="298.14" r="2.5" fill="#F58518"/>
<circle cx="527.09" cy="297.88" r="2.5" fill="#F58518"/>
<circle cx="529.85" cy="297.18" r="2.5" fill="#F58518"/>
<circle cx="532.61" cy="297.06" r="2.5" fill="#F58518"/>
<circle cx="535.38" cy="296.81" r="2.5" fill="#F58518"/>
<circle cx="538.14" cy="296.39" r="2.5" fill="#F58518"/>
<circle cx="540.90" cy="296.54" r="2.5" fill="#F58518"/>
<circle cx="543.67" cy="297.25" r="2.5" fill="#F58518"/>
<circle cx="546.43" cy="297.72" r="2.5" fill="#F58518"/>
<circle cx="549.20" cy="297.77" r="2.5" fill="#F58518"/>
<circle cx="551.96" cy="297.67" r="2.5" fill="#F58518"/>
<circle cx="554.72" cy="297.37" r="2.5" fill="#F58518"/>
<circle cx="557.49" cy="296.59" r="2.5" fill="#F58518"/>
<circle cx="560.25" cy="296.39" r="2.5" fill="#F58518"/>
<circle cx="563.02" cy="296.04" r="2.5" fill="#F58518"/>
<circle cx="565.78" cy="295.16" r="2.5" fill="#F58518"/>
<circle cx="568.54" cy="294.87" r="2.5" fill="#F58518"/>
<circle cx="571.31" cy="295.21" r="2.5" fill="#F58518"/>
<circle cx="574.07" cy="294.87" r="2.5" fill="#F58518"/>
<circle cx="576.83" cy="294.23" r="2.5" fill="#F58518"/>
<circle cx="579.60" cy="293.28" r="2.5" fill="#F58518"/>
<circle cx="582.36" cy="293.00" r="2.5" fill="#F58518"/>
<circle cx="585.13" cy="293.33" r="2.5" fill="#F58518"/>
<circle cx="587.89" cy="294.27" r="2.5" fill="#F58518"/>
<circle cx="590.65" cy="294.83" r="2.5" fill="#F58518"/>
<circle cx="593.42" cy="295.08" r="2.5" fill="#F58518"/>
<circle cx="596.18" cy="294.68" r="2.5" fill="#F58518"/>
<circle cx="598.94" cy="293.78" r="2.5" fill="#F58518"/>
<circle cx="601.71" cy="292.40" r="2.5" fill="#F58518"/>
<circle cx="604.47" cy="289.87" r="2.5" fill="#F58518"/>
<circle cx="607.24" cy="286.31" r="2.5" fill="#F58518"/>
<circle cx="610.00" cy="281.46" r="2.5" fill="#F58518"/>
<rect x="490" y="40" width="12" height="12" fill="#4C78A8"/>
<text x="508" y="50" font-size="11" font-family="sans-serif">State 1</text>
<rect x="490" y="58" width="12" height="12" fill="#F58518"/>
<text x="508" y="68" font-size="11" font-family="sans-serif">State 2</text>
<rect x="60.00" y="320.00" width="3.25" height="40.00" fill="#4C78A8" opacity="0.35"/>
<rect x="62.75" y="320.00" width="3.25" height="40.00" fill="#4C78A8" opacity="0.35"/>
<rect x="65.50" y="320.00" width="3.25" height="40.00" fill="#4C78A8" opacity="0.35"/>
<rect x="68.25" y="320.00" width="3.25" height="40.00" fill="#4C78A8" opacity="0.35"/>
<rect x="71.00" y="320.00" width="3.25" height="40.00" fill="#4C78A8" opacity="0.35"/>
<rect x="73.75" y="320.00" width="3.25" height="40.00" fill="#4C78A8" opacity="0.35"/>
<rect x="76.50" y="320.00" width="3.25" height="40.00" fill="#4C78A8" opacity="0.35"/>
<rect x="79.25" y="320.00" width="3.25" height="40.00" fill="#4C78A8" opacity="0.35"/>
<rect x="82.00" y="320.00" width="3.25" height="40.00" fill="#4C78A8" opacity="0.35"/>
<rect x="84.75" y="320.00" width="3.25" height="40.00" fill="#4C78A8" opacity="0.35"/>
<rect x="87.50" y="320.00" width="3.25" height="40.00" fill="#4C78A8" opacity="0.35"/>
<rect x="90.25" y="320.00" width="3.25" height="40.00" fill="#4C78A8" opacity="0.35"/>
<rect x="93.00" y="320.00" width="3.25" height="40.00" fill="#4C78A8" opacity="0.35"/>
<rect x="95.75" y="320.00" width="3.25" height="40.00" fill="#4C78A8" opacity="0.35"/>
<rect x="98.50" y="320.00" width="3.25" height="40.00" fill="#4C78A8" opacity="0.35"/>
<rect x="101.25" y="320.00" width="3.25" height="40.00" fill="#4C78A8" opacity="0.35"/>
<rect x="104.00" y="320.00" width="3.25" height="40.00" fill="#4C78A8" opacity="0.35"/>
<rect x="106.75" y="320.00" width="3.25" height="40.00" fill="#4C78A8" opacity="0.35"/>
<rect x="109.50" y="320.00" width="3.25" height="40.00" fill="#4C78A8" opacity="0.35"/>
<rect x="112.25" y="320.00" width="3.25" height="40.00" fill="#4C78A8" opacity="0.35"/>
<rect x="115.00" y="320.00" width="3.25" height="40.00" fill="#4C78A8" opacity="0.35"/>
<rect x="117.75" y="320.00" width="3.25" height="40.00" fill="#4C78A8" opacity="0.35"/>
<rect x="120.50" y="320.00" width="3.25" height="40.00" fill="#4C78A8" opacity="0.35"/>
<rect x="123.25" y="320.00" width="3.25" height="40.00" fill="#4C78A8" opacity="0.35"/>
<rect x="126.00" y="320.00" width="3.25" height="40.00" fill="#4C78A8" opacity="0.35"/>
<rect x="128.75" y="320.00" width="3.25" height="40.00" fill="#4C78A8" opacity="0.35"/>
<rect x="131.50" y="320.00" width="3.25" height="40.00" fill="#4C78A8" opacity="0.35"/>
<rect x="134.25" y="320.00" width="3.25" height="40.00" fill="#4C78A8" opacity="0.35"/>
<rect x="137.00" y="320.00" width="3.25" height="40.00" fill="#4C78A8" opacity="0.35"/>
<rect x="139.75" y="320.00" width="3.25" height="40.00" fill="#4C78A8" opacity="0.35"/>
<rect x="142.50" y="320.00" width="3.25" height="40.00" fill="#4C78A8" opacity="0.35"/>
<rect x="145.25" y="320.00" width="3.25" height="40.00" fill="#4C78A8" opacity="0.35"/>
<rect x="148.00" y="320.00" width="3.25" height="40.00" fill="#4C78A8" opacity="0.35"/>
<rect x="150.75" y="320.00" width="3.25" height="40.00" fill="#4C78A8" opacity="0.35"/>
<rect x="153.50" y="320.00" width="3.25" height="40.00" fill="#4C78A8" opacity="0.35"/>
<rect x="156.25" y="320.00" width="3.25" height="40.00" fill="#4C78A8" opacity="0.35"/>
<rect x="159.00" y="320.00" width="3.25" height="40.00" fill="#4C78A8" opacity="0.35"/>
<rect x="161.75" y="320.00" width="3.25" height="40.00" fill="#4C78A8" opacity="0.35"/>
<rect x="164.50" y="320.00" width="3.25" height="40.00" fill="#4C78A8" opacity="0.35"/>
<rect x="167.25" y="320.00" width="3.25" height="40.00" fill="#4C78A8" opacity="0.35"/>
<rect x="170.00" y="320.00" width="3.25" height="40.00" fill="#4C78A8" opacity="0.35"/>
<rect x="172.75" y="320.00" width="3.25" height="40.00" fill="#4C78A8" opacity="0.35"/>
<rect x="175.50" y="320.00" width="3.25" height="40.00" fill="#4C78A8" opacity="0.35"/>
<rect x="178.25" y="320.00" width="3.25" height="40.00" fill="#4C78A8" opacity="0.35"/>
<rect x="181.00" y="320.00" width="3.25" height="40.00" fill="#4C78A8" opacity="0.35"/>
<rect x="183.75" y="320.00" width="3.25" height="40.00" fill="#4C78A8" opacity="0.35"/>
<rect x="186.50" y="320.00" width="3.25" height="40.00" fill="#4C78A8" opacity="0.35"/>
<rect x="189.25" y="320.00" width="3.25" height="40.00" fill="#4C78A8" opacity="0.35"/>
<rect x="192.00" y="320.00" width="3.25" height="40.00" fill="#4C78A8" opacity="0.35"/>
<rect x="194.75" y="320.00" width="3.25" height="40.00" fill="#4C78A8" opacity="0.35"/>
<rect x="197.50" y="320.00" width="3.25" height="40.00" fill="#4C78A8" opacity="0.35"/>
<rect x="200.25" y="320.00" width="3.25" height="40.00" fill="#4C78A8" opacity="0.35"/>
<rect x="203.00" y="320.00" width="3.25" height="40.00" fill="#4C78A8" opacity="0.35"/>
<rect x="205.75" y="320.00" width="3.25" height="40.00" fill="#4C78A8" opacity="0.35"/>
<rect x="208.50" y="320.00" width="3.25" height="40.00" fill="#4C78A8" opacity="0.35"/>
<rect x="211.25" y="320.00" width="3.25" height="40.00" fill="#4C78A8" opacity="0.35"/>
<rect x="214.00" y="320.00" width="3.25" height="40.00" fill="#4C78A8" opacity="0.35"/>
<rect x="216.75" y="320.00" width="3.25" height="40.00" fill="#4C78A8" opacity="0.35"/>
<rect x="219.50" y="320.00" width="3.25" height="40.00" fill="#4C78A8" opacity="0.35"/>
<rect x="222.25" y="320.00" width="3.25" height="40.00" fill="#4C78A8" opacity="0.35"/>
<rect x="225.00" y="320.00" width="3.25" height="40.00" fill="#4C78A8" opacity="0.35"/>
<rect x="227.75" y="320.00" width="3.25" height="40.00" fill="#4C78A8" opacity="0.35"/>
<rect x="230.50" y="320.00" width="3.25" height="40.00" fill="#4C78A8" opacity="0.35"/>
<rect x="233.25" y="320.00" width="3.25" height="40.00" fill="#4C78A8" opacity="0.35"/>
<rect x="236.00" y="320.00" width="3.25" height="40.00" fill="#4C78A8" opacity="0.35"/>
<rect x="238.75" y="320.00" width="3.25" height="40.00" fill="#4C78A8" opacity="0.35"/>
<rect x="241.50" y="320.00" width="3.25" height="40.00" fill="#4C78A8" opacity="0.35"/>
<rect x="244.25" y="320.00" width="3.25" height="40.00" fill="#4C78A8" opacity="0.35"/>
<rect x="247.00" y="320.00" width="3.25" height="40.00" fill="#4C78A8" opacity="0.35"/>
<rect x="249.75" y="320.00" width="3.25" height="40.00" fill="#4C78A8" opacity="0.35"/>
<rect x="252.50" y="320.00" width="3.25" height="40.00" fill="#4C78A8" opacity="0.35"/>
<rect x="255.25" y="320.00" width="3.25" height="40.00" fill="#4C78A8" opacity="0.35"/>
<rect x="258.00" y="320.00" width="3.25" height="40.00" fill="#4C78A8" opacity="0.35"/>
<rect x="260.75" y="320.00" width="3.25" height="40.00" fill="#4C78A8" opacity="0.35"/>
<rect x="263.50" y="320.00" width="3.25" height="40.00" fill="#4C78A8" opacity="0.35"/>
<rect x="266.25" y="320.00" width="3.25" height="40.00" fill="#4C78A8" opacity="0.35"/>
<rect x="269.00" y="320.00" width="3.25" height="40.00" fill="#4C78A8" opacity="0.35"/>
<rect x="271.75" y="320.00" width="3.25" height="40.00" fill="#4C78A8" opacity="0.35"/>
<rect x="274.50" y="320.00" width="3.25" height="40.00" fill="#4C78A8" opacity="0.35"/>
<rect x="277.25" y="320.00" width="3.25" height="40.00" fill="#4C78A8" opacity="0.35"/>
<rect x="280.00" y="320.00" width="3.25" height="40.00" fill="#4C78A8" opacity="0.35"/>
<rect x="282.75" y="320.00" width="3.25" height="40.00" fill="#4C78A8" opacity="0.35"/>
<rect x="285.50" y="320.00" width="3.25" height="40.00" fill="#4C78A8" opacity="0.35"/>
<rect x="288.25" y="320.00" width="3.25" height="40.00" fill="#4C78A8" opacity="0.35"/>
<rect x="291.00" y="320.00" width="3.25" height="40.00" fill="#4C78A8" opacity="0.35"/>
<rect x="293.75" y="320.00" width="3.25" height="40.00" fill="#4C78A8" opacity="0.35"/>
<rect x="296.50" y="320.00" width="3.25" height="40.00" fill="#4C78A8" opacity="0.35"/>
<rect x="299.25" y="320.00" width="3.25" height="40.00" fill="#4C78A8" opacity="0.35"/>
<rect x="302.00" y="320.00" width="3.25" height="40.00" fill="#4C78A8" opacity="0.35"/>
<rect x="304.75" y="320.00" width="3.25" height="40.00" fill="#4C78A8" opacity="0.35"/>
<rect x="307.50" y="320.00" width="3.25" height="40.00" fill="#4C78A8" opacity="0.35"/>
<rect x="310.25" y="320.00" width="3.25" height="40.00" fill="#4C78A8" opacity="0.35"/>
<rect x="313.00" y="320.00" width="3.25" height="40.00" fill="#4C78A8" opacity="0.35"/>
<rect x="315.75" y="320.00" width="3.25" height="40.00" fill="#4C78A8" opacity="0.35"/>
<rect x="318.50" y="320.00" width="3.25" height="40.00" fill="#4C78A8" opacity="0.35"/>
<rect x="321.25" y="320.00" width="3.25" height="40.00" fill="#4C78A8" opacity="0.35"/>
<rect x="324.00" y="320.00" width="3.25" height="40.00" fill="#4C78A8" opacity="0.35"/>
<rect x="326.75" y="320.00" width="3.25" height="40.00" fill="#4C78A8" opacity="0.35"/>
<rect x="329.50" y="320.00" width="3.25" height="40.00" fill="#4C78A8" opacity="0.35"/>
<rect x="332.25" y="320.00" width="3.25" height="40.00" fill="#4C78A8" opacity="0.35"/>
<rect x="335.00" y="320.00" width="3.25" height="40.00" fill="#4C78A8" opacity="0.35"/>
<rect x="337.75" y="320.00" width="3.25" height="40.00" fill="#4C78A8" opacity="0.35"/>
<rect x="340.50" y="320.00" width="3.25" height="40.00" fill="#4C78A8" opacity="0.35"/>
<rect x="343.25" y="320.00" width="3.25" height="40.00" fill="#4C78A8" opacity="0.35"/>
<rect x="346.00" y="320.00" width="3.25" height="40.00" fill="#4C78A8" opacity="0.35"/>
<rect x="348.75" y="320.00" width="3.25" height="40.00" fill="#4C78A8" opacity="0.35"/>
<rect x="351.50" y="320.00" width="3.25" height="40.00" fill="#4C78A8" opacity="0.35"/>
<rect x="354.25" y="320.00" width="3.25" height="40.00" fill="#4C78A8" opacity="0.35"/>
<rect x="357.00" y="320.00" width="3.25" height="40.00" fill="#4C78A8" opacity="0.35"/>
<rect x="359.75" y="320.00" width="3.25" height="40.00" fill="#4C78A8" opacity="0.35"/>
<rect x="362.50" y="320.00" width="3.25" height="40.00" fill="#4C78A8" opacity="0.35"/>
<rect x="365.25" y="320.00" width="3.25" height="40.00" fill="#4C78A8" opacity="0.35"/>
<rect x="368.00" y="320.00" width="3.25" height="40.00" fill="#4C78A8" opacity="0.35"/>
<rect x="370.75" y="320.00" width="3.25" height="40.00" fill="#4C78A8" opacity="0.35"/>
<rect x="373.50" y="320.00" width="3.25" height="40.00" fill="#4C78A8" opacity="0.35"/>
<rect x="376.25" y="320.00" width="3.25" height="40.00" fill="#4C78A8" opacity="0.35"/>
<rect x="379.00" y="320.00" width="3.25" height="40.00" fill="#4C78A8" opacity="0.35"/>
<rect x="381.75" y="320.00" width="3.25" height="40.00" fill="#4C78A8" opacity="0.35"/>
<rect x="384.50" y="320.00" width="3.25" height="40.00" fill="#4C78A8" opacity="0.35"/>
<rect x="387.25" y="320.00" width="3.25" height="40.00" fill="#4C78A8" opacity="0.35"/>
<rect x="390.00" y="320.00" width="3.25" height="40.00" fill="#4C78A8" opacity="0.35"/>
<rect x="392.75" y="320.00" width="3.25" height="40.00" fill="#4C78A8" opacity="0.35"/>
<rect x="395.50" y="320.00" width="3.25" height="40.00" fill="#4C78A8" opacity="0.35"/>
<rect x="398.25" y="320.00" width="3.25" height="40.00" fill="#4C78A8" opacity="0.35"/>
<rect x="401.00" y="320.00" width="3.25" height="40.00" fill="#4C78A8" opacity="0.35"/>
<rect x="403.75" y="320.00" width="3.25" height="40.00" fill="#4C78A8" opacity="0.35"/>
<rect x="406.50" y="320.00" width="3.25" height="40.00" fill="#4C78A8" opacity="0.35"/>
<rect x="409.25" y="320.00" width="3.25" height="40.00" fill="#4C78A8" opacity="0.35"/>
<rect x="412.00" y="320.00" width="3.25" height="40.00" fill="#4C78A8" opacity="0.35"/>
<rect x="414.75" y="320.00" width="3.25" height="40.00" fill="#4C78A8" opacity="0.35"/>
<rect x="417.50" y="320.00" width="3.25" height="40.00" fill="#4C78A8" opacity="0.35"/>
<rect x="420.25" y="320.00" width="3.25" height="40.00" fill="#4C78A8" opacity="0.35"/>
<rect x="423.00" y="320.00" width="3.25" height="40.00" fill="#4C78A8" opacity="0.35"/>
<rect x="425.75" y="320.00" width="3.25" height="40.00" fill="#4C78A8" opacity="0.35"/>
<rect x="428.50" y="320.00" width="3.25" height="40.00" fill="#4C78A8" opacity="0.35"/>
<rect x="431.25" y="320.00" width="3.25" height="40.00" fill="#4C78A8" opacity="0.35"/>
<rect x="434.00" y="320.00" width="3.25" height="40.00" fill="#4C78A8" opacity="0.35"/>
<rect x="436.75" y="320.00" width="3.25" height="40.00" fill="#4C78A8" opacity="0.35"/>
<rect x="439.50" y="320.00" width="3.25" height="40.00" fill="#4C78A8" opacity="0.35"/>
<rect x="442.25" y="320.00" width="3.25" height="40.00" fill="#4C78A8" opacity="0.35"/>
<rect x="445.00" y="320.00" width="3.25" height="40.00" fill="#4C78A8" opacity="0.35"/>
<rect x="447.75" y="320.00" width="3.25" height="40.00" fill="#4C78A8" opacity="0.35"/>
<rect x="450.50" y="320.00" width="3.25" height="40.00" fill="#4C78A8" opacity="0.35"/>
<rect x="453.25" y="320.00" width="3.25" height="40.00" fill="#4C78A8" opacity="0.35"/>
<rect x="456.00" y="320.00" width="3.25" height="40.00" fill="#4C78A8" opacity="0.35"/>
<rect x="458.75" y="320.00" width="3.25" height="40.00" fill="#4C78A8" opacity="0.35"/>
<rect x="461.50" y="320.00" width="3.25" height="40.00" fill="#4C78A8" opacity="0.35"/>
<rect x="464.25" y="320.00" width="3.25" height="40.00" fill="#4C78A8" opacity="0.35"/>
<rect x="467.00" y="320.00" width="3.25" height="40.00" fill="#4C78A8" opacity="0.35"/>
<rect x="469.75" y="320.00" width="3.25" height="40.00" fill="#4C78A8" opacity="0.35"/>
<rect x="472.50" y="320.00" width="3.25" height="40.00" fill="#4C78A8" opacity="0.35"/>
<rect x="475.25" y="320.00" width="3.25" height="40.00" fill="#4C78A8" opacity="0.35"/>
<rect x="478.00" y="320.00" width="3.25" height="40.00" fill="#4C78A8" opacity="0.35"/>
<rect x="480.75" y="320.00" width="3.25" height="40.00" fill="#4C78A8" opacity="0.35"/>
<rect x="483.50" y="320.00" width="3.25" height="40.00" fill="#4C78A8" opacity="0.35"/>
<rect x="486.25" y="320.00" width="3.25" height="40.00" fill="#4C78A8" opacity="0.35"/>
<rect x="489.00" y="320.00" width="3.25" height="40.00" fill="#4C78A8" opacity="0.35"/>
<rect x="491.75" y="320.00" width="3.25" height="40.00" fill="#4C78A8" opacity="0.35"/>
<rect x="494.50" y="320.00" width="3.25" height="40.00" fill="#4C78A8" opacity="0.35"/>
<rect x="497.25" y="320.00" width="3.25" height="40.00" fill="#4C78A8" opacity="0.35"/>
<rect x="500.00" y="320.00" width="3.25" height="40.00" fill="#4C78A8" opacity="0.35"/>
<rect x="502.75" y="320.00" width="3.25" height="40.00" fill="#4C78A8" opacity="0.35"/>
<rect x="505.50" y="320.00" width="3.25" height="40.00" fill="#4C78A8" opacity="0.35"/>
<rect x="508.25" y="320.00" width="3.25" height="40.00" fill="#4C78A8" opacity="0.35"/>
<rect x="511.00" y="320.00" width="3.25" height="40.00" fill="#4C78A8" opacity="0.35"/>
<rect x="513.75" y="320.00" width="3.25" height="40.00" fill="#4C78A8" opacity="0.35"/>
<rect x="516.50" y="320.00" width="3.25" height="40.00" fill="#4C78A8" opacity="0.35"/>
<rect x="519.25" y="320.00" width="3.25" height="40.00" fill="#4C78A8" opacity="0.35"/>
<rect x="522.00" y="320.00" width="3.25" height="40.00" fill="#4C78A8" opacity="0.35"/>
<rect x="524.75" y="320.00" width="3.25" height="40.00" fill="#4C78A8" opacity="0.35"/>
<rect x="527.50" y="320.00" width="3.25" height="40.00" fill="#4C78A8" opacity="0.35"/>
<rect x="530.25" y="320.00" width="3.25" height="40.00" fill="#4C78A8" opacity="0.35"/>
<rect x="533.00" y="320.00" width="3.25" height="40.00" fill="#4C78A8" opacity="0.35"/>
<rect x="535.75" y="320.00" width="3.25" height="40.00" fill="#4C78A8" opacity="0.35"/>
<rect x="538.50" y="320.00" width="3.25" height="40.00" fill="#4C78A8" opacity="0.35"/>
<rect x="541.25" y="320.00" width="3.25" height="40.00" fill="#4C78A8" opacity="0.35"/>
<rect x="544.00" y="320.00" width="3.25" height="40.00" fill="#4C78A8" opacity="0.35"/>
<rect x="546.75" y="320.00" width="3.25" height="40.00" fill="#4C78A8" opacity="0.35"/>
<rect x="549.50" y="320.00" width="3.25" height="40.00" fill="#4C78A8" opacity="0.35"/>
<rect x="552.25" y="320.00" width="3.25" height="40.00" fill="#4C78A8" opacity="0.35"/>
<rect x="555.00" y="320.00" width="3.25" height="40.00" fill="#4C78A8" opacity="0.35"/>
<rect x="557.75" y="320.00" width="3.25" height="40.00" fill="#4C78A8" opacity="0.35"/>
<rect x="560.50" y="320.00" width="3.25" height="40.00" fill="#4C78A8" opacity="0.35"/>
<rect x="563.25" y="320.00" width="3.25" height="40.00" fill="#4C78A8" opacity="0.35"/>
<rect x="566.00" y="320.00" width="3.25" height="40.00" fill="#4C78A8" opacity="0.35"/>
<rect x="568.75" y="320.00" width="3.25" height="40.00" fill="#4C78A8" opacity="0.35"/>
<rect x="571.50" y="320.00" width="3.25" height="40.00" fill="#4C78A8" opacity="0.35"/>
<rect x="574.25" y="320.00" width="3.25" height="40.00" fill="#4C78A8" opacity="0.35"/>
<rect x="577.00" y="320.00" width="3.25" height="40.00" fill="#4C78A8" opacity="0.35"/>
<rect x="579.75" y="320.00" width="3.25" height="40.00" fill="#4C78A8" opacity="0.35"/>
<rect x="582.50" y="320.00" width="3.25" height="40.00" fill="#4C78A8" opacity="0.35"/>
<rect x="585.25" y="320.00" width="3.25" height="40.00" fill="#4C78A8" opacity="0.35"/>
<rect x="588.00" y="320.00" width="3.25" height="40.00" fill="#4C78A8" opacity="0.35"/>
<rect x="590.75" y="320.00" width="3.25" height="40.00" fill="#4C78A8" opacity="0.35"/>
<rect x="593.50" y="320.00" width="3.25" height="40.00" fill="#4C78A8" opacity="0.35"/>
<rect x="596.25" y="320.00" width="3.25" height="40.00" fill="#4C78A8" opacity="0.35"/>
<rect x="599.00" y="320.00" width="3.25" height="40.00" fill="#4C78A8" opacity="0.35"/>
<rect x="601.75" y="320.00" width="3.25" height="40.00" fill="#4C78A8" opacity="0.35"/>
<rect x="604.50" y="320.00" width="3.25" height="40.00" fill="#4C78A8" opacity="0.35"/>
<rect x="607.25" y="320.00" width="3.25" height="40.00" fill="#4C78A8" opacity="0.35"/>
<rect x="60" y="298.00" width="160" height="18" fill="none" stroke="none"/>
<text x="60" y="312.00" font-size="12" font-family="sans-serif">Dominant state</text>
<text x="335.0" y="400" text-anchor="middle" font-size="12" font-family="sans-serif">Trial index</text>
</svg>