<svg xmlns="http://www.w3.org/2000/svg" width="640" height="360">
<rect x="0" y="0" width="100%" height="100%" fill="#ffffff"/>
<text x="320.0" y="24" text-anchor="middle" font-size="16" font-family="sans-serif">Trial-history regression (choice × reward)</text>
<text x="35.0" y="180.0" transform="rotate(-90 35.0,180.0)" text-anchor="middle" font-size="12" font-family="sans-serif">Coefficient</text>
<line x1="70" y1="310" x2="620" y2="310" stroke="#000"/>
<line x1="70" y1="40" x2="70" y2="310" stroke="#000"/>
<line x1="70" y1="310.00" x2="620" y2="310.00" stroke="#e0e0e0" stroke-dasharray="4 4"/>
<text x="60" y="314.00" text-anchor="end" font-size="11" font-family="sans-serif">-0.316</text>
<line x1="70" y1="242.50" x2="620" y2="242.50" stroke="#e0e0e0" stroke-dasharray="4 4"/>
<text x="60" y="246.50" text-anchor="end" font-size="11" font-family="sans-serif">-0.127</text>
<line x1="70" y1="175.00" x2="620" y2="175.00" stroke="#e0e0e0" stroke-dasharray="4 4"/>
<text x="60" y="179.00" text-anchor="end" font-size="11" font-family="sans-serif">0.063</text>
<line x1="70" y1="107.50" x2="620" y2="107.50" stroke="#e0e0e0" stroke-dasharray="4 4"/>
<text x="60" y="111.50" text-anchor="end" font-size="11" font-family="sans-serif">0.252</text>
<line x1="70" y1="40.00" x2="620" y2="40.00" stroke="#e0e0e0" stroke-dasharray="4 4"/>
<text x="60" y="44.00" text-anchor="end" font-size="11" font-family="sans-serif">0.442</text>
<polyline fill="none" stroke="#4C78A8" stroke-width="2" points="70.00,176.69 207.50,100.80 345.00,216.44 482.50,40.00 620.00,92.00"/>
<circle cx="70.00" cy="176.69" r="3" fill="#4C78A8"/>
<circle cx="207.50" cy="100.80" r="3" fill="#4C78A8"/>
<circle cx="345.00" cy="216.44" r="3" fill="#4C78A8"/>
<circle cx="482.50" cy="40.00" r="3" fill="#4C78A8"/>
<circle cx="620.00" cy="92.00" r="3" fill="#4C78A8"/>
<polyline fill="none" stroke="#F58518" stroke-width="2" points="70.00,116.86 207.50,102.63 345.00,185.72 482.50,102.29 620.00,93.74"/>
<circle cx="70.00" cy="116.86" r="3" fill="#F58518"/>
<circle cx="207.50" cy="102.63" r="3" fill="#F58518"/>
<circle cx="345.00" cy="185.72" r="3" fill="#F58518"/>
<circle cx="482.50" cy="102.29" r="3" fill="#F58518"/>
<circle cx="620.00" cy="93.74" r="3" fill="#F58518"/>
<polyline fill="none" stroke="#54A24B" stroke-width="2" points="70.00,259.47 207.50,310.00 345.00,261.23 482.50,162.49 620.00,303.01"/>
<circle cx="70.00" cy="259.47" r="3" fill="#54A24B"/>
<circle cx="207.50" cy="310.00" r="3" fill="#54A24B"/>
<circle cx="345.00" cy="261.23" r="3" fill="#54A24B"/>
<circle cx="482.50" cy="162.49" r="3" fill="#54A24B"/>
<circle cx="620.00" cy="303.01" r="3" fill="#54A24B"/>
<rect x="80" y="50" width="12" height="12" fill="#4C78A8"/>
<text x="98" y="60" font-size="11" font-family="sans-serif">Observed</text>
<rect x="80" y="68" width="12" height="12" fill="#F58518"/>
<text x="98" y="78" font-size="11" font-family="sans-serif">Hmm Moa</text>
<rect x="80" y="86" width="12" height="12" fill="#54A24B"/>
<text x="98" y="96" font-size="11" font-family="sans-serif">Hmm Tinyrnn</text>
<text x="70.00" y="328" text-anchor="middle" font-size="11" font-family="sans-serif">lag 1</text>
<text x="207.50" y="328" text-anchor="middle" font-size="11" font-family="sans-serif">lag 2</text>
<text x="345.00" y="328" text-anchor="middle" font-size="11" font-family="sans-serif">lag 3</text>
<text x="482.50" y="328" text-anchor="middle" font-size="11" font-family="sans-serif">lag 4</text>
<text x="620.00" y="328" text-anchor="middle" font-size="11" font-family="sans-serif">lag 5</text>
</svg>