<svg xmlns="http://www.w3.org/2000/svg" width="480" height="320">
<rect x="0" y="0" width="100%" height="100%" fill="#ffffff"/>
<text x="240.0" y="24" text-anchor="middle" font-size="16" font-family="sans-serif">SeriesHMM-TinyRNN</text>
<text x="35.0" y="160.0" transform="rotate(-90 35.0,160.0)" text-anchor="middle" font-size="12" font-family="sans-serif">Stay log-odds</text>
<text x="240.0" y="300" text-anchor="middle" font-size="12" font-family="sans-serif">Trials back</text>
<line x1="70" y1="260" x2="440" y2="260" stroke="#000"/>
<line x1="70" y1="45" x2="70" y2="260" stroke="#000"/>
<line x1="70" y1="152.50" x2="440" y2="152.50" stroke="#bbbbbb"/>
<line x1="70" y1="260.00" x2="440" y2="260.00" stroke="#e0e0e0" stroke-dasharray="4 4"/>
<text x="60" y="264.00" text-anchor="end" font-size="11" font-family="sans-serif">-0.936</text>
<line x1="70" y1="206.25" x2="440" y2="206.25" stroke="#e0e0e0" stroke-dasharray="4 4"/>
<text x="60" y="210.25" text-anchor="end" font-size="11" font-family="sans-serif">-0.468</text>
<line x1="70" y1="152.50" x2="440" y2="152.50" stroke="#e0e0e0" stroke-dasharray="4 4"/>
<text x="60" y="156.50" text-anchor="end" font-size="11" font-family="sans-serif">0</text>
<line x1="70" y1="98.75" x2="440" y2="98.75" stroke="#e0e0e0" stroke-dasharray="4 4"/>
<text x="60" y="102.75" text-anchor="end" font-size="11" font-family="sans-serif">0.468</text>
<line x1="70" y1="45.00" x2="440" y2="45.00" stroke="#e0e0e0" stroke-dasharray="4 4"/>
<text x="60" y="49.00" text-anchor="end" font-size="11" font-family="sans-serif">0.936</text>
<polyline fill="none" stroke="#E45756" stroke-width="2" points="70.00,151.67 162.50,200.31 255.00,182.20 347.50,208.47 440.00,187.19"/>
<circle cx="70.00" cy="151.67" r="3" fill="#E45756"/>
<circle cx="162.50" cy="200.31" r="3" fill="#E45756"/>
<circle cx="255.00" cy="182.20" r="3" fill="#E45756"/>
<circle cx="347.50" cy="208.47" r="3" fill="#E45756"/>
<circle cx="440.00" cy="187.19" r="3" fill="#E45756"/>
<polyline fill="none" stroke="#E45756" stroke-width="2" stroke-dasharray="6 3" points="70.00,50.12 162.50,76.59 255.00,78.15 347.50,95.54 440.00,86.78"/>
<circle cx="70.00" cy="50.12" r="3" fill="#E45756"/>
<circle cx="162.50" cy="76.59" r="3" fill="#E45756"/>
<circle cx="255.00" cy="78.15" r="3" fill="#E45756"/>
<circle cx="347.50" cy="95.54" r="3" fill="#E45756"/>
<circle cx="440.00" cy="86.78" r="3" fill="#E45756"/>
<polyline fill="none" stroke="#4C78A8" stroke-width="2" points="70.00,155.80 162.50,109.60 255.00,149.07 347.50,141.23 440.00,160.71"/>
<circle cx="70.00" cy="155.80" r="3" fill="#4C78A8"/>
<circle cx="162.50" cy="109.60" r="3" fill="#4C78A8"/>
<circle cx="255.00" cy="149.07" r="3" fill="#4C78A8"/>
<circle cx="347.50" cy="141.23" r="3" fill="#4C78A8"/>
<circle cx="440.00" cy="160.71" r="3" fill="#4C78A8"/>
<polyline fill="none" stroke="#4C78A8" stroke-width="2" stroke-dasharray="6 3" points="70.00,252.40 162.50,223.50 255.00,200.57 347.50,164.77 440.00,175.33"/>
<circle cx="70.00" cy="252.40" r="3" fill="#4C78A8"/>
<circle cx="162.50" cy="223.50" r="3" fill="#4C78A8"/>
<circle cx="255.00" cy="200.57" r="3" fill="#4C78A8"/>
<circle cx="347.50" cy="164.77" r="3" fill="#4C78A8"/>
<circle cx="440.00" cy="175.33" r="3" fill="#4C78A8"/>
<line x1="445" y1="45" x2="463" y2="45" stroke="#E45756" stroke-width="2"/>
<text x="467" y="49" font-size="11" font-family="sans-serif">Common reward</text>
<line x1="445" y1="63" x2="463" y2="63" stroke="#E45756" stroke-width="2" stroke-dasharray="6 3"/>
<text x="467" y="67" font-size="11" font-family="sans-serif">Common omission</text>
<line x1="445" y1="81" x2="463" y2="81" stroke="#4C78A8" stroke-width="2"/>
<text x="467" y="85" font-size="11" font-family="sans-serif">Rare reward</text>
<line x1="445" y1="99" x2="463" y2="99" stroke="#4C78A8" stroke-width="2" stroke-dasharray="6 3"/>
<text x="467" y="103" font-size="11" font-family="sans-serif">Rare omission</text>
<text x="70.00" y="276" text-anchor="middle" font-size="11" font-family="sans-serif">1</text>
<text x="162.50" y="276" text-anchor="middle" font-size="11" font-family="sans-serif">2</text>
<text x="255.00" y="276" text-anchor="middle" font-size="11" font-family="sans-serif">3</text>
<text x="347.50" y="276" text-anchor="middle" font-size="11" font-family="sans-serif">4</text>
<text x="440.00" y="276" text-anchor="middle" font-size="11" font-family="sans-serif">5</text>
</svg>