<svg xmlns="http://www.w3.org/2000/svg" width="780" height="320">
<rect x="0" y="0" width="100%" height="100%" fill="#ffffff"/>
<text x="390.0" y="24" text-anchor="middle" font-size="16" font-family="sans-serif">Hmm Moa Posterior</text>
<text x="35.0" y="160.0" transform="rotate(-90 35.0,160.0)" text-anchor="middle" font-size="12" font-family="sans-serif">P(state)</text>
<line x1="70" y1="270" x2="760" y2="270" stroke="#000"/>
<line x1="70" y1="50" x2="70" y2="270" stroke="#000"/>
<rect x="70.00" y="50" width="440.35" height="220" fill="#4C78A8" fill-opacity="0.08" stroke="none"/>
<rect x="510.35" y="50" width="253.12" height="220" fill="#F58518" fill-opacity="0.08" stroke="none"/>
<line x1="70" y1="270.00" x2="760" y2="270.00" stroke="#e0e0e0" stroke-dasharray="4 4"/>
<text x="60" y="274.00" text-anchor="end" font-size="11" font-family="sans-serif">0.00</text>
<line x1="70" y1="215.00" x2="760" y2="215.00" stroke="#e0e0e0" stroke-dasharray="4 4"/>
<text x="60" y="219.00" text-anchor="end" font-size="11" font-family="sans-serif">0.25</text>
<line x1="70" y1="160.00" x2="760" y2="160.00" stroke="#e0e0e0" stroke-dasharray="4 4"/>
<text x="60" y="164.00" text-anchor="end" font-size="11" font-family="sans-serif">0.50</text>
<line x1="70" y1="105.00" x2="760" y2="105.00" stroke="#e0e0e0" stroke-dasharray="4 4"/>
<text x="60" y="109.00" text-anchor="end" font-size="11" font-family="sans-serif">0.75</text>
<line x1="70" y1="50.00" x2="760" y2="50.00" stroke="#e0e0e0" stroke-dasharray="4 4"/>
<text x="60" y="54.00" text-anchor="end" font-size="11" font-family="sans-serif">1.00</text>
<polyline fill="none" stroke="#4C78A8" stroke-width="2.2" points="70.00,159.43 73.47,159.41 76.93,159.33 80.40,159.16 83.87,158.80 87.34,158.79 90.80,158.61 94.27,158.13 97.74,157.96 101.21,157.95 104.67,157.78 108.14,157.39 111.61,156.74 115.08,155.76 118.54,154.50 122.01,153.86 125.48,152.92 128.94,151.66 132.41,151.04 135.88,150.05 139.35,149.79 142.81,150.40 146.28,150.60 149.75,150.27 153.22,150.64 156.68,151.47 160.15,151.98 163.62,152.07 167.09,151.82 170.55,151.31 174.02,150.43 177.49,149.27 180.95,147.77 184.42,145.77 187.89,143.41 191.36,142.03 194.82,141.62 198.29,142.17 201.76,142.27 205.23,141.88 208.69,141.06 212.16,139.78 215.63,138.02 219.10,138.08 222.56,139.75 226.03,140.92 229.50,141.61 232.96,141.66 236.43,141.29 239.90,140.36 243.37,139.03 246.83,139.01 250.30,140.31 253.77,141.15 257.24,141.52 260.70,141.42 264.17,140.82 267.64,139.71 271.11,137.90 274.57,135.62 278.04,132.87 281.51,129.61 284.97,125.81 288.44,125.00 291.91,123.63 295.38,121.72 298.84,121.98 302.31,121.53 305.78,120.59 309.25,119.18 312.71,119.95 316.18,120.20 319.65,119.95 323.12,119.20 326.58,117.79 330.05,115.86 333.52,113.24 336.98,110.15 340.45,106.57 343.92,102.31 347.39,97.40 350.85,91.88 354.32,85.86 357.79,83.03 361.26,79.66 364.72,78.99 368.19,77.77 371.66,79.08 375.13,79.83 378.59,80.05 382.06,79.73 385.53,78.92 388.99,77.50 392.46,75.62 395.93,73.16 399.40,70.24 402.86,69.44 406.33,68.15 409.80,66.37 413.27,64.09 416.73,61.21 420.20,59.82 423.67,59.88 427.14,59.45 430.60,58.51 434.07,57.10 437.54,57.00 441.01,56.42 444.47,56.61 447.94,56.30 451.41,55.54 454.87,55.54 458.34,55.08 461.81,55.57 465.28,55.59 468.74,55.15 472.21,54.25 475.68,54.76 479.15,54.81 482.61,54.39 486.08,53.51 489.55,52.18 493.02,51.73 496.48,51.98 499.95,51.79 503.42,51.14 506.88,50.90 510.35,50.76 513.82,50.67 517.29,50.63 520.75,50.64 524.22,50.72 527.69,50.91 531.16,51.53 534.62,51.65 538.09,52.07 541.56,52.88 545.03,53.22 548.49,53.05 551.96,52.42 555.43,52.02 558.89,51.87 562.36,51.92 565.83,51.48 569.30,51.24 572.76,51.12 576.23,51.29 579.70,51.88 583.17,52.91 586.63,53.42 590.10,54.43 593.57,54.94 597.04,55.95 600.50,56.46 603.97,56.49 607.44,56.92 610.90,56.87 614.37,57.23 617.84,57.05 621.31,56.31 624.77,55.08 628.24,54.27 631.71,53.81 635.18,52.88 638.64,52.66 642.11,51.95 645.58,51.65 649.05,51.47 652.51,51.58 655.98,51.80 659.45,52.38 662.91,52.49 666.38,52.70 669.85,53.05 673.32,52.93 676.78,52.32 680.25,51.93 683.72,51.88 687.19,51.97 690.65,52.23 694.12,52.89 697.59,53.06 701.06,53.35 704.52,54.10 707.99,54.34 711.46,54.06 714.92,54.34 718.39,54.88 721.86,55.69 725.33,55.92 728.79,55.64 732.26,54.85 735.73,54.38 739.20,54.17 742.66,54.50 746.13,55.26 749.60,56.43 753.07,58.57 756.53,61.58 760.00,65.68"/>
<polyline fill="none" stroke="#F58518" stroke-width="2.2" points="70.00,160.57 73.47,160.59 76.93,160.67 80.40,160.84 83.87,161.20 87.34,161.21 90.80,161.39 94.27,161.87 97.74,162.04 101.21,162.05 104.67,162.22 108.14,162.61 111.61,163.26 115.08,164.24 118.54,165.50 122.01,166.14 125.48,167.08 128.94,168.34 132.41,168.96 135.88,169.95 139.35,170.21 142.81,169.60 146.28,169.40 149.75,169.73 153.22,169.36 156.68,168.53 160.15,168.02 163.62,167.93 167.09,168.18 170.55,168.69 174.02,169.57 177.49,170.73 180.95,172.23 184.42,174.23 187.89,176.59 191.36,177.97 194.82,178.38 198.29,177.83 201.76,177.73 205.23,178.12 208.69,178.94 212.16,180.22 215.63,181.98 219.10,181.92 222.56,180.25 226.03,179.08 229.50,178.39 232.96,178.34 236.43,178.71 239.90,179.64 243.37,180.97 246.83,180.99 250.30,179.69 253.77,178.85 257.24,178.48 260.70,178.58 264.17,179.18 267.64,180.29 271.11,182.10 274.57,184.38 278.04,187.13 281.51,190.39 284.97,194.19 288.44,195.00 291.91,196.37 295.38,198.28 298.84,198.02 302.31,198.47 305.78,199.41 309.25,200.82 312.71,200.05 316.18,199.80 319.65,200.05 323.12,200.80 326.58,202.21 330.05,204.14 333.52,206.76 336.98,209.85 340.45,213.43 343.92,217.69 347.39,222.60 350.85,228.12 354.32,234.14 357.79,236.97 361.26,240.34 364.72,241.01 368.19,242.23 371.66,240.92 375.13,240.17 378.59,239.95 382.06,240.27 385.53,241.08 388.99,242.50 392.46,244.38 395.93,246.84 399.40,249.76 402.86,250.56 406.33,251.85 409.80,253.63 413.27,255.91 416.73,258.79 420.20,260.18 423.67,260.12 427.14,260.55 430.60,261.49 434.07,262.90 437.54,263.00 441.01,263.58 444.47,263.39 447.94,263.70 451.41,264.46 454.87,264.46 458.34,264.92 461.81,264.43 465.28,264.41 468.74,264.85 472.21,265.75 475.68,265.24 479.15,265.19 482.61,265.61 486.08,266.49 489.55,267.82 493.02,268.27 496.48,268.02 499.95,268.21 503.42,268.86 506.88,269.10 510.35,269.24 513.82,269.33 517.29,269.37 520.75,269.36 524.22,269.28 527.69,269.09 531.16,268.47 534.62,268.35 538.09,267.93 541.56,267.12 545.03,266.78 548.49,266.95 551.96,267.58 555.43,267.98 558.89,268.13 562.36,268.08 565.83,268.52 569.30,268.76 572.76,268.88 576.23,268.71 579.70,268.12 583.17,267.09 586.63,266.58 590.10,265.57 593.57,265.06 597.04,264.05 600.50,263.54 603.97,263.51 607.44,263.08 610.90,263.13 614.37,262.77 617.84,262.95 621.31,263.69 624.77,264.92 628.24,265.73 631.71,266.19 635.18,267.12 638.64,267.34 642.11,268.05 645.58,268.35 649.05,268.53 652.51,268.42 655.98,268.20 659.45,267.62 662.91,267.51 666.38,267.30 669.85,266.95 673.32,267.07 676.78,267.68 680.25,268.07 683.72,268.12 687.19,268.03 690.65,267.77 694.12,267.11 697.59,266.94 701.06,266.65 704.52,265.90 707.99,265.66 711.46,265.94 714.92,265.66 718.39,265.12 721.86,264.31 725.33,264.08 728.79,264.36 732.26,265.15 735.73,265.62 739.20,265.83 742.66,265.50 746.13,264.74 749.60,263.57 753.07,261.43 756.53,258.42 760.00,254.32"/>
<rect x="80" y="18" width="12" height="12" fill="#4C78A8"/>
<text x="98" y="28" font-size="11" font-family="sans-serif">Phase 0</text>
<rect x="200" y="18" width="12" height="12" fill="#F58518"/>
<text x="218" y="28" font-size="11" font-family="sans-serif">Phase 1</text>
<text x="70.00" y="288" text-anchor="middle" font-size="11" font-family="sans-serif">t=0</text>
<text x="139.35" y="288" text-anchor="middle" font-size="11" font-family="sans-serif">t=20</text>
<text x="208.69" y="288" text-anchor="middle" font-size="11" font-family="sans-serif">t=40</text>
<text x="278.04" y="288" text-anchor="middle" font-size="11" font-family="sans-serif">t=60</text>
<text x="347.39" y="288" text-anchor="middle" font-size="11" font-family="sans-serif">t=80</text>
<text x="416.73" y="288" text-anchor="middle" font-size="11" font-family="sans-serif">t=100</text>
<text x="482.61" y="288" text-anchor="middle" font-size="11" font-family="sans-serif">t=119</text>
<text x="551.96" y="288" text-anchor="middle" font-size="11" font-family="sans-serif">t=139</text>
<text x="621.31" y="288" text-anchor="middle" font-size="11" font-family="sans-serif">t=159</text>
<text x="690.65" y="288" text-anchor="middle" font-size="11" font-family="sans-serif">t=179</text>
<text x="760.00" y="288" text-anchor="middle" font-size="11" font-family="sans-serif">t=199</text>
</svg>