<svg xmlns="http://www.w3.org/2000/svg" width="780" height="320">
<rect x="0" y="0" width="100%" height="100%" fill="#ffffff"/>
<text x="390.0" y="24" text-anchor="middle" font-size="16" font-family="sans-serif">Hmm Tinyrnn Posterior</text>
<text x="35.0" y="160.0" transform="rotate(-90 35.0,160.0)" text-anchor="middle" font-size="12" font-family="sans-serif">P(state)</text>
<line x1="70" y1="270" x2="760" y2="270" stroke="#000"/>
<line x1="70" y1="50" x2="70" y2="270" stroke="#000"/>
<rect x="70.00" y="50" width="440.35" height="220" fill="#4C78A8" fill-opacity="0.08" stroke="none"/>
<rect x="510.35" y="50" width="253.12" height="220" fill="#F58518" fill-opacity="0.08" stroke="none"/>
<line x1="70" y1="270.00" x2="760" y2="270.00" stroke="#e0e0e0" stroke-dasharray="4 4"/>
<text x="60" y="274.00" text-anchor="end" font-size="11" font-family="sans-serif">0.00</text>
<line x1="70" y1="215.00" x2="760" y2="215.00" stroke="#e0e0e0" stroke-dasharray="4 4"/>
<text x="60" y="219.00" text-anchor="end" font-size="11" font-family="sans-serif">0.25</text>
<line x1="70" y1="160.00" x2="760" y2="160.00" stroke="#e0e0e0" stroke-dasharray="4 4"/>
<text x="60" y="164.00" text-anchor="end" font-size="11" font-family="sans-serif">0.50</text>
<line x1="70" y1="105.00" x2="760" y2="105.00" stroke="#e0e0e0" stroke-dasharray="4 4"/>
<text x="60" y="109.00" text-anchor="end" font-size="11" font-family="sans-serif">0.75</text>
<line x1="70" y1="50.00" x2="760" y2="50.00" stroke="#e0e0e0" stroke-dasharray="4 4"/>
<text x="60" y="54.00" text-anchor="end" font-size="11" font-family="sans-serif">1.00</text>
<polyline fill="none" stroke="#4C78A8" stroke-width="2.2" points="70.00,243.73 73.47,250.84 76.93,255.00 80.40,257.27 83.87,257.98 87.34,260.39 90.80,261.24 94.27,260.70 97.74,261.91 101.21,264.77 104.67,266.33 108.14,267.05 111.61,267.14 115.08,266.72 118.54,265.53 122.01,265.73 125.48,265.13 128.94,263.50 132.41,263.21 135.88,261.79 139.35,261.76 142.81,263.35 146.28,263.83 149.75,263.22 153.22,264.15 156.68,266.52 160.15,267.89 163.62,268.59 167.09,268.90 170.55,269.03 174.02,268.96 177.49,268.74 180.95,268.25 184.42,267.20 187.89,265.24 191.36,264.55 194.82,265.03 198.29,266.74 201.76,267.61 205.23,267.98 208.69,267.93 212.16,267.40 215.63,266.11 219.10,266.14 222.56,267.54 226.03,268.29 229.50,268.66 232.96,268.73 236.43,268.60 239.90,268.11 243.37,267.17 246.83,267.22 250.30,268.26 253.77,268.85 257.24,269.17 260.70,269.33 264.17,269.41 267.64,269.42 271.11,269.37 274.57,269.27 278.04,269.07 281.51,268.68 284.97,267.91 288.44,268.24 291.91,268.20 295.38,267.79 298.84,268.37 302.31,268.58 305.78,268.56 309.25,268.26 312.71,268.84 316.18,269.17 319.65,269.36 323.12,269.47 326.58,269.49 330.05,269.49 333.52,269.45 336.98,269.42 340.45,269.36 343.92,269.20 347.39,268.86 350.85,268.11 354.32,266.76 357.79,266.68 361.26,265.96 364.72,266.56 368.19,266.52 371.66,267.80 375.13,268.50 378.59,268.89 382.06,269.12 385.53,269.22 388.99,269.18 392.46,269.03 395.93,268.66 399.40,267.97 402.86,268.34 406.33,268.38 409.80,268.10 413.27,267.38 416.73,265.81 420.20,265.44 423.67,266.41 427.14,266.68 430.60,266.28 434.07,265.14 437.54,265.41 441.01,264.94 444.47,265.61 447.94,265.45 451.41,264.50 454.87,264.73 458.34,264.07 461.81,264.64 465.28,264.29 468.74,262.83 472.21,259.57 475.68,258.51 479.15,255.51 482.61,249.73 486.08,238.69 489.55,217.46 493.02,203.43 496.48,195.60 499.95,179.83 503.42,148.94 506.88,130.12 510.35,117.96 513.82,110.34 517.29,106.05 520.75,104.36 524.22,104.99 527.69,108.08 531.16,114.46 534.62,115.99 538.09,120.13 541.56,127.57 545.03,130.66 548.49,129.04 551.96,122.83 555.43,119.51 558.89,118.49 562.36,119.82 565.83,116.49 569.30,115.78 572.76,117.52 576.23,122.71 579.70,132.41 583.17,147.22 586.63,154.05 590.10,165.33 593.57,171.02 597.04,180.62 600.50,185.12 603.97,185.72 607.44,189.05 610.90,188.64 614.37,190.93 617.84,188.53 621.31,179.91 624.77,162.74 628.24,151.51 631.71,144.74 635.18,130.54 638.64,122.58 642.11,106.97 645.58,97.66 649.05,91.98 652.51,89.13 655.98,88.22 659.45,89.35 662.91,87.48 666.38,87.27 669.85,88.83 673.32,87.34 676.78,81.90 680.25,78.76 683.72,77.63 687.19,78.04 690.65,79.87 694.12,83.80 697.59,84.54 701.06,86.91 704.52,91.75 707.99,92.99 711.46,90.04 714.92,89.48 718.39,90.71 721.86,93.94 725.33,93.13 728.79,88.43 732.26,78.48 735.73,71.83 739.20,67.59 742.66,65.23 746.13,63.99 749.60,63.70 753.07,64.52 756.53,66.43 760.00,69.77"/>
<polyline fill="none" stroke="#F58518" stroke-width="2.2" points="70.00,76.27 73.47,69.16 76.93,65.00 80.40,62.73 83.87,62.02 87.34,59.61 90.80,58.76 94.27,59.30 97.74,58.09 101.21,55.23 104.67,53.67 108.14,52.95 111.61,52.86 115.08,53.28 118.54,54.47 122.01,54.27 125.48,54.87 128.94,56.50 132.41,56.79 135.88,58.21 139.35,58.24 142.81,56.65 146.28,56.17 149.75,56.78 153.22,55.85 156.68,53.48 160.15,52.11 163.62,51.41 167.09,51.10 170.55,50.97 174.02,51.03 177.49,51.26 180.95,51.75 184.42,52.80 187.89,54.76 191.36,55.45 194.82,54.97 198.29,53.26 201.76,52.39 205.23,52.02 208.69,52.07 212.16,52.60 215.63,53.89 219.10,53.86 222.56,52.46 226.03,51.71 229.50,51.34 232.96,51.27 236.43,51.40 239.90,51.89 243.37,52.83 246.83,52.78 250.30,51.74 253.77,51.15 257.24,50.83 260.70,50.67 264.17,50.59 267.64,50.58 271.11,50.63 274.57,50.73 278.04,50.93 281.51,51.32 284.97,52.09 288.44,51.76 291.91,51.80 295.38,52.21 298.84,51.63 302.31,51.42 305.78,51.44 309.25,51.74 312.71,51.16 316.18,50.83 319.65,50.64 323.12,50.53 326.58,50.51 330.05,50.51 333.52,50.55 336.98,50.58 340.45,50.64 343.92,50.80 347.39,51.14 350.85,51.89 354.32,53.24 357.79,53.32 361.26,54.04 364.72,53.44 368.19,53.48 371.66,52.20 375.13,51.50 378.59,51.11 382.06,50.88 385.53,50.78 388.99,50.82 392.46,50.97 395.93,51.34 399.40,52.03 402.86,51.66 406.33,51.62 409.80,51.90 413.27,52.62 416.73,54.19 420.20,54.56 423.67,53.59 427.14,53.32 430.60,53.72 434.07,54.86 437.54,54.59 441.01,55.06 444.47,54.39 447.94,54.55 451.41,55.50 454.87,55.27 458.34,55.93 461.81,55.36 465.28,55.71 468.74,57.17 472.21,60.43 475.68,61.49 479.15,64.49 482.61,70.27 486.08,81.31 489.55,102.54 493.02,116.57 496.48,124.40 499.95,140.17 503.42,171.06 506.88,189.88 510.35,202.04 513.82,209.66 517.29,213.95 520.75,215.64 524.22,215.01 527.69,211.92 531.16,205.54 534.62,204.01 538.09,199.87 541.56,192.43 545.03,189.34 548.49,190.96 551.96,197.17 555.43,200.49 558.89,201.51 562.36,200.18 565.83,203.51 569.30,204.22 572.76,202.48 576.23,197.29 579.70,187.59 583.17,172.78 586.63,165.95 590.10,154.67 593.57,148.98 597.04,139.38 600.50,134.88 603.97,134.28 607.44,130.95 610.90,131.36 614.37,129.07 617.84,131.47 621.31,140.09 624.77,157.26 628.24,168.49 631.71,175.26 635.18,189.46 638.64,197.42 642.11,213.03 645.58,222.34 649.05,228.02 652.51,230.87 655.98,231.78 659.45,230.65 662.91,232.52 666.38,232.73 669.85,231.17 673.32,232.66 676.78,238.10 680.25,241.24 683.72,242.37 687.19,241.96 690.65,240.13 694.12,236.20 697.59,235.46 701.06,233.09 704.52,228.25 707.99,227.01 711.46,229.96 714.92,230.52 718.39,229.29 721.86,226.06 725.33,226.87 728.79,231.57 732.26,241.52 735.73,248.17 739.20,252.41 742.66,254.77 746.13,256.01 749.60,256.30 753.07,255.48 756.53,253.57 760.00,250.23"/>
<rect x="80" y="18" width="12" height="12" fill="#4C78A8"/>
<text x="98" y="28" font-size="11" font-family="sans-serif">Phase 0</text>
<rect x="200" y="18" width="12" height="12" fill="#F58518"/>
<text x="218" y="28" font-size="11" font-family="sans-serif">Phase 1</text>
<text x="70.00" y="288" text-anchor="middle" font-size="11" font-family="sans-serif">t=0</text>
<text x="139.35" y="288" text-anchor="middle" font-size="11" font-family="sans-serif">t=20</text>
<text x="208.69" y="288" text-anchor="middle" font-size="11" font-family="sans-serif">t=40</text>
<text x="278.04" y="288" text-anchor="middle" font-size="11" font-family="sans-serif">t=60</text>
<text x="347.39" y="288" text-anchor="middle" font-size="11" font-family="sans-serif">t=80</text>
<text x="416.73" y="288" text-anchor="middle" font-size="11" font-family="sans-serif">t=100</text>
<text x="482.61" y="288" text-anchor="middle" font-size="11" font-family="sans-serif">t=119</text>
<text x="551.96" y="288" text-anchor="middle" font-size="11" font-family="sans-serif">t=139</text>
<text x="621.31" y="288" text-anchor="middle" font-size="11" font-family="sans-serif">t=159</text>
<text x="690.65" y="288" text-anchor="middle" font-size="11" font-family="sans-serif">t=179</text>
<text x="760.00" y="288" text-anchor="middle" font-size="11" font-family="sans-serif">t=199</text>
</svg>