<svg xmlns="http://www.w3.org/2000/svg" width="640" height="420">
<rect x="0" y="0" width="640" height="420" fill="#ffffff"/>
<text x="320.0" y="24" text-anchor="middle" font-size="16" font-family="sans-serif">SeriesHMM-TinyRNN state posterior</text>
<text x="30.0" y="195.0" transform="rotate(-90 30.0,195.0)" text-anchor="middle" font-size="12" font-family="sans-serif">Mixture weight</text>
<line x1="60" y1="320" x2="610" y2="320" stroke="#000"/>
<line x1="60" y1="70" x2="60" y2="320" stroke="#000"/>
<line x1="60" y1="320.00" x2="610" y2="320.00" stroke="#e0e0e0" stroke-dasharray="4 4"/>
<text x="50" y="324.00" text-anchor="end" font-size="11" font-family="sans-serif">0</text>
<line x1="60" y1="257.50" x2="610" y2="257.50" stroke="#e0e0e0" stroke-dasharray="4 4"/>
<text x="50" y="261.50" text-anchor="end" font-size="11" font-family="sans-serif">0.250</text>
<line x1="60" y1="195.00" x2="610" y2="195.00" stroke="#e0e0e0" stroke-dasharray="4 4"/>
<text x="50" y="199.00" text-anchor="end" font-size="11" font-family="sans-serif">0.500</text>
<line x1="60" y1="132.50" x2="610" y2="132.50" stroke="#e0e0e0" stroke-dasharray="4 4"/>
<text x="50" y="136.50" text-anchor="end" font-size="11" font-family="sans-serif">0.750</text>
<line x1="60" y1="70.00" x2="610" y2="70.00" stroke="#e0e0e0" stroke-dasharray="4 4"/>
<text x="50" y="74.00" text-anchor="end" font-size="11" font-family="sans-serif">1</text>
<text x="60.00" y="398" text-anchor="middle" font-size="11" font-family="sans-serif">1</text>
<text x="170.55" y="398" text-anchor="middle" font-size="11" font-family="sans-serif">41</text>
<text x="281.11" y="398" text-anchor="middle" font-size="11" font-family="sans-serif">81</text>
<text x="388.89" y="398" text-anchor="middle" font-size="11" font-family="sans-serif">120</text>
<text x="499.45" y="398" text-anchor="middle" font-size="11" font-family="sans-serif">160</text>
<text x="610.00" y="398" text-anchor="middle" font-size="11" font-family="sans-serif">200</text>
<text x="60" y="36.00" font-size="12" font-family="sans-serif">Annotated phase</text>
<rect x="60.00" y="42.00" width="2.75" height="18" fill="#4C78A8" opacity="0.35"/>
<rect x="62.75" y="42.00" width="2.75" height="18" fill="#4C78A8" opacity="0.35"/>
<rect x="65.50" y="42.00" width="2.75" height="18" fill="#4C78A8" opacity="0.35"/>
<rect x="68.25" y="42.00" width="2.75" height="18" fill="#4C78A8" opacity="0.35"/>
<rect x="71.00" y="42.00" width="2.75" height="18" fill="#4C78A8" opacity="0.35"/>
<rect x="73.75" y="42.00" width="2.75" height="18" fill="#4C78A8" opacity="0.35"/>
<rect x="76.50" y="42.00" width="2.75" height="18" fill="#4C78A8" opacity="0.35"/>
<rect x="79.25" y="42.00" width="2.75" height="18" fill="#4C78A8" opacity="0.35"/>
<rect x="82.00" y="42.00" width="2.75" height="18" fill="#4C78A8" opacity="0.35"/>
<rect x="84.75" y="42.00" width="2.75" height="18" fill="#4C78A8" opacity="0.35"/>
<rect x="87.50" y="42.00" width="2.75" height="18" fill="#4C78A8" opacity="0.35"/>
<rect x="90.25" y="42.00" width="2.75" height="18" fill="#4C78A8" opacity="0.35"/>
<rect x="93.00" y="42.00" width="2.75" height="18" fill="#4C78A8" opacity="0.35"/>
<rect x="95.75" y="42.00" width="2.75" height="18" fill="#4C78A8" opacity="0.35"/>
<rect x="98.50" y="42.00" width="2.75" height="18" fill="#4C78A8" opacity="0.35"/>
<rect x="101.25" y="42.00" width="2.75" height="18" fill="#4C78A8" opacity="0.35"/>
<rect x="104.00" y="42.00" width="2.75" height="18" fill="#4C78A8" opacity="0.35"/>
<rect x="106.75" y="42.00" width="2.75" height="18" fill="#4C78A8" opacity="0.35"/>
<rect x="109.50" y="42.00" width="2.75" height="18" fill="#4C78A8" opacity="0.35"/>
<rect x="112.25" y="42.00" width="2.75" height="18" fill="#4C78A8" opacity="0.35"/>
<rect x="115.00" y="42.00" width="2.75" height="18" fill="#4C78A8" opacity="0.35"/>
<rect x="117.75" y="42.00" width="2.75" height="18" fill="#4C78A8" opacity="0.35"/>
<rect x="120.50" y="42.00" width="2.75" height="18" fill="#4C78A8" opacity="0.35"/>
<rect x="123.25" y="42.00" width="2.75" height="18" fill="#4C78A8" opacity="0.35"/>
<rect x="126.00" y="42.00" width="2.75" height="18" fill="#4C78A8" opacity="0.35"/>
<rect x="128.75" y="42.00" width="2.75" height="18" fill="#4C78A8" opacity="0.35"/>
<rect x="131.50" y="42.00" width="2.75" height="18" fill="#4C78A8" opacity="0.35"/>
<rect x="134.25" y="42.00" width="2.75" height="18" fill="#4C78A8" opacity="0.35"/>
<rect x="137.00" y="42.00" width="2.75" height="18" fill="#4C78A8" opacity="0.35"/>
<rect x="139.75" y="42.00" width="2.75" height="18" fill="#4C78A8" opacity="0.35"/>
<rect x="142.50" y="42.00" width="2.75" height="18" fill="#4C78A8" opacity="0.35"/>
<rect x="145.25" y="42.00" width="2.75" height="18" fill="#4C78A8" opacity="0.35"/>
<rect x="148.00" y="42.00" width="2.75" height="18" fill="#4C78A8" opacity="0.35"/>
<rect x="150.75" y="42.00" width="2.75" height="18" fill="#4C78A8" opacity="0.35"/>
<rect x="153.50" y="42.00" width="2.75" height="18" fill="#4C78A8" opacity="0.35"/>
<rect x="156.25" y="42.00" width="2.75" height="18" fill="#4C78A8" opacity="0.35"/>
<rect x="159.00" y="42.00" width="2.75" height="18" fill="#4C78A8" opacity="0.35"/>
<rect x="161.75" y="42.00" width="2.75" height="18" fill="#4C78A8" opacity="0.35"/>
<rect x="164.50" y="42.00" width="2.75" height="18" fill="#4C78A8" opacity="0.35"/>
<rect x="167.25" y="42.00" width="2.75" height="18" fill="#4C78A8" opacity="0.35"/>
<rect x="170.00" y="42.00" width="2.75" height="18" fill="#4C78A8" opacity="0.35"/>
<rect x="172.75" y="42.00" width="2.75" height="18" fill="#4C78A8" opacity="0.35"/>
<rect x="175.50" y="42.00" width="2.75" height="18" fill="#4C78A8" opacity="0.35"/>
<rect x="178.25" y="42.00" width="2.75" height="18" fill="#4C78A8" opacity="0.35"/>
<rect x="181.00" y="42.00" width="2.75" height="18" fill="#4C78A8" opacity="0.35"/>
<rect x="183.75" y="42.00" width="2.75" height="18" fill="#4C78A8" opacity="0.35"/>
<rect x="186.50" y="42.00" width="2.75" height="18" fill="#4C78A8" opacity="0.35"/>
<rect x="189.25" y="42.00" width="2.75" height="18" fill="#4C78A8" opacity="0.35"/>
<rect x="192.00" y="42.00" width="2.75" height="18" fill="#4C78A8" opacity="0.35"/>
<rect x="194.75" y="42.00" width="2.75" height="18" fill="#4C78A8" opacity="0.35"/>
<rect x="197.50" y="42.00" width="2.75" height="18" fill="#4C78A8" opacity="0.35"/>
<rect x="200.25" y="42.00" width="2.75" height="18" fill="#4C78A8" opacity="0.35"/>
<rect x="203.00" y="42.00" width="2.75" height="18" fill="#4C78A8" opacity="0.35"/>
<rect x="205.75" y="42.00" width="2.75" height="18" fill="#4C78A8" opacity="0.35"/>
<rect x="208.50" y="42.00" width="2.75" height="18" fill="#4C78A8" opacity="0.35"/>
<rect x="211.25" y="42.00" width="2.75" height="18" fill="#4C78A8" opacity="0.35"/>
<rect x="214.00" y="42.00" width="2.75" height="18" fill="#4C78A8" opacity="0.35"/>
<rect x="216.75" y="42.00" width="2.75" height="18" fill="#4C78A8" opacity="0.35"/>
<rect x="219.50" y="42.00" width="2.75" height="18" fill="#4C78A8" opacity="0.35"/>
<rect x="222.25" y="42.00" width="2.75" height="18" fill="#4C78A8" opacity="0.35"/>
<rect x="225.00" y="42.00" width="2.75" height="18" fill="#4C78A8" opacity="0.35"/>
<rect x="227.75" y="42.00" width="2.75" height="18" fill="#4C78A8" opacity="0.35"/>
<rect x="230.50" y="42.00" width="2.75" height="18" fill="#4C78A8" opacity="0.35"/>
<rect x="233.25" y="42.00" width="2.75" height="18" fill="#4C78A8" opacity="0.35"/>
<rect x="236.00" y="42.00" width="2.75" height="18" fill="#4C78A8" opacity="0.35"/>
<rect x="238.75" y="42.00" width="2.75" height="18" fill="#4C78A8" opacity="0.35"/>
<rect x="241.50" y="42.00" width="2.75" height="18" fill="#4C78A8" opacity="0.35"/>
<rect x="244.25" y="42.00" width="2.75" height="18" fill="#4C78A8" opacity="0.35"/>
<rect x="247.00" y="42.00" width="2.75" height="18" fill="#4C78A8" opacity="0.35"/>
<rect x="249.75" y="42.00" width="2.75" height="18" fill="#4C78A8" opacity="0.35"/>
<rect x="252.50" y="42.00" width="2.75" height="18" fill="#4C78A8" opacity="0.35"/>
<rect x="255.25" y="42.00" width="2.75" height="18" fill="#4C78A8" opacity="0.35"/>
<rect x="258.00" y="42.00" width="2.75" height="18" fill="#4C78A8" opacity="0.35"/>
<rect x="260.75" y="42.00" width="2.75" height="18" fill="#4C78A8" opacity="0.35"/>
<rect x="263.50" y="42.00" width="2.75" height="18" fill="#4C78A8" opacity="0.35"/>
<rect x="266.25" y="42.00" width="2.75" height="18" fill="#4C78A8" opacity="0.35"/>
<rect x="269.00" y="42.00" width="2.75" height="18" fill="#4C78A8" opacity="0.35"/>
<rect x="271.75" y="42.00" width="2.75" height="18" fill="#4C78A8" opacity="0.35"/>
<rect x="274.50" y="42.00" width="2.75" height="18" fill="#4C78A8" opacity="0.35"/>
<rect x="277.25" y="42.00" width="2.75" height="18" fill="#4C78A8" opacity="0.35"/>
<rect x="280.00" y="42.00" width="2.75" height="18" fill="#4C78A8" opacity="0.35"/>
<rect x="282.75" y="42.00" width="2.75" height="18" fill="#4C78A8" opacity="0.35"/>
<rect x="285.50" y="42.00" width="2.75" height="18" fill="#4C78A8" opacity="0.35"/>
<rect x="288.25" y="42.00" width="2.75" height="18" fill="#4C78A8" opacity="0.35"/>
<rect x="291.00" y="42.00" width="2.75" height="18" fill="#4C78A8" opacity="0.35"/>
<rect x="293.75" y="42.00" width="2.75" height="18" fill="#4C78A8" opacity="0.35"/>
<rect x="296.50" y="42.00" width="2.75" height="18" fill="#4C78A8" opacity="0.35"/>
<rect x="299.25" y="42.00" width="2.75" height="18" fill="#4C78A8" opacity="0.35"/>
<rect x="302.00" y="42.00" width="2.75" height="18" fill="#4C78A8" opacity="0.35"/>
<rect x="304.75" y="42.00" width="2.75" height="18" fill="#4C78A8" opacity="0.35"/>
<rect x="307.50" y="42.00" width="2.75" height="18" fill="#4C78A8" opacity="0.35"/>
<rect x="310.25" y="42.00" width="2.75" height="18" fill="#4C78A8" opacity="0.35"/>
<rect x="313.00" y="42.00" width="2.75" height="18" fill="#4C78A8" opacity="0.35"/>
<rect x="315.75" y="42.00" width="2.75" height="18" fill="#4C78A8" opacity="0.35"/>
<rect x="318.50" y="42.00" width="2.75" height="18" fill="#4C78A8" opacity="0.35"/>
<rect x="321.25" y="42.00" width="2.75" height="18" fill="#4C78A8" opacity="0.35"/>
<rect x="324.00" y="42.00" width="2.75" height="18" fill="#4C78A8" opacity="0.35"/>
<rect x="326.75" y="42.00" width="2.75" height="18" fill="#4C78A8" opacity="0.35"/>
<rect x="329.50" y="42.00" width="2.75" height="18" fill="#4C78A8" opacity="0.35"/>
<rect x="332.25" y="42.00" width="2.75" height="18" fill="#4C78A8" opacity="0.35"/>
<rect x="335.00" y="42.00" width="2.75" height="18" fill="#4C78A8" opacity="0.35"/>
<rect x="337.75" y="42.00" width="2.75" height="18" fill="#4C78A8" opacity="0.35"/>
<rect x="340.50" y="42.00" width="2.75" height="18" fill="#4C78A8" opacity="0.35"/>
<rect x="343.25" y="42.00" width="2.75" height="18" fill="#4C78A8" opacity="0.35"/>
<rect x="346.00" y="42.00" width="2.75" height="18" fill="#4C78A8" opacity="0.35"/>
<rect x="348.75" y="42.00" width="2.75" height="18" fill="#4C78A8" opacity="0.35"/>
<rect x="351.50" y="42.00" width="2.75" height="18" fill="#4C78A8" opacity="0.35"/>
<rect x="354.25" y="42.00" width="2.75" height="18" fill="#4C78A8" opacity="0.35"/>
<rect x="357.00" y="42.00" width="2.75" height="18" fill="#4C78A8" opacity="0.35"/>
<rect x="359.75" y="42.00" width="2.75" height="18" fill="#4C78A8" opacity="0.35"/>
<rect x="362.50" y="42.00" width="2.75" height="18" fill="#4C78A8" opacity="0.35"/>
<rect x="365.25" y="42.00" width="2.75" height="18" fill="#4C78A8" opacity="0.35"/>
<rect x="368.00" y="42.00" width="2.75" height="18" fill="#4C78A8" opacity="0.35"/>
<rect x="370.75" y="42.00" width="2.75" height="18" fill="#4C78A8" opacity="0.35"/>
<rect x="373.50" y="42.00" width="2.75" height="18" fill="#4C78A8" opacity="0.35"/>
<rect x="376.25" y="42.00" width="2.75" height="18" fill="#4C78A8" opacity="0.35"/>
<rect x="379.00" y="42.00" width="2.75" height="18" fill="#4C78A8" opacity="0.35"/>
<rect x="381.75" y="42.00" width="2.75" height="18" fill="#4C78A8" opacity="0.35"/>
<rect x="384.50" y="42.00" width="2.75" height="18" fill="#4C78A8" opacity="0.35"/>
<rect x="387.25" y="42.00" width="2.75" height="18" fill="#4C78A8" opacity="0.35"/>
<rect x="390.00" y="42.00" width="2.75" height="18" fill="#4C78A8" opacity="0.35"/>
<rect x="392.75" y="42.00" width="2.75" height="18" fill="#4C78A8" opacity="0.35"/>
<rect x="395.50" y="42.00" width="2.75" height="18" fill="#4C78A8" opacity="0.35"/>
<rect x="398.25" y="42.00" width="2.75" height="18" fill="#4C78A8" opacity="0.35"/>
<rect x="401.00" y="42.00" width="2.75" height="18" fill="#4C78A8" opacity="0.35"/>
<rect x="403.75" y="42.00" width="2.75" height="18" fill="#4C78A8" opacity="0.35"/>
<rect x="406.50" y="42.00" width="2.75" height="18" fill="#4C78A8" opacity="0.35"/>
<rect x="409.25" y="42.00" width="2.75" height="18" fill="#F58518" opacity="0.35"/>
<rect x="412.00" y="42.00" width="2.75" height="18" fill="#F58518" opacity="0.35"/>
<rect x="414.75" y="42.00" width="2.75" height="18" fill="#F58518" opacity="0.35"/>
<rect x="417.50" y="42.00" width="2.75" height="18" fill="#F58518" opacity="0.35"/>
<rect x="420.25" y="42.00" width="2.75" height="18" fill="#F58518" opacity="0.35"/>
<rect x="423.00" y="42.00" width="2.75" height="18" fill="#F58518" opacity="0.35"/>
<rect x="425.75" y="42.00" width="2.75" height="18" fill="#F58518" opacity="0.35"/>
<rect x="428.50" y="42.00" width="2.75" height="18" fill="#F58518" opacity="0.35"/>
<rect x="431.25" y="42.00" width="2.75" height="18" fill="#F58518" opacity="0.35"/>
<rect x="434.00" y="42.00" width="2.75" height="18" fill="#F58518" opacity="0.35"/>
<rect x="436.75" y="42.00" width="2.75" height="18" fill="#F58518" opacity="0.35"/>
<rect x="439.50" y="42.00" width="2.75" height="18" fill="#F58518" opacity="0.35"/>
<rect x="442.25" y="42.00" width="2.75" height="18" fill="#F58518" opacity="0.35"/>
<rect x="445.00" y="42.00" width="2.75" height="18" fill="#F58518" opacity="0.35"/>
<rect x="447.75" y="42.00" width="2.75" height="18" fill="#F58518" opacity="0.35"/>
<rect x="450.50" y="42.00" width="2.75" height="18" fill="#F58518" opacity="0.35"/>
<rect x="453.25" y="42.00" width="2.75" height="18" fill="#F58518" opacity="0.35"/>
<rect x="456.00" y="42.00" width="2.75" height="18" fill="#F58518" opacity="0.35"/>
<rect x="458.75" y="42.00" width="2.75" height="18" fill="#F58518" opacity="0.35"/>
<rect x="461.50" y="42.00" width="2.75" height="18" fill="#F58518" opacity="0.35"/>
<rect x="464.25" y="42.00" width="2.75" height="18" fill="#F58518" opacity="0.35"/>
<rect x="467.00" y="42.00" width="2.75" height="18" fill="#F58518" opacity="0.35"/>
<rect x="469.75" y="42.00" width="2.75" height="18" fill="#F58518" opacity="0.35"/>
<rect x="472.50" y="42.00" width="2.75" height="18" fill="#F58518" opacity="0.35"/>
<rect x="475.25" y="42.00" width="2.75" height="18" fill="#F58518" opacity="0.35"/>
<rect x="478.00" y="42.00" width="2.75" height="18" fill="#F58518" opacity="0.35"/>
<rect x="480.75" y="42.00" width="2.75" height="18" fill="#F58518" opacity="0.35"/>
<rect x="483.50" y="42.00" width="2.75" height="18" fill="#F58518" opacity="0.35"/>
<rect x="486.25" y="42.00" width="2.75" height="18" fill="#F58518" opacity="0.35"/>
<rect x="489.00" y="42.00" width="2.75" height="18" fill="#F58518" opacity="0.35"/>
<rect x="491.75" y="42.00" width="2.75" height="18" fill="#F58518" opacity="0.35"/>
<rect x="494.50" y="42.00" width="2.75" height="18" fill="#F58518" opacity="0.35"/>
<rect x="497.25" y="42.00" width="2.75" height="18" fill="#F58518" opacity="0.35"/>
<rect x="500.00" y="42.00" width="2.75" height="18" fill="#F58518" opacity="0.35"/>
<rect x="502.75" y="42.00" width="2.75" height="18" fill="#F58518" opacity="0.35"/>
<rect x="505.50" y="42.00" width="2.75" height="18" fill="#F58518" opacity="0.35"/>
<rect x="508.25" y="42.00" width="2.75" height="18" fill="#F58518" opacity="0.35"/>
<rect x="511.00" y="42.00" width="2.75" height="18" fill="#F58518" opacity="0.35"/>
<rect x="513.75" y="42.00" width="2.75" height="18" fill="#F58518" opacity="0.35"/>
<rect x="516.50" y="42.00" width="2.75" height="18" fill="#F58518" opacity="0.35"/>
<rect x="519.25" y="42.00" width="2.75" height="18" fill="#F58518" opacity="0.35"/>
<rect x="522.00" y="42.00" width="2.75" height="18" fill="#F58518" opacity="0.35"/>
<rect x="524.75" y="42.00" width="2.75" height="18" fill="#F58518" opacity="0.35"/>
<rect x="527.50" y="42.00" width="2.75" height="18" fill="#F58518" opacity="0.35"/>
<rect x="530.25" y="42.00" width="2.75" height="18" fill="#F58518" opacity="0.35"/>
<rect x="533.00" y="42.00" width="2.75" height="18" fill="#F58518" opacity="0.35"/>
<rect x="535.75" y="42.00" width="2.75" height="18" fill="#F58518" opacity="0.35"/>
<rect x="538.50" y="42.00" width="2.75" height="18" fill="#F58518" opacity="0.35"/>
<rect x="541.25" y="42.00" width="2.75" height="18" fill="#F58518" opacity="0.35"/>
<rect x="544.00" y="42.00" width="2.75" height="18" fill="#F58518" opacity="0.35"/>
<rect x="546.75" y="42.00" width="2.75" height="18" fill="#F58518" opacity="0.35"/>
<rect x="549.50" y="42.00" width="2.75" height="18" fill="#F58518" opacity="0.35"/>
<rect x="552.25" y="42.00" width="2.75" height="18" fill="#F58518" opacity="0.35"/>
<rect x="555.00" y="42.00" width="2.75" height="18" fill="#F58518" opacity="0.35"/>
<rect x="557.75" y="42.00" width="2.75" height="18" fill="#F58518" opacity="0.35"/>
<rect x="560.50" y="42.00" width="2.75" height="18" fill="#F58518" opacity="0.35"/>
<rect x="563.25" y="42.00" width="2.75" height="18" fill="#F58518" opacity="0.35"/>
<rect x="566.00" y="42.00" width="2.75" height="18" fill="#F58518" opacity="0.35"/>
<rect x="568.75" y="42.00" width="2.75" height="18" fill="#F58518" opacity="0.35"/>
<rect x="571.50" y="42.00" width="2.75" height="18" fill="#F58518" opacity="0.35"/>
<rect x="574.25" y="42.00" width="2.75" height="18" fill="#F58518" opacity="0.35"/>
<rect x="577.00" y="42.00" width="2.75" height="18" fill="#F58518" opacity="0.35"/>
<rect x="579.75" y="42.00" width="2.75" height="18" fill="#F58518" opacity="0.35"/>
<rect x="582.50" y="42.00" width="2.75" height="18" fill="#F58518" opacity="0.35"/>
<rect x="585.25" y="42.00" width="2.75" height="18" fill="#F58518" opacity="0.35"/>
<rect x="588.00" y="42.00" width="2.75" height="18" fill="#F58518" opacity="0.35"/>
<rect x="590.75" y="42.00" width="2.75" height="18" fill="#F58518" opacity="0.35"/>
<rect x="593.50" y="42.00" width="2.75" height="18" fill="#F58518" opacity="0.35"/>
<rect x="596.25" y="42.00" width="2.75" height="18" fill="#F58518" opacity="0.35"/>
<rect x="599.00" y="42.00" width="2.75" height="18" fill="#F58518" opacity="0.35"/>
<rect x="601.75" y="42.00" width="2.75" height="18" fill="#F58518" opacity="0.35"/>
<rect x="604.50" y="42.00" width="2.75" height="18" fill="#F58518" opacity="0.35"/>
<rect x="607.25" y="42.00" width="2.75" height="18" fill="#F58518" opacity="0.35"/>
<text x="60" y="332.00" font-size="12" font-family="sans-serif">Dominant state</text>
<rect x="60.00" y="340.00" width="2.75" height="40" fill="#4C78A8" opacity="0.35"/>
<rect x="62.75" y="340.00" width="2.75" height="40" fill="#4C78A8" opacity="0.35"/>
<rect x="65.50" y="340.00" width="2.75" height="40" fill="#4C78A8" opacity="0.35"/>
<rect x="68.25" y="340.00" width="2.75" height="40" fill="#4C78A8" opacity="0.35"/>
<rect x="71.00" y="340.00" width="2.75" height="40" fill="#4C78A8" opacity="0.35"/>
<rect x="73.75" y="340.00" width="2.75" height="40" fill="#4C78A8" opacity="0.35"/>
<rect x="76.50" y="340.00" width="2.75" height="40" fill="#4C78A8" opacity="0.35"/>
<rect x="79.25" y="340.00" width="2.75" height="40" fill="#4C78A8" opacity="0.35"/>
<rect x="82.00" y="340.00" width="2.75" height="40" fill="#4C78A8" opacity="0.35"/>
<rect x="84.75" y="340.00" width="2.75" height="40" fill="#4C78A8" opacity="0.35"/>
<rect x="87.50" y="340.00" width="2.75" height="40" fill="#4C78A8" opacity="0.35"/>
<rect x="90.25" y="340.00" width="2.75" height="40" fill="#4C78A8" opacity="0.35"/>
<rect x="93.00" y="340.00" width="2.75" height="40" fill="#4C78A8" opacity="0.35"/>
<rect x="95.75" y="340.00" width="2.75" height="40" fill="#4C78A8" opacity="0.35"/>
<rect x="98.50" y="340.00" width="2.75" height="40" fill="#4C78A8" opacity="0.35"/>
<rect x="101.25" y="340.00" width="2.75" height="40" fill="#4C78A8" opacity="0.35"/>
<rect x="104.00" y="340.00" width="2.75" height="40" fill="#4C78A8" opacity="0.35"/>
<rect x="106.75" y="340.00" width="2.75" height="40" fill="#4C78A8" opacity="0.35"/>
<rect x="109.50" y="340.00" width="2.75" height="40" fill="#4C78A8" opacity="0.35"/>
<rect x="112.25" y="340.00" width="2.75" height="40" fill="#4C78A8" opacity="0.35"/>
<rect x="115.00" y="340.00" width="2.75" height="40" fill="#4C78A8" opacity="0.35"/>
<rect x="117.75" y="340.00" width="2.75" height="40" fill="#4C78A8" opacity="0.35"/>
<rect x="120.50" y="340.00" width="2.75" height="40" fill="#4C78A8" opacity="0.35"/>
<rect x="123.25" y="340.00" width="2.75" height="40" fill="#4C78A8" opacity="0.35"/>
<rect x="126.00" y="340.00" width="2.75" height="40" fill="#4C78A8" opacity="0.35"/>
<rect x="128.75" y="340.00" width="2.75" height="40" fill="#4C78A8" opacity="0.35"/>
<rect x="131.50" y="340.00" width="2.75" height="40" fill="#4C78A8" opacity="0.35"/>
<rect x="134.25" y="340.00" width="2.75" height="40" fill="#4C78A8" opacity="0.35"/>
<rect x="137.00" y="340.00" width="2.75" height="40" fill="#4C78A8" opacity="0.35"/>
<rect x="139.75" y="340.00" width="2.75" height="40" fill="#4C78A8" opacity="0.35"/>
<rect x="142.50" y="340.00" width="2.75" height="40" fill="#4C78A8" opacity="0.35"/>
<rect x="145.25" y="340.00" width="2.75" height="40" fill="#4C78A8" opacity="0.35"/>
<rect x="148.00" y="340.00" width="2.75" height="40" fill="#4C78A8" opacity="0.35"/>
<rect x="150.75" y="340.00" width="2.75" height="40" fill="#4C78A8" opacity="0.35"/>
<rect x="153.50" y="340.00" width="2.75" height="40" fill="#F58518" opacity="0.35"/>
<rect x="156.25" y="340.00" width="2.75" height="40" fill="#F58518" opacity="0.35"/>
<rect x="159.00" y="340.00" width="2.75" height="40" fill="#F58518" opacity="0.35"/>
<rect x="161.75" y="340.00" width="2.75" height="40" fill="#4C78A8" opacity="0.35"/>
<rect x="164.50" y="340.00" width="2.75" height="40" fill="#4C78A8" opacity="0.35"/>
<rect x="167.25" y="340.00" width="2.75" height="40" fill="#4C78A8" opacity="0.35"/>
<rect x="170.00" y="340.00" width="2.75" height="40" fill="#4C78A8" opacity="0.35"/>
<rect x="172.75" y="340.00" width="2.75" height="40" fill="#4C78A8" opacity="0.35"/>
<rect x="175.50" y="340.00" width="2.75" height="40" fill="#4C78A8" opacity="0.35"/>
<rect x="178.25" y="340.00" width="2.75" height="40" fill="#4C78A8" opacity="0.35"/>
<rect x="181.00" y="340.00" width="2.75" height="40" fill="#4C78A8" opacity="0.35"/>
<rect x="183.75" y="340.00" width="2.75" height="40" fill="#4C78A8" opacity="0.35"/>
<rect x="186.50" y="340.00" width="2.75" height="40" fill="#4C78A8" opacity="0.35"/>
<rect x="189.25" y="340.00" width="2.75" height="40" fill="#4C78A8" opacity="0.35"/>
<rect x="192.00" y="340.00" width="2.75" height="40" fill="#4C78A8" opacity="0.35"/>
<rect x="194.75" y="340.00" width="2.75" height="40" fill="#4C78A8" opacity="0.35"/>
<rect x="197.50" y="340.00" width="2.75" height="40" fill="#4C78A8" opacity="0.35"/>
<rect x="200.25" y="340.00" width="2.75" height="40" fill="#4C78A8" opacity="0.35"/>
<rect x="203.00" y="340.00" width="2.75" height="40" fill="#4C78A8" opacity="0.35"/>
<rect x="205.75" y="340.00" width="2.75" height="40" fill="#4C78A8" opacity="0.35"/>
<rect x="208.50" y="340.00" width="2.75" height="40" fill="#4C78A8" opacity="0.35"/>
<rect x="211.25" y="340.00" width="2.75" height="40" fill="#4C78A8" opacity="0.35"/>
<rect x="214.00" y="340.00" width="2.75" height="40" fill="#4C78A8" opacity="0.35"/>
<rect x="216.75" y="340.00" width="2.75" height="40" fill="#4C78A8" opacity="0.35"/>
<rect x="219.50" y="340.00" width="2.75" height="40" fill="#4C78A8" opacity="0.35"/>
<rect x="222.25" y="340.00" width="2.75" height="40" fill="#4C78A8" opacity="0.35"/>
<rect x="225.00" y="340.00" width="2.75" height="40" fill="#4C78A8" opacity="0.35"/>
<rect x="227.75" y="340.00" width="2.75" height="40" fill="#4C78A8" opacity="0.35"/>
<rect x="230.50" y="340.00" width="2.75" height="40" fill="#4C78A8" opacity="0.35"/>
<rect x="233.25" y="340.00" width="2.75" height="40" fill="#4C78A8" opacity="0.35"/>
<rect x="236.00" y="340.00" width="2.75" height="40" fill="#4C78A8" opacity="0.35"/>
<rect x="238.75" y="340.00" width="2.75" height="40" fill="#4C78A8" opacity="0.35"/>
<rect x="241.50" y="340.00" width="2.75" height="40" fill="#4C78A8" opacity="0.35"/>
<rect x="244.25" y="340.00" width="2.75" height="40" fill="#4C78A8" opacity="0.35"/>
<rect x="247.00" y="340.00" width="2.75" height="40" fill="#4C78A8" opacity="0.35"/>
<rect x="249.75" y="340.00" width="2.75" height="40" fill="#4C78A8" opacity="0.35"/>
<rect x="252.50" y="340.00" width="2.75" height="40" fill="#4C78A8" opacity="0.35"/>
<rect x="255.25" y="340.00" width="2.75" height="40" fill="#4C78A8" opacity="0.35"/>
<rect x="258.00" y="340.00" width="2.75" height="40" fill="#4C78A8" opacity="0.35"/>
<rect x="260.75" y="340.00" width="2.75" height="40" fill="#4C78A8" opacity="0.35"/>
<rect x="263.50" y="340.00" width="2.75" height="40" fill="#4C78A8" opacity="0.35"/>
<rect x="266.25" y="340.00" width="2.75" height="40" fill="#4C78A8" opacity="0.35"/>
<rect x="269.00" y="340.00" width="2.75" height="40" fill="#4C78A8" opacity="0.35"/>
<rect x="271.75" y="340.00" width="2.75" height="40" fill="#4C78A8" opacity="0.35"/>
<rect x="274.50" y="340.00" width="2.75" height="40" fill="#4C78A8" opacity="0.35"/>
<rect x="277.25" y="340.00" width="2.75" height="40" fill="#4C78A8" opacity="0.35"/>
<rect x="280.00" y="340.00" width="2.75" height="40" fill="#4C78A8" opacity="0.35"/>
<rect x="282.75" y="340.00" width="2.75" height="40" fill="#4C78A8" opacity="0.35"/>
<rect x="285.50" y="340.00" width="2.75" height="40" fill="#4C78A8" opacity="0.35"/>
<rect x="288.25" y="340.00" width="2.75" height="40" fill="#4C78A8" opacity="0.35"/>
<rect x="291.00" y="340.00" width="2.75" height="40" fill="#4C78A8" opacity="0.35"/>
<rect x="293.75" y="340.00" width="2.75" height="40" fill="#4C78A8" opacity="0.35"/>
<rect x="296.50" y="340.00" width="2.75" height="40" fill="#4C78A8" opacity="0.35"/>
<rect x="299.25" y="340.00" width="2.75" height="40" fill="#4C78A8" opacity="0.35"/>
<rect x="302.00" y="340.00" width="2.75" height="40" fill="#4C78A8" opacity="0.35"/>
<rect x="304.75" y="340.00" width="2.75" height="40" fill="#4C78A8" opacity="0.35"/>
<rect x="307.50" y="340.00" width="2.75" height="40" fill="#4C78A8" opacity="0.35"/>
<rect x="310.25" y="340.00" width="2.75" height="40" fill="#4C78A8" opacity="0.35"/>
<rect x="313.00" y="340.00" width="2.75" height="40" fill="#4C78A8" opacity="0.35"/>
<rect x="315.75" y="340.00" width="2.75" height="40" fill="#4C78A8" opacity="0.35"/>
<rect x="318.50" y="340.00" width="2.75" height="40" fill="#4C78A8" opacity="0.35"/>
<rect x="321.25" y="340.00" width="2.75" height="40" fill="#4C78A8" opacity="0.35"/>
<rect x="324.00" y="340.00" width="2.75" height="40" fill="#4C78A8" opacity="0.35"/>
<rect x="326.75" y="340.00" width="2.75" height="40" fill="#4C78A8" opacity="0.35"/>
<rect x="329.50" y="340.00" width="2.75" height="40" fill="#4C78A8" opacity="0.35"/>
<rect x="332.25" y="340.00" width="2.75" height="40" fill="#4C78A8" opacity="0.35"/>
<rect x="335.00" y="340.00" width="2.75" height="40" fill="#4C78A8" opacity="0.35"/>
<rect x="337.75" y="340.00" width="2.75" height="40" fill="#4C78A8" opacity="0.35"/>
<rect x="340.50" y="340.00" width="2.75" height="40" fill="#4C78A8" opacity="0.35"/>
<rect x="343.25" y="340.00" width="2.75" height="40" fill="#4C78A8" opacity="0.35"/>
<rect x="346.00" y="340.00" width="2.75" height="40" fill="#4C78A8" opacity="0.35"/>
<rect x="348.75" y="340.00" width="2.75" height="40" fill="#4C78A8" opacity="0.35"/>
<rect x="351.50" y="340.00" width="2.75" height="40" fill="#4C78A8" opacity="0.35"/>
<rect x="354.25" y="340.00" width="2.75" height="40" fill="#4C78A8" opacity="0.35"/>
<rect x="357.00" y="340.00" width="2.75" height="40" fill="#4C78A8" opacity="0.35"/>
<rect x="359.75" y="340.00" width="2.75" height="40" fill="#4C78A8" opacity="0.35"/>
<rect x="362.50" y="340.00" width="2.75" height="40" fill="#4C78A8" opacity="0.35"/>
<rect x="365.25" y="340.00" width="2.75" height="40" fill="#4C78A8" opacity="0.35"/>
<rect x="368.00" y="340.00" width="2.75" height="40" fill="#4C78A8" opacity="0.35"/>
<rect x="370.75" y="340.00" width="2.75" height="40" fill="#4C78A8" opacity="0.35"/>
<rect x="373.50" y="340.00" width="2.75" height="40" fill="#4C78A8" opacity="0.35"/>
<rect x="376.25" y="340.00" width="2.75" height="40" fill="#4C78A8" opacity="0.35"/>
<rect x="379.00" y="340.00" width="2.75" height="40" fill="#4C78A8" opacity="0.35"/>
<rect x="381.75" y="340.00" width="2.75" height="40" fill="#4C78A8" opacity="0.35"/>
<rect x="384.50" y="340.00" width="2.75" height="40" fill="#4C78A8" opacity="0.35"/>
<rect x="387.25" y="340.00" width="2.75" height="40" fill="#4C78A8" opacity="0.35"/>
<rect x="390.00" y="340.00" width="2.75" height="40" fill="#4C78A8" opacity="0.35"/>
<rect x="392.75" y="340.00" width="2.75" height="40" fill="#4C78A8" opacity="0.35"/>
<rect x="395.50" y="340.00" width="2.75" height="40" fill="#4C78A8" opacity="0.35"/>
<rect x="398.25" y="340.00" width="2.75" height="40" fill="#4C78A8" opacity="0.35"/>
<rect x="401.00" y="340.00" width="2.75" height="40" fill="#4C78A8" opacity="0.35"/>
<rect x="403.75" y="340.00" width="2.75" height="40" fill="#F58518" opacity="0.35"/>
<rect x="406.50" y="340.00" width="2.75" height="40" fill="#F58518" opacity="0.35"/>
<rect x="409.25" y="340.00" width="2.75" height="40" fill="#F58518" opacity="0.35"/>
<rect x="412.00" y="340.00" width="2.75" height="40" fill="#F58518" opacity="0.35"/>
<rect x="414.75" y="340.00" width="2.75" height="40" fill="#F58518" opacity="0.35"/>
<rect x="417.50" y="340.00" width="2.75" height="40" fill="#F58518" opacity="0.35"/>
<rect x="420.25" y="340.00" width="2.75" height="40" fill="#F58518" opacity="0.35"/>
<rect x="423.00" y="340.00" width="2.75" height="40" fill="#F58518" opacity="0.35"/>
<rect x="425.75" y="340.00" width="2.75" height="40" fill="#F58518" opacity="0.35"/>
<rect x="428.50" y="340.00" width="2.75" height="40" fill="#F58518" opacity="0.35"/>
<rect x="431.25" y="340.00" width="2.75" height="40" fill="#F58518" opacity="0.35"/>
<rect x="434.00" y="340.00" width="2.75" height="40" fill="#4C78A8" opacity="0.35"/>
<rect x="436.75" y="340.00" width="2.75" height="40" fill="#4C78A8" opacity="0.35"/>
<rect x="439.50" y="340.00" width="2.75" height="40" fill="#4C78A8" opacity="0.35"/>
<rect x="442.25" y="340.00" width="2.75" height="40" fill="#F58518" opacity="0.35"/>
<rect x="445.00" y="340.00" width="2.75" height="40" fill="#F58518" opacity="0.35"/>
<rect x="447.75" y="340.00" width="2.75" height="40" fill="#F58518" opacity="0.35"/>
<rect x="450.50" y="340.00" width="2.75" height="40" fill="#F58518" opacity="0.35"/>
<rect x="453.25" y="340.00" width="2.75" height="40" fill="#F58518" opacity="0.35"/>
<rect x="456.00" y="340.00" width="2.75" height="40" fill="#F58518" opacity="0.35"/>
<rect x="458.75" y="340.00" width="2.75" height="40" fill="#F58518" opacity="0.35"/>
<rect x="461.50" y="340.00" width="2.75" height="40" fill="#F58518" opacity="0.35"/>
<rect x="464.25" y="340.00" width="2.75" height="40" fill="#F58518" opacity="0.35"/>
<rect x="467.00" y="340.00" width="2.75" height="40" fill="#4C78A8" opacity="0.35"/>
<rect x="469.75" y="340.00" width="2.75" height="40" fill="#4C78A8" opacity="0.35"/>
<rect x="472.50" y="340.00" width="2.75" height="40" fill="#4C78A8" opacity="0.35"/>
<rect x="475.25" y="340.00" width="2.75" height="40" fill="#4C78A8" opacity="0.35"/>
<rect x="478.00" y="340.00" width="2.75" height="40" fill="#4C78A8" opacity="0.35"/>
<rect x="480.75" y="340.00" width="2.75" height="40" fill="#4C78A8" opacity="0.35"/>
<rect x="483.50" y="340.00" width="2.75" height="40" fill="#4C78A8" opacity="0.35"/>
<rect x="486.25" y="340.00" width="2.75" height="40" fill="#4C78A8" opacity="0.35"/>
<rect x="489.00" y="340.00" width="2.75" height="40" fill="#4C78A8" opacity="0.35"/>
<rect x="491.75" y="340.00" width="2.75" height="40" fill="#4C78A8" opacity="0.35"/>
<rect x="494.50" y="340.00" width="2.75" height="40" fill="#4C78A8" opacity="0.35"/>
<rect x="497.25" y="340.00" width="2.75" height="40" fill="#4C78A8" opacity="0.35"/>
<rect x="500.00" y="340.00" width="2.75" height="40" fill="#4C78A8" opacity="0.35"/>
<rect x="502.75" y="340.00" width="2.75" height="40" fill="#4C78A8" opacity="0.35"/>
<rect x="505.50" y="340.00" width="2.75" height="40" fill="#4C78A8" opacity="0.35"/>
<rect x="508.25" y="340.00" width="2.75" height="40" fill="#4C78A8" opacity="0.35"/>
<rect x="511.00" y="340.00" width="2.75" height="40" fill="#4C78A8" opacity="0.35"/>
<rect x="513.75" y="340.00" width="2.75" height="40" fill="#F58518" opacity="0.35"/>
<rect x="516.50" y="340.00" width="2.75" height="40" fill="#F58518" opacity="0.35"/>
<rect x="519.25" y="340.00" width="2.75" height="40" fill="#F58518" opacity="0.35"/>
<rect x="522.00" y="340.00" width="2.75" height="40" fill="#F58518" opacity="0.35"/>
<rect x="524.75" y="340.00" width="2.75" height="40" fill="#F58518" opacity="0.35"/>
<rect x="527.50" y="340.00" width="2.75" height="40" fill="#F58518" opacity="0.35"/>
<rect x="530.25" y="340.00" width="2.75" height="40" fill="#F58518" opacity="0.35"/>
<rect x="533.00" y="340.00" width="2.75" height="40" fill="#F58518" opacity="0.35"/>
<rect x="535.75" y="340.00" width="2.75" height="40" fill="#4C78A8" opacity="0.35"/>
<rect x="538.50" y="340.00" width="2.75" height="40" fill="#4C78A8" opacity="0.35"/>
<rect x="541.25" y="340.00" width="2.75" height="40" fill="#F58518" opacity="0.35"/>
<rect x="544.00" y="340.00" width="2.75" height="40" fill="#F58518" opacity="0.35"/>
<rect x="546.75" y="340.00" width="2.75" height="40" fill="#F58518" opacity="0.35"/>
<rect x="549.50" y="340.00" width="2.75" height="40" fill="#F58518" opacity="0.35"/>
<rect x="552.25" y="340.00" width="2.75" height="40" fill="#F58518" opacity="0.35"/>
<rect x="555.00" y="340.00" width="2.75" height="40" fill="#F58518" opacity="0.35"/>
<rect x="557.75" y="340.00" width="2.75" height="40" fill="#F58518" opacity="0.35"/>
<rect x="560.50" y="340.00" width="2.75" height="40" fill="#F58518" opacity="0.35"/>
<rect x="563.25" y="340.00" width="2.75" height="40" fill="#4C78A8" opacity="0.35"/>
<rect x="566.00" y="340.00" width="2.75" height="40" fill="#4C78A8" opacity="0.35"/>
<rect x="568.75" y="340.00" width="2.75" height="40" fill="#F58518" opacity="0.35"/>
<rect x="571.50" y="340.00" width="2.75" height="40" fill="#F58518" opacity="0.35"/>
<rect x="574.25" y="340.00" width="2.75" height="40" fill="#F58518" opacity="0.35"/>
<rect x="577.00" y="340.00" width="2.75" height="40" fill="#4C78A8" opacity="0.35"/>
<rect x="579.75" y="340.00" width="2.75" height="40" fill="#4C78A8" opacity="0.35"/>
<rect x="582.50" y="340.00" width="2.75" height="40" fill="#4C78A8" opacity="0.35"/>
<rect x="585.25" y="340.00" width="2.75" height="40" fill="#F58518" opacity="0.35"/>
<rect x="588.00" y="340.00" width="2.75" height="40" fill="#F58518" opacity="0.35"/>
<rect x="590.75" y="340.00" width="2.75" height="40" fill="#F58518" opacity="0.35"/>
<rect x="593.50" y="340.00" width="2.75" height="40" fill="#F58518" opacity="0.35"/>
<rect x="596.25" y="340.00" width="2.75" height="40" fill="#F58518" opacity="0.35"/>
<rect x="599.00" y="340.00" width="2.75" height="40" fill="#F58518" opacity="0.35"/>
<rect x="601.75" y="340.00" width="2.75" height="40" fill="#F58518" opacity="0.35"/>
<rect x="604.50" y="340.00" width="2.75" height="40" fill="#F58518" opacity="0.35"/>
<rect x="607.25" y="340.00" width="2.75" height="40" fill="#F58518" opacity="0.35"/>
<polygon points="60.00,99.69 62.76,73.50 65.53,70.27 68.29,70.19 71.06,73.26 73.82,70.27 76.58,71.20 79.35,103.58 82.11,103.58 84.87,70.60 87.64,70.02 90.40,70.01 93.17,70.01 95.93,70.08 98.69,74.29 101.46,70.10 104.22,70.20 106.98,80.04 109.75,76.98 112.51,117.64 115.28,117.79 118.04,72.49 120.80,72.65 123.57,109.25 126.33,109.09 129.10,70.63 131.86,70.02 134.62,70.01 137.39,70.01 140.15,70.01 142.91,70.01 145.68,70.01 148.44,70.08 151.21,72.87 153.97,219.45 156.73,233.33 159.50,220.72 162.26,72.27 165.03,70.06 167.79,70.01 170.55,70.02 173.32,70.69 176.08,114.60 178.84,114.64 181.61,70.71 184.37,70.02 187.14,70.01 189.90,70.01 192.66,70.03 195.43,70.69 198.19,105.43 200.95,105.65 203.72,70.55 206.48,70.01 209.25,70.01 212.01,70.01 214.77,70.01 217.54,70.01 220.30,70.01 223.07,70.01 225.83,70.01 228.59,70.08 231.36,74.34 234.12,70.08 236.88,70.08 239.65,73.84 242.41,70.09 245.18,70.01 247.94,70.07 250.70,73.80 253.47,70.06 256.23,70.01 258.99,70.01 261.76,70.01 264.52,70.01 267.29,70.01 270.05,70.01 272.81,70.01 275.58,70.01 278.34,70.01 281.11,70.01 283.87,70.10 286.63,74.93 289.40,71.03 292.16,75.83 294.92,71.03 297.69,75.17 300.45,70.09 303.22,70.01 305.98,70.01 308.74,70.01 311.51,70.01 314.27,70.01 317.04,70.01 319.80,70.09 322.56,74.13 325.33,70.07 328.09,70.01 330.85,70.02 333.62,70.90 336.38,107.10 339.15,107.87 341.91,70.62 344.67,70.03 347.44,70.11 350.20,75.11 352.96,71.10 355.73,74.57 358.49,70.14 361.26,70.11 364.02,74.31 366.78,70.70 369.55,74.40 372.31,70.07 375.08,70.01 377.84,70.07 380.60,74.39 383.37,70.07 386.13,70.01 388.89,70.02 391.66,70.76 394.42,118.03 397.19,119.39 399.95,79.20 402.71,83.59 405.48,297.21 408.24,317.78 411.01,319.76 413.77,319.94 416.53,319.95 419.30,319.90 422.06,319.25 424.82,311.93 427.59,219.51 430.35,233.32 433.12,221.58 435.88,73.78 438.64,70.80 441.41,75.71 444.17,282.63 446.93,304.61 449.70,304.38 452.46,280.53 455.23,315.95 457.99,319.50 460.75,319.71 463.52,318.22 466.28,299.74 469.05,108.29 471.81,109.06 474.57,77.35 477.34,80.22 480.10,70.27 482.86,70.17 485.63,74.42 488.39,70.89 491.16,74.42 493.92,70.07 496.68,70.04 499.45,71.85 502.21,147.16 504.97,152.67 507.74,124.75 510.50,162.45 513.27,158.93 516.03,305.22 518.79,318.46 521.56,319.66 524.32,319.22 527.09,313.72 529.85,246.36 532.61,257.36 535.38,245.65 538.14,100.82 540.90,100.96 543.67,298.48 546.43,318.00 549.20,319.54 551.96,319.20 554.72,313.76 557.49,248.32 560.25,259.65 563.02,248.55 565.78,97.64 568.54,96.52 571.31,234.57 574.07,245.88 576.83,232.50 579.60,72.91 582.36,70.63 585.13,75.56 587.89,294.61 590.65,317.70 593.42,319.78 596.18,319.94 598.94,319.96 601.71,319.96 604.47,319.95 607.24,319.88 610.00,319.07 610.00,320.00 607.24,320.00 604.47,320.00 601.71,320.00 598.94,320.00 596.18,320.00 593.42,320.00 590.65,320.00 587.89,320.00 585.13,320.00 582.36,320.00 579.60,320.00 576.83,320.00 574.07,320.00 571.31,320.00 568.54,320.00 565.78,320.00 563.02,320.00 560.25,320.00 557.49,320.00 554.72,320.00 551.96,320.00 549.20,320.00 546.43,320.00 543.67,320.00 540.90,320.00 538.14,320.00 535.38,320.00 532.61,320.00 529.85,320.00 527.09,320.00 524.32,320.00 521.56,320.00 518.79,320.00 516.03,320.00 513.27,320.00 510.50,320.00 507.74,320.00 504.97,320.00 502.21,320.00 499.45,320.00 496.68,320.00 493.92,320.00 491.16,320.00 488.39,320.00 485.63,320.00 482.86,320.00 480.10,320.00 477.34,320.00 474.57,320.00 471.81,320.00 469.05,320.00 466.28,320.00 463.52,320.00 460.75,320.00 457.99,320.00 455.23,320.00 452.46,320.00 449.70,320.00 446.93,320.00 444.17,320.00 441.41,320.00 438.64,320.00 435.88,320.00 433.12,320.00 430.35,320.00 427.59,320.00 424.82,320.00 422.06,320.00 419.30,320.00 416.53,320.00 413.77,320.00 411.01,320.00 408.24,320.00 405.48,320.00 402.71,320.00 399.95,320.00 397.19,320.00 394.42,320.00 391.66,320.00 388.89,320.00 386.13,320.00 383.37,320.00 380.60,320.00 377.84,320.00 375.08,320.00 372.31,320.00 369.55,320.00 366.78,320.00 364.02,320.00 361.26,320.00 358.49,320.00 355.73,320.00 352.96,320.00 350.20,320.00 347.44,320.00 344.67,320.00 341.91,320.00 339.15,320.00 336.38,320.00 333.62,320.00 330.85,320.00 328.09,320.00 325.33,320.00 322.56,320.00 319.80,320.00 317.04,320.00 314.27,320.00 311.51,320.00 308.74,320.00 305.98,320.00 303.22,320.00 300.45,320.00 297.69,320.00 294.92,320.00 292.16,320.00 289.40,320.00 286.63,320.00 283.87,320.00 281.11,320.00 278.34,320.00 275.58,320.00 272.81,320.00 270.05,320.00 267.29,320.00 264.52,320.00 261.76,320.00 258.99,320.00 256.23,320.00 253.47,320.00 250.70,320.00 247.94,320.00 245.18,320.00 242.41,320.00 239.65,320.00 236.88,320.00 234.12,320.00 231.36,320.00 228.59,320.00 225.83,320.00 223.07,320.00 220.30,320.00 217.54,320.00 214.77,320.00 212.01,320.00 209.25,320.00 206.48,320.00 203.72,320.00 200.95,320.00 198.19,320.00 195.43,320.00 192.66,320.00 189.90,320.00 187.14,320.00 184.37,320.00 181.61,320.00 178.84,320.00 176.08,320.00 173.32,320.00 170.55,320.00 167.79,320.00 165.03,320.00 162.26,320.00 159.50,320.00 156.73,320.00 153.97,320.00 151.21,320.00 148.44,320.00 145.68,320.00 142.91,320.00 140.15,320.00 137.39,320.00 134.62,320.00 131.86,320.00 129.10,320.00 126.33,320.00 123.57,320.00 120.80,320.00 118.04,320.00 115.28,320.00 112.51,320.00 109.75,320.00 106.98,320.00 104.22,320.00 101.46,320.00 98.69,320.00 95.93,320.00 93.17,320.00 90.40,320.00 87.64,320.00 84.87,320.00 82.11,320.00 79.35,320.00 76.58,320.00 73.82,320.00 71.06,320.00 68.29,320.00 65.53,320.00 62.76,320.00 60.00,320.00" fill="#4C78A8" opacity="0.45" stroke="none"/>
<polyline fill="none" stroke="#4C78A8" stroke-width="1.5" points="60.00,99.69 62.76,73.50 65.53,70.27 68.29,70.19 71.06,73.26 73.82,70.27 76.58,71.20 79.35,103.58 82.11,103.58 84.87,70.60 87.64,70.02 90.40,70.01 93.17,70.01 95.93,70.08 98.69,74.29 101.46,70.10 104.22,70.20 106.98,80.04 109.75,76.98 112.51,117.64 115.28,117.79 118.04,72.49 120.80,72.65 123.57,109.25 126.33,109.09 129.10,70.63 131.86,70.02 134.62,70.01 137.39,70.01 140.15,70.01 142.91,70.01 145.68,70.01 148.44,70.08 151.21,72.87 153.97,219.45 156.73,233.33 159.50,220.72 162.26,72.27 165.03,70.06 167.79,70.01 170.55,70.02 173.32,70.69 176.08,114.60 178.84,114.64 181.61,70.71 184.37,70.02 187.14,70.01 189.90,70.01 192.66,70.03 195.43,70.69 198.19,105.43 200.95,105.65 203.72,70.55 206.48,70.01 209.25,70.01 212.01,70.01 214.77,70.01 217.54,70.01 220.30,70.01 223.07,70.01 225.83,70.01 228.59,70.08 231.36,74.34 234.12,70.08 236.88,70.08 239.65,73.84 242.41,70.09 245.18,70.01 247.94,70.07 250.70,73.80 253.47,70.06 256.23,70.01 258.99,70.01 261.76,70.01 264.52,70.01 267.29,70.01 270.05,70.01 272.81,70.01 275.58,70.01 278.34,70.01 281.11,70.01 283.87,70.10 286.63,74.93 289.40,71.03 292.16,75.83 294.92,71.03 297.69,75.17 300.45,70.09 303.22,70.01 305.98,70.01 308.74,70.01 311.51,70.01 314.27,70.01 317.04,70.01 319.80,70.09 322.56,74.13 325.33,70.07 328.09,70.01 330.85,70.02 333.62,70.90 336.38,107.10 339.15,107.87 341.91,70.62 344.67,70.03 347.44,70.11 350.20,75.11 352.96,71.10 355.73,74.57 358.49,70.14 361.26,70.11 364.02,74.31 366.78,70.70 369.55,74.40 372.31,70.07 375.08,70.01 377.84,70.07 380.60,74.39 383.37,70.07 386.13,70.01 388.89,70.02 391.66,70.76 394.42,118.03 397.19,119.39 399.95,79.20 402.71,83.59 405.48,297.21 408.24,317.78 411.01,319.76 413.77,319.94 416.53,319.95 419.30,319.90 422.06,319.25 424.82,311.93 427.59,219.51 430.35,233.32 433.12,221.58 435.88,73.78 438.64,70.80 441.41,75.71 444.17,282.63 446.93,304.61 449.70,304.38 452.46,280.53 455.23,315.95 457.99,319.50 460.75,319.71 463.52,318.22 466.28,299.74 469.05,108.29 471.81,109.06 474.57,77.35 477.34,80.22 480.10,70.27 482.86,70.17 485.63,74.42 488.39,70.89 491.16,74.42 493.92,70.07 496.68,70.04 499.45,71.85 502.21,147.16 504.97,152.67 507.74,124.75 510.50,162.45 513.27,158.93 516.03,305.22 518.79,318.46 521.56,319.66 524.32,319.22 527.09,313.72 529.85,246.36 532.61,257.36 535.38,245.65 538.14,100.82 540.90,100.96 543.67,298.48 546.43,318.00 549.20,319.54 551.96,319.20 554.72,313.76 557.49,248.32 560.25,259.65 563.02,248.55 565.78,97.64 568.54,96.52 571.31,234.57 574.07,245.88 576.83,232.50 579.60,72.91 582.36,70.63 585.13,75.56 587.89,294.61 590.65,317.70 593.42,319.78 596.18,319.94 598.94,319.96 601.71,319.96 604.47,319.95 607.24,319.88 610.00,319.07"/>
<polygon points="60.00,70.00 62.76,70.00 65.53,70.00 68.29,70.00 71.06,70.00 73.82,70.00 76.58,70.00 79.35,70.00 82.11,70.00 84.87,70.00 87.64,70.00 90.40,70.00 93.17,70.00 95.93,70.00 98.69,70.00 101.46,70.00 104.22,70.00 106.98,70.00 109.75,70.00 112.51,70.00 115.28,70.00 118.04,70.00 120.80,70.00 123.57,70.00 126.33,70.00 129.10,70.00 131.86,70.00 134.62,70.00 137.39,70.00 140.15,70.00 142.91,70.00 145.68,70.00 148.44,70.00 151.21,70.00 153.97,70.00 156.73,70.00 159.50,70.00 162.26,70.00 165.03,70.00 167.79,70.00 170.55,70.00 173.32,70.00 176.08,70.00 178.84,70.00 181.61,70.00 184.37,70.00 187.14,70.00 189.90,70.00 192.66,70.00 195.43,70.00 198.19,70.00 200.95,70.00 203.72,70.00 206.48,70.00 209.25,70.00 212.01,70.00 214.77,70.00 217.54,70.00 220.30,70.00 223.07,70.00 225.83,70.00 228.59,70.00 231.36,70.00 234.12,70.00 236.88,70.00 239.65,70.00 242.41,70.00 245.18,70.00 247.94,70.00 250.70,70.00 253.47,70.00 256.23,70.00 258.99,70.00 261.76,70.00 264.52,70.00 267.29,70.00 270.05,70.00 272.81,70.00 275.58,70.00 278.34,70.00 281.11,70.00 283.87,70.00 286.63,70.00 289.40,70.00 292.16,70.00 294.92,70.00 297.69,70.00 300.45,70.00 303.22,70.00 305.98,70.00 308.74,70.00 311.51,70.00 314.27,70.00 317.04,70.00 319.80,70.00 322.56,70.00 325.33,70.00 328.09,70.00 330.85,70.00 333.62,70.00 336.38,70.00 339.15,70.00 341.91,70.00 344.67,70.00 347.44,70.00 350.20,70.00 352.96,70.00 355.73,70.00 358.49,70.00 361.26,70.00 364.02,70.00 366.78,70.00 369.55,70.00 372.31,70.00 375.08,70.00 377.84,70.00 380.60,70.00 383.37,70.00 386.13,70.00 388.89,70.00 391.66,70.00 394.42,70.00 397.19,70.00 399.95,70.00 402.71,70.00 405.48,70.00 408.24,70.00 411.01,70.00 413.77,70.00 416.53,70.00 419.30,70.00 422.06,70.00 424.82,70.00 427.59,70.00 430.35,70.00 433.12,70.00 435.88,70.00 438.64,70.00 441.41,70.00 444.17,70.00 446.93,70.00 449.70,70.00 452.46,70.00 455.23,70.00 457.99,70.00 460.75,70.00 463.52,70.00 466.28,70.00 469.05,70.00 471.81,70.00 474.57,70.00 477.34,70.00 480.10,70.00 482.86,70.00 485.63,70.00 488.39,70.00 491.16,70.00 493.92,70.00 496.68,70.00 499.45,70.00 502.21,70.00 504.97,70.00 507.74,70.00 510.50,70.00 513.27,70.00 516.03,70.00 518.79,70.00 521.56,70.00 524.32,70.00 527.09,70.00 529.85,70.00 532.61,70.00 535.38,70.00 538.14,70.00 540.90,70.00 543.67,70.00 546.43,70.00 549.20,70.00 551.96,70.00 554.72,70.00 557.49,70.00 560.25,70.00 563.02,70.00 565.78,70.00 568.54,70.00 571.31,70.00 574.07,70.00 576.83,70.00 579.60,70.00 582.36,70.00 585.13,70.00 587.89,70.00 590.65,70.00 593.42,70.00 596.18,70.00 598.94,70.00 601.71,70.00 604.47,70.00 607.24,70.00 610.00,70.00 610.00,319.07 607.24,319.88 604.47,319.95 601.71,319.96 598.94,319.96 596.18,319.94 593.42,319.78 590.65,317.70 587.89,294.61 585.13,75.56 582.36,70.63 579.60,72.91 576.83,232.50 574.07,245.88 571.31,234.57 568.54,96.52 565.78,97.64 563.02,248.55 560.25,259.65 557.49,248.32 554.72,313.76 551.96,319.20 549.20,319.54 546.43,318.00 543.67,298.48 540.90,100.96 538.14,100.82 535.38,245.65 532.61,257.36 529.85,246.36 527.09,313.72 524.32,319.22 521.56,319.66 518.79,318.46 516.03,305.22 513.27,158.93 510.50,162.45 507.74,124.75 504.97,152.67 502.21,147.16 499.45,71.85 496.68,70.04 493.92,70.07 491.16,74.42 488.39,70.89 485.63,74.42 482.86,70.17 480.10,70.27 477.34,80.22 474.57,77.35 471.81,109.06 469.05,108.29 466.28,299.74 463.52,318.22 460.75,319.71 457.99,319.50 455.23,315.95 452.46,280.53 449.70,304.38 446.93,304.61 444.17,282.63 441.41,75.71 438.64,70.80 435.88,73.78 433.12,221.58 430.35,233.32 427.59,219.51 424.82,311.93 422.06,319.25 419.30,319.90 416.53,319.95 413.77,319.94 411.01,319.76 408.24,317.78 405.48,297.21 402.71,83.59 399.95,79.20 397.19,119.39 394.42,118.03 391.66,70.76 388.89,70.02 386.13,70.01 383.37,70.07 380.60,74.39 377.84,70.07 375.08,70.01 372.31,70.07 369.55,74.40 366.78,70.70 364.02,74.31 361.26,70.11 358.49,70.14 355.73,74.57 352.96,71.10 350.20,75.11 347.44,70.11 344.67,70.03 341.91,70.62 339.15,107.87 336.38,107.10 333.62,70.90 330.85,70.02 328.09,70.01 325.33,70.07 322.56,74.13 319.80,70.09 317.04,70.01 314.27,70.01 311.51,70.01 308.74,70.01 305.98,70.01 303.22,70.01 300.45,70.09 297.69,75.17 294.92,71.03 292.16,75.83 289.40,71.03 286.63,74.93 283.87,70.10 281.11,70.01 278.34,70.01 275.58,70.01 272.81,70.01 270.05,70.01 267.29,70.01 264.52,70.01 261.76,70.01 258.99,70.01 256.23,70.01 253.47,70.06 250.70,73.80 247.94,70.07 245.18,70.01 242.41,70.09 239.65,73.84 236.88,70.08 234.12,70.08 231.36,74.34 228.59,70.08 225.83,70.01 223.07,70.01 220.30,70.01 217.54,70.01 214.77,70.01 212.01,70.01 209.25,70.01 206.48,70.01 203.72,70.55 200.95,105.65 198.19,105.43 195.43,70.69 192.66,70.03 189.90,70.01 187.14,70.01 184.37,70.02 181.61,70.71 178.84,114.64 176.08,114.60 173.32,70.69 170.55,70.02 167.79,70.01 165.03,70.06 162.26,72.27 159.50,220.72 156.73,233.33 153.97,219.45 151.21,72.87 148.44,70.08 145.68,70.01 142.91,70.01 140.15,70.01 137.39,70.01 134.62,70.01 131.86,70.02 129.10,70.63 126.33,109.09 123.57,109.25 120.80,72.65 118.04,72.49 115.28,117.79 112.51,117.64 109.75,76.98 106.98,80.04 104.22,70.20 101.46,70.10 98.69,74.29 95.93,70.08 93.17,70.01 90.40,70.01 87.64,70.02 84.87,70.60 82.11,103.58 79.35,103.58 76.58,71.20 73.82,70.27 71.06,73.26 68.29,70.19 65.53,70.27 62.76,73.50 60.00,99.69" fill="#F58518" opacity="0.45" stroke="none"/>
<polyline fill="none" stroke="#F58518" stroke-width="1.5" points="60.00,70.00 62.76,70.00 65.53,70.00 68.29,70.00 71.06,70.00 73.82,70.00 76.58,70.00 79.35,70.00 82.11,70.00 84.87,70.00 87.64,70.00 90.40,70.00 93.17,70.00 95.93,70.00 98.69,70.00 101.46,70.00 104.22,70.00 106.98,70.00 109.75,70.00 112.51,70.00 115.28,70.00 118.04,70.00 120.80,70.00 123.57,70.00 126.33,70.00 129.10,70.00 131.86,70.00 134.62,70.00 137.39,70.00 140.15,70.00 142.91,70.00 145.68,70.00 148.44,70.00 151.21,70.00 153.97,70.00 156.73,70.00 159.50,70.00 162.26,70.00 165.03,70.00 167.79,70.00 170.55,70.00 173.32,70.00 176.08,70.00 178.84,70.00 181.61,70.00 184.37,70.00 187.14,70.00 189.90,70.00 192.66,70.00 195.43,70.00 198.19,70.00 200.95,70.00 203.72,70.00 206.48,70.00 209.25,70.00 212.01,70.00 214.77,70.00 217.54,70.00 220.30,70.00 223.07,70.00 225.83,70.00 228.59,70.00 231.36,70.00 234.12,70.00 236.88,70.00 239.65,70.00 242.41,70.00 245.18,70.00 247.94,70.00 250.70,70.00 253.47,70.00 256.23,70.00 258.99,70.00 261.76,70.00 264.52,70.00 267.29,70.00 270.05,70.00 272.81,70.00 275.58,70.00 278.34,70.00 281.11,70.00 283.87,70.00 286.63,70.00 289.40,70.00 292.16,70.00 294.92,70.00 297.69,70.00 300.45,70.00 303.22,70.00 305.98,70.00 308.74,70.00 311.51,70.00 314.27,70.00 317.04,70.00 319.80,70.00 322.56,70.00 325.33,70.00 328.09,70.00 330.85,70.00 333.62,70.00 336.38,70.00 339.15,70.00 341.91,70.00 344.67,70.00 347.44,70.00 350.20,70.00 352.96,70.00 355.73,70.00 358.49,70.00 361.26,70.00 364.02,70.00 366.78,70.00 369.55,70.00 372.31,70.00 375.08,70.00 377.84,70.00 380.60,70.00 383.37,70.00 386.13,70.00 388.89,70.00 391.66,70.00 394.42,70.00 397.19,70.00 399.95,70.00 402.71,70.00 405.48,70.00 408.24,70.00 411.01,70.00 413.77,70.00 416.53,70.00 419.30,70.00 422.06,70.00 424.82,70.00 427.59,70.00 430.35,70.00 433.12,70.00 435.88,70.00 438.64,70.00 441.41,70.00 444.17,70.00 446.93,70.00 449.70,70.00 452.46,70.00 455.23,70.00 457.99,70.00 460.75,70.00 463.52,70.00 466.28,70.00 469.05,70.00 471.81,70.00 474.57,70.00 477.34,70.00 480.10,70.00 482.86,70.00 485.63,70.00 488.39,70.00 491.16,70.00 493.92,70.00 496.68,70.00 499.45,70.00 502.21,70.00 504.97,70.00 507.74,70.00 510.50,70.00 513.27,70.00 516.03,70.00 518.79,70.00 521.56,70.00 524.32,70.00 527.09,70.00 529.85,70.00 532.61,70.00 535.38,70.00 538.14,70.00 540.90,70.00 543.67,70.00 546.43,70.00 549.20,70.00 551.96,70.00 554.72,70.00 557.49,70.00 560.25,70.00 563.02,70.00 565.78,70.00 568.54,70.00 571.31,70.00 574.07,70.00 576.83,70.00 579.60,70.00 582.36,70.00 585.13,70.00 587.89,70.00 590.65,70.00 593.42,70.00 596.18,70.00 598.94,70.00 601.71,70.00 604.47,70.00 607.24,70.00 610.00,70.00"/>
<rect x="470" y="80" width="12" height="12" fill="#4C78A8" opacity="0.8"/>
<text x="488" y="90" font-size="11" font-family="sans-serif">State 1</text>
<rect x="470" y="98" width="12" height="12" fill="#F58518" opacity="0.8"/>
<text x="488" y="108" font-size="11" font-family="sans-serif">State 2</text>
<text x="320.0" y="408" text-anchor="middle" font-size="12" font-family="sans-serif">Trial index</text>
</svg>