<svg xmlns="http://www.w3.org/2000/svg" width="640" height="360">
<rect x="0" y="0" width="100%" height="100%" fill="#ffffff"/>
<text x="320.0" y="24" text-anchor="middle" font-size="16" font-family="sans-serif">Trial-history regression (choice)</text>
<text x="35.0" y="180.0" transform="rotate(-90 35.0,180.0)" text-anchor="middle" font-size="12" font-family="sans-serif">Coefficient</text>
<line x1="70" y1="310" x2="620" y2="310" stroke="#000"/>
<line x1="70" y1="40" x2="70" y2="310" stroke="#000"/>
<line x1="70" y1="310.00" x2="620" y2="310.00" stroke="#e0e0e0" stroke-dasharray="4 4"/>
<text x="60" y="314.00" text-anchor="end" font-size="11" font-family="sans-serif">-0.420</text>
<line x1="70" y1="242.50" x2="620" y2="242.50" stroke="#e0e0e0" stroke-dasharray="4 4"/>
<text x="60" y="246.50" text-anchor="end" font-size="11" font-family="sans-serif">0.249</text>
<line x1="70" y1="175.00" x2="620" y2="175.00" stroke="#e0e0e0" stroke-dasharray="4 4"/>
<text x="60" y="179.00" text-anchor="end" font-size="11" font-family="sans-serif">0.919</text>
<line x1="70" y1="107.50" x2="620" y2="107.50" stroke="#e0e0e0" stroke-dasharray="4 4"/>
<text x="60" y="111.50" text-anchor="end" font-size="11" font-family="sans-serif">1.59</text>
<line x1="70" y1="40.00" x2="620" y2="40.00" stroke="#e0e0e0" stroke-dasharray="4 4"/>
<text x="60" y="44.00" text-anchor="end" font-size="11" font-family="sans-serif">2.26</text>
<polyline fill="none" stroke="#4C78A8" stroke-width="2" points="70.00,237.22 207.50,268.69 345.00,258.81 482.50,252.77 620.00,249.31"/>
<circle cx="70.00" cy="237.22" r="3" fill="#4C78A8"/>
<circle cx="207.50" cy="268.69" r="3" fill="#4C78A8"/>
<circle cx="345.00" cy="258.81" r="3" fill="#4C78A8"/>
<circle cx="482.50" cy="252.77" r="3" fill="#4C78A8"/>
<circle cx="620.00" cy="249.31" r="3" fill="#4C78A8"/>
<polyline fill="none" stroke="#F58518" stroke-width="2" points="70.00,139.77 207.50,139.77 345.00,170.88 482.50,178.14 620.00,181.50"/>
<circle cx="70.00" cy="139.77" r="3" fill="#F58518"/>
<circle cx="207.50" cy="139.77" r="3" fill="#F58518"/>
<circle cx="345.00" cy="170.88" r="3" fill="#F58518"/>
<circle cx="482.50" cy="178.14" r="3" fill="#F58518"/>
<circle cx="620.00" cy="181.50" r="3" fill="#F58518"/>
<polyline fill="none" stroke="#54A24B" stroke-width="2" points="70.00,157.54 207.50,145.47 345.00,310.00 482.50,227.71 620.00,184.01"/>
<circle cx="70.00" cy="157.54" r="3" fill="#54A24B"/>
<circle cx="207.50" cy="145.47" r="3" fill="#54A24B"/>
<circle cx="345.00" cy="310.00" r="3" fill="#54A24B"/>
<circle cx="482.50" cy="227.71" r="3" fill="#54A24B"/>
<circle cx="620.00" cy="184.01" r="3" fill="#54A24B"/>
<polyline fill="none" stroke="#E45756" stroke-width="2" points="70.00,157.38 207.50,157.38 345.00,157.38 482.50,160.93 620.00,159.60"/>
<circle cx="70.00" cy="157.38" r="3" fill="#E45756"/>
<circle cx="207.50" cy="157.38" r="3" fill="#E45756"/>
<circle cx="345.00" cy="157.38" r="3" fill="#E45756"/>
<circle cx="482.50" cy="160.93" r="3" fill="#E45756"/>
<circle cx="620.00" cy="159.60" r="3" fill="#E45756"/>
<polyline fill="none" stroke="#4C78A8" stroke-width="2" points="70.00,40.00 207.50,132.90 345.00,160.02 482.50,169.26 620.00,178.82"/>
<circle cx="70.00" cy="40.00" r="3" fill="#4C78A8"/>
<circle cx="207.50" cy="132.90" r="3" fill="#4C78A8"/>
<circle cx="345.00" cy="160.02" r="3" fill="#4C78A8"/>
<circle cx="482.50" cy="169.26" r="3" fill="#4C78A8"/>
<circle cx="620.00" cy="178.82" r="3" fill="#4C78A8"/>
<polyline fill="none" stroke="#F58518" stroke-width="2" points="70.00,158.56 207.50,158.56 345.00,158.56 482.50,158.56 620.00,158.56"/>
<circle cx="70.00" cy="158.56" r="3" fill="#F58518"/>
<circle cx="207.50" cy="158.56" r="3" fill="#F58518"/>
<circle cx="345.00" cy="158.56" r="3" fill="#F58518"/>
<circle cx="482.50" cy="158.56" r="3" fill="#F58518"/>
<circle cx="620.00" cy="158.56" r="3" fill="#F58518"/>
<polyline fill="none" stroke="#54A24B" stroke-width="2" points="70.00,216.89 207.50,227.86 345.00,229.29 482.50,230.58 620.00,246.78"/>
<circle cx="70.00" cy="216.89" r="3" fill="#54A24B"/>
<circle cx="207.50" cy="227.86" r="3" fill="#54A24B"/>
<circle cx="345.00" cy="229.29" r="3" fill="#54A24B"/>
<circle cx="482.50" cy="230.58" r="3" fill="#54A24B"/>
<circle cx="620.00" cy="246.78" r="3" fill="#54A24B"/>
<rect x="80" y="50" width="12" height="12" fill="#4C78A8"/>
<text x="98" y="60" font-size="11" font-family="sans-serif">Observed</text>
<rect x="80" y="68" width="12" height="12" fill="#F58518"/>
<text x="98" y="78" font-size="11" font-family="sans-serif">Hmm Moa – Model blend</text>
<rect x="80" y="86" width="12" height="12" fill="#54A24B"/>
<text x="98" y="96" font-size="11" font-family="sans-serif">Hmm Moa – Model-free value</text>
<rect x="80" y="104" width="12" height="12" fill="#E45756"/>
<text x="98" y="114" font-size="11" font-family="sans-serif">Hmm Moa – Model-free choice</text>
<rect x="80" y="122" width="12" height="12" fill="#4C78A8"/>
<text x="98" y="132" font-size="11" font-family="sans-serif">Hmm Moa – Model-based</text>
<rect x="80" y="140" width="12" height="12" fill="#F58518"/>
<text x="98" y="150" font-size="11" font-family="sans-serif">Hmm Moa – Bias</text>
<rect x="80" y="158" width="12" height="12" fill="#54A24B"/>
<text x="98" y="168" font-size="11" font-family="sans-serif">Hmm Tinyrnn – Model blend</text>
<text x="70.00" y="328" text-anchor="middle" font-size="11" font-family="sans-serif">lag 1</text>
<text x="207.50" y="328" text-anchor="middle" font-size="11" font-family="sans-serif">lag 2</text>
<text x="345.00" y="328" text-anchor="middle" font-size="11" font-family="sans-serif">lag 3</text>
<text x="482.50" y="328" text-anchor="middle" font-size="11" font-family="sans-serif">lag 4</text>
<text x="620.00" y="328" text-anchor="middle" font-size="11" font-family="sans-serif">lag 5</text>
</svg>