<svg xmlns="http://www.w3.org/2000/svg" width="640" height="360">
<rect x="0" y="0" width="100%" height="100%" fill="#ffffff"/>
<text x="320.0" y="24" text-anchor="middle" font-size="16" font-family="sans-serif">Trial-history regression (choice × reward)</text>
<text x="35.0" y="180.0" transform="rotate(-90 35.0,180.0)" text-anchor="middle" font-size="12" font-family="sans-serif">Coefficient</text>
<line x1="70" y1="310" x2="620" y2="310" stroke="#000"/>
<line x1="70" y1="40" x2="70" y2="310" stroke="#000"/>
<line x1="70" y1="310.00" x2="620" y2="310.00" stroke="#e0e0e0" stroke-dasharray="4 4"/>
<text x="60" y="314.00" text-anchor="end" font-size="11" font-family="sans-serif">-0.514</text>
<line x1="70" y1="242.50" x2="620" y2="242.50" stroke="#e0e0e0" stroke-dasharray="4 4"/>
<text x="60" y="246.50" text-anchor="end" font-size="11" font-family="sans-serif">-0.106</text>
<line x1="70" y1="175.00" x2="620" y2="175.00" stroke="#e0e0e0" stroke-dasharray="4 4"/>
<text x="60" y="179.00" text-anchor="end" font-size="11" font-family="sans-serif">0.301</text>
<line x1="70" y1="107.50" x2="620" y2="107.50" stroke="#e0e0e0" stroke-dasharray="4 4"/>
<text x="60" y="111.50" text-anchor="end" font-size="11" font-family="sans-serif">0.709</text>
<line x1="70" y1="40.00" x2="620" y2="40.00" stroke="#e0e0e0" stroke-dasharray="4 4"/>
<text x="60" y="44.00" text-anchor="end" font-size="11" font-family="sans-serif">1.12</text>
<polyline fill="none" stroke="#4C78A8" stroke-width="2" points="70.00,215.31 207.50,180.03 345.00,233.80 482.50,151.76 620.00,175.93"/>
<circle cx="70.00" cy="215.31" r="3" fill="#4C78A8"/>
<circle cx="207.50" cy="180.03" r="3" fill="#4C78A8"/>
<circle cx="345.00" cy="233.80" r="3" fill="#4C78A8"/>
<circle cx="482.50" cy="151.76" r="3" fill="#4C78A8"/>
<circle cx="620.00" cy="175.93" r="3" fill="#4C78A8"/>
<polyline fill="none" stroke="#F58518" stroke-width="2" points="70.00,187.49 207.50,180.88 345.00,219.51 482.50,180.72 620.00,176.74"/>
<circle cx="70.00" cy="187.49" r="3" fill="#F58518"/>
<circle cx="207.50" cy="180.88" r="3" fill="#F58518"/>
<circle cx="345.00" cy="219.51" r="3" fill="#F58518"/>
<circle cx="482.50" cy="180.72" r="3" fill="#F58518"/>
<circle cx="620.00" cy="176.74" r="3" fill="#F58518"/>
<polyline fill="none" stroke="#54A24B" stroke-width="2" points="70.00,133.49 207.50,113.63 345.00,251.09 482.50,250.10 620.00,310.00"/>
<circle cx="70.00" cy="133.49" r="3" fill="#54A24B"/>
<circle cx="207.50" cy="113.63" r="3" fill="#54A24B"/>
<circle cx="345.00" cy="251.09" r="3" fill="#54A24B"/>
<circle cx="482.50" cy="250.10" r="3" fill="#54A24B"/>
<circle cx="620.00" cy="310.00" r="3" fill="#54A24B"/>
<polyline fill="none" stroke="#E45756" stroke-width="2" points="70.00,202.33 207.50,198.17 345.00,197.61 482.50,197.20 620.00,204.07"/>
<circle cx="70.00" cy="202.33" r="3" fill="#E45756"/>
<circle cx="207.50" cy="198.17" r="3" fill="#E45756"/>
<circle cx="345.00" cy="197.61" r="3" fill="#E45756"/>
<circle cx="482.50" cy="197.20" r="3" fill="#E45756"/>
<circle cx="620.00" cy="204.07" r="3" fill="#E45756"/>
<polyline fill="none" stroke="#4C78A8" stroke-width="2" points="70.00,40.00 207.50,185.40 345.00,261.56 482.50,293.48 620.00,283.31"/>
<circle cx="70.00" cy="40.00" r="3" fill="#4C78A8"/>
<circle cx="207.50" cy="185.40" r="3" fill="#4C78A8"/>
<circle cx="345.00" cy="261.56" r="3" fill="#4C78A8"/>
<circle cx="482.50" cy="293.48" r="3" fill="#4C78A8"/>
<circle cx="620.00" cy="283.31" r="3" fill="#4C78A8"/>
<polyline fill="none" stroke="#F58518" stroke-width="2" points="70.00,204.14 207.50,200.33 345.00,199.64 482.50,201.04 620.00,204.90"/>
<circle cx="70.00" cy="204.14" r="3" fill="#F58518"/>
<circle cx="207.50" cy="200.33" r="3" fill="#F58518"/>
<circle cx="345.00" cy="199.64" r="3" fill="#F58518"/>
<circle cx="482.50" cy="201.04" r="3" fill="#F58518"/>
<circle cx="620.00" cy="204.90" r="3" fill="#F58518"/>
<polyline fill="none" stroke="#54A24B" stroke-width="2" points="70.00,253.80 207.50,277.30 345.00,254.62 482.50,208.71 620.00,274.05"/>
<circle cx="70.00" cy="253.80" r="3" fill="#54A24B"/>
<circle cx="207.50" cy="277.30" r="3" fill="#54A24B"/>
<circle cx="345.00" cy="254.62" r="3" fill="#54A24B"/>
<circle cx="482.50" cy="208.71" r="3" fill="#54A24B"/>
<circle cx="620.00" cy="274.05" r="3" fill="#54A24B"/>
<rect x="80" y="50" width="12" height="12" fill="#4C78A8"/>
<text x="98" y="60" font-size="11" font-family="sans-serif">Observed</text>
<rect x="80" y="68" width="12" height="12" fill="#F58518"/>
<text x="98" y="78" font-size="11" font-family="sans-serif">Hmm Moa – Model blend</text>
<rect x="80" y="86" width="12" height="12" fill="#54A24B"/>
<text x="98" y="96" font-size="11" font-family="sans-serif">Hmm Moa – Model-free value</text>
<rect x="80" y="104" width="12" height="12" fill="#E45756"/>
<text x="98" y="114" font-size="11" font-family="sans-serif">Hmm Moa – Model-free choice</text>
<rect x="80" y="122" width="12" height="12" fill="#4C78A8"/>
<text x="98" y="132" font-size="11" font-family="sans-serif">Hmm Moa – Model-based</text>
<rect x="80" y="140" width="12" height="12" fill="#F58518"/>
<text x="98" y="150" font-size="11" font-family="sans-serif">Hmm Moa – Bias</text>
<rect x="80" y="158" width="12" height="12" fill="#54A24B"/>
<text x="98" y="168" font-size="11" font-family="sans-serif">Hmm Tinyrnn – Model blend</text>
<text x="70.00" y="328" text-anchor="middle" font-size="11" font-family="sans-serif">lag 1</text>
<text x="207.50" y="328" text-anchor="middle" font-size="11" font-family="sans-serif">lag 2</text>
<text x="345.00" y="328" text-anchor="middle" font-size="11" font-family="sans-serif">lag 3</text>
<text x="482.50" y="328" text-anchor="middle" font-size="11" font-family="sans-serif">lag 4</text>
<text x="620.00" y="328" text-anchor="middle" font-size="11" font-family="sans-serif">lag 5</text>
</svg>