<svg xmlns="http://www.w3.org/2000/svg" width="720" height="360">
<rect x="0" y="0" width="100%" height="100%" fill="#ffffff"/>
<text x="360.0" y="24" text-anchor="middle" font-size="16" font-family="sans-serif">Trial-history regression (reward)</text>
<text x="35.0" y="180.0" transform="rotate(-90 35.0,180.0)" text-anchor="middle" font-size="12" font-family="sans-serif">Coefficient</text>
<line x1="70" y1="290" x2="640" y2="290" stroke="#000"/>
<line x1="70" y1="50" x2="70" y2="290" stroke="#000"/>
<line x1="70" y1="290.00" x2="640" y2="290.00" stroke="#e0e0e0" stroke-dasharray="4 4"/>
<text x="60" y="294.00" text-anchor="end" font-size="11" font-family="sans-serif">-7.41</text>
<line x1="70" y1="230.00" x2="640" y2="230.00" stroke="#e0e0e0" stroke-dasharray="4 4"/>
<text x="60" y="234.00" text-anchor="end" font-size="11" font-family="sans-serif">-3.60</text>
<line x1="70" y1="170.00" x2="640" y2="170.00" stroke="#e0e0e0" stroke-dasharray="4 4"/>
<text x="60" y="174.00" text-anchor="end" font-size="11" font-family="sans-serif">0.208</text>
<line x1="70" y1="110.00" x2="640" y2="110.00" stroke="#e0e0e0" stroke-dasharray="4 4"/>
<text x="60" y="114.00" text-anchor="end" font-size="11" font-family="sans-serif">4.02</text>
<line x1="70" y1="50.00" x2="640" y2="50.00" stroke="#e0e0e0" stroke-dasharray="4 4"/>
<text x="60" y="54.00" text-anchor="end" font-size="11" font-family="sans-serif">7.83</text>
<polyline fill="none" stroke="#4C78A8" stroke-width="2" points="70.00,171.28 212.50,171.82 355.00,172.60 497.50,172.17 640.00,172.39"/>
<circle cx="70.00" cy="171.28" r="3" fill="#4C78A8"/>
<circle cx="212.50" cy="171.82" r="3" fill="#4C78A8"/>
<circle cx="355.00" cy="172.60" r="3" fill="#4C78A8"/>
<circle cx="497.50" cy="172.17" r="3" fill="#4C78A8"/>
<circle cx="640.00" cy="172.39" r="3" fill="#4C78A8"/>
<polyline fill="none" stroke="#F58518" stroke-width="2" points="70.00,173.28 212.50,173.28 355.00,173.28 497.50,173.28 640.00,173.28"/>
<circle cx="70.00" cy="173.28" r="3" fill="#F58518"/>
<circle cx="212.50" cy="173.28" r="3" fill="#F58518"/>
<circle cx="355.00" cy="173.28" r="3" fill="#F58518"/>
<circle cx="497.50" cy="173.28" r="3" fill="#F58518"/>
<circle cx="640.00" cy="173.28" r="3" fill="#F58518"/>
<polyline fill="none" stroke="#54A24B" stroke-width="2" points="70.00,173.45 212.50,173.61 355.00,175.08 497.50,176.34 640.00,176.22"/>
<circle cx="70.00" cy="173.45" r="3" fill="#54A24B"/>
<circle cx="212.50" cy="173.61" r="3" fill="#54A24B"/>
<circle cx="355.00" cy="175.08" r="3" fill="#54A24B"/>
<circle cx="497.50" cy="176.34" r="3" fill="#54A24B"/>
<circle cx="640.00" cy="176.22" r="3" fill="#54A24B"/>
<polyline fill="none" stroke="#E45756" stroke-width="2" points="70.00,164.00 212.50,162.72 355.00,171.36 497.50,176.72 640.00,172.38"/>
<circle cx="70.00" cy="164.00" r="3" fill="#E45756"/>
<circle cx="212.50" cy="162.72" r="3" fill="#E45756"/>
<circle cx="355.00" cy="171.36" r="3" fill="#E45756"/>
<circle cx="497.50" cy="176.72" r="3" fill="#E45756"/>
<circle cx="640.00" cy="172.38" r="3" fill="#E45756"/>
<polyline fill="none" stroke="#72B7B2" stroke-width="2" points="70.00,173.28 212.50,173.28 355.00,173.28 497.50,173.28 640.00,173.28"/>
<circle cx="70.00" cy="173.28" r="3" fill="#72B7B2"/>
<circle cx="212.50" cy="173.28" r="3" fill="#72B7B2"/>
<circle cx="355.00" cy="173.28" r="3" fill="#72B7B2"/>
<circle cx="497.50" cy="173.28" r="3" fill="#72B7B2"/>
<circle cx="640.00" cy="173.28" r="3" fill="#72B7B2"/>
<polyline fill="none" stroke="#FF9DA6" stroke-width="2" points="70.00,50.00 212.50,277.51 355.00,290.00 497.50,277.72 640.00,279.97"/>
<circle cx="70.00" cy="50.00" r="3" fill="#FF9DA6"/>
<circle cx="212.50" cy="277.51" r="3" fill="#FF9DA6"/>
<circle cx="355.00" cy="290.00" r="3" fill="#FF9DA6"/>
<circle cx="497.50" cy="277.72" r="3" fill="#FF9DA6"/>
<circle cx="640.00" cy="279.97" r="3" fill="#FF9DA6"/>
<polyline fill="none" stroke="#9C755F" stroke-width="2" points="70.00,173.28 212.50,173.28 355.00,173.28 497.50,173.28 640.00,173.28"/>
<circle cx="70.00" cy="173.28" r="3" fill="#9C755F"/>
<circle cx="212.50" cy="173.28" r="3" fill="#9C755F"/>
<circle cx="355.00" cy="173.28" r="3" fill="#9C755F"/>
<circle cx="497.50" cy="173.28" r="3" fill="#9C755F"/>
<circle cx="640.00" cy="173.28" r="3" fill="#9C755F"/>
<rect x="80" y="60" width="12" height="12" fill="#4C78A8"/>
<text x="98" y="70" font-size="11" font-family="sans-serif">Observed</text>
<rect x="80" y="78" width="12" height="12" fill="#F58518"/>
<text x="98" y="88" font-size="11" font-family="sans-serif">SeriesHMM-TinyMoA</text>
<rect x="80" y="96" width="12" height="12" fill="#54A24B"/>
<text x="98" y="106" font-size="11" font-family="sans-serif">SeriesHMM-TinyRNN</text>
<rect x="80" y="114" width="12" height="12" fill="#E45756"/>
<text x="98" y="124" font-size="11" font-family="sans-serif">Agent: MF Reward</text>
<rect x="80" y="132" width="12" height="12" fill="#72B7B2"/>
<text x="98" y="142" font-size="11" font-family="sans-serif">Agent: MF Choice</text>
<rect x="80" y="150" width="12" height="12" fill="#FF9DA6"/>
<text x="98" y="160" font-size="11" font-family="sans-serif">Agent: Model-based</text>
<rect x="80" y="168" width="12" height="12" fill="#9C755F"/>
<text x="98" y="178" font-size="11" font-family="sans-serif">Agent: Bias</text>
<text x="70.00" y="308" text-anchor="middle" font-size="11" font-family="sans-serif">lag 1</text>
<text x="212.50" y="308" text-anchor="middle" font-size="11" font-family="sans-serif">lag 2</text>
<text x="355.00" y="308" text-anchor="middle" font-size="11" font-family="sans-serif">lag 3</text>
<text x="497.50" y="308" text-anchor="middle" font-size="11" font-family="sans-serif">lag 4</text>
<text x="640.00" y="308" text-anchor="middle" font-size="11" font-family="sans-serif">lag 5</text>
</svg>