<svg xmlns="http://www.w3.org/2000/svg" width="640" height="420">
<rect x="0" y="0" width="640" height="420" fill="#ffffff"/>
<text x="320.0" y="24" text-anchor="middle" font-size="16" font-family="sans-serif">SeriesHMM-TinyMoA state posterior</text>
<text x="30.0" y="195.0" transform="rotate(-90 30.0,195.0)" text-anchor="middle" font-size="12" font-family="sans-serif">Mixture weight</text>
<line x1="60" y1="320" x2="610" y2="320" stroke="#000"/>
<line x1="60" y1="70" x2="60" y2="320" stroke="#000"/>
<line x1="60" y1="320.00" x2="610" y2="320.00" stroke="#e0e0e0" stroke-dasharray="4 4"/>
<text x="50" y="324.00" text-anchor="end" font-size="11" font-family="sans-serif">0</text>
<line x1="60" y1="257.50" x2="610" y2="257.50" stroke="#e0e0e0" stroke-dasharray="4 4"/>
<text x="50" y="261.50" text-anchor="end" font-size="11" font-family="sans-serif">0.250</text>
<line x1="60" y1="195.00" x2="610" y2="195.00" stroke="#e0e0e0" stroke-dasharray="4 4"/>
<text x="50" y="199.00" text-anchor="end" font-size="11" font-family="sans-serif">0.500</text>
<line x1="60" y1="132.50" x2="610" y2="132.50" stroke="#e0e0e0" stroke-dasharray="4 4"/>
<text x="50" y="136.50" text-anchor="end" font-size="11" font-family="sans-serif">0.750</text>
<line x1="60" y1="70.00" x2="610" y2="70.00" stroke="#e0e0e0" stroke-dasharray="4 4"/>
<text x="50" y="74.00" text-anchor="end" font-size="11" font-family="sans-serif">1</text>
<text x="60.00" y="398" text-anchor="middle" font-size="11" font-family="sans-serif">1</text>
<text x="170.55" y="398" text-anchor="middle" font-size="11" font-family="sans-serif">41</text>
<text x="281.11" y="398" text-anchor="middle" font-size="11" font-family="sans-serif">81</text>
<text x="388.89" y="398" text-anchor="middle" font-size="11" font-family="sans-serif">120</text>
<text x="499.45" y="398" text-anchor="middle" font-size="11" font-family="sans-serif">160</text>
<text x="610.00" y="398" text-anchor="middle" font-size="11" font-family="sans-serif">200</text>
<text x="60" y="36.00" font-size="12" font-family="sans-serif">Annotated phase</text>
<rect x="60.00" y="42.00" width="2.75" height="18" fill="#4C78A8" opacity="0.35"/>
<rect x="62.75" y="42.00" width="2.75" height="18" fill="#4C78A8" opacity="0.35"/>
<rect x="65.50" y="42.00" width="2.75" height="18" fill="#4C78A8" opacity="0.35"/>
<rect x="68.25" y="42.00" width="2.75" height="18" fill="#4C78A8" opacity="0.35"/>
<rect x="71.00" y="42.00" width="2.75" height="18" fill="#4C78A8" opacity="0.35"/>
<rect x="73.75" y="42.00" width="2.75" height="18" fill="#4C78A8" opacity="0.35"/>
<rect x="76.50" y="42.00" width="2.75" height="18" fill="#4C78A8" opacity="0.35"/>
<rect x="79.25" y="42.00" width="2.75" height="18" fill="#4C78A8" opacity="0.35"/>
<rect x="82.00" y="42.00" width="2.75" height="18" fill="#4C78A8" opacity="0.35"/>
<rect x="84.75" y="42.00" width="2.75" height="18" fill="#4C78A8" opacity="0.35"/>
<rect x="87.50" y="42.00" width="2.75" height="18" fill="#4C78A8" opacity="0.35"/>
<rect x="90.25" y="42.00" width="2.75" height="18" fill="#4C78A8" opacity="0.35"/>
<rect x="93.00" y="42.00" width="2.75" height="18" fill="#4C78A8" opacity="0.35"/>
<rect x="95.75" y="42.00" width="2.75" height="18" fill="#4C78A8" opacity="0.35"/>
<rect x="98.50" y="42.00" width="2.75" height="18" fill="#4C78A8" opacity="0.35"/>
<rect x="101.25" y="42.00" width="2.75" height="18" fill="#4C78A8" opacity="0.35"/>
<rect x="104.00" y="42.00" width="2.75" height="18" fill="#4C78A8" opacity="0.35"/>
<rect x="106.75" y="42.00" width="2.75" height="18" fill="#4C78A8" opacity="0.35"/>
<rect x="109.50" y="42.00" width="2.75" height="18" fill="#4C78A8" opacity="0.35"/>
<rect x="112.25" y="42.00" width="2.75" height="18" fill="#4C78A8" opacity="0.35"/>
<rect x="115.00" y="42.00" width="2.75" height="18" fill="#4C78A8" opacity="0.35"/>
<rect x="117.75" y="42.00" width="2.75" height="18" fill="#4C78A8" opacity="0.35"/>
<rect x="120.50" y="42.00" width="2.75" height="18" fill="#4C78A8" opacity="0.35"/>
<rect x="123.25" y="42.00" width="2.75" height="18" fill="#4C78A8" opacity="0.35"/>
<rect x="126.00" y="42.00" width="2.75" height="18" fill="#4C78A8" opacity="0.35"/>
<rect x="128.75" y="42.00" width="2.75" height="18" fill="#4C78A8" opacity="0.35"/>
<rect x="131.50" y="42.00" width="2.75" height="18" fill="#4C78A8" opacity="0.35"/>
<rect x="134.25" y="42.00" width="2.75" height="18" fill="#4C78A8" opacity="0.35"/>
<rect x="137.00" y="42.00" width="2.75" height="18" fill="#4C78A8" opacity="0.35"/>
<rect x="139.75" y="42.00" width="2.75" height="18" fill="#4C78A8" opacity="0.35"/>
<rect x="142.50" y="42.00" width="2.75" height="18" fill="#4C78A8" opacity="0.35"/>
<rect x="145.25" y="42.00" width="2.75" height="18" fill="#4C78A8" opacity="0.35"/>
<rect x="148.00" y="42.00" width="2.75" height="18" fill="#4C78A8" opacity="0.35"/>
<rect x="150.75" y="42.00" width="2.75" height="18" fill="#4C78A8" opacity="0.35"/>
<rect x="153.50" y="42.00" width="2.75" height="18" fill="#4C78A8" opacity="0.35"/>
<rect x="156.25" y="42.00" width="2.75" height="18" fill="#4C78A8" opacity="0.35"/>
<rect x="159.00" y="42.00" width="2.75" height="18" fill="#4C78A8" opacity="0.35"/>
<rect x="161.75" y="42.00" width="2.75" height="18" fill="#4C78A8" opacity="0.35"/>
<rect x="164.50" y="42.00" width="2.75" height="18" fill="#4C78A8" opacity="0.35"/>
<rect x="167.25" y="42.00" width="2.75" height="18" fill="#4C78A8" opacity="0.35"/>
<rect x="170.00" y="42.00" width="2.75" height="18" fill="#4C78A8" opacity="0.35"/>
<rect x="172.75" y="42.00" width="2.75" height="18" fill="#4C78A8" opacity="0.35"/>
<rect x="175.50" y="42.00" width="2.75" height="18" fill="#4C78A8" opacity="0.35"/>
<rect x="178.25" y="42.00" width="2.75" height="18" fill="#4C78A8" opacity="0.35"/>
<rect x="181.00" y="42.00" width="2.75" height="18" fill="#4C78A8" opacity="0.35"/>
<rect x="183.75" y="42.00" width="2.75" height="18" fill="#4C78A8" opacity="0.35"/>
<rect x="186.50" y="42.00" width="2.75" height="18" fill="#4C78A8" opacity="0.35"/>
<rect x="189.25" y="42.00" width="2.75" height="18" fill="#4C78A8" opacity="0.35"/>
<rect x="192.00" y="42.00" width="2.75" height="18" fill="#4C78A8" opacity="0.35"/>
<rect x="194.75" y="42.00" width="2.75" height="18" fill="#4C78A8" opacity="0.35"/>
<rect x="197.50" y="42.00" width="2.75" height="18" fill="#4C78A8" opacity="0.35"/>
<rect x="200.25" y="42.00" width="2.75" height="18" fill="#4C78A8" opacity="0.35"/>
<rect x="203.00" y="42.00" width="2.75" height="18" fill="#4C78A8" opacity="0.35"/>
<rect x="205.75" y="42.00" width="2.75" height="18" fill="#4C78A8" opacity="0.35"/>
<rect x="208.50" y="42.00" width="2.75" height="18" fill="#4C78A8" opacity="0.35"/>
<rect x="211.25" y="42.00" width="2.75" height="18" fill="#4C78A8" opacity="0.35"/>
<rect x="214.00" y="42.00" width="2.75" height="18" fill="#4C78A8" opacity="0.35"/>
<rect x="216.75" y="42.00" width="2.75" height="18" fill="#4C78A8" opacity="0.35"/>
<rect x="219.50" y="42.00" width="2.75" height="18" fill="#4C78A8" opacity="0.35"/>
<rect x="222.25" y="42.00" width="2.75" height="18" fill="#4C78A8" opacity="0.35"/>
<rect x="225.00" y="42.00" width="2.75" height="18" fill="#4C78A8" opacity="0.35"/>
<rect x="227.75" y="42.00" width="2.75" height="18" fill="#4C78A8" opacity="0.35"/>
<rect x="230.50" y="42.00" width="2.75" height="18" fill="#4C78A8" opacity="0.35"/>
<rect x="233.25" y="42.00" width="2.75" height="18" fill="#4C78A8" opacity="0.35"/>
<rect x="236.00" y="42.00" width="2.75" height="18" fill="#4C78A8" opacity="0.35"/>
<rect x="238.75" y="42.00" width="2.75" height="18" fill="#4C78A8" opacity="0.35"/>
<rect x="241.50" y="42.00" width="2.75" height="18" fill="#4C78A8" opacity="0.35"/>
<rect x="244.25" y="42.00" width="2.75" height="18" fill="#4C78A8" opacity="0.35"/>
<rect x="247.00" y="42.00" width="2.75" height="18" fill="#4C78A8" opacity="0.35"/>
<rect x="249.75" y="42.00" width="2.75" height="18" fill="#4C78A8" opacity="0.35"/>
<rect x="252.50" y="42.00" width="2.75" height="18" fill="#4C78A8" opacity="0.35"/>
<rect x="255.25" y="42.00" width="2.75" height="18" fill="#4C78A8" opacity="0.35"/>
<rect x="258.00" y="42.00" width="2.75" height="18" fill="#4C78A8" opacity="0.35"/>
<rect x="260.75" y="42.00" width="2.75" height="18" fill="#4C78A8" opacity="0.35"/>
<rect x="263.50" y="42.00" width="2.75" height="18" fill="#4C78A8" opacity="0.35"/>
<rect x="266.25" y="42.00" width="2.75" height="18" fill="#4C78A8" opacity="0.35"/>
<rect x="269.00" y="42.00" width="2.75" height="18" fill="#4C78A8" opacity="0.35"/>
<rect x="271.75" y="42.00" width="2.75" height="18" fill="#4C78A8" opacity="0.35"/>
<rect x="274.50" y="42.00" width="2.75" height="18" fill="#4C78A8" opacity="0.35"/>
<rect x="277.25" y="42.00" width="2.75" height="18" fill="#4C78A8" opacity="0.35"/>
<rect x="280.00" y="42.00" width="2.75" height="18" fill="#4C78A8" opacity="0.35"/>
<rect x="282.75" y="42.00" width="2.75" height="18" fill="#4C78A8" opacity="0.35"/>
<rect x="285.50" y="42.00" width="2.75" height="18" fill="#4C78A8" opacity="0.35"/>
<rect x="288.25" y="42.00" width="2.75" height="18" fill="#4C78A8" opacity="0.35"/>
<rect x="291.00" y="42.00" width="2.75" height="18" fill="#4C78A8" opacity="0.35"/>
<rect x="293.75" y="42.00" width="2.75" height="18" fill="#4C78A8" opacity="0.35"/>
<rect x="296.50" y="42.00" width="2.75" height="18" fill="#4C78A8" opacity="0.35"/>
<rect x="299.25" y="42.00" width="2.75" height="18" fill="#4C78A8" opacity="0.35"/>
<rect x="302.00" y="42.00" width="2.75" height="18" fill="#4C78A8" opacity="0.35"/>
<rect x="304.75" y="42.00" width="2.75" height="18" fill="#4C78A8" opacity="0.35"/>
<rect x="307.50" y="42.00" width="2.75" height="18" fill="#4C78A8" opacity="0.35"/>
<rect x="310.25" y="42.00" width="2.75" height="18" fill="#4C78A8" opacity="0.35"/>
<rect x="313.00" y="42.00" width="2.75" height="18" fill="#4C78A8" opacity="0.35"/>
<rect x="315.75" y="42.00" width="2.75" height="18" fill="#4C78A8" opacity="0.35"/>
<rect x="318.50" y="42.00" width="2.75" height="18" fill="#4C78A8" opacity="0.35"/>
<rect x="321.25" y="42.00" width="2.75" height="18" fill="#4C78A8" opacity="0.35"/>
<rect x="324.00" y="42.00" width="2.75" height="18" fill="#4C78A8" opacity="0.35"/>
<rect x="326.75" y="42.00" width="2.75" height="18" fill="#4C78A8" opacity="0.35"/>
<rect x="329.50" y="42.00" width="2.75" height="18" fill="#4C78A8" opacity="0.35"/>
<rect x="332.25" y="42.00" width="2.75" height="18" fill="#4C78A8" opacity="0.35"/>
<rect x="335.00" y="42.00" width="2.75" height="18" fill="#4C78A8" opacity="0.35"/>
<rect x="337.75" y="42.00" width="2.75" height="18" fill="#4C78A8" opacity="0.35"/>
<rect x="340.50" y="42.00" width="2.75" height="18" fill="#4C78A8" opacity="0.35"/>
<rect x="343.25" y="42.00" width="2.75" height="18" fill="#4C78A8" opacity="0.35"/>
<rect x="346.00" y="42.00" width="2.75" height="18" fill="#4C78A8" opacity="0.35"/>
<rect x="348.75" y="42.00" width="2.75" height="18" fill="#4C78A8" opacity="0.35"/>
<rect x="351.50" y="42.00" width="2.75" height="18" fill="#4C78A8" opacity="0.35"/>
<rect x="354.25" y="42.00" width="2.75" height="18" fill="#4C78A8" opacity="0.35"/>
<rect x="357.00" y="42.00" width="2.75" height="18" fill="#4C78A8" opacity="0.35"/>
<rect x="359.75" y="42.00" width="2.75" height="18" fill="#4C78A8" opacity="0.35"/>
<rect x="362.50" y="42.00" width="2.75" height="18" fill="#4C78A8" opacity="0.35"/>
<rect x="365.25" y="42.00" width="2.75" height="18" fill="#4C78A8" opacity="0.35"/>
<rect x="368.00" y="42.00" width="2.75" height="18" fill="#4C78A8" opacity="0.35"/>
<rect x="370.75" y="42.00" width="2.75" height="18" fill="#4C78A8" opacity="0.35"/>
<rect x="373.50" y="42.00" width="2.75" height="18" fill="#4C78A8" opacity="0.35"/>
<rect x="376.25" y="42.00" width="2.75" height="18" fill="#4C78A8" opacity="0.35"/>
<rect x="379.00" y="42.00" width="2.75" height="18" fill="#4C78A8" opacity="0.35"/>
<rect x="381.75" y="42.00" width="2.75" height="18" fill="#4C78A8" opacity="0.35"/>
<rect x="384.50" y="42.00" width="2.75" height="18" fill="#4C78A8" opacity="0.35"/>
<rect x="387.25" y="42.00" width="2.75" height="18" fill="#4C78A8" opacity="0.35"/>
<rect x="390.00" y="42.00" width="2.75" height="18" fill="#4C78A8" opacity="0.35"/>
<rect x="392.75" y="42.00" width="2.75" height="18" fill="#4C78A8" opacity="0.35"/>
<rect x="395.50" y="42.00" width="2.75" height="18" fill="#4C78A8" opacity="0.35"/>
<rect x="398.25" y="42.00" width="2.75" height="18" fill="#4C78A8" opacity="0.35"/>
<rect x="401.00" y="42.00" width="2.75" height="18" fill="#4C78A8" opacity="0.35"/>
<rect x="403.75" y="42.00" width="2.75" height="18" fill="#4C78A8" opacity="0.35"/>
<rect x="406.50" y="42.00" width="2.75" height="18" fill="#4C78A8" opacity="0.35"/>
<rect x="409.25" y="42.00" width="2.75" height="18" fill="#F58518" opacity="0.35"/>
<rect x="412.00" y="42.00" width="2.75" height="18" fill="#F58518" opacity="0.35"/>
<rect x="414.75" y="42.00" width="2.75" height="18" fill="#F58518" opacity="0.35"/>
<rect x="417.50" y="42.00" width="2.75" height="18" fill="#F58518" opacity="0.35"/>
<rect x="420.25" y="42.00" width="2.75" height="18" fill="#F58518" opacity="0.35"/>
<rect x="423.00" y="42.00" width="2.75" height="18" fill="#F58518" opacity="0.35"/>
<rect x="425.75" y="42.00" width="2.75" height="18" fill="#F58518" opacity="0.35"/>
<rect x="428.50" y="42.00" width="2.75" height="18" fill="#F58518" opacity="0.35"/>
<rect x="431.25" y="42.00" width="2.75" height="18" fill="#F58518" opacity="0.35"/>
<rect x="434.00" y="42.00" width="2.75" height="18" fill="#F58518" opacity="0.35"/>
<rect x="436.75" y="42.00" width="2.75" height="18" fill="#F58518" opacity="0.35"/>
<rect x="439.50" y="42.00" width="2.75" height="18" fill="#F58518" opacity="0.35"/>
<rect x="442.25" y="42.00" width="2.75" height="18" fill="#F58518" opacity="0.35"/>
<rect x="445.00" y="42.00" width="2.75" height="18" fill="#F58518" opacity="0.35"/>
<rect x="447.75" y="42.00" width="2.75" height="18" fill="#F58518" opacity="0.35"/>
<rect x="450.50" y="42.00" width="2.75" height="18" fill="#F58518" opacity="0.35"/>
<rect x="453.25" y="42.00" width="2.75" height="18" fill="#F58518" opacity="0.35"/>
<rect x="456.00" y="42.00" width="2.75" height="18" fill="#F58518" opacity="0.35"/>
<rect x="458.75" y="42.00" width="2.75" height="18" fill="#F58518" opacity="0.35"/>
<rect x="461.50" y="42.00" width="2.75" height="18" fill="#F58518" opacity="0.35"/>
<rect x="464.25" y="42.00" width="2.75" height="18" fill="#F58518" opacity="0.35"/>
<rect x="467.00" y="42.00" width="2.75" height="18" fill="#F58518" opacity="0.35"/>
<rect x="469.75" y="42.00" width="2.75" height="18" fill="#F58518" opacity="0.35"/>
<rect x="472.50" y="42.00" width="2.75" height="18" fill="#F58518" opacity="0.35"/>
<rect x="475.25" y="42.00" width="2.75" height="18" fill="#F58518" opacity="0.35"/>
<rect x="478.00" y="42.00" width="2.75" height="18" fill="#F58518" opacity="0.35"/>
<rect x="480.75" y="42.00" width="2.75" height="18" fill="#F58518" opacity="0.35"/>
<rect x="483.50" y="42.00" width="2.75" height="18" fill="#F58518" opacity="0.35"/>
<rect x="486.25" y="42.00" width="2.75" height="18" fill="#F58518" opacity="0.35"/>
<rect x="489.00" y="42.00" width="2.75" height="18" fill="#F58518" opacity="0.35"/>
<rect x="491.75" y="42.00" width="2.75" height="18" fill="#F58518" opacity="0.35"/>
<rect x="494.50" y="42.00" width="2.75" height="18" fill="#F58518" opacity="0.35"/>
<rect x="497.25" y="42.00" width="2.75" height="18" fill="#F58518" opacity="0.35"/>
<rect x="500.00" y="42.00" width="2.75" height="18" fill="#F58518" opacity="0.35"/>
<rect x="502.75" y="42.00" width="2.75" height="18" fill="#F58518" opacity="0.35"/>
<rect x="505.50" y="42.00" width="2.75" height="18" fill="#F58518" opacity="0.35"/>
<rect x="508.25" y="42.00" width="2.75" height="18" fill="#F58518" opacity="0.35"/>
<rect x="511.00" y="42.00" width="2.75" height="18" fill="#F58518" opacity="0.35"/>
<rect x="513.75" y="42.00" width="2.75" height="18" fill="#F58518" opacity="0.35"/>
<rect x="516.50" y="42.00" width="2.75" height="18" fill="#F58518" opacity="0.35"/>
<rect x="519.25" y="42.00" width="2.75" height="18" fill="#F58518" opacity="0.35"/>
<rect x="522.00" y="42.00" width="2.75" height="18" fill="#F58518" opacity="0.35"/>
<rect x="524.75" y="42.00" width="2.75" height="18" fill="#F58518" opacity="0.35"/>
<rect x="527.50" y="42.00" width="2.75" height="18" fill="#F58518" opacity="0.35"/>
<rect x="530.25" y="42.00" width="2.75" height="18" fill="#F58518" opacity="0.35"/>
<rect x="533.00" y="42.00" width="2.75" height="18" fill="#F58518" opacity="0.35"/>
<rect x="535.75" y="42.00" width="2.75" height="18" fill="#F58518" opacity="0.35"/>
<rect x="538.50" y="42.00" width="2.75" height="18" fill="#F58518" opacity="0.35"/>
<rect x="541.25" y="42.00" width="2.75" height="18" fill="#F58518" opacity="0.35"/>
<rect x="544.00" y="42.00" width="2.75" height="18" fill="#F58518" opacity="0.35"/>
<rect x="546.75" y="42.00" width="2.75" height="18" fill="#F58518" opacity="0.35"/>
<rect x="549.50" y="42.00" width="2.75" height="18" fill="#F58518" opacity="0.35"/>
<rect x="552.25" y="42.00" width="2.75" height="18" fill="#F58518" opacity="0.35"/>
<rect x="555.00" y="42.00" width="2.75" height="18" fill="#F58518" opacity="0.35"/>
<rect x="557.75" y="42.00" width="2.75" height="18" fill="#F58518" opacity="0.35"/>
<rect x="560.50" y="42.00" width="2.75" height="18" fill="#F58518" opacity="0.35"/>
<rect x="563.25" y="42.00" width="2.75" height="18" fill="#F58518" opacity="0.35"/>
<rect x="566.00" y="42.00" width="2.75" height="18" fill="#F58518" opacity="0.35"/>
<rect x="568.75" y="42.00" width="2.75" height="18" fill="#F58518" opacity="0.35"/>
<rect x="571.50" y="42.00" width="2.75" height="18" fill="#F58518" opacity="0.35"/>
<rect x="574.25" y="42.00" width="2.75" height="18" fill="#F58518" opacity="0.35"/>
<rect x="577.00" y="42.00" width="2.75" height="18" fill="#F58518" opacity="0.35"/>
<rect x="579.75" y="42.00" width="2.75" height="18" fill="#F58518" opacity="0.35"/>
<rect x="582.50" y="42.00" width="2.75" height="18" fill="#F58518" opacity="0.35"/>
<rect x="585.25" y="42.00" width="2.75" height="18" fill="#F58518" opacity="0.35"/>
<rect x="588.00" y="42.00" width="2.75" height="18" fill="#F58518" opacity="0.35"/>
<rect x="590.75" y="42.00" width="2.75" height="18" fill="#F58518" opacity="0.35"/>
<rect x="593.50" y="42.00" width="2.75" height="18" fill="#F58518" opacity="0.35"/>
<rect x="596.25" y="42.00" width="2.75" height="18" fill="#F58518" opacity="0.35"/>
<rect x="599.00" y="42.00" width="2.75" height="18" fill="#F58518" opacity="0.35"/>
<rect x="601.75" y="42.00" width="2.75" height="18" fill="#F58518" opacity="0.35"/>
<rect x="604.50" y="42.00" width="2.75" height="18" fill="#F58518" opacity="0.35"/>
<rect x="607.25" y="42.00" width="2.75" height="18" fill="#F58518" opacity="0.35"/>
<text x="60" y="332.00" font-size="12" font-family="sans-serif">Dominant state</text>
<rect x="60.00" y="340.00" width="2.75" height="40" fill="#4C78A8" opacity="0.35"/>
<rect x="62.75" y="340.00" width="2.75" height="40" fill="#4C78A8" opacity="0.35"/>
<rect x="65.50" y="340.00" width="2.75" height="40" fill="#4C78A8" opacity="0.35"/>
<rect x="68.25" y="340.00" width="2.75" height="40" fill="#4C78A8" opacity="0.35"/>
<rect x="71.00" y="340.00" width="2.75" height="40" fill="#4C78A8" opacity="0.35"/>
<rect x="73.75" y="340.00" width="2.75" height="40" fill="#4C78A8" opacity="0.35"/>
<rect x="76.50" y="340.00" width="2.75" height="40" fill="#4C78A8" opacity="0.35"/>
<rect x="79.25" y="340.00" width="2.75" height="40" fill="#4C78A8" opacity="0.35"/>
<rect x="82.00" y="340.00" width="2.75" height="40" fill="#4C78A8" opacity="0.35"/>
<rect x="84.75" y="340.00" width="2.75" height="40" fill="#4C78A8" opacity="0.35"/>
<rect x="87.50" y="340.00" width="2.75" height="40" fill="#4C78A8" opacity="0.35"/>
<rect x="90.25" y="340.00" width="2.75" height="40" fill="#4C78A8" opacity="0.35"/>
<rect x="93.00" y="340.00" width="2.75" height="40" fill="#4C78A8" opacity="0.35"/>
<rect x="95.75" y="340.00" width="2.75" height="40" fill="#4C78A8" opacity="0.35"/>
<rect x="98.50" y="340.00" width="2.75" height="40" fill="#4C78A8" opacity="0.35"/>
<rect x="101.25" y="340.00" width="2.75" height="40" fill="#4C78A8" opacity="0.35"/>
<rect x="104.00" y="340.00" width="2.75" height="40" fill="#4C78A8" opacity="0.35"/>
<rect x="106.75" y="340.00" width="2.75" height="40" fill="#4C78A8" opacity="0.35"/>
<rect x="109.50" y="340.00" width="2.75" height="40" fill="#F58518" opacity="0.35"/>
<rect x="112.25" y="340.00" width="2.75" height="40" fill="#F58518" opacity="0.35"/>
<rect x="115.00" y="340.00" width="2.75" height="40" fill="#F58518" opacity="0.35"/>
<rect x="117.75" y="340.00" width="2.75" height="40" fill="#F58518" opacity="0.35"/>
<rect x="120.50" y="340.00" width="2.75" height="40" fill="#4C78A8" opacity="0.35"/>
<rect x="123.25" y="340.00" width="2.75" height="40" fill="#F58518" opacity="0.35"/>
<rect x="126.00" y="340.00" width="2.75" height="40" fill="#4C78A8" opacity="0.35"/>
<rect x="128.75" y="340.00" width="2.75" height="40" fill="#4C78A8" opacity="0.35"/>
<rect x="131.50" y="340.00" width="2.75" height="40" fill="#4C78A8" opacity="0.35"/>
<rect x="134.25" y="340.00" width="2.75" height="40" fill="#4C78A8" opacity="0.35"/>
<rect x="137.00" y="340.00" width="2.75" height="40" fill="#4C78A8" opacity="0.35"/>
<rect x="139.75" y="340.00" width="2.75" height="40" fill="#4C78A8" opacity="0.35"/>
<rect x="142.50" y="340.00" width="2.75" height="40" fill="#4C78A8" opacity="0.35"/>
<rect x="145.25" y="340.00" width="2.75" height="40" fill="#4C78A8" opacity="0.35"/>
<rect x="148.00" y="340.00" width="2.75" height="40" fill="#4C78A8" opacity="0.35"/>
<rect x="150.75" y="340.00" width="2.75" height="40" fill="#4C78A8" opacity="0.35"/>
<rect x="153.50" y="340.00" width="2.75" height="40" fill="#F58518" opacity="0.35"/>
<rect x="156.25" y="340.00" width="2.75" height="40" fill="#F58518" opacity="0.35"/>
<rect x="159.00" y="340.00" width="2.75" height="40" fill="#F58518" opacity="0.35"/>
<rect x="161.75" y="340.00" width="2.75" height="40" fill="#F58518" opacity="0.35"/>
<rect x="164.50" y="340.00" width="2.75" height="40" fill="#F58518" opacity="0.35"/>
<rect x="167.25" y="340.00" width="2.75" height="40" fill="#F58518" opacity="0.35"/>
<rect x="170.00" y="340.00" width="2.75" height="40" fill="#F58518" opacity="0.35"/>
<rect x="172.75" y="340.00" width="2.75" height="40" fill="#F58518" opacity="0.35"/>
<rect x="175.50" y="340.00" width="2.75" height="40" fill="#F58518" opacity="0.35"/>
<rect x="178.25" y="340.00" width="2.75" height="40" fill="#F58518" opacity="0.35"/>
<rect x="181.00" y="340.00" width="2.75" height="40" fill="#F58518" opacity="0.35"/>
<rect x="183.75" y="340.00" width="2.75" height="40" fill="#F58518" opacity="0.35"/>
<rect x="186.50" y="340.00" width="2.75" height="40" fill="#F58518" opacity="0.35"/>
<rect x="189.25" y="340.00" width="2.75" height="40" fill="#F58518" opacity="0.35"/>
<rect x="192.00" y="340.00" width="2.75" height="40" fill="#F58518" opacity="0.35"/>
<rect x="194.75" y="340.00" width="2.75" height="40" fill="#F58518" opacity="0.35"/>
<rect x="197.50" y="340.00" width="2.75" height="40" fill="#F58518" opacity="0.35"/>
<rect x="200.25" y="340.00" width="2.75" height="40" fill="#F58518" opacity="0.35"/>
<rect x="203.00" y="340.00" width="2.75" height="40" fill="#4C78A8" opacity="0.35"/>
<rect x="205.75" y="340.00" width="2.75" height="40" fill="#4C78A8" opacity="0.35"/>
<rect x="208.50" y="340.00" width="2.75" height="40" fill="#4C78A8" opacity="0.35"/>
<rect x="211.25" y="340.00" width="2.75" height="40" fill="#4C78A8" opacity="0.35"/>
<rect x="214.00" y="340.00" width="2.75" height="40" fill="#4C78A8" opacity="0.35"/>
<rect x="216.75" y="340.00" width="2.75" height="40" fill="#4C78A8" opacity="0.35"/>
<rect x="219.50" y="340.00" width="2.75" height="40" fill="#4C78A8" opacity="0.35"/>
<rect x="222.25" y="340.00" width="2.75" height="40" fill="#4C78A8" opacity="0.35"/>
<rect x="225.00" y="340.00" width="2.75" height="40" fill="#4C78A8" opacity="0.35"/>
<rect x="227.75" y="340.00" width="2.75" height="40" fill="#4C78A8" opacity="0.35"/>
<rect x="230.50" y="340.00" width="2.75" height="40" fill="#F58518" opacity="0.35"/>
<rect x="233.25" y="340.00" width="2.75" height="40" fill="#F58518" opacity="0.35"/>
<rect x="236.00" y="340.00" width="2.75" height="40" fill="#F58518" opacity="0.35"/>
<rect x="238.75" y="340.00" width="2.75" height="40" fill="#F58518" opacity="0.35"/>
<rect x="241.50" y="340.00" width="2.75" height="40" fill="#F58518" opacity="0.35"/>
<rect x="244.25" y="340.00" width="2.75" height="40" fill="#F58518" opacity="0.35"/>
<rect x="247.00" y="340.00" width="2.75" height="40" fill="#F58518" opacity="0.35"/>
<rect x="249.75" y="340.00" width="2.75" height="40" fill="#F58518" opacity="0.35"/>
<rect x="252.50" y="340.00" width="2.75" height="40" fill="#4C78A8" opacity="0.35"/>
<rect x="255.25" y="340.00" width="2.75" height="40" fill="#4C78A8" opacity="0.35"/>
<rect x="258.00" y="340.00" width="2.75" height="40" fill="#4C78A8" opacity="0.35"/>
<rect x="260.75" y="340.00" width="2.75" height="40" fill="#4C78A8" opacity="0.35"/>
<rect x="263.50" y="340.00" width="2.75" height="40" fill="#4C78A8" opacity="0.35"/>
<rect x="266.25" y="340.00" width="2.75" height="40" fill="#4C78A8" opacity="0.35"/>
<rect x="269.00" y="340.00" width="2.75" height="40" fill="#4C78A8" opacity="0.35"/>
<rect x="271.75" y="340.00" width="2.75" height="40" fill="#4C78A8" opacity="0.35"/>
<rect x="274.50" y="340.00" width="2.75" height="40" fill="#4C78A8" opacity="0.35"/>
<rect x="277.25" y="340.00" width="2.75" height="40" fill="#4C78A8" opacity="0.35"/>
<rect x="280.00" y="340.00" width="2.75" height="40" fill="#4C78A8" opacity="0.35"/>
<rect x="282.75" y="340.00" width="2.75" height="40" fill="#F58518" opacity="0.35"/>
<rect x="285.50" y="340.00" width="2.75" height="40" fill="#F58518" opacity="0.35"/>
<rect x="288.25" y="340.00" width="2.75" height="40" fill="#F58518" opacity="0.35"/>
<rect x="291.00" y="340.00" width="2.75" height="40" fill="#F58518" opacity="0.35"/>
<rect x="293.75" y="340.00" width="2.75" height="40" fill="#F58518" opacity="0.35"/>
<rect x="296.50" y="340.00" width="2.75" height="40" fill="#F58518" opacity="0.35"/>
<rect x="299.25" y="340.00" width="2.75" height="40" fill="#F58518" opacity="0.35"/>
<rect x="302.00" y="340.00" width="2.75" height="40" fill="#F58518" opacity="0.35"/>
<rect x="304.75" y="340.00" width="2.75" height="40" fill="#4C78A8" opacity="0.35"/>
<rect x="307.50" y="340.00" width="2.75" height="40" fill="#4C78A8" opacity="0.35"/>
<rect x="310.25" y="340.00" width="2.75" height="40" fill="#4C78A8" opacity="0.35"/>
<rect x="313.00" y="340.00" width="2.75" height="40" fill="#4C78A8" opacity="0.35"/>
<rect x="315.75" y="340.00" width="2.75" height="40" fill="#F58518" opacity="0.35"/>
<rect x="318.50" y="340.00" width="2.75" height="40" fill="#F58518" opacity="0.35"/>
<rect x="321.25" y="340.00" width="2.75" height="40" fill="#F58518" opacity="0.35"/>
<rect x="324.00" y="340.00" width="2.75" height="40" fill="#F58518" opacity="0.35"/>
<rect x="326.75" y="340.00" width="2.75" height="40" fill="#F58518" opacity="0.35"/>
<rect x="329.50" y="340.00" width="2.75" height="40" fill="#F58518" opacity="0.35"/>
<rect x="332.25" y="340.00" width="2.75" height="40" fill="#F58518" opacity="0.35"/>
<rect x="335.00" y="340.00" width="2.75" height="40" fill="#F58518" opacity="0.35"/>
<rect x="337.75" y="340.00" width="2.75" height="40" fill="#F58518" opacity="0.35"/>
<rect x="340.50" y="340.00" width="2.75" height="40" fill="#F58518" opacity="0.35"/>
<rect x="343.25" y="340.00" width="2.75" height="40" fill="#F58518" opacity="0.35"/>
<rect x="346.00" y="340.00" width="2.75" height="40" fill="#F58518" opacity="0.35"/>
<rect x="348.75" y="340.00" width="2.75" height="40" fill="#F58518" opacity="0.35"/>
<rect x="351.50" y="340.00" width="2.75" height="40" fill="#F58518" opacity="0.35"/>
<rect x="354.25" y="340.00" width="2.75" height="40" fill="#F58518" opacity="0.35"/>
<rect x="357.00" y="340.00" width="2.75" height="40" fill="#F58518" opacity="0.35"/>
<rect x="359.75" y="340.00" width="2.75" height="40" fill="#F58518" opacity="0.35"/>
<rect x="362.50" y="340.00" width="2.75" height="40" fill="#F58518" opacity="0.35"/>
<rect x="365.25" y="340.00" width="2.75" height="40" fill="#F58518" opacity="0.35"/>
<rect x="368.00" y="340.00" width="2.75" height="40" fill="#F58518" opacity="0.35"/>
<rect x="370.75" y="340.00" width="2.75" height="40" fill="#F58518" opacity="0.35"/>
<rect x="373.50" y="340.00" width="2.75" height="40" fill="#F58518" opacity="0.35"/>
<rect x="376.25" y="340.00" width="2.75" height="40" fill="#F58518" opacity="0.35"/>
<rect x="379.00" y="340.00" width="2.75" height="40" fill="#F58518" opacity="0.35"/>
<rect x="381.75" y="340.00" width="2.75" height="40" fill="#F58518" opacity="0.35"/>
<rect x="384.50" y="340.00" width="2.75" height="40" fill="#F58518" opacity="0.35"/>
<rect x="387.25" y="340.00" width="2.75" height="40" fill="#F58518" opacity="0.35"/>
<rect x="390.00" y="340.00" width="2.75" height="40" fill="#F58518" opacity="0.35"/>
<rect x="392.75" y="340.00" width="2.75" height="40" fill="#F58518" opacity="0.35"/>
<rect x="395.50" y="340.00" width="2.75" height="40" fill="#F58518" opacity="0.35"/>
<rect x="398.25" y="340.00" width="2.75" height="40" fill="#F58518" opacity="0.35"/>
<rect x="401.00" y="340.00" width="2.75" height="40" fill="#F58518" opacity="0.35"/>
<rect x="403.75" y="340.00" width="2.75" height="40" fill="#F58518" opacity="0.35"/>
<rect x="406.50" y="340.00" width="2.75" height="40" fill="#F58518" opacity="0.35"/>
<rect x="409.25" y="340.00" width="2.75" height="40" fill="#F58518" opacity="0.35"/>
<rect x="412.00" y="340.00" width="2.75" height="40" fill="#F58518" opacity="0.35"/>
<rect x="414.75" y="340.00" width="2.75" height="40" fill="#F58518" opacity="0.35"/>
<rect x="417.50" y="340.00" width="2.75" height="40" fill="#F58518" opacity="0.35"/>
<rect x="420.25" y="340.00" width="2.75" height="40" fill="#F58518" opacity="0.35"/>
<rect x="423.00" y="340.00" width="2.75" height="40" fill="#F58518" opacity="0.35"/>
<rect x="425.75" y="340.00" width="2.75" height="40" fill="#F58518" opacity="0.35"/>
<rect x="428.50" y="340.00" width="2.75" height="40" fill="#F58518" opacity="0.35"/>
<rect x="431.25" y="340.00" width="2.75" height="40" fill="#F58518" opacity="0.35"/>
<rect x="434.00" y="340.00" width="2.75" height="40" fill="#F58518" opacity="0.35"/>
<rect x="436.75" y="340.00" width="2.75" height="40" fill="#F58518" opacity="0.35"/>
<rect x="439.50" y="340.00" width="2.75" height="40" fill="#F58518" opacity="0.35"/>
<rect x="442.25" y="340.00" width="2.75" height="40" fill="#F58518" opacity="0.35"/>
<rect x="445.00" y="340.00" width="2.75" height="40" fill="#F58518" opacity="0.35"/>
<rect x="447.75" y="340.00" width="2.75" height="40" fill="#F58518" opacity="0.35"/>
<rect x="450.50" y="340.00" width="2.75" height="40" fill="#F58518" opacity="0.35"/>
<rect x="453.25" y="340.00" width="2.75" height="40" fill="#F58518" opacity="0.35"/>
<rect x="456.00" y="340.00" width="2.75" height="40" fill="#F58518" opacity="0.35"/>
<rect x="458.75" y="340.00" width="2.75" height="40" fill="#F58518" opacity="0.35"/>
<rect x="461.50" y="340.00" width="2.75" height="40" fill="#F58518" opacity="0.35"/>
<rect x="464.25" y="340.00" width="2.75" height="40" fill="#F58518" opacity="0.35"/>
<rect x="467.00" y="340.00" width="2.75" height="40" fill="#F58518" opacity="0.35"/>
<rect x="469.75" y="340.00" width="2.75" height="40" fill="#F58518" opacity="0.35"/>
<rect x="472.50" y="340.00" width="2.75" height="40" fill="#F58518" opacity="0.35"/>
<rect x="475.25" y="340.00" width="2.75" height="40" fill="#F58518" opacity="0.35"/>
<rect x="478.00" y="340.00" width="2.75" height="40" fill="#F58518" opacity="0.35"/>
<rect x="480.75" y="340.00" width="2.75" height="40" fill="#F58518" opacity="0.35"/>
<rect x="483.50" y="340.00" width="2.75" height="40" fill="#F58518" opacity="0.35"/>
<rect x="486.25" y="340.00" width="2.75" height="40" fill="#F58518" opacity="0.35"/>
<rect x="489.00" y="340.00" width="2.75" height="40" fill="#F58518" opacity="0.35"/>
<rect x="491.75" y="340.00" width="2.75" height="40" fill="#F58518" opacity="0.35"/>
<rect x="494.50" y="340.00" width="2.75" height="40" fill="#F58518" opacity="0.35"/>
<rect x="497.25" y="340.00" width="2.75" height="40" fill="#F58518" opacity="0.35"/>
<rect x="500.00" y="340.00" width="2.75" height="40" fill="#F58518" opacity="0.35"/>
<rect x="502.75" y="340.00" width="2.75" height="40" fill="#F58518" opacity="0.35"/>
<rect x="505.50" y="340.00" width="2.75" height="40" fill="#F58518" opacity="0.35"/>
<rect x="508.25" y="340.00" width="2.75" height="40" fill="#F58518" opacity="0.35"/>
<rect x="511.00" y="340.00" width="2.75" height="40" fill="#F58518" opacity="0.35"/>
<rect x="513.75" y="340.00" width="2.75" height="40" fill="#F58518" opacity="0.35"/>
<rect x="516.50" y="340.00" width="2.75" height="40" fill="#F58518" opacity="0.35"/>
<rect x="519.25" y="340.00" width="2.75" height="40" fill="#F58518" opacity="0.35"/>
<rect x="522.00" y="340.00" width="2.75" height="40" fill="#F58518" opacity="0.35"/>
<rect x="524.75" y="340.00" width="2.75" height="40" fill="#F58518" opacity="0.35"/>
<rect x="527.50" y="340.00" width="2.75" height="40" fill="#F58518" opacity="0.35"/>
<rect x="530.25" y="340.00" width="2.75" height="40" fill="#F58518" opacity="0.35"/>
<rect x="533.00" y="340.00" width="2.75" height="40" fill="#F58518" opacity="0.35"/>
<rect x="535.75" y="340.00" width="2.75" height="40" fill="#F58518" opacity="0.35"/>
<rect x="538.50" y="340.00" width="2.75" height="40" fill="#F58518" opacity="0.35"/>
<rect x="541.25" y="340.00" width="2.75" height="40" fill="#F58518" opacity="0.35"/>
<rect x="544.00" y="340.00" width="2.75" height="40" fill="#F58518" opacity="0.35"/>
<rect x="546.75" y="340.00" width="2.75" height="40" fill="#F58518" opacity="0.35"/>
<rect x="549.50" y="340.00" width="2.75" height="40" fill="#F58518" opacity="0.35"/>
<rect x="552.25" y="340.00" width="2.75" height="40" fill="#F58518" opacity="0.35"/>
<rect x="555.00" y="340.00" width="2.75" height="40" fill="#F58518" opacity="0.35"/>
<rect x="557.75" y="340.00" width="2.75" height="40" fill="#F58518" opacity="0.35"/>
<rect x="560.50" y="340.00" width="2.75" height="40" fill="#F58518" opacity="0.35"/>
<rect x="563.25" y="340.00" width="2.75" height="40" fill="#F58518" opacity="0.35"/>
<rect x="566.00" y="340.00" width="2.75" height="40" fill="#F58518" opacity="0.35"/>
<rect x="568.75" y="340.00" width="2.75" height="40" fill="#F58518" opacity="0.35"/>
<rect x="571.50" y="340.00" width="2.75" height="40" fill="#F58518" opacity="0.35"/>
<rect x="574.25" y="340.00" width="2.75" height="40" fill="#F58518" opacity="0.35"/>
<rect x="577.00" y="340.00" width="2.75" height="40" fill="#F58518" opacity="0.35"/>
<rect x="579.75" y="340.00" width="2.75" height="40" fill="#F58518" opacity="0.35"/>
<rect x="582.50" y="340.00" width="2.75" height="40" fill="#F58518" opacity="0.35"/>
<rect x="585.25" y="340.00" width="2.75" height="40" fill="#F58518" opacity="0.35"/>
<rect x="588.00" y="340.00" width="2.75" height="40" fill="#F58518" opacity="0.35"/>
<rect x="590.75" y="340.00" width="2.75" height="40" fill="#F58518" opacity="0.35"/>
<rect x="593.50" y="340.00" width="2.75" height="40" fill="#F58518" opacity="0.35"/>
<rect x="596.25" y="340.00" width="2.75" height="40" fill="#F58518" opacity="0.35"/>
<rect x="599.00" y="340.00" width="2.75" height="40" fill="#F58518" opacity="0.35"/>
<rect x="601.75" y="340.00" width="2.75" height="40" fill="#F58518" opacity="0.35"/>
<rect x="604.50" y="340.00" width="2.75" height="40" fill="#F58518" opacity="0.35"/>
<rect x="607.25" y="340.00" width="2.75" height="40" fill="#F58518" opacity="0.35"/>
<polygon points="60.00,131.53 62.76,126.44 65.53,124.35 68.29,125.06 71.06,128.97 73.82,127.59 76.58,129.33 79.35,134.85 82.11,134.35 84.87,128.69 87.64,126.37 90.40,127.19 93.17,131.60 95.93,141.07 98.69,159.44 101.46,163.69 104.22,174.11 106.98,194.81 109.75,199.23 112.51,210.47 115.28,210.07 118.04,198.95 120.80,194.45 123.57,195.06 126.33,184.19 129.10,151.20 131.86,132.76 134.62,122.87 137.39,118.36 140.15,118.01 142.91,121.62 145.68,131.10 148.44,151.12 151.21,190.49 153.97,269.81 156.73,280.85 159.50,278.12 162.26,252.88 165.03,240.94 167.79,236.65 170.55,238.45 173.32,247.32 176.08,268.04 178.84,265.63 181.61,224.45 184.37,205.26 187.14,197.41 189.90,196.36 192.66,201.87 195.43,216.61 198.19,249.28 200.95,245.49 203.72,166.42 206.48,128.62 209.25,110.64 212.01,102.47 214.77,99.58 217.54,100.37 220.30,105.13 223.07,116.53 225.83,140.80 228.59,191.05 231.36,294.16 234.12,293.32 236.88,296.98 239.65,307.12 242.41,288.18 245.18,280.17 247.94,278.45 250.70,281.99 253.47,176.42 256.23,126.03 258.99,101.82 261.76,90.24 264.52,84.95 267.29,83.06 270.05,83.48 272.81,86.42 275.58,93.45 278.34,108.15 281.11,137.64 283.87,197.37 286.63,318.77 289.40,318.56 292.16,319.97 294.92,318.89 297.69,319.26 300.45,243.99 303.22,208.40 305.98,191.95 308.74,185.42 311.51,185.62 314.27,192.46 317.04,209.48 319.80,245.14 322.56,317.10 325.33,309.16 328.09,306.21 330.85,306.65 333.62,310.65 336.38,319.99 339.15,320.00 341.91,316.29 344.67,315.26 347.44,316.34 350.20,319.99 352.96,319.43 355.73,319.99 358.49,318.34 361.26,318.35 364.02,320.00 366.78,319.43 369.55,319.99 372.31,316.55 375.08,315.56 377.84,316.58 380.60,319.96 383.37,313.35 386.13,310.63 388.89,310.61 391.66,313.38 394.42,320.00 397.19,320.00 399.95,318.46 402.71,318.47 405.48,320.00 408.24,320.00 411.01,320.00 413.77,320.00 416.53,320.00 419.30,320.00 422.06,320.00 424.82,320.00 427.59,319.36 430.35,320.00 433.12,320.00 435.88,314.93 438.64,313.53 441.41,314.96 444.17,320.00 446.93,320.00 449.70,320.00 452.46,319.33 455.23,320.00 457.99,320.00 460.75,320.00 463.52,320.00 466.28,320.00 469.05,319.33 471.81,320.00 474.57,319.33 477.34,319.99 480.10,317.76 482.86,317.76 485.63,319.99 488.39,319.27 491.16,319.97 493.92,313.47 496.68,311.88 499.45,313.65 502.21,319.99 504.97,320.00 507.74,319.27 510.50,320.00 513.27,319.31 516.03,320.00 518.79,320.00 521.56,320.00 524.32,320.00 527.09,320.00 529.85,319.30 532.61,320.00 535.38,319.99 538.14,317.48 540.90,317.48 543.67,319.99 546.43,320.00 549.20,320.00 551.96,320.00 554.72,320.00 557.49,319.30 560.25,320.00 563.02,319.98 565.78,317.51 568.54,317.50 571.31,319.99 574.07,320.00 576.83,319.97 579.60,312.89 582.36,311.21 585.13,313.11 587.89,319.97 590.65,320.00 593.42,320.00 596.18,320.00 598.94,320.00 601.71,320.00 604.47,320.00 607.24,320.00 610.00,319.92 610.00,320.00 607.24,320.00 604.47,320.00 601.71,320.00 598.94,320.00 596.18,320.00 593.42,320.00 590.65,320.00 587.89,320.00 585.13,320.00 582.36,320.00 579.60,320.00 576.83,320.00 574.07,320.00 571.31,320.00 568.54,320.00 565.78,320.00 563.02,320.00 560.25,320.00 557.49,320.00 554.72,320.00 551.96,320.00 549.20,320.00 546.43,320.00 543.67,320.00 540.90,320.00 538.14,320.00 535.38,320.00 532.61,320.00 529.85,320.00 527.09,320.00 524.32,320.00 521.56,320.00 518.79,320.00 516.03,320.00 513.27,320.00 510.50,320.00 507.74,320.00 504.97,320.00 502.21,320.00 499.45,320.00 496.68,320.00 493.92,320.00 491.16,320.00 488.39,320.00 485.63,320.00 482.86,320.00 480.10,320.00 477.34,320.00 474.57,320.00 471.81,320.00 469.05,320.00 466.28,320.00 463.52,320.00 460.75,320.00 457.99,320.00 455.23,320.00 452.46,320.00 449.70,320.00 446.93,320.00 444.17,320.00 441.41,320.00 438.64,320.00 435.88,320.00 433.12,320.00 430.35,320.00 427.59,320.00 424.82,320.00 422.06,320.00 419.30,320.00 416.53,320.00 413.77,320.00 411.01,320.00 408.24,320.00 405.48,320.00 402.71,320.00 399.95,320.00 397.19,320.00 394.42,320.00 391.66,320.00 388.89,320.00 386.13,320.00 383.37,320.00 380.60,320.00 377.84,320.00 375.08,320.00 372.31,320.00 369.55,320.00 366.78,320.00 364.02,320.00 361.26,320.00 358.49,320.00 355.73,320.00 352.96,320.00 350.20,320.00 347.44,320.00 344.67,320.00 341.91,320.00 339.15,320.00 336.38,320.00 333.62,320.00 330.85,320.00 328.09,320.00 325.33,320.00 322.56,320.00 319.80,320.00 317.04,320.00 314.27,320.00 311.51,320.00 308.74,320.00 305.98,320.00 303.22,320.00 300.45,320.00 297.69,320.00 294.92,320.00 292.16,320.00 289.40,320.00 286.63,320.00 283.87,320.00 281.11,320.00 278.34,320.00 275.58,320.00 272.81,320.00 270.05,320.00 267.29,320.00 264.52,320.00 261.76,320.00 258.99,320.00 256.23,320.00 253.47,320.00 250.70,320.00 247.94,320.00 245.18,320.00 242.41,320.00 239.65,320.00 236.88,320.00 234.12,320.00 231.36,320.00 228.59,320.00 225.83,320.00 223.07,320.00 220.30,320.00 217.54,320.00 214.77,320.00 212.01,320.00 209.25,320.00 206.48,320.00 203.72,320.00 200.95,320.00 198.19,320.00 195.43,320.00 192.66,320.00 189.90,320.00 187.14,320.00 184.37,320.00 181.61,320.00 178.84,320.00 176.08,320.00 173.32,320.00 170.55,320.00 167.79,320.00 165.03,320.00 162.26,320.00 159.50,320.00 156.73,320.00 153.97,320.00 151.21,320.00 148.44,320.00 145.68,320.00 142.91,320.00 140.15,320.00 137.39,320.00 134.62,320.00 131.86,320.00 129.10,320.00 126.33,320.00 123.57,320.00 120.80,320.00 118.04,320.00 115.28,320.00 112.51,320.00 109.75,320.00 106.98,320.00 104.22,320.00 101.46,320.00 98.69,320.00 95.93,320.00 93.17,320.00 90.40,320.00 87.64,320.00 84.87,320.00 82.11,320.00 79.35,320.00 76.58,320.00 73.82,320.00 71.06,320.00 68.29,320.00 65.53,320.00 62.76,320.00 60.00,320.00" fill="#4C78A8" opacity="0.45" stroke="none"/>
<polyline fill="none" stroke="#4C78A8" stroke-width="1.5" points="60.00,131.53 62.76,126.44 65.53,124.35 68.29,125.06 71.06,128.97 73.82,127.59 76.58,129.33 79.35,134.85 82.11,134.35 84.87,128.69 87.64,126.37 90.40,127.19 93.17,131.60 95.93,141.07 98.69,159.44 101.46,163.69 104.22,174.11 106.98,194.81 109.75,199.23 112.51,210.47 115.28,210.07 118.04,198.95 120.80,194.45 123.57,195.06 126.33,184.19 129.10,151.20 131.86,132.76 134.62,122.87 137.39,118.36 140.15,118.01 142.91,121.62 145.68,131.10 148.44,151.12 151.21,190.49 153.97,269.81 156.73,280.85 159.50,278.12 162.26,252.88 165.03,240.94 167.79,236.65 170.55,238.45 173.32,247.32 176.08,268.04 178.84,265.63 181.61,224.45 184.37,205.26 187.14,197.41 189.90,196.36 192.66,201.87 195.43,216.61 198.19,249.28 200.95,245.49 203.72,166.42 206.48,128.62 209.25,110.64 212.01,102.47 214.77,99.58 217.54,100.37 220.30,105.13 223.07,116.53 225.83,140.80 228.59,191.05 231.36,294.16 234.12,293.32 236.88,296.98 239.65,307.12 242.41,288.18 245.18,280.17 247.94,278.45 250.70,281.99 253.47,176.42 256.23,126.03 258.99,101.82 261.76,90.24 264.52,84.95 267.29,83.06 270.05,83.48 272.81,86.42 275.58,93.45 278.34,108.15 281.11,137.64 283.87,197.37 286.63,318.77 289.40,318.56 292.16,319.97 294.92,318.89 297.69,319.26 300.45,243.99 303.22,208.40 305.98,191.95 308.74,185.42 311.51,185.62 314.27,192.46 317.04,209.48 319.80,245.14 322.56,317.10 325.33,309.16 328.09,306.21 330.85,306.65 333.62,310.65 336.38,319.99 339.15,320.00 341.91,316.29 344.67,315.26 347.44,316.34 350.20,319.99 352.96,319.43 355.73,319.99 358.49,318.34 361.26,318.35 364.02,320.00 366.78,319.43 369.55,319.99 372.31,316.55 375.08,315.56 377.84,316.58 380.60,319.96 383.37,313.35 386.13,310.63 388.89,310.61 391.66,313.38 394.42,320.00 397.19,320.00 399.95,318.46 402.71,318.47 405.48,320.00 408.24,320.00 411.01,320.00 413.77,320.00 416.53,320.00 419.30,320.00 422.06,320.00 424.82,320.00 427.59,319.36 430.35,320.00 433.12,320.00 435.88,314.93 438.64,313.53 441.41,314.96 444.17,320.00 446.93,320.00 449.70,320.00 452.46,319.33 455.23,320.00 457.99,320.00 460.75,320.00 463.52,320.00 466.28,320.00 469.05,319.33 471.81,320.00 474.57,319.33 477.34,319.99 480.10,317.76 482.86,317.76 485.63,319.99 488.39,319.27 491.16,319.97 493.92,313.47 496.68,311.88 499.45,313.65 502.21,319.99 504.97,320.00 507.74,319.27 510.50,320.00 513.27,319.31 516.03,320.00 518.79,320.00 521.56,320.00 524.32,320.00 527.09,320.00 529.85,319.30 532.61,320.00 535.38,319.99 538.14,317.48 540.90,317.48 543.67,319.99 546.43,320.00 549.20,320.00 551.96,320.00 554.72,320.00 557.49,319.30 560.25,320.00 563.02,319.98 565.78,317.51 568.54,317.50 571.31,319.99 574.07,320.00 576.83,319.97 579.60,312.89 582.36,311.21 585.13,313.11 587.89,319.97 590.65,320.00 593.42,320.00 596.18,320.00 598.94,320.00 601.71,320.00 604.47,320.00 607.24,320.00 610.00,319.92"/>
<polygon points="60.00,70.00 62.76,70.00 65.53,70.00 68.29,70.00 71.06,70.00 73.82,70.00 76.58,70.00 79.35,70.00 82.11,70.00 84.87,70.00 87.64,70.00 90.40,70.00 93.17,70.00 95.93,70.00 98.69,70.00 101.46,70.00 104.22,70.00 106.98,70.00 109.75,70.00 112.51,70.00 115.28,70.00 118.04,70.00 120.80,70.00 123.57,70.00 126.33,70.00 129.10,70.00 131.86,70.00 134.62,70.00 137.39,70.00 140.15,70.00 142.91,70.00 145.68,70.00 148.44,70.00 151.21,70.00 153.97,70.00 156.73,70.00 159.50,70.00 162.26,70.00 165.03,70.00 167.79,70.00 170.55,70.00 173.32,70.00 176.08,70.00 178.84,70.00 181.61,70.00 184.37,70.00 187.14,70.00 189.90,70.00 192.66,70.00 195.43,70.00 198.19,70.00 200.95,70.00 203.72,70.00 206.48,70.00 209.25,70.00 212.01,70.00 214.77,70.00 217.54,70.00 220.30,70.00 223.07,70.00 225.83,70.00 228.59,70.00 231.36,70.00 234.12,70.00 236.88,70.00 239.65,70.00 242.41,70.00 245.18,70.00 247.94,70.00 250.70,70.00 253.47,70.00 256.23,70.00 258.99,70.00 261.76,70.00 264.52,70.00 267.29,70.00 270.05,70.00 272.81,70.00 275.58,70.00 278.34,70.00 281.11,70.00 283.87,70.00 286.63,70.00 289.40,70.00 292.16,70.00 294.92,70.00 297.69,70.00 300.45,70.00 303.22,70.00 305.98,70.00 308.74,70.00 311.51,70.00 314.27,70.00 317.04,70.00 319.80,70.00 322.56,70.00 325.33,70.00 328.09,70.00 330.85,70.00 333.62,70.00 336.38,70.00 339.15,70.00 341.91,70.00 344.67,70.00 347.44,70.00 350.20,70.00 352.96,70.00 355.73,70.00 358.49,70.00 361.26,70.00 364.02,70.00 366.78,70.00 369.55,70.00 372.31,70.00 375.08,70.00 377.84,70.00 380.60,70.00 383.37,70.00 386.13,70.00 388.89,70.00 391.66,70.00 394.42,70.00 397.19,70.00 399.95,70.00 402.71,70.00 405.48,70.00 408.24,70.00 411.01,70.00 413.77,70.00 416.53,70.00 419.30,70.00 422.06,70.00 424.82,70.00 427.59,70.00 430.35,70.00 433.12,70.00 435.88,70.00 438.64,70.00 441.41,70.00 444.17,70.00 446.93,70.00 449.70,70.00 452.46,70.00 455.23,70.00 457.99,70.00 460.75,70.00 463.52,70.00 466.28,70.00 469.05,70.00 471.81,70.00 474.57,70.00 477.34,70.00 480.10,70.00 482.86,70.00 485.63,70.00 488.39,70.00 491.16,70.00 493.92,70.00 496.68,70.00 499.45,70.00 502.21,70.00 504.97,70.00 507.74,70.00 510.50,70.00 513.27,70.00 516.03,70.00 518.79,70.00 521.56,70.00 524.32,70.00 527.09,70.00 529.85,70.00 532.61,70.00 535.38,70.00 538.14,70.00 540.90,70.00 543.67,70.00 546.43,70.00 549.20,70.00 551.96,70.00 554.72,70.00 557.49,70.00 560.25,70.00 563.02,70.00 565.78,70.00 568.54,70.00 571.31,70.00 574.07,70.00 576.83,70.00 579.60,70.00 582.36,70.00 585.13,70.00 587.89,70.00 590.65,70.00 593.42,70.00 596.18,70.00 598.94,70.00 601.71,70.00 604.47,70.00 607.24,70.00 610.00,70.00 610.00,319.92 607.24,320.00 604.47,320.00 601.71,320.00 598.94,320.00 596.18,320.00 593.42,320.00 590.65,320.00 587.89,319.97 585.13,313.11 582.36,311.21 579.60,312.89 576.83,319.97 574.07,320.00 571.31,319.99 568.54,317.50 565.78,317.51 563.02,319.98 560.25,320.00 557.49,319.30 554.72,320.00 551.96,320.00 549.20,320.00 546.43,320.00 543.67,319.99 540.90,317.48 538.14,317.48 535.38,319.99 532.61,320.00 529.85,319.30 527.09,320.00 524.32,320.00 521.56,320.00 518.79,320.00 516.03,320.00 513.27,319.31 510.50,320.00 507.74,319.27 504.97,320.00 502.21,319.99 499.45,313.65 496.68,311.88 493.92,313.47 491.16,319.97 488.39,319.27 485.63,319.99 482.86,317.76 480.10,317.76 477.34,319.99 474.57,319.33 471.81,320.00 469.05,319.33 466.28,320.00 463.52,320.00 460.75,320.00 457.99,320.00 455.23,320.00 452.46,319.33 449.70,320.00 446.93,320.00 444.17,320.00 441.41,314.96 438.64,313.53 435.88,314.93 433.12,320.00 430.35,320.00 427.59,319.36 424.82,320.00 422.06,320.00 419.30,320.00 416.53,320.00 413.77,320.00 411.01,320.00 408.24,320.00 405.48,320.00 402.71,318.47 399.95,318.46 397.19,320.00 394.42,320.00 391.66,313.38 388.89,310.61 386.13,310.63 383.37,313.35 380.60,319.96 377.84,316.58 375.08,315.56 372.31,316.55 369.55,319.99 366.78,319.43 364.02,320.00 361.26,318.35 358.49,318.34 355.73,319.99 352.96,319.43 350.20,319.99 347.44,316.34 344.67,315.26 341.91,316.29 339.15,320.00 336.38,319.99 333.62,310.65 330.85,306.65 328.09,306.21 325.33,309.16 322.56,317.10 319.80,245.14 317.04,209.48 314.27,192.46 311.51,185.62 308.74,185.42 305.98,191.95 303.22,208.40 300.45,243.99 297.69,319.26 294.92,318.89 292.16,319.97 289.40,318.56 286.63,318.77 283.87,197.37 281.11,137.64 278.34,108.15 275.58,93.45 272.81,86.42 270.05,83.48 267.29,83.06 264.52,84.95 261.76,90.24 258.99,101.82 256.23,126.03 253.47,176.42 250.70,281.99 247.94,278.45 245.18,280.17 242.41,288.18 239.65,307.12 236.88,296.98 234.12,293.32 231.36,294.16 228.59,191.05 225.83,140.80 223.07,116.53 220.30,105.13 217.54,100.37 214.77,99.58 212.01,102.47 209.25,110.64 206.48,128.62 203.72,166.42 200.95,245.49 198.19,249.28 195.43,216.61 192.66,201.87 189.90,196.36 187.14,197.41 184.37,205.26 181.61,224.45 178.84,265.63 176.08,268.04 173.32,247.32 170.55,238.45 167.79,236.65 165.03,240.94 162.26,252.88 159.50,278.12 156.73,280.85 153.97,269.81 151.21,190.49 148.44,151.12 145.68,131.10 142.91,121.62 140.15,118.01 137.39,118.36 134.62,122.87 131.86,132.76 129.10,151.20 126.33,184.19 123.57,195.06 120.80,194.45 118.04,198.95 115.28,210.07 112.51,210.47 109.75,199.23 106.98,194.81 104.22,174.11 101.46,163.69 98.69,159.44 95.93,141.07 93.17,131.60 90.40,127.19 87.64,126.37 84.87,128.69 82.11,134.35 79.35,134.85 76.58,129.33 73.82,127.59 71.06,128.97 68.29,125.06 65.53,124.35 62.76,126.44 60.00,131.53" fill="#F58518" opacity="0.45" stroke="none"/>
<polyline fill="none" stroke="#F58518" stroke-width="1.5" points="60.00,70.00 62.76,70.00 65.53,70.00 68.29,70.00 71.06,70.00 73.82,70.00 76.58,70.00 79.35,70.00 82.11,70.00 84.87,70.00 87.64,70.00 90.40,70.00 93.17,70.00 95.93,70.00 98.69,70.00 101.46,70.00 104.22,70.00 106.98,70.00 109.75,70.00 112.51,70.00 115.28,70.00 118.04,70.00 120.80,70.00 123.57,70.00 126.33,70.00 129.10,70.00 131.86,70.00 134.62,70.00 137.39,70.00 140.15,70.00 142.91,70.00 145.68,70.00 148.44,70.00 151.21,70.00 153.97,70.00 156.73,70.00 159.50,70.00 162.26,70.00 165.03,70.00 167.79,70.00 170.55,70.00 173.32,70.00 176.08,70.00 178.84,70.00 181.61,70.00 184.37,70.00 187.14,70.00 189.90,70.00 192.66,70.00 195.43,70.00 198.19,70.00 200.95,70.00 203.72,70.00 206.48,70.00 209.25,70.00 212.01,70.00 214.77,70.00 217.54,70.00 220.30,70.00 223.07,70.00 225.83,70.00 228.59,70.00 231.36,70.00 234.12,70.00 236.88,70.00 239.65,70.00 242.41,70.00 245.18,70.00 247.94,70.00 250.70,70.00 253.47,70.00 256.23,70.00 258.99,70.00 261.76,70.00 264.52,70.00 267.29,70.00 270.05,70.00 272.81,70.00 275.58,70.00 278.34,70.00 281.11,70.00 283.87,70.00 286.63,70.00 289.40,70.00 292.16,70.00 294.92,70.00 297.69,70.00 300.45,70.00 303.22,70.00 305.98,70.00 308.74,70.00 311.51,70.00 314.27,70.00 317.04,70.00 319.80,70.00 322.56,70.00 325.33,70.00 328.09,70.00 330.85,70.00 333.62,70.00 336.38,70.00 339.15,70.00 341.91,70.00 344.67,70.00 347.44,70.00 350.20,70.00 352.96,70.00 355.73,70.00 358.49,70.00 361.26,70.00 364.02,70.00 366.78,70.00 369.55,70.00 372.31,70.00 375.08,70.00 377.84,70.00 380.60,70.00 383.37,70.00 386.13,70.00 388.89,70.00 391.66,70.00 394.42,70.00 397.19,70.00 399.95,70.00 402.71,70.00 405.48,70.00 408.24,70.00 411.01,70.00 413.77,70.00 416.53,70.00 419.30,70.00 422.06,70.00 424.82,70.00 427.59,70.00 430.35,70.00 433.12,70.00 435.88,70.00 438.64,70.00 441.41,70.00 444.17,70.00 446.93,70.00 449.70,70.00 452.46,70.00 455.23,70.00 457.99,70.00 460.75,70.00 463.52,70.00 466.28,70.00 469.05,70.00 471.81,70.00 474.57,70.00 477.34,70.00 480.10,70.00 482.86,70.00 485.63,70.00 488.39,70.00 491.16,70.00 493.92,70.00 496.68,70.00 499.45,70.00 502.21,70.00 504.97,70.00 507.74,70.00 510.50,70.00 513.27,70.00 516.03,70.00 518.79,70.00 521.56,70.00 524.32,70.00 527.09,70.00 529.85,70.00 532.61,70.00 535.38,70.00 538.14,70.00 540.90,70.00 543.67,70.00 546.43,70.00 549.20,70.00 551.96,70.00 554.72,70.00 557.49,70.00 560.25,70.00 563.02,70.00 565.78,70.00 568.54,70.00 571.31,70.00 574.07,70.00 576.83,70.00 579.60,70.00 582.36,70.00 585.13,70.00 587.89,70.00 590.65,70.00 593.42,70.00 596.18,70.00 598.94,70.00 601.71,70.00 604.47,70.00 607.24,70.00 610.00,70.00"/>
<rect x="470" y="80" width="12" height="12" fill="#4C78A8" opacity="0.8"/>
<text x="488" y="90" font-size="11" font-family="sans-serif">State 1</text>
<rect x="470" y="98" width="12" height="12" fill="#F58518" opacity="0.8"/>
<text x="488" y="108" font-size="11" font-family="sans-serif">State 2</text>
<text x="320.0" y="408" text-anchor="middle" font-size="12" font-family="sans-serif">Trial index</text>
</svg>