<svg xmlns="http://www.w3.org/2000/svg" width="640" height="360">
<rect x="0" y="0" width="100%" height="100%" fill="#ffffff"/>
<text x="320.0" y="24" text-anchor="middle" font-size="16" font-family="sans-serif">Trial-history regression (choice)</text>
<text x="35.0" y="180.0" transform="rotate(-90 35.0,180.0)" text-anchor="middle" font-size="12" font-family="sans-serif">Coefficient</text>
<line x1="70" y1="310" x2="620" y2="310" stroke="#000"/>
<line x1="70" y1="40" x2="70" y2="310" stroke="#000"/>
<line x1="70" y1="310.00" x2="620" y2="310.00" stroke="#e0e0e0" stroke-dasharray="4 4"/>
<text x="60" y="314.00" text-anchor="end" font-size="11" font-family="sans-serif">-0.189</text>
<line x1="70" y1="242.50" x2="620" y2="242.50" stroke="#e0e0e0" stroke-dasharray="4 4"/>
<text x="60" y="246.50" text-anchor="end" font-size="11" font-family="sans-serif">0.232</text>
<line x1="70" y1="175.00" x2="620" y2="175.00" stroke="#e0e0e0" stroke-dasharray="4 4"/>
<text x="60" y="179.00" text-anchor="end" font-size="11" font-family="sans-serif">0.652</text>
<line x1="70" y1="107.50" x2="620" y2="107.50" stroke="#e0e0e0" stroke-dasharray="4 4"/>
<text x="60" y="111.50" text-anchor="end" font-size="11" font-family="sans-serif">1.07</text>
<line x1="70" y1="40.00" x2="620" y2="40.00" stroke="#e0e0e0" stroke-dasharray="4 4"/>
<text x="60" y="44.00" text-anchor="end" font-size="11" font-family="sans-serif">1.49</text>
<polyline fill="none" stroke="#4C78A8" stroke-width="2" points="70.00,218.05 207.50,253.65 345.00,251.79 482.50,174.19 620.00,165.55"/>
<circle cx="70.00" cy="218.05" r="3" fill="#4C78A8"/>
<circle cx="207.50" cy="253.65" r="3" fill="#4C78A8"/>
<circle cx="345.00" cy="251.79" r="3" fill="#4C78A8"/>
<circle cx="482.50" cy="174.19" r="3" fill="#4C78A8"/>
<circle cx="620.00" cy="165.55" r="3" fill="#4C78A8"/>
<polyline fill="none" stroke="#F58518" stroke-width="2" points="70.00,40.00 207.50,122.25 345.00,141.91 482.50,147.71 620.00,149.62"/>
<circle cx="70.00" cy="40.00" r="3" fill="#F58518"/>
<circle cx="207.50" cy="122.25" r="3" fill="#F58518"/>
<circle cx="345.00" cy="141.91" r="3" fill="#F58518"/>
<circle cx="482.50" cy="147.71" r="3" fill="#F58518"/>
<circle cx="620.00" cy="149.62" r="3" fill="#F58518"/>
<polyline fill="none" stroke="#54A24B" stroke-width="2" points="70.00,64.81 207.50,90.69 345.00,42.22 482.50,310.00 620.00,194.43"/>
<circle cx="70.00" cy="64.81" r="3" fill="#54A24B"/>
<circle cx="207.50" cy="90.69" r="3" fill="#54A24B"/>
<circle cx="345.00" cy="42.22" r="3" fill="#54A24B"/>
<circle cx="482.50" cy="310.00" r="3" fill="#54A24B"/>
<circle cx="620.00" cy="194.43" r="3" fill="#54A24B"/>
<rect x="80" y="50" width="12" height="12" fill="#4C78A8"/>
<text x="98" y="60" font-size="11" font-family="sans-serif">Observed</text>
<rect x="80" y="68" width="12" height="12" fill="#F58518"/>
<text x="98" y="78" font-size="11" font-family="sans-serif">Hmm Moa</text>
<rect x="80" y="86" width="12" height="12" fill="#54A24B"/>
<text x="98" y="96" font-size="11" font-family="sans-serif">Hmm Tinyrnn</text>
<text x="70.00" y="328" text-anchor="middle" font-size="11" font-family="sans-serif">lag 1</text>
<text x="207.50" y="328" text-anchor="middle" font-size="11" font-family="sans-serif">lag 2</text>
<text x="345.00" y="328" text-anchor="middle" font-size="11" font-family="sans-serif">lag 3</text>
<text x="482.50" y="328" text-anchor="middle" font-size="11" font-family="sans-serif">lag 4</text>
<text x="620.00" y="328" text-anchor="middle" font-size="11" font-family="sans-serif">lag 5</text>
</svg>