<svg xmlns="http://www.w3.org/2000/svg" width="820" height="320">
<rect x="0" y="0" width="100%" height="100%" fill="#ffffff"/>
<text x="410" y="24" text-anchor="middle" font-size="16" font-family="sans-serif">Synthetic Trace Overview</text>
<text x="70" y="65.0" text-anchor="end" font-size="12" font-family="sans-serif">Latent phase</text>
<rect x="80.00" y="40" width="9.00" height="34" fill="#4C78A8" stroke="#ffffff" stroke-width="0.5"/>
<rect x="89.00" y="40" width="9.00" height="34" fill="#4C78A8" stroke="#ffffff" stroke-width="0.5"/>
<rect x="98.00" y="40" width="9.00" height="34" fill="#4C78A8" stroke="#ffffff" stroke-width="0.5"/>
<rect x="107.00" y="40" width="9.00" height="34" fill="#4C78A8" stroke="#ffffff" stroke-width="0.5"/>
<rect x="116.00" y="40" width="9.00" height="34" fill="#4C78A8" stroke="#ffffff" stroke-width="0.5"/>
<rect x="125.00" y="40" width="9.00" height="34" fill="#4C78A8" stroke="#ffffff" stroke-width="0.5"/>
<rect x="134.00" y="40" width="9.00" height="34" fill="#4C78A8" stroke="#ffffff" stroke-width="0.5"/>
<rect x="143.00" y="40" width="9.00" height="34" fill="#4C78A8" stroke="#ffffff" stroke-width="0.5"/>
<rect x="152.00" y="40" width="9.00" height="34" fill="#4C78A8" stroke="#ffffff" stroke-width="0.5"/>
<rect x="161.00" y="40" width="9.00" height="34" fill="#4C78A8" stroke="#ffffff" stroke-width="0.5"/>
<rect x="170.00" y="40" width="9.00" height="34" fill="#4C78A8" stroke="#ffffff" stroke-width="0.5"/>
<rect x="179.00" y="40" width="9.00" height="34" fill="#4C78A8" stroke="#ffffff" stroke-width="0.5"/>
<rect x="188.00" y="40" width="9.00" height="34" fill="#4C78A8" stroke="#ffffff" stroke-width="0.5"/>
<rect x="197.00" y="40" width="9.00" height="34" fill="#4C78A8" stroke="#ffffff" stroke-width="0.5"/>
<rect x="206.00" y="40" width="9.00" height="34" fill="#4C78A8" stroke="#ffffff" stroke-width="0.5"/>
<rect x="215.00" y="40" width="9.00" height="34" fill="#4C78A8" stroke="#ffffff" stroke-width="0.5"/>
<rect x="224.00" y="40" width="9.00" height="34" fill="#4C78A8" stroke="#ffffff" stroke-width="0.5"/>
<rect x="233.00" y="40" width="9.00" height="34" fill="#4C78A8" stroke="#ffffff" stroke-width="0.5"/>
<rect x="242.00" y="40" width="9.00" height="34" fill="#4C78A8" stroke="#ffffff" stroke-width="0.5"/>
<rect x="251.00" y="40" width="9.00" height="34" fill="#4C78A8" stroke="#ffffff" stroke-width="0.5"/>
<rect x="260.00" y="40" width="9.00" height="34" fill="#4C78A8" stroke="#ffffff" stroke-width="0.5"/>
<rect x="269.00" y="40" width="9.00" height="34" fill="#4C78A8" stroke="#ffffff" stroke-width="0.5"/>
<rect x="278.00" y="40" width="9.00" height="34" fill="#4C78A8" stroke="#ffffff" stroke-width="0.5"/>
<rect x="287.00" y="40" width="9.00" height="34" fill="#4C78A8" stroke="#ffffff" stroke-width="0.5"/>
<rect x="296.00" y="40" width="9.00" height="34" fill="#4C78A8" stroke="#ffffff" stroke-width="0.5"/>
<rect x="305.00" y="40" width="9.00" height="34" fill="#4C78A8" stroke="#ffffff" stroke-width="0.5"/>
<rect x="314.00" y="40" width="9.00" height="34" fill="#4C78A8" stroke="#ffffff" stroke-width="0.5"/>
<rect x="323.00" y="40" width="9.00" height="34" fill="#4C78A8" stroke="#ffffff" stroke-width="0.5"/>
<rect x="332.00" y="40" width="9.00" height="34" fill="#4C78A8" stroke="#ffffff" stroke-width="0.5"/>
<rect x="341.00" y="40" width="9.00" height="34" fill="#4C78A8" stroke="#ffffff" stroke-width="0.5"/>
<rect x="350.00" y="40" width="9.00" height="34" fill="#4C78A8" stroke="#ffffff" stroke-width="0.5"/>
<rect x="359.00" y="40" width="9.00" height="34" fill="#4C78A8" stroke="#ffffff" stroke-width="0.5"/>
<rect x="368.00" y="40" width="9.00" height="34" fill="#4C78A8" stroke="#ffffff" stroke-width="0.5"/>
<rect x="377.00" y="40" width="9.00" height="34" fill="#4C78A8" stroke="#ffffff" stroke-width="0.5"/>
<rect x="386.00" y="40" width="9.00" height="34" fill="#4C78A8" stroke="#ffffff" stroke-width="0.5"/>
<rect x="395.00" y="40" width="9.00" height="34" fill="#4C78A8" stroke="#ffffff" stroke-width="0.5"/>
<rect x="404.00" y="40" width="9.00" height="34" fill="#4C78A8" stroke="#ffffff" stroke-width="0.5"/>
<rect x="413.00" y="40" width="9.00" height="34" fill="#4C78A8" stroke="#ffffff" stroke-width="0.5"/>
<rect x="422.00" y="40" width="9.00" height="34" fill="#4C78A8" stroke="#ffffff" stroke-width="0.5"/>
<rect x="431.00" y="40" width="9.00" height="34" fill="#4C78A8" stroke="#ffffff" stroke-width="0.5"/>
<rect x="440.00" y="40" width="9.00" height="34" fill="#4C78A8" stroke="#ffffff" stroke-width="0.5"/>
<rect x="449.00" y="40" width="9.00" height="34" fill="#4C78A8" stroke="#ffffff" stroke-width="0.5"/>
<rect x="458.00" y="40" width="9.00" height="34" fill="#4C78A8" stroke="#ffffff" stroke-width="0.5"/>
<rect x="467.00" y="40" width="9.00" height="34" fill="#4C78A8" stroke="#ffffff" stroke-width="0.5"/>
<rect x="476.00" y="40" width="9.00" height="34" fill="#4C78A8" stroke="#ffffff" stroke-width="0.5"/>
<rect x="485.00" y="40" width="9.00" height="34" fill="#4C78A8" stroke="#ffffff" stroke-width="0.5"/>
<rect x="494.00" y="40" width="9.00" height="34" fill="#4C78A8" stroke="#ffffff" stroke-width="0.5"/>
<rect x="503.00" y="40" width="9.00" height="34" fill="#4C78A8" stroke="#ffffff" stroke-width="0.5"/>
<rect x="512.00" y="40" width="9.00" height="34" fill="#4C78A8" stroke="#ffffff" stroke-width="0.5"/>
<rect x="521.00" y="40" width="9.00" height="34" fill="#4C78A8" stroke="#ffffff" stroke-width="0.5"/>
<rect x="530.00" y="40" width="9.00" height="34" fill="#4C78A8" stroke="#ffffff" stroke-width="0.5"/>
<rect x="539.00" y="40" width="9.00" height="34" fill="#4C78A8" stroke="#ffffff" stroke-width="0.5"/>
<rect x="548.00" y="40" width="9.00" height="34" fill="#4C78A8" stroke="#ffffff" stroke-width="0.5"/>
<rect x="557.00" y="40" width="9.00" height="34" fill="#4C78A8" stroke="#ffffff" stroke-width="0.5"/>
<rect x="566.00" y="40" width="9.00" height="34" fill="#4C78A8" stroke="#ffffff" stroke-width="0.5"/>
<rect x="575.00" y="40" width="9.00" height="34" fill="#4C78A8" stroke="#ffffff" stroke-width="0.5"/>
<rect x="584.00" y="40" width="9.00" height="34" fill="#4C78A8" stroke="#ffffff" stroke-width="0.5"/>
<rect x="593.00" y="40" width="9.00" height="34" fill="#4C78A8" stroke="#ffffff" stroke-width="0.5"/>
<rect x="602.00" y="40" width="9.00" height="34" fill="#4C78A8" stroke="#ffffff" stroke-width="0.5"/>
<rect x="611.00" y="40" width="9.00" height="34" fill="#4C78A8" stroke="#ffffff" stroke-width="0.5"/>
<rect x="620.00" y="40" width="9.00" height="34" fill="#4C78A8" stroke="#ffffff" stroke-width="0.5"/>
<rect x="629.00" y="40" width="9.00" height="34" fill="#4C78A8" stroke="#ffffff" stroke-width="0.5"/>
<rect x="638.00" y="40" width="9.00" height="34" fill="#4C78A8" stroke="#ffffff" stroke-width="0.5"/>
<rect x="647.00" y="40" width="9.00" height="34" fill="#4C78A8" stroke="#ffffff" stroke-width="0.5"/>
<rect x="656.00" y="40" width="9.00" height="34" fill="#4C78A8" stroke="#ffffff" stroke-width="0.5"/>
<rect x="665.00" y="40" width="9.00" height="34" fill="#4C78A8" stroke="#ffffff" stroke-width="0.5"/>
<rect x="674.00" y="40" width="9.00" height="34" fill="#4C78A8" stroke="#ffffff" stroke-width="0.5"/>
<rect x="683.00" y="40" width="9.00" height="34" fill="#4C78A8" stroke="#ffffff" stroke-width="0.5"/>
<rect x="692.00" y="40" width="9.00" height="34" fill="#4C78A8" stroke="#ffffff" stroke-width="0.5"/>
<rect x="701.00" y="40" width="9.00" height="34" fill="#4C78A8" stroke="#ffffff" stroke-width="0.5"/>
<rect x="710.00" y="40" width="9.00" height="34" fill="#4C78A8" stroke="#ffffff" stroke-width="0.5"/>
<rect x="719.00" y="40" width="9.00" height="34" fill="#4C78A8" stroke="#ffffff" stroke-width="0.5"/>
<rect x="728.00" y="40" width="9.00" height="34" fill="#4C78A8" stroke="#ffffff" stroke-width="0.5"/>
<rect x="737.00" y="40" width="9.00" height="34" fill="#4C78A8" stroke="#ffffff" stroke-width="0.5"/>
<rect x="746.00" y="40" width="9.00" height="34" fill="#4C78A8" stroke="#ffffff" stroke-width="0.5"/>
<rect x="755.00" y="40" width="9.00" height="34" fill="#4C78A8" stroke="#ffffff" stroke-width="0.5"/>
<rect x="764.00" y="40" width="9.00" height="34" fill="#4C78A8" stroke="#ffffff" stroke-width="0.5"/>
<rect x="773.00" y="40" width="9.00" height="34" fill="#4C78A8" stroke="#ffffff" stroke-width="0.5"/>
<rect x="782.00" y="40" width="9.00" height="34" fill="#4C78A8" stroke="#ffffff" stroke-width="0.5"/>
<rect x="791.00" y="40" width="9.00" height="34" fill="#4C78A8" stroke="#ffffff" stroke-width="0.5"/>
<text x="70" y="105.0" text-anchor="end" font-size="12" font-family="sans-serif">Action</text>
<rect x="80.00" y="80" width="9.00" height="34" fill="#F58518" stroke="#ffffff" stroke-width="0.5"/>
<rect x="89.00" y="80" width="9.00" height="34" fill="#F58518" stroke="#ffffff" stroke-width="0.5"/>
<rect x="98.00" y="80" width="9.00" height="34" fill="#4C78A8" stroke="#ffffff" stroke-width="0.5"/>
<rect x="107.00" y="80" width="9.00" height="34" fill="#4C78A8" stroke="#ffffff" stroke-width="0.5"/>
<rect x="116.00" y="80" width="9.00" height="34" fill="#4C78A8" stroke="#ffffff" stroke-width="0.5"/>
<rect x="125.00" y="80" width="9.00" height="34" fill="#4C78A8" stroke="#ffffff" stroke-width="0.5"/>
<rect x="134.00" y="80" width="9.00" height="34" fill="#4C78A8" stroke="#ffffff" stroke-width="0.5"/>
<rect x="143.00" y="80" width="9.00" height="34" fill="#F58518" stroke="#ffffff" stroke-width="0.5"/>
<rect x="152.00" y="80" width="9.00" height="34" fill="#F58518" stroke="#ffffff" stroke-width="0.5"/>
<rect x="161.00" y="80" width="9.00" height="34" fill="#4C78A8" stroke="#ffffff" stroke-width="0.5"/>
<rect x="170.00" y="80" width="9.00" height="34" fill="#4C78A8" stroke="#ffffff" stroke-width="0.5"/>
<rect x="179.00" y="80" width="9.00" height="34" fill="#4C78A8" stroke="#ffffff" stroke-width="0.5"/>
<rect x="188.00" y="80" width="9.00" height="34" fill="#F58518" stroke="#ffffff" stroke-width="0.5"/>
<rect x="197.00" y="80" width="9.00" height="34" fill="#F58518" stroke="#ffffff" stroke-width="0.5"/>
<rect x="206.00" y="80" width="9.00" height="34" fill="#4C78A8" stroke="#ffffff" stroke-width="0.5"/>
<rect x="215.00" y="80" width="9.00" height="34" fill="#4C78A8" stroke="#ffffff" stroke-width="0.5"/>
<rect x="224.00" y="80" width="9.00" height="34" fill="#4C78A8" stroke="#ffffff" stroke-width="0.5"/>
<rect x="233.00" y="80" width="9.00" height="34" fill="#4C78A8" stroke="#ffffff" stroke-width="0.5"/>
<rect x="242.00" y="80" width="9.00" height="34" fill="#F58518" stroke="#ffffff" stroke-width="0.5"/>
<rect x="251.00" y="80" width="9.00" height="34" fill="#4C78A8" stroke="#ffffff" stroke-width="0.5"/>
<rect x="260.00" y="80" width="9.00" height="34" fill="#4C78A8" stroke="#ffffff" stroke-width="0.5"/>
<rect x="269.00" y="80" width="9.00" height="34" fill="#4C78A8" stroke="#ffffff" stroke-width="0.5"/>
<rect x="278.00" y="80" width="9.00" height="34" fill="#4C78A8" stroke="#ffffff" stroke-width="0.5"/>
<rect x="287.00" y="80" width="9.00" height="34" fill="#4C78A8" stroke="#ffffff" stroke-width="0.5"/>
<rect x="296.00" y="80" width="9.00" height="34" fill="#F58518" stroke="#ffffff" stroke-width="0.5"/>
<rect x="305.00" y="80" width="9.00" height="34" fill="#4C78A8" stroke="#ffffff" stroke-width="0.5"/>
<rect x="314.00" y="80" width="9.00" height="34" fill="#4C78A8" stroke="#ffffff" stroke-width="0.5"/>
<rect x="323.00" y="80" width="9.00" height="34" fill="#4C78A8" stroke="#ffffff" stroke-width="0.5"/>
<rect x="332.00" y="80" width="9.00" height="34" fill="#4C78A8" stroke="#ffffff" stroke-width="0.5"/>
<rect x="341.00" y="80" width="9.00" height="34" fill="#4C78A8" stroke="#ffffff" stroke-width="0.5"/>
<rect x="350.00" y="80" width="9.00" height="34" fill="#4C78A8" stroke="#ffffff" stroke-width="0.5"/>
<rect x="359.00" y="80" width="9.00" height="34" fill="#4C78A8" stroke="#ffffff" stroke-width="0.5"/>
<rect x="368.00" y="80" width="9.00" height="34" fill="#4C78A8" stroke="#ffffff" stroke-width="0.5"/>
<rect x="377.00" y="80" width="9.00" height="34" fill="#4C78A8" stroke="#ffffff" stroke-width="0.5"/>
<rect x="386.00" y="80" width="9.00" height="34" fill="#4C78A8" stroke="#ffffff" stroke-width="0.5"/>
<rect x="395.00" y="80" width="9.00" height="34" fill="#4C78A8" stroke="#ffffff" stroke-width="0.5"/>
<rect x="404.00" y="80" width="9.00" height="34" fill="#4C78A8" stroke="#ffffff" stroke-width="0.5"/>
<rect x="413.00" y="80" width="9.00" height="34" fill="#4C78A8" stroke="#ffffff" stroke-width="0.5"/>
<rect x="422.00" y="80" width="9.00" height="34" fill="#4C78A8" stroke="#ffffff" stroke-width="0.5"/>
<rect x="431.00" y="80" width="9.00" height="34" fill="#4C78A8" stroke="#ffffff" stroke-width="0.5"/>
<rect x="440.00" y="80" width="9.00" height="34" fill="#4C78A8" stroke="#ffffff" stroke-width="0.5"/>
<rect x="449.00" y="80" width="9.00" height="34" fill="#F58518" stroke="#ffffff" stroke-width="0.5"/>
<rect x="458.00" y="80" width="9.00" height="34" fill="#F58518" stroke="#ffffff" stroke-width="0.5"/>
<rect x="467.00" y="80" width="9.00" height="34" fill="#4C78A8" stroke="#ffffff" stroke-width="0.5"/>
<rect x="476.00" y="80" width="9.00" height="34" fill="#4C78A8" stroke="#ffffff" stroke-width="0.5"/>
<rect x="485.00" y="80" width="9.00" height="34" fill="#4C78A8" stroke="#ffffff" stroke-width="0.5"/>
<rect x="494.00" y="80" width="9.00" height="34" fill="#4C78A8" stroke="#ffffff" stroke-width="0.5"/>
<rect x="503.00" y="80" width="9.00" height="34" fill="#F58518" stroke="#ffffff" stroke-width="0.5"/>
<rect x="512.00" y="80" width="9.00" height="34" fill="#4C78A8" stroke="#ffffff" stroke-width="0.5"/>
<rect x="521.00" y="80" width="9.00" height="34" fill="#4C78A8" stroke="#ffffff" stroke-width="0.5"/>
<rect x="530.00" y="80" width="9.00" height="34" fill="#4C78A8" stroke="#ffffff" stroke-width="0.5"/>
<rect x="539.00" y="80" width="9.00" height="34" fill="#4C78A8" stroke="#ffffff" stroke-width="0.5"/>
<rect x="548.00" y="80" width="9.00" height="34" fill="#4C78A8" stroke="#ffffff" stroke-width="0.5"/>
<rect x="557.00" y="80" width="9.00" height="34" fill="#4C78A8" stroke="#ffffff" stroke-width="0.5"/>
<rect x="566.00" y="80" width="9.00" height="34" fill="#4C78A8" stroke="#ffffff" stroke-width="0.5"/>
<rect x="575.00" y="80" width="9.00" height="34" fill="#4C78A8" stroke="#ffffff" stroke-width="0.5"/>
<rect x="584.00" y="80" width="9.00" height="34" fill="#4C78A8" stroke="#ffffff" stroke-width="0.5"/>
<rect x="593.00" y="80" width="9.00" height="34" fill="#4C78A8" stroke="#ffffff" stroke-width="0.5"/>
<rect x="602.00" y="80" width="9.00" height="34" fill="#4C78A8" stroke="#ffffff" stroke-width="0.5"/>
<rect x="611.00" y="80" width="9.00" height="34" fill="#4C78A8" stroke="#ffffff" stroke-width="0.5"/>
<rect x="620.00" y="80" width="9.00" height="34" fill="#4C78A8" stroke="#ffffff" stroke-width="0.5"/>
<rect x="629.00" y="80" width="9.00" height="34" fill="#4C78A8" stroke="#ffffff" stroke-width="0.5"/>
<rect x="638.00" y="80" width="9.00" height="34" fill="#4C78A8" stroke="#ffffff" stroke-width="0.5"/>
<rect x="647.00" y="80" width="9.00" height="34" fill="#4C78A8" stroke="#ffffff" stroke-width="0.5"/>
<rect x="656.00" y="80" width="9.00" height="34" fill="#4C78A8" stroke="#ffffff" stroke-width="0.5"/>
<rect x="665.00" y="80" width="9.00" height="34" fill="#F58518" stroke="#ffffff" stroke-width="0.5"/>
<rect x="674.00" y="80" width="9.00" height="34" fill="#4C78A8" stroke="#ffffff" stroke-width="0.5"/>
<rect x="683.00" y="80" width="9.00" height="34" fill="#F58518" stroke="#ffffff" stroke-width="0.5"/>
<rect x="692.00" y="80" width="9.00" height="34" fill="#4C78A8" stroke="#ffffff" stroke-width="0.5"/>
<rect x="701.00" y="80" width="9.00" height="34" fill="#4C78A8" stroke="#ffffff" stroke-width="0.5"/>
<rect x="710.00" y="80" width="9.00" height="34" fill="#4C78A8" stroke="#ffffff" stroke-width="0.5"/>
<rect x="719.00" y="80" width="9.00" height="34" fill="#F58518" stroke="#ffffff" stroke-width="0.5"/>
<rect x="728.00" y="80" width="9.00" height="34" fill="#4C78A8" stroke="#ffffff" stroke-width="0.5"/>
<rect x="737.00" y="80" width="9.00" height="34" fill="#4C78A8" stroke="#ffffff" stroke-width="0.5"/>
<rect x="746.00" y="80" width="9.00" height="34" fill="#4C78A8" stroke="#ffffff" stroke-width="0.5"/>
<rect x="755.00" y="80" width="9.00" height="34" fill="#4C78A8" stroke="#ffffff" stroke-width="0.5"/>
<rect x="764.00" y="80" width="9.00" height="34" fill="#4C78A8" stroke="#ffffff" stroke-width="0.5"/>
<rect x="773.00" y="80" width="9.00" height="34" fill="#4C78A8" stroke="#ffffff" stroke-width="0.5"/>
<rect x="782.00" y="80" width="9.00" height="34" fill="#F58518" stroke="#ffffff" stroke-width="0.5"/>
<rect x="791.00" y="80" width="9.00" height="34" fill="#4C78A8" stroke="#ffffff" stroke-width="0.5"/>
<text x="70" y="145.0" text-anchor="end" font-size="12" font-family="sans-serif">Transition</text>
<rect x="80.00" y="120" width="9.00" height="34" fill="#E45756" stroke="#ffffff" stroke-width="0.5"/>
<rect x="89.00" y="120" width="9.00" height="34" fill="#54A24B" stroke="#ffffff" stroke-width="0.5"/>
<rect x="98.00" y="120" width="9.00" height="34" fill="#54A24B" stroke="#ffffff" stroke-width="0.5"/>
<rect x="107.00" y="120" width="9.00" height="34" fill="#54A24B" stroke="#ffffff" stroke-width="0.5"/>
<rect x="116.00" y="120" width="9.00" height="34" fill="#54A24B" stroke="#ffffff" stroke-width="0.5"/>
<rect x="125.00" y="120" width="9.00" height="34" fill="#54A24B" stroke="#ffffff" stroke-width="0.5"/>
<rect x="134.00" y="120" width="9.00" height="34" fill="#54A24B" stroke="#ffffff" stroke-width="0.5"/>
<rect x="143.00" y="120" width="9.00" height="34" fill="#E45756" stroke="#ffffff" stroke-width="0.5"/>
<rect x="152.00" y="120" width="9.00" height="34" fill="#54A24B" stroke="#ffffff" stroke-width="0.5"/>
<rect x="161.00" y="120" width="9.00" height="34" fill="#E45756" stroke="#ffffff" stroke-width="0.5"/>
<rect x="170.00" y="120" width="9.00" height="34" fill="#54A24B" stroke="#ffffff" stroke-width="0.5"/>
<rect x="179.00" y="120" width="9.00" height="34" fill="#54A24B" stroke="#ffffff" stroke-width="0.5"/>
<rect x="188.00" y="120" width="9.00" height="34" fill="#E45756" stroke="#ffffff" stroke-width="0.5"/>
<rect x="197.00" y="120" width="9.00" height="34" fill="#54A24B" stroke="#ffffff" stroke-width="0.5"/>
<rect x="206.00" y="120" width="9.00" height="34" fill="#54A24B" stroke="#ffffff" stroke-width="0.5"/>
<rect x="215.00" y="120" width="9.00" height="34" fill="#54A24B" stroke="#ffffff" stroke-width="0.5"/>
<rect x="224.00" y="120" width="9.00" height="34" fill="#54A24B" stroke="#ffffff" stroke-width="0.5"/>
<rect x="233.00" y="120" width="9.00" height="34" fill="#54A24B" stroke="#ffffff" stroke-width="0.5"/>
<rect x="242.00" y="120" width="9.00" height="34" fill="#E45756" stroke="#ffffff" stroke-width="0.5"/>
<rect x="251.00" y="120" width="9.00" height="34" fill="#E45756" stroke="#ffffff" stroke-width="0.5"/>
<rect x="260.00" y="120" width="9.00" height="34" fill="#54A24B" stroke="#ffffff" stroke-width="0.5"/>
<rect x="269.00" y="120" width="9.00" height="34" fill="#E45756" stroke="#ffffff" stroke-width="0.5"/>
<rect x="278.00" y="120" width="9.00" height="34" fill="#E45756" stroke="#ffffff" stroke-width="0.5"/>
<rect x="287.00" y="120" width="9.00" height="34" fill="#54A24B" stroke="#ffffff" stroke-width="0.5"/>
<rect x="296.00" y="120" width="9.00" height="34" fill="#54A24B" stroke="#ffffff" stroke-width="0.5"/>
<rect x="305.00" y="120" width="9.00" height="34" fill="#54A24B" stroke="#ffffff" stroke-width="0.5"/>
<rect x="314.00" y="120" width="9.00" height="34" fill="#54A24B" stroke="#ffffff" stroke-width="0.5"/>
<rect x="323.00" y="120" width="9.00" height="34" fill="#E45756" stroke="#ffffff" stroke-width="0.5"/>
<rect x="332.00" y="120" width="9.00" height="34" fill="#54A24B" stroke="#ffffff" stroke-width="0.5"/>
<rect x="341.00" y="120" width="9.00" height="34" fill="#E45756" stroke="#ffffff" stroke-width="0.5"/>
<rect x="350.00" y="120" width="9.00" height="34" fill="#54A24B" stroke="#ffffff" stroke-width="0.5"/>
<rect x="359.00" y="120" width="9.00" height="34" fill="#E45756" stroke="#ffffff" stroke-width="0.5"/>
<rect x="368.00" y="120" width="9.00" height="34" fill="#54A24B" stroke="#ffffff" stroke-width="0.5"/>
<rect x="377.00" y="120" width="9.00" height="34" fill="#54A24B" stroke="#ffffff" stroke-width="0.5"/>
<rect x="386.00" y="120" width="9.00" height="34" fill="#54A24B" stroke="#ffffff" stroke-width="0.5"/>
<rect x="395.00" y="120" width="9.00" height="34" fill="#54A24B" stroke="#ffffff" stroke-width="0.5"/>
<rect x="404.00" y="120" width="9.00" height="34" fill="#54A24B" stroke="#ffffff" stroke-width="0.5"/>
<rect x="413.00" y="120" width="9.00" height="34" fill="#54A24B" stroke="#ffffff" stroke-width="0.5"/>
<rect x="422.00" y="120" width="9.00" height="34" fill="#54A24B" stroke="#ffffff" stroke-width="0.5"/>
<rect x="431.00" y="120" width="9.00" height="34" fill="#54A24B" stroke="#ffffff" stroke-width="0.5"/>
<rect x="440.00" y="120" width="9.00" height="34" fill="#54A24B" stroke="#ffffff" stroke-width="0.5"/>
<rect x="449.00" y="120" width="9.00" height="34" fill="#E45756" stroke="#ffffff" stroke-width="0.5"/>
<rect x="458.00" y="120" width="9.00" height="34" fill="#54A24B" stroke="#ffffff" stroke-width="0.5"/>
<rect x="467.00" y="120" width="9.00" height="34" fill="#54A24B" stroke="#ffffff" stroke-width="0.5"/>
<rect x="476.00" y="120" width="9.00" height="34" fill="#54A24B" stroke="#ffffff" stroke-width="0.5"/>
<rect x="485.00" y="120" width="9.00" height="34" fill="#54A24B" stroke="#ffffff" stroke-width="0.5"/>
<rect x="494.00" y="120" width="9.00" height="34" fill="#54A24B" stroke="#ffffff" stroke-width="0.5"/>
<rect x="503.00" y="120" width="9.00" height="34" fill="#54A24B" stroke="#ffffff" stroke-width="0.5"/>
<rect x="512.00" y="120" width="9.00" height="34" fill="#54A24B" stroke="#ffffff" stroke-width="0.5"/>
<rect x="521.00" y="120" width="9.00" height="34" fill="#54A24B" stroke="#ffffff" stroke-width="0.5"/>
<rect x="530.00" y="120" width="9.00" height="34" fill="#54A24B" stroke="#ffffff" stroke-width="0.5"/>
<rect x="539.00" y="120" width="9.00" height="34" fill="#54A24B" stroke="#ffffff" stroke-width="0.5"/>
<rect x="548.00" y="120" width="9.00" height="34" fill="#54A24B" stroke="#ffffff" stroke-width="0.5"/>
<rect x="557.00" y="120" width="9.00" height="34" fill="#E45756" stroke="#ffffff" stroke-width="0.5"/>
<rect x="566.00" y="120" width="9.00" height="34" fill="#E45756" stroke="#ffffff" stroke-width="0.5"/>
<rect x="575.00" y="120" width="9.00" height="34" fill="#54A24B" stroke="#ffffff" stroke-width="0.5"/>
<rect x="584.00" y="120" width="9.00" height="34" fill="#E45756" stroke="#ffffff" stroke-width="0.5"/>
<rect x="593.00" y="120" width="9.00" height="34" fill="#54A24B" stroke="#ffffff" stroke-width="0.5"/>
<rect x="602.00" y="120" width="9.00" height="34" fill="#54A24B" stroke="#ffffff" stroke-width="0.5"/>
<rect x="611.00" y="120" width="9.00" height="34" fill="#54A24B" stroke="#ffffff" stroke-width="0.5"/>
<rect x="620.00" y="120" width="9.00" height="34" fill="#54A24B" stroke="#ffffff" stroke-width="0.5"/>
<rect x="629.00" y="120" width="9.00" height="34" fill="#54A24B" stroke="#ffffff" stroke-width="0.5"/>
<rect x="638.00" y="120" width="9.00" height="34" fill="#54A24B" stroke="#ffffff" stroke-width="0.5"/>
<rect x="647.00" y="120" width="9.00" height="34" fill="#54A24B" stroke="#ffffff" stroke-width="0.5"/>
<rect x="656.00" y="120" width="9.00" height="34" fill="#E45756" stroke="#ffffff" stroke-width="0.5"/>
<rect x="665.00" y="120" width="9.00" height="34" fill="#E45756" stroke="#ffffff" stroke-width="0.5"/>
<rect x="674.00" y="120" width="9.00" height="34" fill="#54A24B" stroke="#ffffff" stroke-width="0.5"/>
<rect x="683.00" y="120" width="9.00" height="34" fill="#54A24B" stroke="#ffffff" stroke-width="0.5"/>
<rect x="692.00" y="120" width="9.00" height="34" fill="#54A24B" stroke="#ffffff" stroke-width="0.5"/>
<rect x="701.00" y="120" width="9.00" height="34" fill="#54A24B" stroke="#ffffff" stroke-width="0.5"/>
<rect x="710.00" y="120" width="9.00" height="34" fill="#54A24B" stroke="#ffffff" stroke-width="0.5"/>
<rect x="719.00" y="120" width="9.00" height="34" fill="#E45756" stroke="#ffffff" stroke-width="0.5"/>
<rect x="728.00" y="120" width="9.00" height="34" fill="#E45756" stroke="#ffffff" stroke-width="0.5"/>
<rect x="737.00" y="120" width="9.00" height="34" fill="#E45756" stroke="#ffffff" stroke-width="0.5"/>
<rect x="746.00" y="120" width="9.00" height="34" fill="#54A24B" stroke="#ffffff" stroke-width="0.5"/>
<rect x="755.00" y="120" width="9.00" height="34" fill="#54A24B" stroke="#ffffff" stroke-width="0.5"/>
<rect x="764.00" y="120" width="9.00" height="34" fill="#E45756" stroke="#ffffff" stroke-width="0.5"/>
<rect x="773.00" y="120" width="9.00" height="34" fill="#54A24B" stroke="#ffffff" stroke-width="0.5"/>
<rect x="782.00" y="120" width="9.00" height="34" fill="#54A24B" stroke="#ffffff" stroke-width="0.5"/>
<rect x="791.00" y="120" width="9.00" height="34" fill="#54A24B" stroke="#ffffff" stroke-width="0.5"/>
<text x="70" y="185.0" text-anchor="end" font-size="12" font-family="sans-serif">Reward</text>
<rect x="80.00" y="160" width="9.00" height="34" fill="#3b6fb6" stroke="#ffffff" stroke-width="0.5"/>
<rect x="89.00" y="160" width="9.00" height="34" fill="#3b6fb6" stroke="#ffffff" stroke-width="0.5"/>
<rect x="98.00" y="160" width="9.00" height="34" fill="#3b6fb6" stroke="#ffffff" stroke-width="0.5"/>
<rect x="107.00" y="160" width="9.00" height="34" fill="#3b6fb6" stroke="#ffffff" stroke-width="0.5"/>
<rect x="116.00" y="160" width="9.00" height="34" fill="#3b6fb6" stroke="#ffffff" stroke-width="0.5"/>
<rect x="125.00" y="160" width="9.00" height="34" fill="#3b6fb6" stroke="#ffffff" stroke-width="0.5"/>
<rect x="134.00" y="160" width="9.00" height="34" fill="#3b6fb6" stroke="#ffffff" stroke-width="0.5"/>
<rect x="143.00" y="160" width="9.00" height="34" fill="#3b6fb6" stroke="#ffffff" stroke-width="0.5"/>
<rect x="152.00" y="160" width="9.00" height="34" fill="#e6ecf3" stroke="#ffffff" stroke-width="0.5"/>
<rect x="161.00" y="160" width="9.00" height="34" fill="#e6ecf3" stroke="#ffffff" stroke-width="0.5"/>
<rect x="170.00" y="160" width="9.00" height="34" fill="#3b6fb6" stroke="#ffffff" stroke-width="0.5"/>
<rect x="179.00" y="160" width="9.00" height="34" fill="#3b6fb6" stroke="#ffffff" stroke-width="0.5"/>
<rect x="188.00" y="160" width="9.00" height="34" fill="#3b6fb6" stroke="#ffffff" stroke-width="0.5"/>
<rect x="197.00" y="160" width="9.00" height="34" fill="#e6ecf3" stroke="#ffffff" stroke-width="0.5"/>
<rect x="206.00" y="160" width="9.00" height="34" fill="#3b6fb6" stroke="#ffffff" stroke-width="0.5"/>
<rect x="215.00" y="160" width="9.00" height="34" fill="#3b6fb6" stroke="#ffffff" stroke-width="0.5"/>
<rect x="224.00" y="160" width="9.00" height="34" fill="#3b6fb6" stroke="#ffffff" stroke-width="0.5"/>
<rect x="233.00" y="160" width="9.00" height="34" fill="#3b6fb6" stroke="#ffffff" stroke-width="0.5"/>
<rect x="242.00" y="160" width="9.00" height="34" fill="#3b6fb6" stroke="#ffffff" stroke-width="0.5"/>
<rect x="251.00" y="160" width="9.00" height="34" fill="#e6ecf3" stroke="#ffffff" stroke-width="0.5"/>
<rect x="260.00" y="160" width="9.00" height="34" fill="#3b6fb6" stroke="#ffffff" stroke-width="0.5"/>
<rect x="269.00" y="160" width="9.00" height="34" fill="#e6ecf3" stroke="#ffffff" stroke-width="0.5"/>
<rect x="278.00" y="160" width="9.00" height="34" fill="#e6ecf3" stroke="#ffffff" stroke-width="0.5"/>
<rect x="287.00" y="160" width="9.00" height="34" fill="#3b6fb6" stroke="#ffffff" stroke-width="0.5"/>
<rect x="296.00" y="160" width="9.00" height="34" fill="#e6ecf3" stroke="#ffffff" stroke-width="0.5"/>
<rect x="305.00" y="160" width="9.00" height="34" fill="#3b6fb6" stroke="#ffffff" stroke-width="0.5"/>
<rect x="314.00" y="160" width="9.00" height="34" fill="#3b6fb6" stroke="#ffffff" stroke-width="0.5"/>
<rect x="323.00" y="160" width="9.00" height="34" fill="#e6ecf3" stroke="#ffffff" stroke-width="0.5"/>
<rect x="332.00" y="160" width="9.00" height="34" fill="#3b6fb6" stroke="#ffffff" stroke-width="0.5"/>
<rect x="341.00" y="160" width="9.00" height="34" fill="#e6ecf3" stroke="#ffffff" stroke-width="0.5"/>
<rect x="350.00" y="160" width="9.00" height="34" fill="#3b6fb6" stroke="#ffffff" stroke-width="0.5"/>
<rect x="359.00" y="160" width="9.00" height="34" fill="#e6ecf3" stroke="#ffffff" stroke-width="0.5"/>
<rect x="368.00" y="160" width="9.00" height="34" fill="#3b6fb6" stroke="#ffffff" stroke-width="0.5"/>
<rect x="377.00" y="160" width="9.00" height="34" fill="#3b6fb6" stroke="#ffffff" stroke-width="0.5"/>
<rect x="386.00" y="160" width="9.00" height="34" fill="#3b6fb6" stroke="#ffffff" stroke-width="0.5"/>
<rect x="395.00" y="160" width="9.00" height="34" fill="#3b6fb6" stroke="#ffffff" stroke-width="0.5"/>
<rect x="404.00" y="160" width="9.00" height="34" fill="#3b6fb6" stroke="#ffffff" stroke-width="0.5"/>
<rect x="413.00" y="160" width="9.00" height="34" fill="#3b6fb6" stroke="#ffffff" stroke-width="0.5"/>
<rect x="422.00" y="160" width="9.00" height="34" fill="#3b6fb6" stroke="#ffffff" stroke-width="0.5"/>
<rect x="431.00" y="160" width="9.00" height="34" fill="#3b6fb6" stroke="#ffffff" stroke-width="0.5"/>
<rect x="440.00" y="160" width="9.00" height="34" fill="#3b6fb6" stroke="#ffffff" stroke-width="0.5"/>
<rect x="449.00" y="160" width="9.00" height="34" fill="#3b6fb6" stroke="#ffffff" stroke-width="0.5"/>
<rect x="458.00" y="160" width="9.00" height="34" fill="#e6ecf3" stroke="#ffffff" stroke-width="0.5"/>
<rect x="467.00" y="160" width="9.00" height="34" fill="#3b6fb6" stroke="#ffffff" stroke-width="0.5"/>
<rect x="476.00" y="160" width="9.00" height="34" fill="#3b6fb6" stroke="#ffffff" stroke-width="0.5"/>
<rect x="485.00" y="160" width="9.00" height="34" fill="#3b6fb6" stroke="#ffffff" stroke-width="0.5"/>
<rect x="494.00" y="160" width="9.00" height="34" fill="#3b6fb6" stroke="#ffffff" stroke-width="0.5"/>
<rect x="503.00" y="160" width="9.00" height="34" fill="#e6ecf3" stroke="#ffffff" stroke-width="0.5"/>
<rect x="512.00" y="160" width="9.00" height="34" fill="#3b6fb6" stroke="#ffffff" stroke-width="0.5"/>
<rect x="521.00" y="160" width="9.00" height="34" fill="#3b6fb6" stroke="#ffffff" stroke-width="0.5"/>
<rect x="530.00" y="160" width="9.00" height="34" fill="#3b6fb6" stroke="#ffffff" stroke-width="0.5"/>
<rect x="539.00" y="160" width="9.00" height="34" fill="#3b6fb6" stroke="#ffffff" stroke-width="0.5"/>
<rect x="548.00" y="160" width="9.00" height="34" fill="#3b6fb6" stroke="#ffffff" stroke-width="0.5"/>
<rect x="557.00" y="160" width="9.00" height="34" fill="#e6ecf3" stroke="#ffffff" stroke-width="0.5"/>
<rect x="566.00" y="160" width="9.00" height="34" fill="#e6ecf3" stroke="#ffffff" stroke-width="0.5"/>
<rect x="575.00" y="160" width="9.00" height="34" fill="#3b6fb6" stroke="#ffffff" stroke-width="0.5"/>
<rect x="584.00" y="160" width="9.00" height="34" fill="#e6ecf3" stroke="#ffffff" stroke-width="0.5"/>
<rect x="593.00" y="160" width="9.00" height="34" fill="#e6ecf3" stroke="#ffffff" stroke-width="0.5"/>
<rect x="602.00" y="160" width="9.00" height="34" fill="#3b6fb6" stroke="#ffffff" stroke-width="0.5"/>
<rect x="611.00" y="160" width="9.00" height="34" fill="#3b6fb6" stroke="#ffffff" stroke-width="0.5"/>
<rect x="620.00" y="160" width="9.00" height="34" fill="#3b6fb6" stroke="#ffffff" stroke-width="0.5"/>
<rect x="629.00" y="160" width="9.00" height="34" fill="#3b6fb6" stroke="#ffffff" stroke-width="0.5"/>
<rect x="638.00" y="160" width="9.00" height="34" fill="#3b6fb6" stroke="#ffffff" stroke-width="0.5"/>
<rect x="647.00" y="160" width="9.00" height="34" fill="#3b6fb6" stroke="#ffffff" stroke-width="0.5"/>
<rect x="656.00" y="160" width="9.00" height="34" fill="#e6ecf3" stroke="#ffffff" stroke-width="0.5"/>
<rect x="665.00" y="160" width="9.00" height="34" fill="#3b6fb6" stroke="#ffffff" stroke-width="0.5"/>
<rect x="674.00" y="160" width="9.00" height="34" fill="#3b6fb6" stroke="#ffffff" stroke-width="0.5"/>
<rect x="683.00" y="160" width="9.00" height="34" fill="#3b6fb6" stroke="#ffffff" stroke-width="0.5"/>
<rect x="692.00" y="160" width="9.00" height="34" fill="#3b6fb6" stroke="#ffffff" stroke-width="0.5"/>
<rect x="701.00" y="160" width="9.00" height="34" fill="#e6ecf3" stroke="#ffffff" stroke-width="0.5"/>
<rect x="710.00" y="160" width="9.00" height="34" fill="#3b6fb6" stroke="#ffffff" stroke-width="0.5"/>
<rect x="719.00" y="160" width="9.00" height="34" fill="#e6ecf3" stroke="#ffffff" stroke-width="0.5"/>
<rect x="728.00" y="160" width="9.00" height="34" fill="#e6ecf3" stroke="#ffffff" stroke-width="0.5"/>
<rect x="737.00" y="160" width="9.00" height="34" fill="#e6ecf3" stroke="#ffffff" stroke-width="0.5"/>
<rect x="746.00" y="160" width="9.00" height="34" fill="#3b6fb6" stroke="#ffffff" stroke-width="0.5"/>
<rect x="755.00" y="160" width="9.00" height="34" fill="#3b6fb6" stroke="#ffffff" stroke-width="0.5"/>
<rect x="764.00" y="160" width="9.00" height="34" fill="#e6ecf3" stroke="#ffffff" stroke-width="0.5"/>
<rect x="773.00" y="160" width="9.00" height="34" fill="#3b6fb6" stroke="#ffffff" stroke-width="0.5"/>
<rect x="782.00" y="160" width="9.00" height="34" fill="#e6ecf3" stroke="#ffffff" stroke-width="0.5"/>
<rect x="791.00" y="160" width="9.00" height="34" fill="#3b6fb6" stroke="#ffffff" stroke-width="0.5"/>
<line x1="80.00" y1="200" x2="80.00" y2="206" stroke="#000"/>
<text x="80.00" y="222" text-anchor="middle" font-size="11" font-family="sans-serif">t=0</text>
<line x1="152.00" y1="200" x2="152.00" y2="206" stroke="#000"/>
<text x="152.00" y="222" text-anchor="middle" font-size="11" font-family="sans-serif">t=8</text>
<line x1="224.00" y1="200" x2="224.00" y2="206" stroke="#000"/>
<text x="224.00" y="222" text-anchor="middle" font-size="11" font-family="sans-serif">t=16</text>
<line x1="296.00" y1="200" x2="296.00" y2="206" stroke="#000"/>
<text x="296.00" y="222" text-anchor="middle" font-size="11" font-family="sans-serif">t=24</text>
<line x1="368.00" y1="200" x2="368.00" y2="206" stroke="#000"/>
<text x="368.00" y="222" text-anchor="middle" font-size="11" font-family="sans-serif">t=32</text>
<line x1="440.00" y1="200" x2="440.00" y2="206" stroke="#000"/>
<text x="440.00" y="222" text-anchor="middle" font-size="11" font-family="sans-serif">t=40</text>
<line x1="503.00" y1="200" x2="503.00" y2="206" stroke="#000"/>
<text x="503.00" y="222" text-anchor="middle" font-size="11" font-family="sans-serif">t=47</text>
<line x1="575.00" y1="200" x2="575.00" y2="206" stroke="#000"/>
<text x="575.00" y="222" text-anchor="middle" font-size="11" font-family="sans-serif">t=55</text>
<line x1="647.00" y1="200" x2="647.00" y2="206" stroke="#000"/>
<text x="647.00" y="222" text-anchor="middle" font-size="11" font-family="sans-serif">t=63</text>
<line x1="719.00" y1="200" x2="719.00" y2="206" stroke="#000"/>
<text x="719.00" y="222" text-anchor="middle" font-size="11" font-family="sans-serif">t=71</text>
<line x1="791.00" y1="200" x2="791.00" y2="206" stroke="#000"/>
<text x="791.00" y="222" text-anchor="middle" font-size="11" font-family="sans-serif">t=79</text>
<text x="410.0" y="295" text-anchor="middle" font-size="12" font-family="sans-serif">dwell≈120, p_common=0.7, β=3.5, sticky=0.97</text>
</svg>