<svg xmlns="http://www.w3.org/2000/svg" width="640" height="360">
<rect x="0" y="0" width="100%" height="100%" fill="#ffffff"/>
<text x="320.0" y="24" text-anchor="middle" font-size="16" font-family="sans-serif">Trial-history regression (choice)</text>
<text x="35.0" y="180.0" transform="rotate(-90 35.0,180.0)" text-anchor="middle" font-size="12" font-family="sans-serif">Coefficient</text>
<line x1="70" y1="310" x2="620" y2="310" stroke="#000"/>
<line x1="70" y1="40" x2="70" y2="310" stroke="#000"/>
<line x1="70" y1="310.00" x2="620" y2="310.00" stroke="#e0e0e0" stroke-dasharray="4 4"/>
<text x="60" y="314.00" text-anchor="end" font-size="11" font-family="sans-serif">-0.890</text>
<line x1="70" y1="242.50" x2="620" y2="242.50" stroke="#e0e0e0" stroke-dasharray="4 4"/>
<text x="60" y="246.50" text-anchor="end" font-size="11" font-family="sans-serif">-0.081</text>
<line x1="70" y1="175.00" x2="620" y2="175.00" stroke="#e0e0e0" stroke-dasharray="4 4"/>
<text x="60" y="179.00" text-anchor="end" font-size="11" font-family="sans-serif">0.727</text>
<line x1="70" y1="107.50" x2="620" y2="107.50" stroke="#e0e0e0" stroke-dasharray="4 4"/>
<text x="60" y="111.50" text-anchor="end" font-size="11" font-family="sans-serif">1.53</text>
<line x1="70" y1="40.00" x2="620" y2="40.00" stroke="#e0e0e0" stroke-dasharray="4 4"/>
<text x="60" y="44.00" text-anchor="end" font-size="11" font-family="sans-serif">2.34</text>
<polyline fill="none" stroke="#4C78A8" stroke-width="2" points="70.00,203.63 207.50,222.15 345.00,221.18 482.50,180.81 620.00,176.31"/>
<circle cx="70.00" cy="203.63" r="3" fill="#4C78A8"/>
<circle cx="207.50" cy="222.15" r="3" fill="#4C78A8"/>
<circle cx="345.00" cy="221.18" r="3" fill="#4C78A8"/>
<circle cx="482.50" cy="180.81" r="3" fill="#4C78A8"/>
<circle cx="620.00" cy="176.31" r="3" fill="#4C78A8"/>
<polyline fill="none" stroke="#F58518" stroke-width="2" points="70.00,111.00 207.50,153.79 345.00,164.02 482.50,167.03 620.00,168.03"/>
<circle cx="70.00" cy="111.00" r="3" fill="#F58518"/>
<circle cx="207.50" cy="153.79" r="3" fill="#F58518"/>
<circle cx="345.00" cy="164.02" r="3" fill="#F58518"/>
<circle cx="482.50" cy="167.03" r="3" fill="#F58518"/>
<circle cx="620.00" cy="168.03" r="3" fill="#F58518"/>
<polyline fill="none" stroke="#54A24B" stroke-width="2" points="70.00,98.38 207.50,184.08 345.00,310.00 482.50,133.52 620.00,232.76"/>
<circle cx="70.00" cy="98.38" r="3" fill="#54A24B"/>
<circle cx="207.50" cy="184.08" r="3" fill="#54A24B"/>
<circle cx="345.00" cy="310.00" r="3" fill="#54A24B"/>
<circle cx="482.50" cy="133.52" r="3" fill="#54A24B"/>
<circle cx="620.00" cy="232.76" r="3" fill="#54A24B"/>
<polyline fill="none" stroke="#E45756" stroke-width="2" points="70.00,122.21 207.50,143.64 345.00,163.01 482.50,167.81 620.00,147.75"/>
<circle cx="70.00" cy="122.21" r="3" fill="#E45756"/>
<circle cx="207.50" cy="143.64" r="3" fill="#E45756"/>
<circle cx="345.00" cy="163.01" r="3" fill="#E45756"/>
<circle cx="482.50" cy="167.81" r="3" fill="#E45756"/>
<circle cx="620.00" cy="147.75" r="3" fill="#E45756"/>
<polyline fill="none" stroke="#4C78A8" stroke-width="2" points="70.00,40.00 207.50,104.31 345.00,142.82 482.50,168.95 620.00,178.80"/>
<circle cx="70.00" cy="40.00" r="3" fill="#4C78A8"/>
<circle cx="207.50" cy="104.31" r="3" fill="#4C78A8"/>
<circle cx="345.00" cy="142.82" r="3" fill="#4C78A8"/>
<circle cx="482.50" cy="168.95" r="3" fill="#4C78A8"/>
<circle cx="620.00" cy="178.80" r="3" fill="#4C78A8"/>
<polyline fill="none" stroke="#F58518" stroke-width="2" points="70.00,144.69 207.50,144.69 345.00,144.69 482.50,144.69 620.00,144.69"/>
<circle cx="70.00" cy="144.69" r="3" fill="#F58518"/>
<circle cx="207.50" cy="144.69" r="3" fill="#F58518"/>
<circle cx="345.00" cy="144.69" r="3" fill="#F58518"/>
<circle cx="482.50" cy="144.69" r="3" fill="#F58518"/>
<circle cx="620.00" cy="144.69" r="3" fill="#F58518"/>
<polyline fill="none" stroke="#54A24B" stroke-width="2" points="70.00,123.90 207.50,137.37 345.00,112.15 482.50,251.47 620.00,191.34"/>
<circle cx="70.00" cy="123.90" r="3" fill="#54A24B"/>
<circle cx="207.50" cy="137.37" r="3" fill="#54A24B"/>
<circle cx="345.00" cy="112.15" r="3" fill="#54A24B"/>
<circle cx="482.50" cy="251.47" r="3" fill="#54A24B"/>
<circle cx="620.00" cy="191.34" r="3" fill="#54A24B"/>
<rect x="80" y="50" width="12" height="12" fill="#4C78A8"/>
<text x="98" y="60" font-size="11" font-family="sans-serif">Observed</text>
<rect x="80" y="68" width="12" height="12" fill="#F58518"/>
<text x="98" y="78" font-size="11" font-family="sans-serif">Hmm Moa – Model blend</text>
<rect x="80" y="86" width="12" height="12" fill="#54A24B"/>
<text x="98" y="96" font-size="11" font-family="sans-serif">Hmm Moa – Model-free value</text>
<rect x="80" y="104" width="12" height="12" fill="#E45756"/>
<text x="98" y="114" font-size="11" font-family="sans-serif">Hmm Moa – Model-free choice</text>
<rect x="80" y="122" width="12" height="12" fill="#4C78A8"/>
<text x="98" y="132" font-size="11" font-family="sans-serif">Hmm Moa – Model-based</text>
<rect x="80" y="140" width="12" height="12" fill="#F58518"/>
<text x="98" y="150" font-size="11" font-family="sans-serif">Hmm Moa – Bias</text>
<rect x="80" y="158" width="12" height="12" fill="#54A24B"/>
<text x="98" y="168" font-size="11" font-family="sans-serif">Hmm Tinyrnn – Model blend</text>
<text x="70.00" y="328" text-anchor="middle" font-size="11" font-family="sans-serif">lag 1</text>
<text x="207.50" y="328" text-anchor="middle" font-size="11" font-family="sans-serif">lag 2</text>
<text x="345.00" y="328" text-anchor="middle" font-size="11" font-family="sans-serif">lag 3</text>
<text x="482.50" y="328" text-anchor="middle" font-size="11" font-family="sans-serif">lag 4</text>
<text x="620.00" y="328" text-anchor="middle" font-size="11" font-family="sans-serif">lag 5</text>
</svg>