<svg xmlns="http://www.w3.org/2000/svg" width="780" height="320">
<rect x="0" y="0" width="100%" height="100%" fill="#ffffff"/>
<text x="390.0" y="24" text-anchor="middle" font-size="16" font-family="sans-serif">Hmm Moa Posterior</text>
<text x="35.0" y="160.0" transform="rotate(-90 35.0,160.0)" text-anchor="middle" font-size="12" font-family="sans-serif">P(state)</text>
<line x1="70" y1="270" x2="760" y2="270" stroke="#000"/>
<line x1="70" y1="50" x2="70" y2="270" stroke="#000"/>
<rect x="70.00" y="50" width="391.81" height="220" fill="#4C78A8" fill-opacity="0.08" stroke="none"/>
<rect x="461.81" y="50" width="301.66" height="220" fill="#F58518" fill-opacity="0.08" stroke="none"/>
<line x1="70" y1="270.00" x2="760" y2="270.00" stroke="#e0e0e0" stroke-dasharray="4 4"/>
<text x="60" y="274.00" text-anchor="end" font-size="11" font-family="sans-serif">0.00</text>
<line x1="70" y1="215.00" x2="760" y2="215.00" stroke="#e0e0e0" stroke-dasharray="4 4"/>
<text x="60" y="219.00" text-anchor="end" font-size="11" font-family="sans-serif">0.25</text>
<line x1="70" y1="160.00" x2="760" y2="160.00" stroke="#e0e0e0" stroke-dasharray="4 4"/>
<text x="60" y="164.00" text-anchor="end" font-size="11" font-family="sans-serif">0.50</text>
<line x1="70" y1="105.00" x2="760" y2="105.00" stroke="#e0e0e0" stroke-dasharray="4 4"/>
<text x="60" y="109.00" text-anchor="end" font-size="11" font-family="sans-serif">0.75</text>
<line x1="70" y1="50.00" x2="760" y2="50.00" stroke="#e0e0e0" stroke-dasharray="4 4"/>
<text x="60" y="54.00" text-anchor="end" font-size="11" font-family="sans-serif">1.00</text>
<polyline fill="none" stroke="#4C78A8" stroke-width="2.2" points="70.00,157.33 73.47,155.72 76.93,153.02 80.40,151.74 83.87,151.59 87.34,152.33 90.80,153.78 94.27,155.73 97.74,157.17 101.21,157.86 104.67,159.27 108.14,161.29 111.61,163.73 115.08,165.82 118.54,167.29 122.01,169.37 125.48,171.88 128.94,174.65 132.41,177.49 135.88,180.56 139.35,183.94 142.81,187.39 146.28,190.99 149.75,194.80 153.22,198.45 156.68,202.49 160.15,206.35 163.62,209.80 167.09,213.07 170.55,215.89 174.02,218.49 177.49,220.57 180.95,222.41 184.42,223.68 187.89,224.26 191.36,224.06 194.82,223.01 198.29,221.01 201.76,217.93 205.23,213.59 208.69,207.73 212.16,200.02 215.63,199.69 219.10,203.31 222.56,205.81 226.03,207.16 229.50,207.36 232.96,206.37 236.43,210.21 239.90,212.93 243.37,214.55 246.83,215.09 250.30,214.54 253.77,212.87 257.24,210.43 260.70,207.38 264.17,203.21 267.64,198.19 271.11,192.35 274.57,184.92 278.04,175.36 281.51,163.12 284.97,147.57 288.44,127.97 291.91,103.43 295.38,74.74 298.84,69.98 302.31,63.47 305.78,64.64 309.25,64.65 312.71,63.71 316.18,61.64 319.65,63.48 323.12,64.53 326.58,64.88 330.05,64.31 333.52,62.72 336.98,60.27 340.45,56.74 343.92,56.98 347.39,56.43 350.85,59.44 354.32,61.68 357.79,63.23 361.26,63.94 364.72,79.74 368.19,92.53 371.66,102.75 375.13,111.40 378.59,118.79 382.06,125.21 385.53,130.76 388.99,135.06 392.46,138.45 395.93,140.69 399.40,141.79 402.86,141.77 406.33,140.67 409.80,138.45 413.27,135.46 416.73,131.44 420.20,126.28 423.67,119.85 427.14,112.05 430.60,102.72 434.07,92.24 437.54,80.19 441.01,66.31 444.47,50.36 447.94,50.05 451.41,50.10 454.87,50.57 458.34,50.54 461.81,50.02 465.28,50.02 468.74,50.05 472.21,50.14 475.68,50.58 479.15,50.55 482.61,50.05 486.08,50.09 489.55,50.55 493.02,50.54 496.48,50.06 499.95,50.05 503.42,50.58 506.88,50.59 510.35,50.07 513.82,50.02 517.29,50.01 520.75,50.01 524.22,50.01 527.69,50.02 531.16,50.02 534.62,50.03 538.09,50.30 541.56,50.09 545.03,50.03 548.49,50.05 551.96,50.06 555.43,50.30 558.89,50.05 562.36,50.02 565.83,50.05 569.30,50.07 572.76,50.05 576.23,50.07 579.70,50.08 583.17,50.33 586.63,50.05 590.10,50.05 593.57,50.34 597.04,50.08 600.50,50.34 603.97,50.08 607.44,50.11 610.90,50.78 614.37,50.87 617.84,50.34 621.31,50.40 624.77,50.83 628.24,50.75 631.71,50.10 635.18,50.03 638.64,50.03 642.11,50.11 645.58,50.35 649.05,50.10 652.51,50.06 655.98,50.16 659.45,50.44 662.91,50.16 666.38,50.07 669.85,50.05 673.32,50.09 676.78,50.08 680.25,50.11 683.72,50.08 687.19,50.07 690.65,50.08 694.12,50.16 697.59,50.23 701.06,50.60 704.52,50.42 707.99,50.67 711.46,50.35 714.92,50.39 718.39,50.54 721.86,50.80 725.33,50.46 728.79,50.29 732.26,50.30 735.73,50.57 739.20,51.09 742.66,50.95 746.13,51.65 749.60,51.70 753.07,52.90 756.53,57.28 760.00,60.33"/>
<polyline fill="none" stroke="#F58518" stroke-width="2.2" points="70.00,162.67 73.47,164.28 76.93,166.98 80.40,168.26 83.87,168.41 87.34,167.67 90.80,166.22 94.27,164.27 97.74,162.83 101.21,162.14 104.67,160.73 108.14,158.71 111.61,156.27 115.08,154.18 118.54,152.71 122.01,150.63 125.48,148.12 128.94,145.35 132.41,142.51 135.88,139.44 139.35,136.06 142.81,132.61 146.28,129.01 149.75,125.20 153.22,121.55 156.68,117.51 160.15,113.65 163.62,110.20 167.09,106.93 170.55,104.11 174.02,101.51 177.49,99.43 180.95,97.59 184.42,96.32 187.89,95.74 191.36,95.94 194.82,96.99 198.29,98.99 201.76,102.07 205.23,106.41 208.69,112.27 212.16,119.98 215.63,120.31 219.10,116.69 222.56,114.19 226.03,112.84 229.50,112.64 232.96,113.63 236.43,109.79 239.90,107.07 243.37,105.45 246.83,104.91 250.30,105.46 253.77,107.13 257.24,109.57 260.70,112.62 264.17,116.79 267.64,121.81 271.11,127.65 274.57,135.08 278.04,144.64 281.51,156.88 284.97,172.43 288.44,192.03 291.91,216.57 295.38,245.26 298.84,250.02 302.31,256.53 305.78,255.36 309.25,255.35 312.71,256.29 316.18,258.36 319.65,256.52 323.12,255.47 326.58,255.12 330.05,255.69 333.52,257.28 336.98,259.73 340.45,263.26 343.92,263.02 347.39,263.57 350.85,260.56 354.32,258.32 357.79,256.77 361.26,256.06 364.72,240.26 368.19,227.47 371.66,217.25 375.13,208.60 378.59,201.21 382.06,194.79 385.53,189.24 388.99,184.94 392.46,181.55 395.93,179.31 399.40,178.21 402.86,178.23 406.33,179.33 409.80,181.55 413.27,184.54 416.73,188.56 420.20,193.72 423.67,200.15 427.14,207.95 430.60,217.28 434.07,227.76 437.54,239.81 441.01,253.69 444.47,269.64 447.94,269.95 451.41,269.90 454.87,269.43 458.34,269.46 461.81,269.98 465.28,269.98 468.74,269.95 472.21,269.86 475.68,269.42 479.15,269.45 482.61,269.95 486.08,269.91 489.55,269.45 493.02,269.46 496.48,269.94 499.95,269.95 503.42,269.42 506.88,269.41 510.35,269.93 513.82,269.98 517.29,269.99 520.75,269.99 524.22,269.99 527.69,269.98 531.16,269.98 534.62,269.97 538.09,269.70 541.56,269.91 545.03,269.97 548.49,269.95 551.96,269.94 555.43,269.70 558.89,269.95 562.36,269.98 565.83,269.95 569.30,269.93 572.76,269.95 576.23,269.93 579.70,269.92 583.17,269.67 586.63,269.95 590.10,269.95 593.57,269.66 597.04,269.92 600.50,269.66 603.97,269.92 607.44,269.89 610.90,269.22 614.37,269.13 617.84,269.66 621.31,269.60 624.77,269.17 628.24,269.25 631.71,269.90 635.18,269.97 638.64,269.97 642.11,269.89 645.58,269.65 649.05,269.90 652.51,269.94 655.98,269.84 659.45,269.56 662.91,269.84 666.38,269.93 669.85,269.95 673.32,269.91 676.78,269.92 680.25,269.89 683.72,269.92 687.19,269.93 690.65,269.92 694.12,269.84 697.59,269.77 701.06,269.40 704.52,269.58 707.99,269.33 711.46,269.65 714.92,269.61 718.39,269.46 721.86,269.20 725.33,269.54 728.79,269.71 732.26,269.70 735.73,269.43 739.20,268.91 742.66,269.05 746.13,268.35 749.60,268.30 753.07,267.10 756.53,262.72 760.00,259.67"/>
<rect x="80" y="18" width="12" height="12" fill="#4C78A8"/>
<text x="98" y="28" font-size="11" font-family="sans-serif">Phase 0</text>
<rect x="200" y="18" width="12" height="12" fill="#F58518"/>
<text x="218" y="28" font-size="11" font-family="sans-serif">Phase 1</text>
<text x="70.00" y="288" text-anchor="middle" font-size="11" font-family="sans-serif">t=0</text>
<text x="139.35" y="288" text-anchor="middle" font-size="11" font-family="sans-serif">t=20</text>
<text x="208.69" y="288" text-anchor="middle" font-size="11" font-family="sans-serif">t=40</text>
<text x="278.04" y="288" text-anchor="middle" font-size="11" font-family="sans-serif">t=60</text>
<text x="347.39" y="288" text-anchor="middle" font-size="11" font-family="sans-serif">t=80</text>
<text x="416.73" y="288" text-anchor="middle" font-size="11" font-family="sans-serif">t=100</text>
<text x="482.61" y="288" text-anchor="middle" font-size="11" font-family="sans-serif">t=119</text>
<text x="551.96" y="288" text-anchor="middle" font-size="11" font-family="sans-serif">t=139</text>
<text x="621.31" y="288" text-anchor="middle" font-size="11" font-family="sans-serif">t=159</text>
<text x="690.65" y="288" text-anchor="middle" font-size="11" font-family="sans-serif">t=179</text>
<text x="760.00" y="288" text-anchor="middle" font-size="11" font-family="sans-serif">t=199</text>
</svg>