<svg xmlns="http://www.w3.org/2000/svg" width="640" height="360">
<rect x="0" y="0" width="100%" height="100%" fill="#ffffff"/>
<text x="320.0" y="24" text-anchor="middle" font-size="16" font-family="sans-serif">Trial-history regression (reward)</text>
<text x="35.0" y="180.0" transform="rotate(-90 35.0,180.0)" text-anchor="middle" font-size="12" font-family="sans-serif">Coefficient</text>
<line x1="70" y1="310" x2="620" y2="310" stroke="#000"/>
<line x1="70" y1="40" x2="70" y2="310" stroke="#000"/>
<line x1="70" y1="310.00" x2="620" y2="310.00" stroke="#e0e0e0" stroke-dasharray="4 4"/>
<text x="60" y="314.00" text-anchor="end" font-size="11" font-family="sans-serif">-0.598</text>
<line x1="70" y1="242.50" x2="620" y2="242.50" stroke="#e0e0e0" stroke-dasharray="4 4"/>
<text x="60" y="246.50" text-anchor="end" font-size="11" font-family="sans-serif">-0.313</text>
<line x1="70" y1="175.00" x2="620" y2="175.00" stroke="#e0e0e0" stroke-dasharray="4 4"/>
<text x="60" y="179.00" text-anchor="end" font-size="11" font-family="sans-serif">-0.027</text>
<line x1="70" y1="107.50" x2="620" y2="107.50" stroke="#e0e0e0" stroke-dasharray="4 4"/>
<text x="60" y="111.50" text-anchor="end" font-size="11" font-family="sans-serif">0.259</text>
<line x1="70" y1="40.00" x2="620" y2="40.00" stroke="#e0e0e0" stroke-dasharray="4 4"/>
<text x="60" y="44.00" text-anchor="end" font-size="11" font-family="sans-serif">0.544</text>
<polyline fill="none" stroke="#4C78A8" stroke-width="2" points="70.00,99.48 207.50,155.65 345.00,150.30 482.50,108.54 620.00,203.85"/>
<circle cx="70.00" cy="99.48" r="3" fill="#4C78A8"/>
<circle cx="207.50" cy="155.65" r="3" fill="#4C78A8"/>
<circle cx="345.00" cy="150.30" r="3" fill="#4C78A8"/>
<circle cx="482.50" cy="108.54" r="3" fill="#4C78A8"/>
<circle cx="620.00" cy="203.85" r="3" fill="#4C78A8"/>
<polyline fill="none" stroke="#F58518" stroke-width="2" points="70.00,234.01 207.50,266.33 345.00,271.90 482.50,278.81 620.00,283.96"/>
<circle cx="70.00" cy="234.01" r="3" fill="#F58518"/>
<circle cx="207.50" cy="266.33" r="3" fill="#F58518"/>
<circle cx="345.00" cy="271.90" r="3" fill="#F58518"/>
<circle cx="482.50" cy="278.81" r="3" fill="#F58518"/>
<circle cx="620.00" cy="283.96" r="3" fill="#F58518"/>
<polyline fill="none" stroke="#54A24B" stroke-width="2" points="70.00,217.05 207.50,204.87 345.00,224.15 482.50,156.79 620.00,214.18"/>
<circle cx="70.00" cy="217.05" r="3" fill="#54A24B"/>
<circle cx="207.50" cy="204.87" r="3" fill="#54A24B"/>
<circle cx="345.00" cy="224.15" r="3" fill="#54A24B"/>
<circle cx="482.50" cy="156.79" r="3" fill="#54A24B"/>
<circle cx="620.00" cy="214.18" r="3" fill="#54A24B"/>
<polyline fill="none" stroke="#E45756" stroke-width="2" points="70.00,231.80 207.50,245.12 345.00,256.00 482.50,264.58 620.00,253.12"/>
<circle cx="70.00" cy="231.80" r="3" fill="#E45756"/>
<circle cx="207.50" cy="245.12" r="3" fill="#E45756"/>
<circle cx="345.00" cy="256.00" r="3" fill="#E45756"/>
<circle cx="482.50" cy="264.58" r="3" fill="#E45756"/>
<circle cx="620.00" cy="253.12" r="3" fill="#E45756"/>
<polyline fill="none" stroke="#4C78A8" stroke-width="2" points="70.00,220.77 207.50,124.91 345.00,287.08 482.50,287.93 620.00,310.00"/>
<circle cx="70.00" cy="220.77" r="3" fill="#4C78A8"/>
<circle cx="207.50" cy="124.91" r="3" fill="#4C78A8"/>
<circle cx="345.00" cy="287.08" r="3" fill="#4C78A8"/>
<circle cx="482.50" cy="287.93" r="3" fill="#4C78A8"/>
<circle cx="620.00" cy="310.00" r="3" fill="#4C78A8"/>
<polyline fill="none" stroke="#F58518" stroke-width="2" points="70.00,198.23 207.50,196.92 345.00,195.38 482.50,197.37 620.00,199.58"/>
<circle cx="70.00" cy="198.23" r="3" fill="#F58518"/>
<circle cx="207.50" cy="196.92" r="3" fill="#F58518"/>
<circle cx="345.00" cy="195.38" r="3" fill="#F58518"/>
<circle cx="482.50" cy="197.37" r="3" fill="#F58518"/>
<circle cx="620.00" cy="199.58" r="3" fill="#F58518"/>
<polyline fill="none" stroke="#54A24B" stroke-width="2" points="70.00,238.59 207.50,182.83 345.00,73.76 482.50,73.14 620.00,40.00"/>
<circle cx="70.00" cy="238.59" r="3" fill="#54A24B"/>
<circle cx="207.50" cy="182.83" r="3" fill="#54A24B"/>
<circle cx="345.00" cy="73.76" r="3" fill="#54A24B"/>
<circle cx="482.50" cy="73.14" r="3" fill="#54A24B"/>
<circle cx="620.00" cy="40.00" r="3" fill="#54A24B"/>
<rect x="80" y="50" width="12" height="12" fill="#4C78A8"/>
<text x="98" y="60" font-size="11" font-family="sans-serif">Observed</text>
<rect x="80" y="68" width="12" height="12" fill="#F58518"/>
<text x="98" y="78" font-size="11" font-family="sans-serif">Hmm Moa – Model blend</text>
<rect x="80" y="86" width="12" height="12" fill="#54A24B"/>
<text x="98" y="96" font-size="11" font-family="sans-serif">Hmm Moa – Model-free value</text>
<rect x="80" y="104" width="12" height="12" fill="#E45756"/>
<text x="98" y="114" font-size="11" font-family="sans-serif">Hmm Moa – Model-free choice</text>
<rect x="80" y="122" width="12" height="12" fill="#4C78A8"/>
<text x="98" y="132" font-size="11" font-family="sans-serif">Hmm Moa – Model-based</text>
<rect x="80" y="140" width="12" height="12" fill="#F58518"/>
<text x="98" y="150" font-size="11" font-family="sans-serif">Hmm Moa – Bias</text>
<rect x="80" y="158" width="12" height="12" fill="#54A24B"/>
<text x="98" y="168" font-size="11" font-family="sans-serif">Hmm Tinyrnn – Model blend</text>
<text x="70.00" y="328" text-anchor="middle" font-size="11" font-family="sans-serif">lag 1</text>
<text x="207.50" y="328" text-anchor="middle" font-size="11" font-family="sans-serif">lag 2</text>
<text x="345.00" y="328" text-anchor="middle" font-size="11" font-family="sans-serif">lag 3</text>
<text x="482.50" y="328" text-anchor="middle" font-size="11" font-family="sans-serif">lag 4</text>
<text x="620.00" y="328" text-anchor="middle" font-size="11" font-family="sans-serif">lag 5</text>
</svg>