<svg xmlns="http://www.w3.org/2000/svg" width="640" height="360">
<rect x="0" y="0" width="100%" height="100%" fill="#ffffff"/>
<text x="320.0" y="24" text-anchor="middle" font-size="16" font-family="sans-serif">Trial-history regression (choice × reward)</text>
<text x="35.0" y="180.0" transform="rotate(-90 35.0,180.0)" text-anchor="middle" font-size="12" font-family="sans-serif">Coefficient</text>
<line x1="70" y1="310" x2="620" y2="310" stroke="#000"/>
<line x1="70" y1="40" x2="70" y2="310" stroke="#000"/>
<line x1="70" y1="310.00" x2="620" y2="310.00" stroke="#e0e0e0" stroke-dasharray="4 4"/>
<text x="60" y="314.00" text-anchor="end" font-size="11" font-family="sans-serif">-0.658</text>
<line x1="70" y1="242.50" x2="620" y2="242.50" stroke="#e0e0e0" stroke-dasharray="4 4"/>
<text x="60" y="246.50" text-anchor="end" font-size="11" font-family="sans-serif">-0.265</text>
<line x1="70" y1="175.00" x2="620" y2="175.00" stroke="#e0e0e0" stroke-dasharray="4 4"/>
<text x="60" y="179.00" text-anchor="end" font-size="11" font-family="sans-serif">0.129</text>
<line x1="70" y1="107.50" x2="620" y2="107.50" stroke="#e0e0e0" stroke-dasharray="4 4"/>
<text x="60" y="111.50" text-anchor="end" font-size="11" font-family="sans-serif">0.522</text>
<line x1="70" y1="40.00" x2="620" y2="40.00" stroke="#e0e0e0" stroke-dasharray="4 4"/>
<text x="60" y="44.00" text-anchor="end" font-size="11" font-family="sans-serif">0.915</text>
<polyline fill="none" stroke="#4C78A8" stroke-width="2" points="70.00,210.38 207.50,130.33 345.00,202.34 482.50,243.64 620.00,182.50"/>
<circle cx="70.00" cy="210.38" r="3" fill="#4C78A8"/>
<circle cx="207.50" cy="130.33" r="3" fill="#4C78A8"/>
<circle cx="345.00" cy="202.34" r="3" fill="#4C78A8"/>
<circle cx="482.50" cy="243.64" r="3" fill="#4C78A8"/>
<circle cx="620.00" cy="182.50" r="3" fill="#4C78A8"/>
<polyline fill="none" stroke="#F58518" stroke-width="2" points="70.00,149.57 207.50,214.01 345.00,230.98 482.50,232.16 620.00,230.47"/>
<circle cx="70.00" cy="149.57" r="3" fill="#F58518"/>
<circle cx="207.50" cy="214.01" r="3" fill="#F58518"/>
<circle cx="345.00" cy="230.98" r="3" fill="#F58518"/>
<circle cx="482.50" cy="232.16" r="3" fill="#F58518"/>
<circle cx="620.00" cy="230.47" r="3" fill="#F58518"/>
<polyline fill="none" stroke="#54A24B" stroke-width="2" points="70.00,171.90 207.50,233.58 345.00,156.36 482.50,185.57 620.00,244.64"/>
<circle cx="70.00" cy="171.90" r="3" fill="#54A24B"/>
<circle cx="207.50" cy="233.58" r="3" fill="#54A24B"/>
<circle cx="345.00" cy="156.36" r="3" fill="#54A24B"/>
<circle cx="482.50" cy="185.57" r="3" fill="#54A24B"/>
<circle cx="620.00" cy="244.64" r="3" fill="#54A24B"/>
<polyline fill="none" stroke="#E45756" stroke-width="2" points="70.00,151.17 207.50,185.52 345.00,217.43 482.50,221.05 620.00,188.15"/>
<circle cx="70.00" cy="151.17" r="3" fill="#E45756"/>
<circle cx="207.50" cy="185.52" r="3" fill="#E45756"/>
<circle cx="345.00" cy="217.43" r="3" fill="#E45756"/>
<circle cx="482.50" cy="221.05" r="3" fill="#E45756"/>
<circle cx="620.00" cy="188.15" r="3" fill="#E45756"/>
<polyline fill="none" stroke="#4C78A8" stroke-width="2" points="70.00,305.49 207.50,310.00 345.00,136.89 482.50,95.98 620.00,79.83"/>
<circle cx="70.00" cy="305.49" r="3" fill="#4C78A8"/>
<circle cx="207.50" cy="310.00" r="3" fill="#4C78A8"/>
<circle cx="345.00" cy="136.89" r="3" fill="#4C78A8"/>
<circle cx="482.50" cy="95.98" r="3" fill="#4C78A8"/>
<circle cx="620.00" cy="79.83" r="3" fill="#4C78A8"/>
<polyline fill="none" stroke="#F58518" stroke-width="2" points="70.00,175.55 207.50,176.50 345.00,177.63 482.50,176.18 620.00,174.57"/>
<circle cx="70.00" cy="175.55" r="3" fill="#F58518"/>
<circle cx="207.50" cy="176.50" r="3" fill="#F58518"/>
<circle cx="345.00" cy="177.63" r="3" fill="#F58518"/>
<circle cx="482.50" cy="176.18" r="3" fill="#F58518"/>
<circle cx="620.00" cy="174.57" r="3" fill="#F58518"/>
<polyline fill="none" stroke="#54A24B" stroke-width="2" points="70.00,40.00 207.50,94.30 345.00,202.08 482.50,93.86 620.00,163.26"/>
<circle cx="70.00" cy="40.00" r="3" fill="#54A24B"/>
<circle cx="207.50" cy="94.30" r="3" fill="#54A24B"/>
<circle cx="345.00" cy="202.08" r="3" fill="#54A24B"/>
<circle cx="482.50" cy="93.86" r="3" fill="#54A24B"/>
<circle cx="620.00" cy="163.26" r="3" fill="#54A24B"/>
<rect x="80" y="50" width="12" height="12" fill="#4C78A8"/>
<text x="98" y="60" font-size="11" font-family="sans-serif">Observed</text>
<rect x="80" y="68" width="12" height="12" fill="#F58518"/>
<text x="98" y="78" font-size="11" font-family="sans-serif">Hmm Moa – Model blend</text>
<rect x="80" y="86" width="12" height="12" fill="#54A24B"/>
<text x="98" y="96" font-size="11" font-family="sans-serif">Hmm Moa – Model-free value</text>
<rect x="80" y="104" width="12" height="12" fill="#E45756"/>
<text x="98" y="114" font-size="11" font-family="sans-serif">Hmm Moa – Model-free choice</text>
<rect x="80" y="122" width="12" height="12" fill="#4C78A8"/>
<text x="98" y="132" font-size="11" font-family="sans-serif">Hmm Moa – Model-based</text>
<rect x="80" y="140" width="12" height="12" fill="#F58518"/>
<text x="98" y="150" font-size="11" font-family="sans-serif">Hmm Moa – Bias</text>
<rect x="80" y="158" width="12" height="12" fill="#54A24B"/>
<text x="98" y="168" font-size="11" font-family="sans-serif">Hmm Tinyrnn – Model blend</text>
<text x="70.00" y="328" text-anchor="middle" font-size="11" font-family="sans-serif">lag 1</text>
<text x="207.50" y="328" text-anchor="middle" font-size="11" font-family="sans-serif">lag 2</text>
<text x="345.00" y="328" text-anchor="middle" font-size="11" font-family="sans-serif">lag 3</text>
<text x="482.50" y="328" text-anchor="middle" font-size="11" font-family="sans-serif">lag 4</text>
<text x="620.00" y="328" text-anchor="middle" font-size="11" font-family="sans-serif">lag 5</text>
</svg>