<svg xmlns="http://www.w3.org/2000/svg" width="640" height="360">
<rect x="0" y="0" width="640" height="360" fill="#ffffff"/>
<text x="320.0" y="20" text-anchor="middle" font-size="16" font-family="sans-serif">Training Action Accuracy</text>
<text x="30.0" y="180.0" transform="rotate(-90 30.0,180.0)" text-anchor="middle" font-size="12" font-family="sans-serif">Accuracy</text>
<line x1="60" y1="310" x2="620" y2="310" stroke="#000"/>
<line x1="60" y1="30" x2="60" y2="310" stroke="#000"/>
<line x1="60.0" y1="30" x2="60.0" y2="310" stroke="#e0e0e0" stroke-dasharray="4 4"/>
<text x="60.0" y="330" text-anchor="middle" font-size="11" font-family="sans-serif">1</text>
<line x1="174.28571428571428" y1="30" x2="174.28571428571428" y2="310" stroke="#e0e0e0" stroke-dasharray="4 4"/>
<text x="174.28571428571428" y="330" text-anchor="middle" font-size="11" font-family="sans-serif">11</text>
<line x1="288.57142857142856" y1="30" x2="288.57142857142856" y2="310" stroke="#e0e0e0" stroke-dasharray="4 4"/>
<text x="288.57142857142856" y="330" text-anchor="middle" font-size="11" font-family="sans-serif">21</text>
<line x1="391.42857142857144" y1="30" x2="391.42857142857144" y2="310" stroke="#e0e0e0" stroke-dasharray="4 4"/>
<text x="391.42857142857144" y="330" text-anchor="middle" font-size="11" font-family="sans-serif">30</text>
<line x1="505.7142857142857" y1="30" x2="505.7142857142857" y2="310" stroke="#e0e0e0" stroke-dasharray="4 4"/>
<text x="505.7142857142857" y="330" text-anchor="middle" font-size="11" font-family="sans-serif">40</text>
<line x1="620.0" y1="30" x2="620.0" y2="310" stroke="#e0e0e0" stroke-dasharray="4 4"/>
<text x="620.0" y="330" text-anchor="middle" font-size="11" font-family="sans-serif">50</text>
<line x1="60" y1="310.0" x2="620" y2="310.0" stroke="#e0e0e0" stroke-dasharray="4 4"/>
<text x="50" y="314.0" text-anchor="end" font-size="11" font-family="sans-serif">0</text>
<line x1="60" y1="310.0" x2="620" y2="310.0" stroke="#e0e0e0" stroke-dasharray="4 4"/>
<text x="50" y="314.0" text-anchor="end" font-size="11" font-family="sans-serif">0</text>
<line x1="60" y1="310.0" x2="620" y2="310.0" stroke="#e0e0e0" stroke-dasharray="4 4"/>
<text x="50" y="314.0" text-anchor="end" font-size="11" font-family="sans-serif">0</text>
<line x1="60" y1="30.0" x2="620" y2="30.0" stroke="#e0e0e0" stroke-dasharray="4 4"/>
<text x="50" y="34.0" text-anchor="end" font-size="11" font-family="sans-serif">1</text>
<line x1="60" y1="30.0" x2="620" y2="30.0" stroke="#e0e0e0" stroke-dasharray="4 4"/>
<text x="50" y="34.0" text-anchor="end" font-size="11" font-family="sans-serif">1</text>
<polyline fill="none" stroke="#4C78A8" stroke-width="2" points="60.00,157.31 71.43,157.31 82.86,157.23 94.29,157.14 105.71,157.14 117.14,156.88 128.57,156.88 140.00,156.79 151.43,156.79 162.86,156.79 174.29,156.79 185.71,156.79 197.14,156.79 208.57,156.79 220.00,156.88 231.43,156.79 242.86,156.79 254.29,156.79 265.71,156.79 277.14,156.79 288.57,156.70 300.00,156.70 311.43,156.70 322.86,156.70 334.29,156.70 345.71,156.61 357.14,156.70 368.57,156.70 380.00,156.70 391.43,156.70 402.86,156.70 414.29,156.70 425.71,156.70 437.14,156.70 448.57,156.79 460.00,156.79 471.43,156.79 482.86,156.79 494.29,156.79 505.71,156.79 517.14,156.79 528.57,156.79 540.00,156.79 551.43,156.79 562.86,156.70 574.29,156.70 585.71,156.61 597.14,156.61 608.57,156.61 620.00,156.61"/>
<circle cx="60.00" cy="157.31" r="3" fill="#4C78A8"/>
<circle cx="71.43" cy="157.31" r="3" fill="#4C78A8"/>
<circle cx="82.86" cy="157.23" r="3" fill="#4C78A8"/>
<circle cx="94.29" cy="157.14" r="3" fill="#4C78A8"/>
<circle cx="105.71" cy="157.14" r="3" fill="#4C78A8"/>
<circle cx="117.14" cy="156.88" r="3" fill="#4C78A8"/>
<circle cx="128.57" cy="156.88" r="3" fill="#4C78A8"/>
<circle cx="140.00" cy="156.79" r="3" fill="#4C78A8"/>
<circle cx="151.43" cy="156.79" r="3" fill="#4C78A8"/>
<circle cx="162.86" cy="156.79" r="3" fill="#4C78A8"/>
<circle cx="174.29" cy="156.79" r="3" fill="#4C78A8"/>
<circle cx="185.71" cy="156.79" r="3" fill="#4C78A8"/>
<circle cx="197.14" cy="156.79" r="3" fill="#4C78A8"/>
<circle cx="208.57" cy="156.79" r="3" fill="#4C78A8"/>
<circle cx="220.00" cy="156.88" r="3" fill="#4C78A8"/>
<circle cx="231.43" cy="156.79" r="3" fill="#4C78A8"/>
<circle cx="242.86" cy="156.79" r="3" fill="#4C78A8"/>
<circle cx="254.29" cy="156.79" r="3" fill="#4C78A8"/>
<circle cx="265.71" cy="156.79" r="3" fill="#4C78A8"/>
<circle cx="277.14" cy="156.79" r="3" fill="#4C78A8"/>
<circle cx="288.57" cy="156.70" r="3" fill="#4C78A8"/>
<circle cx="300.00" cy="156.70" r="3" fill="#4C78A8"/>
<circle cx="311.43" cy="156.70" r="3" fill="#4C78A8"/>
<circle cx="322.86" cy="156.70" r="3" fill="#4C78A8"/>
<circle cx="334.29" cy="156.70" r="3" fill="#4C78A8"/>
<circle cx="345.71" cy="156.61" r="3" fill="#4C78A8"/>
<circle cx="357.14" cy="156.70" r="3" fill="#4C78A8"/>
<circle cx="368.57" cy="156.70" r="3" fill="#4C78A8"/>
<circle cx="380.00" cy="156.70" r="3" fill="#4C78A8"/>
<circle cx="391.43" cy="156.70" r="3" fill="#4C78A8"/>
<circle cx="402.86" cy="156.70" r="3" fill="#4C78A8"/>
<circle cx="414.29" cy="156.70" r="3" fill="#4C78A8"/>
<circle cx="425.71" cy="156.70" r="3" fill="#4C78A8"/>
<circle cx="437.14" cy="156.70" r="3" fill="#4C78A8"/>
<circle cx="448.57" cy="156.79" r="3" fill="#4C78A8"/>
<circle cx="460.00" cy="156.79" r="3" fill="#4C78A8"/>
<circle cx="471.43" cy="156.79" r="3" fill="#4C78A8"/>
<circle cx="482.86" cy="156.79" r="3" fill="#4C78A8"/>
<circle cx="494.29" cy="156.79" r="3" fill="#4C78A8"/>
<circle cx="505.71" cy="156.79" r="3" fill="#4C78A8"/>
<circle cx="517.14" cy="156.79" r="3" fill="#4C78A8"/>
<circle cx="528.57" cy="156.79" r="3" fill="#4C78A8"/>
<circle cx="540.00" cy="156.79" r="3" fill="#4C78A8"/>
<circle cx="551.43" cy="156.79" r="3" fill="#4C78A8"/>
<circle cx="562.86" cy="156.70" r="3" fill="#4C78A8"/>
<circle cx="574.29" cy="156.70" r="3" fill="#4C78A8"/>
<circle cx="585.71" cy="156.61" r="3" fill="#4C78A8"/>
<circle cx="597.14" cy="156.61" r="3" fill="#4C78A8"/>
<circle cx="608.57" cy="156.61" r="3" fill="#4C78A8"/>
<circle cx="620.00" cy="156.61" r="3" fill="#4C78A8"/>
<polyline fill="none" stroke="#F58518" stroke-width="2" points="60.00,164.66 71.43,164.57 82.86,164.57 94.29,164.57 105.71,164.57 117.14,164.84 128.57,164.84 140.00,164.84 151.43,164.84 162.86,165.19 174.29,165.45 185.71,165.62 197.14,165.71 208.57,166.32 220.00,166.32 231.43,166.32 242.86,165.71 254.29,165.10 265.71,164.93 277.14,164.66 288.57,163.09 300.00,159.59 311.43,154.95 322.86,153.02 334.29,150.31 345.71,147.51 357.14,143.14 368.57,140.77 380.00,138.41 391.43,135.44 402.86,133.16 414.29,131.41 425.71,129.57 437.14,126.86 448.57,125.03 460.00,122.40 471.43,121.52 482.86,119.16 494.29,117.59 505.71,116.62 517.14,115.75 528.57,114.09 540.00,112.77 551.43,111.46 562.86,110.76 574.29,109.63 585.71,108.57 597.14,107.70 608.57,106.04 620.00,104.99"/>
<circle cx="60.00" cy="164.66" r="3" fill="#F58518"/>
<circle cx="71.43" cy="164.57" r="3" fill="#F58518"/>
<circle cx="82.86" cy="164.57" r="3" fill="#F58518"/>
<circle cx="94.29" cy="164.57" r="3" fill="#F58518"/>
<circle cx="105.71" cy="164.57" r="3" fill="#F58518"/>
<circle cx="117.14" cy="164.84" r="3" fill="#F58518"/>
<circle cx="128.57" cy="164.84" r="3" fill="#F58518"/>
<circle cx="140.00" cy="164.84" r="3" fill="#F58518"/>
<circle cx="151.43" cy="164.84" r="3" fill="#F58518"/>
<circle cx="162.86" cy="165.19" r="3" fill="#F58518"/>
<circle cx="174.29" cy="165.45" r="3" fill="#F58518"/>
<circle cx="185.71" cy="165.62" r="3" fill="#F58518"/>
<circle cx="197.14" cy="165.71" r="3" fill="#F58518"/>
<circle cx="208.57" cy="166.32" r="3" fill="#F58518"/>
<circle cx="220.00" cy="166.32" r="3" fill="#F58518"/>
<circle cx="231.43" cy="166.32" r="3" fill="#F58518"/>
<circle cx="242.86" cy="165.71" r="3" fill="#F58518"/>
<circle cx="254.29" cy="165.10" r="3" fill="#F58518"/>
<circle cx="265.71" cy="164.93" r="3" fill="#F58518"/>
<circle cx="277.14" cy="164.66" r="3" fill="#F58518"/>
<circle cx="288.57" cy="163.09" r="3" fill="#F58518"/>
<circle cx="300.00" cy="159.59" r="3" fill="#F58518"/>
<circle cx="311.43" cy="154.95" r="3" fill="#F58518"/>
<circle cx="322.86" cy="153.02" r="3" fill="#F58518"/>
<circle cx="334.29" cy="150.31" r="3" fill="#F58518"/>
<circle cx="345.71" cy="147.51" r="3" fill="#F58518"/>
<circle cx="357.14" cy="143.14" r="3" fill="#F58518"/>
<circle cx="368.57" cy="140.77" r="3" fill="#F58518"/>
<circle cx="380.00" cy="138.41" r="3" fill="#F58518"/>
<circle cx="391.43" cy="135.44" r="3" fill="#F58518"/>
<circle cx="402.86" cy="133.16" r="3" fill="#F58518"/>
<circle cx="414.29" cy="131.41" r="3" fill="#F58518"/>
<circle cx="425.71" cy="129.57" r="3" fill="#F58518"/>
<circle cx="437.14" cy="126.86" r="3" fill="#F58518"/>
<circle cx="448.57" cy="125.03" r="3" fill="#F58518"/>
<circle cx="460.00" cy="122.40" r="3" fill="#F58518"/>
<circle cx="471.43" cy="121.52" r="3" fill="#F58518"/>
<circle cx="482.86" cy="119.16" r="3" fill="#F58518"/>
<circle cx="494.29" cy="117.59" r="3" fill="#F58518"/>
<circle cx="505.71" cy="116.62" r="3" fill="#F58518"/>
<circle cx="517.14" cy="115.75" r="3" fill="#F58518"/>
<circle cx="528.57" cy="114.09" r="3" fill="#F58518"/>
<circle cx="540.00" cy="112.77" r="3" fill="#F58518"/>
<circle cx="551.43" cy="111.46" r="3" fill="#F58518"/>
<circle cx="562.86" cy="110.76" r="3" fill="#F58518"/>
<circle cx="574.29" cy="109.63" r="3" fill="#F58518"/>
<circle cx="585.71" cy="108.57" r="3" fill="#F58518"/>
<circle cx="597.14" cy="107.70" r="3" fill="#F58518"/>
<circle cx="608.57" cy="106.04" r="3" fill="#F58518"/>
<circle cx="620.00" cy="104.99" r="3" fill="#F58518"/>
<rect x="70" y="40" width="12" height="12" fill="#4C78A8"/>
<text x="88" y="50" font-size="11" font-family="sans-serif">Hmm Moa</text>
<rect x="70" y="58" width="12" height="12" fill="#F58518"/>
<text x="88" y="68" font-size="11" font-family="sans-serif">Hmm Tinyrnn</text>
</svg>
