<svg xmlns="http://www.w3.org/2000/svg" width="780" height="320">
<rect x="0" y="0" width="100%" height="100%" fill="#ffffff"/>
<text x="390.0" y="24" text-anchor="middle" font-size="16" font-family="sans-serif">Hmm Tinyrnn Posterior</text>
<text x="35.0" y="160.0" transform="rotate(-90 35.0,160.0)" text-anchor="middle" font-size="12" font-family="sans-serif">P(state)</text>
<line x1="70" y1="270" x2="760" y2="270" stroke="#000"/>
<line x1="70" y1="50" x2="70" y2="270" stroke="#000"/>
<rect x="70.00" y="50" width="391.81" height="220" fill="#4C78A8" fill-opacity="0.08" stroke="none"/>
<rect x="461.81" y="50" width="301.66" height="220" fill="#F58518" fill-opacity="0.08" stroke="none"/>
<line x1="70" y1="270.00" x2="760" y2="270.00" stroke="#e0e0e0" stroke-dasharray="4 4"/>
<text x="60" y="274.00" text-anchor="end" font-size="11" font-family="sans-serif">0.00</text>
<line x1="70" y1="215.00" x2="760" y2="215.00" stroke="#e0e0e0" stroke-dasharray="4 4"/>
<text x="60" y="219.00" text-anchor="end" font-size="11" font-family="sans-serif">0.25</text>
<line x1="70" y1="160.00" x2="760" y2="160.00" stroke="#e0e0e0" stroke-dasharray="4 4"/>
<text x="60" y="164.00" text-anchor="end" font-size="11" font-family="sans-serif">0.50</text>
<line x1="70" y1="105.00" x2="760" y2="105.00" stroke="#e0e0e0" stroke-dasharray="4 4"/>
<text x="60" y="109.00" text-anchor="end" font-size="11" font-family="sans-serif">0.75</text>
<line x1="70" y1="50.00" x2="760" y2="50.00" stroke="#e0e0e0" stroke-dasharray="4 4"/>
<text x="60" y="54.00" text-anchor="end" font-size="11" font-family="sans-serif">1.00</text>
<polyline fill="none" stroke="#4C78A8" stroke-width="2.2" points="70.00,82.30 73.47,74.75 76.93,59.21 80.40,53.60 83.87,51.81 87.34,51.45 90.80,52.04 94.27,54.61 97.74,54.85 101.21,53.23 104.67,52.42 108.14,52.52 111.61,53.90 115.08,53.52 118.54,51.36 122.01,50.62 125.48,50.44 128.94,50.60 132.41,51.38 135.88,50.89 139.35,50.64 142.81,50.71 146.28,50.82 149.75,50.86 153.22,51.15 156.68,50.57 160.15,50.35 163.62,50.35 167.09,50.31 170.55,50.35 174.02,50.31 177.49,50.33 180.95,50.26 184.42,50.19 187.89,50.15 191.36,50.13 194.82,50.13 198.29,50.13 201.76,50.17 205.23,50.31 208.69,50.81 212.16,52.56 215.63,52.53 219.10,50.94 222.56,50.42 226.03,50.29 229.50,50.38 232.96,50.86 236.43,50.36 239.90,50.20 243.37,50.14 246.83,50.13 250.30,50.16 253.77,50.28 257.24,50.38 260.70,50.36 264.17,50.42 267.64,50.39 271.11,50.28 274.57,50.21 278.04,50.16 281.51,50.15 284.97,50.19 288.44,50.32 291.91,50.80 295.38,51.68 298.84,51.39 302.31,51.83 305.78,50.83 309.25,50.64 312.71,50.78 316.18,51.52 319.65,51.23 323.12,51.04 326.58,50.75 330.05,50.65 333.52,50.84 336.98,51.15 340.45,52.06 343.92,51.86 347.39,52.53 350.85,51.96 354.32,51.72 357.79,51.50 361.26,51.71 364.72,50.77 368.19,50.46 371.66,50.46 375.13,50.50 378.59,50.57 382.06,50.52 385.53,50.38 388.99,50.32 392.46,50.23 395.93,50.18 399.40,50.15 402.86,50.14 406.33,50.14 409.80,50.20 413.27,50.18 416.73,50.16 420.20,50.16 423.67,50.22 427.14,50.43 430.60,51.16 434.07,52.59 437.54,56.47 441.01,68.23 444.47,105.94 447.94,122.09 451.41,129.01 454.87,130.86 458.34,141.72 461.81,177.11 465.28,191.43 468.74,197.81 472.21,200.23 475.68,200.00 479.15,203.26 482.61,211.82 486.08,214.75 489.55,214.52 493.02,218.34 496.48,227.45 499.95,231.56 503.42,231.67 506.88,237.54 510.35,253.60 513.82,262.74 517.29,266.90 520.75,268.60 524.22,269.22 527.69,269.35 531.16,269.32 534.62,268.99 538.09,267.98 541.56,268.60 545.03,268.95 548.49,268.96 551.96,268.81 555.43,268.19 558.89,268.96 562.36,269.30 565.83,269.35 569.30,269.29 572.76,269.13 576.23,268.64 579.70,267.64 583.17,265.27 586.63,265.35 590.10,264.01 593.57,259.82 597.04,259.54 600.50,256.58 603.97,257.22 607.44,255.61 610.90,250.06 614.37,249.49 617.84,252.85 621.31,254.23 624.77,254.03 628.24,256.54 631.71,263.16 635.18,266.27 638.64,267.45 642.11,267.56 645.58,267.03 649.05,268.05 652.51,268.40 655.98,268.15 659.45,267.42 662.91,268.53 666.38,269.19 669.85,269.49 673.32,269.58 676.78,269.65 680.25,269.65 683.72,269.67 687.19,269.65 690.65,269.53 694.12,269.13 697.59,268.29 701.06,266.19 704.52,266.32 707.99,265.43 711.46,266.62 714.92,266.82 718.39,266.32 721.86,265.16 725.33,265.75 728.79,265.82 732.26,264.89 735.73,261.99 739.20,256.22 742.66,255.23 746.13,251.01 749.60,250.98 753.07,248.15 756.53,239.82 760.00,238.08"/>
<polyline fill="none" stroke="#F58518" stroke-width="2.2" points="70.00,237.70 73.47,245.25 76.93,260.79 80.40,266.40 83.87,268.19 87.34,268.55 90.80,267.96 94.27,265.39 97.74,265.15 101.21,266.77 104.67,267.58 108.14,267.48 111.61,266.10 115.08,266.48 118.54,268.64 122.01,269.38 125.48,269.56 128.94,269.40 132.41,268.62 135.88,269.11 139.35,269.36 142.81,269.29 146.28,269.18 149.75,269.14 153.22,268.85 156.68,269.43 160.15,269.65 163.62,269.65 167.09,269.69 170.55,269.65 174.02,269.69 177.49,269.67 180.95,269.74 184.42,269.81 187.89,269.85 191.36,269.87 194.82,269.87 198.29,269.87 201.76,269.83 205.23,269.69 208.69,269.19 212.16,267.44 215.63,267.47 219.10,269.06 222.56,269.58 226.03,269.71 229.50,269.62 232.96,269.14 236.43,269.64 239.90,269.80 243.37,269.86 246.83,269.87 250.30,269.84 253.77,269.72 257.24,269.62 260.70,269.64 264.17,269.58 267.64,269.61 271.11,269.72 274.57,269.79 278.04,269.84 281.51,269.85 284.97,269.81 288.44,269.68 291.91,269.20 295.38,268.32 298.84,268.61 302.31,268.17 305.78,269.17 309.25,269.36 312.71,269.22 316.18,268.48 319.65,268.77 323.12,268.96 326.58,269.25 330.05,269.35 333.52,269.16 336.98,268.85 340.45,267.94 343.92,268.14 347.39,267.47 350.85,268.04 354.32,268.28 357.79,268.50 361.26,268.29 364.72,269.23 368.19,269.54 371.66,269.54 375.13,269.50 378.59,269.43 382.06,269.48 385.53,269.62 388.99,269.68 392.46,269.77 395.93,269.82 399.40,269.85 402.86,269.86 406.33,269.86 409.80,269.80 413.27,269.82 416.73,269.84 420.20,269.84 423.67,269.78 427.14,269.57 430.60,268.84 434.07,267.41 437.54,263.53 441.01,251.77 444.47,214.06 447.94,197.91 451.41,190.99 454.87,189.14 458.34,178.28 461.81,142.89 465.28,128.57 468.74,122.19 472.21,119.77 475.68,120.00 479.15,116.74 482.61,108.18 486.08,105.25 489.55,105.48 493.02,101.66 496.48,92.55 499.95,88.44 503.42,88.33 506.88,82.46 510.35,66.40 513.82,57.26 517.29,53.10 520.75,51.40 524.22,50.78 527.69,50.65 531.16,50.68 534.62,51.01 538.09,52.02 541.56,51.40 545.03,51.05 548.49,51.04 551.96,51.19 555.43,51.81 558.89,51.04 562.36,50.70 565.83,50.65 569.30,50.71 572.76,50.87 576.23,51.36 579.70,52.36 583.17,54.73 586.63,54.65 590.10,55.99 593.57,60.18 597.04,60.46 600.50,63.42 603.97,62.78 607.44,64.39 610.90,69.94 614.37,70.51 617.84,67.15 621.31,65.77 624.77,65.97 628.24,63.46 631.71,56.84 635.18,53.73 638.64,52.55 642.11,52.44 645.58,52.97 649.05,51.95 652.51,51.60 655.98,51.85 659.45,52.58 662.91,51.47 666.38,50.81 669.85,50.51 673.32,50.42 676.78,50.35 680.25,50.35 683.72,50.33 687.19,50.35 690.65,50.47 694.12,50.87 697.59,51.71 701.06,53.81 704.52,53.68 707.99,54.57 711.46,53.38 714.92,53.18 718.39,53.68 721.86,54.84 725.33,54.25 728.79,54.18 732.26,55.11 735.73,58.01 739.20,63.78 742.66,64.77 746.13,68.99 749.60,69.02 753.07,71.85 756.53,80.18 760.00,81.92"/>
<rect x="80" y="18" width="12" height="12" fill="#4C78A8"/>
<text x="98" y="28" font-size="11" font-family="sans-serif">Phase 0</text>
<rect x="200" y="18" width="12" height="12" fill="#F58518"/>
<text x="218" y="28" font-size="11" font-family="sans-serif">Phase 1</text>
<text x="70.00" y="288" text-anchor="middle" font-size="11" font-family="sans-serif">t=0</text>
<text x="139.35" y="288" text-anchor="middle" font-size="11" font-family="sans-serif">t=20</text>
<text x="208.69" y="288" text-anchor="middle" font-size="11" font-family="sans-serif">t=40</text>
<text x="278.04" y="288" text-anchor="middle" font-size="11" font-family="sans-serif">t=60</text>
<text x="347.39" y="288" text-anchor="middle" font-size="11" font-family="sans-serif">t=80</text>
<text x="416.73" y="288" text-anchor="middle" font-size="11" font-family="sans-serif">t=100</text>
<text x="482.61" y="288" text-anchor="middle" font-size="11" font-family="sans-serif">t=119</text>
<text x="551.96" y="288" text-anchor="middle" font-size="11" font-family="sans-serif">t=139</text>
<text x="621.31" y="288" text-anchor="middle" font-size="11" font-family="sans-serif">t=159</text>
<text x="690.65" y="288" text-anchor="middle" font-size="11" font-family="sans-serif">t=179</text>
<text x="760.00" y="288" text-anchor="middle" font-size="11" font-family="sans-serif">t=199</text>
</svg>